%TF.GenerationSoftware,KiCad,Pcbnew,8.0.1*%
%TF.CreationDate,2024-07-20T14:45:51-04:00*%
%TF.ProjectId,musubwi,6d757375-6277-4692-9e6b-696361645f70,rev?*%
%TF.SameCoordinates,Original*%
%TF.FileFunction,Copper,L2,Bot*%
%TF.FilePolarity,Positive*%
%FSLAX46Y46*%
G04 Gerber Fmt 4.6, Leading zero omitted, Abs format (unit mm)*
G04 Created by KiCad (PCBNEW 8.0.1) date 2024-07-20 14:45:51*
%MOMM*%
%LPD*%
G01*
G04 APERTURE LIST*
G04 Aperture macros list*
%AMRoundRect*
0 Rectangle with rounded corners*
0 $1 Rounding radius*
0 $2 $3 $4 $5 $6 $7 $8 $9 X,Y pos of 4 corners*
0 Add a 4 corners polygon primitive as box body*
4,1,4,$2,$3,$4,$5,$6,$7,$8,$9,$2,$3,0*
0 Add four circle primitives for the rounded corners*
1,1,$1+$1,$2,$3*
1,1,$1+$1,$4,$5*
1,1,$1+$1,$6,$7*
1,1,$1+$1,$8,$9*
0 Add four rect primitives between the rounded corners*
20,1,$1+$1,$2,$3,$4,$5,0*
20,1,$1+$1,$4,$5,$6,$7,0*
20,1,$1+$1,$6,$7,$8,$9,0*
20,1,$1+$1,$8,$9,$2,$3,0*%
G04 Aperture macros list end*
%TA.AperFunction,ComponentPad*%
%ADD10C,6.000000*%
%TD*%
%TA.AperFunction,ComponentPad*%
%ADD11O,1.600000X1.600000*%
%TD*%
%TA.AperFunction,ComponentPad*%
%ADD12R,1.600000X1.600000*%
%TD*%
%TA.AperFunction,ComponentPad*%
%ADD13O,1.200000X1.750000*%
%TD*%
%TA.AperFunction,ComponentPad*%
%ADD14RoundRect,0.250000X-0.350000X-0.625000X0.350000X-0.625000X0.350000X0.625000X-0.350000X0.625000X0*%
%TD*%
%TA.AperFunction,ComponentPad*%
%ADD15RoundRect,1.500000X-1.500000X-1.500000X1.500000X-1.500000X1.500000X1.500000X-1.500000X1.500000X0*%
%TD*%
%TA.AperFunction,ComponentPad*%
%ADD16O,3.600000X2.000000*%
%TD*%
%TA.AperFunction,ComponentPad*%
%ADD17RoundRect,0.250000X1.550000X-0.750000X1.550000X0.750000X-1.550000X0.750000X-1.550000X-0.750000X0*%
%TD*%
%TA.AperFunction,ComponentPad*%
%ADD18RoundRect,0.250000X0.350000X0.625000X-0.350000X0.625000X-0.350000X-0.625000X0.350000X-0.625000X0*%
%TD*%
%TA.AperFunction,ComponentPad*%
%ADD19RoundRect,0.250000X-1.550000X0.750000X-1.550000X-0.750000X1.550000X-0.750000X1.550000X0.750000X0*%
%TD*%
%TA.AperFunction,ViaPad*%
%ADD20C,0.600000*%
%TD*%
%TA.AperFunction,Conductor*%
%ADD21C,0.200000*%
%TD*%
G04 APERTURE END LIST*
D10*
%TO.P,REF\u002A\u002A,1*%
%TO.N,N/C*%
X213500000Y-86500000D03*
%TD*%
%TO.P,REF\u002A\u002A,1*%
%TO.N,N/C*%
X170500000Y-105500000D03*
%TD*%
D11*
%TO.P,A1,30,VIN*%
%TO.N,+12V*%
X203050000Y-92130000D03*
%TO.P,A1,29,GND*%
%TO.N,GND*%
X200510000Y-92130000D03*
%TO.P,A1,28,~{RESET}*%
%TO.N,unconnected-(A1-~{RESET}-Pad28)*%
X197970000Y-92130000D03*
%TO.P,A1,27,+5V*%
%TO.N,+5V*%
X195430000Y-92130000D03*
%TO.P,A1,26,A7*%
%TO.N,unconnected-(A1-A7-Pad26)*%
X192890000Y-92130000D03*
%TO.P,A1,25,A6*%
%TO.N,unconnected-(A1-A6-Pad25)*%
X190350000Y-92130000D03*
%TO.P,A1,24,SCL/A5*%
%TO.N,Right_MD1*%
X187810000Y-92130000D03*
%TO.P,A1,23,SDA/A4*%
%TO.N,Right_MD2*%
X185270000Y-92130000D03*
%TO.P,A1,22,A3*%
%TO.N,Line_Back*%
X182730000Y-92130000D03*
%TO.P,A1,21,A2*%
%TO.N,Start_Mod*%
X180190000Y-92130000D03*
%TO.P,A1,20,A1*%
%TO.N,unconnected-(A1-A1-Pad20)*%
X177650000Y-92130000D03*
%TO.P,A1,19,A0*%
%TO.N,unconnected-(A1-A0-Pad19)*%
X175110000Y-92130000D03*
%TO.P,A1,18,AREF*%
%TO.N,unconnected-(A1-AREF-Pad18)*%
X172570000Y-92130000D03*
%TO.P,A1,17,3V3*%
%TO.N,+3.3V*%
X170030000Y-92130000D03*
%TO.P,A1,16,SCK*%
%TO.N,unconnected-(A1-SCK-Pad16)*%
X167490000Y-92130000D03*
%TO.P,A1,15,MISO*%
%TO.N,unconnected-(A1-MISO-Pad15)*%
X167490000Y-76890000D03*
%TO.P,A1,14,MOSI*%
%TO.N,unconnected-(A1-MOSI-Pad14)*%
X170030000Y-76890000D03*
%TO.P,A1,13,D10*%
%TO.N,Left_MD2*%
X172570000Y-76890000D03*
%TO.P,A1,12,D9*%
%TO.N,Left_MD1*%
X175110000Y-76890000D03*
%TO.P,A1,11,D8*%
%TO.N,DS_Left*%
X177650000Y-76890000D03*
%TO.P,A1,10,D7*%
%TO.N,DS_FrontLeft*%
X180190000Y-76890000D03*
%TO.P,A1,9,D6*%
%TO.N,Line_Front*%
X182730000Y-76890000D03*
%TO.P,A1,8,D5*%
%TO.N,DS_Right*%
X185270000Y-76890000D03*
%TO.P,A1,7,D4*%
%TO.N,unconnected-(A1-D4-Pad7)*%
X187810000Y-76890000D03*
%TO.P,A1,6,D3*%
%TO.N,unconnected-(A1-D3-Pad6)*%
X190350000Y-76890000D03*
%TO.P,A1,5,D2*%
%TO.N,DS_FrontRight*%
X192890000Y-76890000D03*
%TO.P,A1,4,GND*%
%TO.N,GND*%
X195430000Y-76890000D03*
%TO.P,A1,3,~{RESET}*%
%TO.N,unconnected-(A1-~{RESET}-Pad3)*%
X197970000Y-76890000D03*
%TO.P,A1,2,RX1*%
%TO.N,unconnected-(A1-RX1-Pad2)*%
X200510000Y-76890000D03*
D12*
%TO.P,A1,1,TX1*%
%TO.N,unconnected-(A1-TX1-Pad1)*%
X203050000Y-76890000D03*
%TD*%
D13*
%TO.P,J4,3,Pin_3*%
%TO.N,DS_FrontRight*%
X215250000Y-62800000D03*
%TO.P,J4,2,Pin_2*%
%TO.N,GND*%
X213250000Y-62800000D03*
D14*
%TO.P,J4,1,Pin_1*%
%TO.N,+3.3V*%
X211250000Y-62800000D03*
%TD*%
D13*
%TO.P,J1,3,Pin_3*%
%TO.N,DS_Left*%
X182250000Y-62800000D03*
%TO.P,J1,2,Pin_2*%
%TO.N,GND*%
X180250000Y-62800000D03*
D14*
%TO.P,J1,1,Pin_1*%
%TO.N,+3.3V*%
X178250000Y-62800000D03*
%TD*%
D10*
%TO.P,J8,2,Pin_2*%
%TO.N,Net-(J8-Pin_2)*%
X233250000Y-105250000D03*
D15*
%TO.P,J8,1,Pin_1*%
%TO.N,Net-(J8-Pin_1)*%
X226050000Y-105250000D03*
%TD*%
D16*
%TO.P,J11,2,Pin_2*%
%TO.N,GND*%
X232750000Y-79750000D03*
D17*
%TO.P,J11,1,Pin_1*%
%TO.N,+12V*%
X232750000Y-84750000D03*
%TD*%
D13*
%TO.P,J6,3,Pin_3*%
%TO.N,Line_Back*%
X201000000Y-108700000D03*
%TO.P,J6,2,Pin_2*%
%TO.N,+3.3V*%
X203000000Y-108700000D03*
D18*
%TO.P,J6,1,Pin_1*%
%TO.N,GND*%
X205000000Y-108700000D03*
%TD*%
D16*
%TO.P,J10,2,Pin_2*%
%TO.N,Left_MD2*%
X171527500Y-69750000D03*
D19*
%TO.P,J10,1,Pin_1*%
%TO.N,Left_MD1*%
X171527500Y-64750000D03*
%TD*%
D13*
%TO.P,J5,3,Pin_3*%
%TO.N,Line_Front*%
X204500000Y-62800000D03*
%TO.P,J5,2,Pin_2*%
%TO.N,+3.3V*%
X202500000Y-62800000D03*
D14*
%TO.P,J5,1,Pin_1*%
%TO.N,GND*%
X200500000Y-62800000D03*
%TD*%
D13*
%TO.P,J7,3,Pin_3*%
%TO.N,Start_Mod*%
X184250000Y-108950000D03*
%TO.P,J7,2,Pin_2*%
%TO.N,GND*%
X186250000Y-108950000D03*
D18*
%TO.P,J7,1,Pin_1*%
%TO.N,+3.3V*%
X188250000Y-108950000D03*
%TD*%
D13*
%TO.P,J2,3,Pin_3*%
%TO.N,DS_Right*%
X226000000Y-63050000D03*
%TO.P,J2,2,Pin_2*%
%TO.N,GND*%
X224000000Y-63050000D03*
D14*
%TO.P,J2,1,Pin_1*%
%TO.N,+3.3V*%
X222000000Y-63050000D03*
%TD*%
D16*
%TO.P,J9,2,Pin_2*%
%TO.N,Right_MD2*%
X232722500Y-64750000D03*
D17*
%TO.P,J9,1,Pin_1*%
%TO.N,Right_MD1*%
X232722500Y-69750000D03*
%TD*%
D13*
%TO.P,J3,3,Pin_3*%
%TO.N,DS_FrontLeft*%
X193000000Y-62800000D03*
%TO.P,J3,2,Pin_2*%
%TO.N,GND*%
X191000000Y-62800000D03*
D14*
%TO.P,J3,1,Pin_1*%
%TO.N,+3.3V*%
X189000000Y-62800000D03*
%TD*%
D20*
%TO.N,GND*%
X196500000Y-75250000D03*
X197000000Y-73500000D03*
%TD*%
D21*
%TO.N,GND*%
X196500000Y-75250000D02*
X196500000Y-74000000D01*
X196500000Y-74000000D02*
X197000000Y-73500000D01*
%TD*%
%TA.AperFunction,Conductor*%
%TO.N,GND*%
G36*
X177602606Y-61270185D02*
G01*
X177648361Y-61322989D01*
X177658305Y-61392147D01*
X177629280Y-61455703D01*
X177586015Y-61484576D01*
X177587209Y-61487136D01*
X177580663Y-61490187D01*
X177431342Y-61582289D01*
X177307289Y-61706342D01*
X177215187Y-61855663D01*
X177215185Y-61855668D01*
X177189332Y-61933689D01*
X177160001Y-62022203D01*
X177160001Y-62022204D01*
X177160000Y-62022204D01*
X177149500Y-62124983D01*
X177149500Y-63475001D01*
X177149501Y-63475018D01*
X177160000Y-63577796D01*
X177160001Y-63577799D01*
X177194087Y-63680663D01*
X177215186Y-63744334D01*
X177307288Y-63893656D01*
X177431344Y-64017712D01*
X177580666Y-64109814D01*
X177747203Y-64164999D01*
X177849991Y-64175500D01*
X178650008Y-64175499D01*
X178650016Y-64175498D01*
X178650019Y-64175498D01*
X178706302Y-64169748D01*
X178752797Y-64164999D01*
X178919334Y-64109814D01*
X179068656Y-64017712D01*
X179192712Y-63893656D01*
X179232581Y-63829016D01*
X179284525Y-63782294D01*
X179353488Y-63771071D01*
X179417570Y-63798914D01*
X179425799Y-63806434D01*
X179533397Y-63914032D01*
X179673475Y-64015804D01*
X179827744Y-64094408D01*
X179992415Y-64147914D01*
X179992414Y-64147914D01*
X179999999Y-64149115D01*
X180000000Y-64149114D01*
X180000000Y-63080330D01*
X180019745Y-63100075D01*
X180105255Y-63149444D01*
X180200630Y-63175000D01*
X180299370Y-63175000D01*
X180394745Y-63149444D01*
X180480255Y-63100075D01*
X180500000Y-63080330D01*
X180500000Y-64149115D01*
X180507584Y-64147914D01*
X180672255Y-64094408D01*
X180826524Y-64015804D01*
X180966602Y-63914032D01*
X181089036Y-63791598D01*
X181149371Y-63708552D01*
X181204700Y-63665886D01*
X181274313Y-63659905D01*
X181336109Y-63692510D01*
X181350008Y-63708550D01*
X181361966Y-63725008D01*
X181410586Y-63791928D01*
X181533072Y-63914414D01*
X181673212Y-64016232D01*
X181827555Y-64094873D01*
X181992299Y-64148402D01*
X182163389Y-64175500D01*
X182163390Y-64175500D01*
X182336610Y-64175500D01*
X182336611Y-64175500D01*
X182507701Y-64148402D01*
X182672445Y-64094873D01*
X182826788Y-64016232D01*
X182966928Y-63914414D01*
X183089414Y-63791928D01*
X183191232Y-63651788D01*
X183269873Y-63497445D01*
X183323402Y-63332701D01*
X183350500Y-63161611D01*
X183350500Y-62438389D01*
X183323402Y-62267299D01*
X183269873Y-62102555D01*
X183191232Y-61948212D01*
X183089414Y-61808072D01*
X182966928Y-61685586D01*
X182826788Y-61583768D01*
X182672445Y-61505127D01*
X182633369Y-61492430D01*
X182575694Y-61452993D01*
X182548496Y-61388635D01*
X182560411Y-61319788D01*
X182607655Y-61268313D01*
X182671688Y-61250500D01*
X188285567Y-61250500D01*
X188352606Y-61270185D01*
X188398361Y-61322989D01*
X188408305Y-61392147D01*
X188379280Y-61455703D01*
X188336015Y-61484576D01*
X188337209Y-61487136D01*
X188330663Y-61490187D01*
X188181342Y-61582289D01*
X188057289Y-61706342D01*
X187965187Y-61855663D01*
X187965185Y-61855668D01*
X187939332Y-61933689D01*
X187910001Y-62022203D01*
X187910001Y-62022204D01*
X187910000Y-62022204D01*
X187899500Y-62124983D01*
X187899500Y-63475001D01*
X187899501Y-63475018D01*
X187910000Y-63577796D01*
X187910001Y-63577799D01*
X187944087Y-63680663D01*
X187965186Y-63744334D01*
X188057288Y-63893656D01*
X188181344Y-64017712D01*
X188330666Y-64109814D01*
X188497203Y-64164999D01*
X188599991Y-64175500D01*
X189400008Y-64175499D01*
X189400016Y-64175498D01*
X189400019Y-64175498D01*
X189456302Y-64169748D01*
X189502797Y-64164999D01*
X189669334Y-64109814D01*
X189818656Y-64017712D01*
X189942712Y-63893656D01*
X189982581Y-63829016D01*
X190034525Y-63782294D01*
X190103488Y-63771071D01*
X190167570Y-63798914D01*
X190175799Y-63806434D01*
X190283397Y-63914032D01*
X190423475Y-64015804D01*
X190577744Y-64094408D01*
X190742415Y-64147914D01*
X190742414Y-64147914D01*
X190749999Y-64149115D01*
X190750000Y-64149114D01*
X190750000Y-63080330D01*
X190769745Y-63100075D01*
X190855255Y-63149444D01*
X190950630Y-63175000D01*
X191049370Y-63175000D01*
X191144745Y-63149444D01*
X191230255Y-63100075D01*
X191250000Y-63080330D01*
X191250000Y-64149115D01*
X191257584Y-64147914D01*
X191422255Y-64094408D01*
X191576524Y-64015804D01*
X191716602Y-63914032D01*
X191839036Y-63791598D01*
X191899371Y-63708552D01*
X191954700Y-63665886D01*
X192024313Y-63659905D01*
X192086109Y-63692510D01*
X192100008Y-63708550D01*
X192111966Y-63725008D01*
X192160586Y-63791928D01*
X192283072Y-63914414D01*
X192423212Y-64016232D01*
X192577555Y-64094873D01*
X192742299Y-64148402D01*
X192913389Y-64175500D01*
X192913390Y-64175500D01*
X193086610Y-64175500D01*
X193086611Y-64175500D01*
X193257701Y-64148402D01*
X193422445Y-64094873D01*
X193576788Y-64016232D01*
X193716928Y-63914414D01*
X193839414Y-63791928D01*
X193941232Y-63651788D01*
X194019873Y-63497445D01*
X194073402Y-63332701D01*
X194100500Y-63161611D01*
X194100500Y-62438389D01*
X194073402Y-62267299D01*
X194019873Y-62102555D01*
X193941232Y-61948212D01*
X193839414Y-61808072D01*
X193716928Y-61685586D01*
X193576788Y-61583768D01*
X193422445Y-61505127D01*
X193383369Y-61492430D01*
X193325694Y-61452993D01*
X193298496Y-61388635D01*
X193310411Y-61319788D01*
X193357655Y-61268313D01*
X193421688Y-61250500D01*
X199787156Y-61250500D01*
X199854195Y-61270185D01*
X199899950Y-61322989D01*
X199909894Y-61392147D01*
X199880869Y-61455703D01*
X199836389Y-61485378D01*
X199837421Y-61487592D01*
X199830875Y-61490643D01*
X199681654Y-61582684D01*
X199557684Y-61706654D01*
X199465643Y-61855875D01*
X199465641Y-61855880D01*
X199410494Y-62022302D01*
X199410493Y-62022309D01*
X199400000Y-62125013D01*
X199400000Y-62550000D01*
X200219670Y-62550000D01*
X200199925Y-62569745D01*
X200150556Y-62655255D01*
X200125000Y-62750630D01*
X200125000Y-62849370D01*
X200150556Y-62944745D01*
X200199925Y-63030255D01*
X200219670Y-63050000D01*
X199400001Y-63050000D01*
X199400001Y-63474986D01*
X199410494Y-63577697D01*
X199465641Y-63744119D01*
X199465643Y-63744124D01*
X199557684Y-63893345D01*
X199681654Y-64017315D01*
X199830875Y-64109356D01*
X199830880Y-64109358D01*
X199997302Y-64164505D01*
X199997309Y-64164506D01*
X200100019Y-64174999D01*
X200249999Y-64174999D01*
X200250000Y-64174998D01*
X200250000Y-63080330D01*
X200269745Y-63100075D01*
X200355255Y-63149444D01*
X200450630Y-63175000D01*
X200549370Y-63175000D01*
X200644745Y-63149444D01*
X200730255Y-63100075D01*
X200750000Y-63080330D01*
X200750000Y-64174999D01*
X200899972Y-64174999D01*
X200899986Y-64174998D01*
X201002697Y-64164505D01*
X201169119Y-64109358D01*
X201169124Y-64109356D01*
X201318345Y-64017315D01*
X201442315Y-63893345D01*
X201481945Y-63829094D01*
X201533893Y-63782368D01*
X201602855Y-63771145D01*
X201666937Y-63798988D01*
X201675166Y-63806508D01*
X201783072Y-63914414D01*
X201923212Y-64016232D01*
X202077555Y-64094873D01*
X202242299Y-64148402D01*
X202413389Y-64175500D01*
X202413390Y-64175500D01*
X202586610Y-64175500D01*
X202586611Y-64175500D01*
X202757701Y-64148402D01*
X202922445Y-64094873D01*
X203076788Y-64016232D01*
X203216928Y-63914414D01*
X203339414Y-63791928D01*
X203399682Y-63708975D01*
X203455012Y-63666311D01*
X203524626Y-63660332D01*
X203586421Y-63692938D01*
X203600315Y-63708973D01*
X203660586Y-63791928D01*
X203783072Y-63914414D01*
X203923212Y-64016232D01*
X204077555Y-64094873D01*
X204242299Y-64148402D01*
X204413389Y-64175500D01*
X204413390Y-64175500D01*
X204586610Y-64175500D01*
X204586611Y-64175500D01*
X204757701Y-64148402D01*
X204922445Y-64094873D01*
X205076788Y-64016232D01*
X205216928Y-63914414D01*
X205339414Y-63791928D01*
X205441232Y-63651788D01*
X205519873Y-63497445D01*
X205573402Y-63332701D01*
X205600500Y-63161611D01*
X205600500Y-62438389D01*
X205573402Y-62267299D01*
X205519873Y-62102555D01*
X205441232Y-61948212D01*
X205339414Y-61808072D01*
X205216928Y-61685586D01*
X205076788Y-61583768D01*
X204922445Y-61505127D01*
X204883369Y-61492430D01*
X204825694Y-61452993D01*
X204798496Y-61388635D01*
X204810411Y-61319788D01*
X204857655Y-61268313D01*
X204921688Y-61250500D01*
X210535567Y-61250500D01*
X210602606Y-61270185D01*
X210648361Y-61322989D01*
X210658305Y-61392147D01*
X210629280Y-61455703D01*
X210586015Y-61484576D01*
X210587209Y-61487136D01*
X210580663Y-61490187D01*
X210431342Y-61582289D01*
X210307289Y-61706342D01*
X210215187Y-61855663D01*
X210215185Y-61855668D01*
X210189332Y-61933689D01*
X210160001Y-62022203D01*
X210160001Y-62022204D01*
X210160000Y-62022204D01*
X210149500Y-62124983D01*
X210149500Y-63475001D01*
X210149501Y-63475018D01*
X210160000Y-63577796D01*
X210160001Y-63577799D01*
X210194087Y-63680663D01*
X210215186Y-63744334D01*
X210307288Y-63893656D01*
X210431344Y-64017712D01*
X210580666Y-64109814D01*
X210747203Y-64164999D01*
X210849991Y-64175500D01*
X211650008Y-64175499D01*
X211650016Y-64175498D01*
X211650019Y-64175498D01*
X211706302Y-64169748D01*
X211752797Y-64164999D01*
X211919334Y-64109814D01*
X212068656Y-64017712D01*
X212192712Y-63893656D01*
X212232581Y-63829016D01*
X212284525Y-63782294D01*
X212353488Y-63771071D01*
X212417570Y-63798914D01*
X212425799Y-63806434D01*
X212533397Y-63914032D01*
X212673475Y-64015804D01*
X212827744Y-64094408D01*
X212992415Y-64147914D01*
X212992414Y-64147914D01*
X212999999Y-64149115D01*
X213000000Y-64149114D01*
X213000000Y-63080330D01*
X213019745Y-63100075D01*
X213105255Y-63149444D01*
X213200630Y-63175000D01*
X213299370Y-63175000D01*
X213394745Y-63149444D01*
X213480255Y-63100075D01*
X213500000Y-63080330D01*
X213500000Y-64149115D01*
X213507584Y-64147914D01*
X213672255Y-64094408D01*
X213826524Y-64015804D01*
X213966602Y-63914032D01*
X214089036Y-63791598D01*
X214149371Y-63708552D01*
X214204700Y-63665886D01*
X214274313Y-63659905D01*
X214336109Y-63692510D01*
X214350008Y-63708550D01*
X214361966Y-63725008D01*
X214410586Y-63791928D01*
X214533072Y-63914414D01*
X214673212Y-64016232D01*
X214827555Y-64094873D01*
X214992299Y-64148402D01*
X215163389Y-64175500D01*
X215163390Y-64175500D01*
X215336610Y-64175500D01*
X215336611Y-64175500D01*
X215507701Y-64148402D01*
X215672445Y-64094873D01*
X215826788Y-64016232D01*
X215966928Y-63914414D01*
X216089414Y-63791928D01*
X216138039Y-63725001D01*
X220899500Y-63725001D01*
X220899501Y-63725018D01*
X220910000Y-63827796D01*
X220910001Y-63827799D01*
X220965185Y-63994331D01*
X220965187Y-63994336D01*
X220981677Y-64021071D01*
X221057288Y-64143656D01*
X221181344Y-64267712D01*
X221330666Y-64359814D01*
X221497203Y-64414999D01*
X221599991Y-64425500D01*
X222400008Y-64425499D01*
X222400016Y-64425498D01*
X222400019Y-64425498D01*
X222456302Y-64419748D01*
X222502797Y-64414999D01*
X222669334Y-64359814D01*
X222818656Y-64267712D01*
X222942712Y-64143656D01*
X222982581Y-64079016D01*
X223034525Y-64032294D01*
X223103488Y-64021071D01*
X223167570Y-64048914D01*
X223175799Y-64056434D01*
X223283397Y-64164032D01*
X223423475Y-64265804D01*
X223577744Y-64344408D01*
X223742415Y-64397914D01*
X223742414Y-64397914D01*
X223749999Y-64399115D01*
X223750000Y-64399114D01*
X223750000Y-63330330D01*
X223769745Y-63350075D01*
X223855255Y-63399444D01*
X223950630Y-63425000D01*
X224049370Y-63425000D01*
X224144745Y-63399444D01*
X224230255Y-63350075D01*
X224250000Y-63330330D01*
X224250000Y-64399115D01*
X224257584Y-64397914D01*
X224422255Y-64344408D01*
X224576524Y-64265804D01*
X224716602Y-64164032D01*
X224839036Y-64041598D01*
X224899371Y-63958552D01*
X224954700Y-63915886D01*
X225024313Y-63909905D01*
X225086109Y-63942510D01*
X225100008Y-63958550D01*
X225103652Y-63963566D01*
X225160586Y-64041928D01*
X225283072Y-64164414D01*
X225423212Y-64266232D01*
X225577555Y-64344873D01*
X225742299Y-64398402D01*
X225913389Y-64425500D01*
X225913390Y-64425500D01*
X226086610Y-64425500D01*
X226086611Y-64425500D01*
X226257701Y-64398402D01*
X226422445Y-64344873D01*
X226576788Y-64266232D01*
X226716928Y-64164414D01*
X226839414Y-64041928D01*
X226941232Y-63901788D01*
X227019873Y-63747445D01*
X227073402Y-63582701D01*
X227100500Y-63411611D01*
X227100500Y-62688389D01*
X227073402Y-62517299D01*
X227019873Y-62352555D01*
X226941232Y-62198212D01*
X226839414Y-62058072D01*
X226716928Y-61935586D01*
X226576788Y-61833768D01*
X226422445Y-61755127D01*
X226257701Y-61701598D01*
X226257699Y-61701597D01*
X226257698Y-61701597D01*
X226126271Y-61680781D01*
X226086611Y-61674500D01*
X225913389Y-61674500D01*
X225873728Y-61680781D01*
X225742302Y-61701597D01*
X225577552Y-61755128D01*
X225423211Y-61833768D01*
X225343824Y-61891447D01*
X225283072Y-61935586D01*
X225283070Y-61935588D01*
X225283069Y-61935588D01*
X225160585Y-62058072D01*
X225100007Y-62141450D01*
X225044677Y-62184115D01*
X224975063Y-62190093D01*
X224913269Y-62157486D01*
X224899371Y-62141447D01*
X224839036Y-62058401D01*
X224716602Y-61935967D01*
X224576524Y-61834195D01*
X224422257Y-61755591D01*
X224257589Y-61702087D01*
X224257581Y-61702085D01*
X224250000Y-61700884D01*
X224250000Y-62769670D01*
X224230255Y-62749925D01*
X224144745Y-62700556D01*
X224049370Y-62675000D01*
X223950630Y-62675000D01*
X223855255Y-62700556D01*
X223769745Y-62749925D01*
X223750000Y-62769670D01*
X223750000Y-61700884D01*
X223749999Y-61700884D01*
X223742418Y-61702085D01*
X223742410Y-61702087D01*
X223577742Y-61755591D01*
X223423475Y-61834195D01*
X223283401Y-61935964D01*
X223175799Y-62043566D01*
X223114476Y-62077050D01*
X223044784Y-62072066D01*
X222988851Y-62030194D01*
X222982585Y-62020988D01*
X222942712Y-61956344D01*
X222818656Y-61832288D01*
X222693559Y-61755128D01*
X222669336Y-61740187D01*
X222669331Y-61740185D01*
X222667862Y-61739698D01*
X222502797Y-61685001D01*
X222502795Y-61685000D01*
X222400010Y-61674500D01*
X221599998Y-61674500D01*
X221599980Y-61674501D01*
X221497203Y-61685000D01*
X221497200Y-61685001D01*
X221330668Y-61740185D01*
X221330663Y-61740187D01*
X221181342Y-61832289D01*
X221057289Y-61956342D01*
X220965187Y-62105663D01*
X220965185Y-62105668D01*
X220939191Y-62184115D01*
X220910001Y-62272203D01*
X220910001Y-62272204D01*
X220910000Y-62272204D01*
X220899500Y-62374983D01*
X220899500Y-63725001D01*
X216138039Y-63725001D01*
X216191232Y-63651788D01*
X216269873Y-63497445D01*
X216323402Y-63332701D01*
X216350500Y-63161611D01*
X216350500Y-62438389D01*
X216323402Y-62267299D01*
X216269873Y-62102555D01*
X216191232Y-61948212D01*
X216089414Y-61808072D01*
X215966928Y-61685586D01*
X215826788Y-61583768D01*
X215672445Y-61505127D01*
X215633369Y-61492430D01*
X215575694Y-61452993D01*
X215548496Y-61388635D01*
X215560411Y-61319788D01*
X215607655Y-61268313D01*
X215671688Y-61250500D01*
X238875500Y-61250500D01*
X238942539Y-61270185D01*
X238988294Y-61322989D01*
X238999500Y-61374500D01*
X238999500Y-110125500D01*
X238979815Y-110192539D01*
X238927011Y-110238294D01*
X238875500Y-110249500D01*
X205712844Y-110249500D01*
X205645805Y-110229815D01*
X205600050Y-110177011D01*
X205590106Y-110107853D01*
X205619131Y-110044297D01*
X205663610Y-110014621D01*
X205662579Y-110012408D01*
X205669124Y-110009356D01*
X205818345Y-109917315D01*
X205942315Y-109793345D01*
X206034356Y-109644124D01*
X206034358Y-109644119D01*
X206089505Y-109477697D01*
X206089506Y-109477690D01*
X206099999Y-109374986D01*
X206100000Y-109374973D01*
X206100000Y-108950000D01*
X205280330Y-108950000D01*
X205300075Y-108930255D01*
X205349444Y-108844745D01*
X205375000Y-108749370D01*
X205375000Y-108650630D01*
X205349444Y-108555255D01*
X205300075Y-108469745D01*
X205280330Y-108450000D01*
X206099999Y-108450000D01*
X206099999Y-108025028D01*
X206099998Y-108025013D01*
X206089505Y-107922302D01*
X206034358Y-107755880D01*
X206034356Y-107755875D01*
X205942315Y-107606654D01*
X205818345Y-107482684D01*
X205669124Y-107390643D01*
X205669119Y-107390641D01*
X205502697Y-107335494D01*
X205502690Y-107335493D01*
X205399986Y-107325000D01*
X205250000Y-107325000D01*
X205250000Y-108419670D01*
X205230255Y-108399925D01*
X205144745Y-108350556D01*
X205049370Y-108325000D01*
X204950630Y-108325000D01*
X204855255Y-108350556D01*
X204769745Y-108399925D01*
X204750000Y-108419670D01*
X204750000Y-107325000D01*
X204600027Y-107325000D01*
X204600012Y-107325001D01*
X204497302Y-107335494D01*
X204330880Y-107390641D01*
X204330875Y-107390643D01*
X204181654Y-107482684D01*
X204057684Y-107606654D01*
X204018053Y-107670907D01*
X203966105Y-107717631D01*
X203897142Y-107728853D01*
X203833060Y-107701010D01*
X203824833Y-107693491D01*
X203716930Y-107585588D01*
X203716928Y-107585586D01*
X203576788Y-107483768D01*
X203422445Y-107405127D01*
X203257701Y-107351598D01*
X203257699Y-107351597D01*
X203257698Y-107351597D01*
X203126271Y-107330781D01*
X203086611Y-107324500D01*
X202913389Y-107324500D01*
X202873728Y-107330781D01*
X202742302Y-107351597D01*
X202577552Y-107405128D01*
X202423211Y-107483768D01*
X202343256Y-107541859D01*
X202283072Y-107585586D01*
X202283070Y-107585588D01*
X202283069Y-107585588D01*
X202160588Y-107708069D01*
X202160581Y-107708078D01*
X202100317Y-107791023D01*
X202044987Y-107833689D01*
X201975374Y-107839667D01*
X201913579Y-107807061D01*
X201899683Y-107791023D01*
X201839418Y-107708078D01*
X201839414Y-107708072D01*
X201716928Y-107585586D01*
X201576788Y-107483768D01*
X201422445Y-107405127D01*
X201257701Y-107351598D01*
X201257699Y-107351597D01*
X201257698Y-107351597D01*
X201126271Y-107330781D01*
X201086611Y-107324500D01*
X200913389Y-107324500D01*
X200873728Y-107330781D01*
X200742302Y-107351597D01*
X200577552Y-107405128D01*
X200423211Y-107483768D01*
X200343256Y-107541859D01*
X200283072Y-107585586D01*
X200283070Y-107585588D01*
X200283069Y-107585588D01*
X200160588Y-107708069D01*
X200160588Y-107708070D01*
X200160586Y-107708072D01*
X200125855Y-107755875D01*
X200058768Y-107848211D01*
X199980128Y-108002552D01*
X199926597Y-108167302D01*
X199899500Y-108338389D01*
X199899500Y-109061610D01*
X199921418Y-109200000D01*
X199926598Y-109232701D01*
X199980127Y-109397445D01*
X200058768Y-109551788D01*
X200160586Y-109691928D01*
X200283072Y-109814414D01*
X200423212Y-109916232D01*
X200577555Y-109994873D01*
X200616630Y-110007569D01*
X200674306Y-110047007D01*
X200701504Y-110111365D01*
X200689589Y-110180212D01*
X200642345Y-110231687D01*
X200578312Y-110249500D01*
X189286077Y-110249500D01*
X189219038Y-110229815D01*
X189173283Y-110177011D01*
X189163339Y-110107853D01*
X189188812Y-110048587D01*
X189192704Y-110043663D01*
X189192712Y-110043656D01*
X189284814Y-109894334D01*
X189339999Y-109727797D01*
X189350500Y-109625009D01*
X189350499Y-108274992D01*
X189349554Y-108265745D01*
X189339999Y-108172203D01*
X189339998Y-108172200D01*
X189317712Y-108104945D01*
X189284814Y-108005666D01*
X189192712Y-107856344D01*
X189068656Y-107732288D01*
X188943559Y-107655128D01*
X188919336Y-107640187D01*
X188919331Y-107640185D01*
X188917862Y-107639698D01*
X188752797Y-107585001D01*
X188752795Y-107585000D01*
X188650010Y-107574500D01*
X187849998Y-107574500D01*
X187849980Y-107574501D01*
X187747203Y-107585000D01*
X187747200Y-107585001D01*
X187580668Y-107640185D01*
X187580663Y-107640187D01*
X187431342Y-107732289D01*
X187307289Y-107856342D01*
X187267420Y-107920981D01*
X187215472Y-107967705D01*
X187146509Y-107978928D01*
X187082427Y-107951084D01*
X187074200Y-107943565D01*
X186966602Y-107835967D01*
X186826524Y-107734195D01*
X186672257Y-107655591D01*
X186507589Y-107602087D01*
X186507581Y-107602085D01*
X186500000Y-107600884D01*
X186500000Y-108669670D01*
X186480255Y-108649925D01*
X186394745Y-108600556D01*
X186299370Y-108575000D01*
X186200630Y-108575000D01*
X186105255Y-108600556D01*
X186019745Y-108649925D01*
X186000000Y-108669670D01*
X186000000Y-107600884D01*
X185999999Y-107600884D01*
X185992418Y-107602085D01*
X185992410Y-107602087D01*
X185827742Y-107655591D01*
X185673475Y-107734195D01*
X185533397Y-107835967D01*
X185410965Y-107958399D01*
X185410961Y-107958404D01*
X185350627Y-108041448D01*
X185295297Y-108084114D01*
X185225684Y-108090093D01*
X185163889Y-108057488D01*
X185149991Y-108041449D01*
X185149990Y-108041448D01*
X185089414Y-107958072D01*
X184966928Y-107835586D01*
X184826788Y-107733768D01*
X184672445Y-107655127D01*
X184507701Y-107601598D01*
X184507699Y-107601597D01*
X184507698Y-107601597D01*
X184376271Y-107580781D01*
X184336611Y-107574500D01*
X184163389Y-107574500D01*
X184123728Y-107580781D01*
X183992302Y-107601597D01*
X183827552Y-107655128D01*
X183673211Y-107733768D01*
X183593256Y-107791859D01*
X183533072Y-107835586D01*
X183533070Y-107835588D01*
X183533069Y-107835588D01*
X183410588Y-107958069D01*
X183410588Y-107958070D01*
X183410586Y-107958072D01*
X183378269Y-108002552D01*
X183308768Y-108098211D01*
X183230128Y-108252552D01*
X183176597Y-108417302D01*
X183168291Y-108469745D01*
X183149500Y-108588389D01*
X183149500Y-109311611D01*
X183176598Y-109482701D01*
X183230127Y-109647445D01*
X183308768Y-109801788D01*
X183410586Y-109941928D01*
X183410588Y-109941930D01*
X183506477Y-110037819D01*
X183539962Y-110099142D01*
X183534978Y-110168834D01*
X183493106Y-110224767D01*
X183427642Y-110249184D01*
X183418796Y-110249500D01*
X165124500Y-110249500D01*
X165057461Y-110229815D01*
X165011706Y-110177011D01*
X165000500Y-110125500D01*
X165000500Y-105500000D01*
X166994696Y-105500000D01*
X167013898Y-105866405D01*
X167071294Y-106228788D01*
X167071294Y-106228790D01*
X167166260Y-106583206D01*
X167297746Y-106925739D01*
X167464320Y-107252656D01*
X167664147Y-107560364D01*
X167863919Y-107807061D01*
X167895051Y-107845506D01*
X168154494Y-108104949D01*
X168237542Y-108172200D01*
X168439635Y-108335852D01*
X168747343Y-108535679D01*
X168747348Y-108535682D01*
X169074264Y-108702255D01*
X169416801Y-108833742D01*
X169771206Y-108928705D01*
X170133596Y-108986102D01*
X170479734Y-109004241D01*
X170499999Y-109005304D01*
X170500000Y-109005304D01*
X170500001Y-109005304D01*
X170519203Y-109004297D01*
X170866404Y-108986102D01*
X171228794Y-108928705D01*
X171583199Y-108833742D01*
X171925736Y-108702255D01*
X172252652Y-108535682D01*
X172560366Y-108335851D01*
X172845506Y-108104949D01*
X173104949Y-107845506D01*
X173335851Y-107560366D01*
X173535682Y-107252652D01*
X173702255Y-106925736D01*
X173742286Y-106821450D01*
X222549500Y-106821450D01*
X222564804Y-107035433D01*
X222625628Y-107315037D01*
X222625630Y-107315043D01*
X222625631Y-107315046D01*
X222659230Y-107405127D01*
X222725635Y-107583166D01*
X222862770Y-107834309D01*
X222862775Y-107834317D01*
X223034254Y-108063387D01*
X223034270Y-108063405D01*
X223236594Y-108265729D01*
X223236612Y-108265745D01*
X223465682Y-108437224D01*
X223465690Y-108437229D01*
X223716833Y-108574364D01*
X223716832Y-108574364D01*
X223716836Y-108574365D01*
X223716839Y-108574367D01*
X223984954Y-108674369D01*
X223984960Y-108674370D01*
X223984962Y-108674371D01*
X224264566Y-108735195D01*
X224264568Y-108735195D01*
X224264572Y-108735196D01*
X224478552Y-108750500D01*
X227621448Y-108750500D01*
X227835428Y-108735196D01*
X227906456Y-108719745D01*
X228115037Y-108674371D01*
X228115037Y-108674370D01*
X228115046Y-108674369D01*
X228383161Y-108574367D01*
X228634315Y-108437226D01*
X228863395Y-108265739D01*
X229065739Y-108063395D01*
X229237226Y-107834315D01*
X229374367Y-107583161D01*
X229474369Y-107315046D01*
X229535196Y-107035428D01*
X229550500Y-106821448D01*
X229550500Y-105844629D01*
X229570185Y-105777590D01*
X229622989Y-105731835D01*
X229692147Y-105721891D01*
X229755703Y-105750916D01*
X229793477Y-105809694D01*
X229796973Y-105825231D01*
X229821294Y-105978788D01*
X229821294Y-105978790D01*
X229916260Y-106333206D01*
X230047746Y-106675739D01*
X230214320Y-107002656D01*
X230414147Y-107310364D01*
X230425594Y-107324500D01*
X230645051Y-107595506D01*
X230904494Y-107854949D01*
X231031838Y-107958070D01*
X231189635Y-108085852D01*
X231480896Y-108274998D01*
X231497348Y-108285682D01*
X231824264Y-108452255D01*
X232166801Y-108583742D01*
X232521206Y-108678705D01*
X232883596Y-108736102D01*
X233229734Y-108754241D01*
X233249999Y-108755304D01*
X233250000Y-108755304D01*
X233250001Y-108755304D01*
X233269203Y-108754297D01*
X233616404Y-108736102D01*
X233978794Y-108678705D01*
X234333199Y-108583742D01*
X234675736Y-108452255D01*
X235002652Y-108285682D01*
X235310366Y-108085851D01*
X235595506Y-107854949D01*
X235854949Y-107595506D01*
X236085851Y-107310366D01*
X236285682Y-107002652D01*
X236452255Y-106675736D01*
X236583742Y-106333199D01*
X236678705Y-105978794D01*
X236736102Y-105616404D01*
X236755304Y-105250000D01*
X236736102Y-104883596D01*
X236678705Y-104521206D01*
X236583742Y-104166801D01*
X236452255Y-103824264D01*
X236285682Y-103497348D01*
X236248203Y-103439635D01*
X236085852Y-103189635D01*
X235854952Y-102904498D01*
X235854949Y-102904494D01*
X235595506Y-102645051D01*
X235372320Y-102464318D01*
X235310364Y-102414147D01*
X235002656Y-102214320D01*
X234675739Y-102047746D01*
X234333206Y-101916260D01*
X234333199Y-101916258D01*
X233978794Y-101821295D01*
X233978790Y-101821294D01*
X233978789Y-101821294D01*
X233616405Y-101763898D01*
X233250001Y-101744696D01*
X233249999Y-101744696D01*
X232883594Y-101763898D01*
X232521211Y-101821294D01*
X232521209Y-101821294D01*
X232166793Y-101916260D01*
X231824260Y-102047746D01*
X231497343Y-102214320D01*
X231189635Y-102414147D01*
X230904498Y-102645047D01*
X230904490Y-102645054D01*
X230645054Y-102904490D01*
X230645047Y-102904498D01*
X230414147Y-103189635D01*
X230214320Y-103497343D01*
X230047746Y-103824260D01*
X229916260Y-104166793D01*
X229821294Y-104521209D01*
X229821294Y-104521211D01*
X229796973Y-104674768D01*
X229767044Y-104737903D01*
X229707732Y-104774834D01*
X229637870Y-104773836D01*
X229579637Y-104735226D01*
X229551523Y-104671262D01*
X229550500Y-104655370D01*
X229550500Y-103678552D01*
X229535196Y-103464572D01*
X229529771Y-103439635D01*
X229474371Y-103184962D01*
X229474370Y-103184960D01*
X229474369Y-103184954D01*
X229374367Y-102916839D01*
X229367628Y-102904498D01*
X229237229Y-102665690D01*
X229237224Y-102665682D01*
X229065745Y-102436612D01*
X229065729Y-102436594D01*
X228863405Y-102234270D01*
X228863387Y-102234254D01*
X228634317Y-102062775D01*
X228634309Y-102062770D01*
X228383166Y-101925635D01*
X228383167Y-101925635D01*
X228275915Y-101885632D01*
X228115046Y-101825631D01*
X228115043Y-101825630D01*
X228115037Y-101825628D01*
X227835433Y-101764804D01*
X227621450Y-101749500D01*
X227621448Y-101749500D01*
X224478552Y-101749500D01*
X224478549Y-101749500D01*
X224264566Y-101764804D01*
X223984962Y-101825628D01*
X223716833Y-101925635D01*
X223465690Y-102062770D01*
X223465682Y-102062775D01*
X223236612Y-102234254D01*
X223236594Y-102234270D01*
X223034270Y-102436594D01*
X223034254Y-102436612D01*
X222862775Y-102665682D01*
X222862770Y-102665690D01*
X222725635Y-102916833D01*
X222625628Y-103184962D01*
X222564804Y-103464566D01*
X222549500Y-103678549D01*
X222549500Y-106821450D01*
X173742286Y-106821450D01*
X173833742Y-106583199D01*
X173928705Y-106228794D01*
X173986102Y-105866404D01*
X174005304Y-105500000D01*
X173986102Y-105133596D01*
X173928705Y-104771206D01*
X173833742Y-104416801D01*
X173702255Y-104074264D01*
X173535682Y-103747348D01*
X173335851Y-103439634D01*
X173104949Y-103154494D01*
X172845506Y-102895051D01*
X172562263Y-102665685D01*
X172560364Y-102664147D01*
X172252656Y-102464320D01*
X171925739Y-102297746D01*
X171583206Y-102166260D01*
X171583199Y-102166258D01*
X171228794Y-102071295D01*
X171228790Y-102071294D01*
X171228789Y-102071294D01*
X170866405Y-102013898D01*
X170500001Y-101994696D01*
X170499999Y-101994696D01*
X170133594Y-102013898D01*
X169771211Y-102071294D01*
X169771209Y-102071294D01*
X169416793Y-102166260D01*
X169074260Y-102297746D01*
X168747343Y-102464320D01*
X168439635Y-102664147D01*
X168154498Y-102895047D01*
X168154490Y-102895054D01*
X167895054Y-103154490D01*
X167895047Y-103154498D01*
X167664147Y-103439635D01*
X167464320Y-103747343D01*
X167297746Y-104074260D01*
X167166260Y-104416793D01*
X167071294Y-104771209D01*
X167071294Y-104771211D01*
X167013898Y-105133594D01*
X166994696Y-105499999D01*
X166994696Y-105500000D01*
X165000500Y-105500000D01*
X165000500Y-92130001D01*
X166184532Y-92130001D01*
X166204364Y-92356686D01*
X166204366Y-92356697D01*
X166263258Y-92576488D01*
X166263261Y-92576497D01*
X166359431Y-92782732D01*
X166359432Y-92782734D01*
X166489954Y-92969141D01*
X166650858Y-93130045D01*
X166650861Y-93130047D01*
X166837266Y-93260568D01*
X167043504Y-93356739D01*
X167263308Y-93415635D01*
X167425230Y-93429801D01*
X167489998Y-93435468D01*
X167490000Y-93435468D01*
X167490002Y-93435468D01*
X167546673Y-93430509D01*
X167716692Y-93415635D01*
X167936496Y-93356739D01*
X168142734Y-93260568D01*
X168329139Y-93130047D01*
X168490047Y-92969139D01*
X168620568Y-92782734D01*
X168647618Y-92724724D01*
X168693790Y-92672285D01*
X168760983Y-92653133D01*
X168827865Y-92673348D01*
X168872382Y-92724725D01*
X168899429Y-92782728D01*
X168899432Y-92782734D01*
X169029954Y-92969141D01*
X169190858Y-93130045D01*
X169190861Y-93130047D01*
X169377266Y-93260568D01*
X169583504Y-93356739D01*
X169803308Y-93415635D01*
X169965230Y-93429801D01*
X170029998Y-93435468D01*
X170030000Y-93435468D01*
X170030002Y-93435468D01*
X170086673Y-93430509D01*
X170256692Y-93415635D01*
X170476496Y-93356739D01*
X170682734Y-93260568D01*
X170869139Y-93130047D01*
X171030047Y-92969139D01*
X171160568Y-92782734D01*
X171187618Y-92724724D01*
X171233790Y-92672285D01*
X171300983Y-92653133D01*
X171367865Y-92673348D01*
X171412382Y-92724725D01*
X171439429Y-92782728D01*
X171439432Y-92782734D01*
X171569954Y-92969141D01*
X171730858Y-93130045D01*
X171730861Y-93130047D01*
X171917266Y-93260568D01*
X172123504Y-93356739D01*
X172343308Y-93415635D01*
X172505230Y-93429801D01*
X172569998Y-93435468D01*
X172570000Y-93435468D01*
X172570002Y-93435468D01*
X172626673Y-93430509D01*
X172796692Y-93415635D01*
X173016496Y-93356739D01*
X173222734Y-93260568D01*
X173409139Y-93130047D01*
X173570047Y-92969139D01*
X173700568Y-92782734D01*
X173727618Y-92724724D01*
X173773790Y-92672285D01*
X173840983Y-92653133D01*
X173907865Y-92673348D01*
X173952382Y-92724725D01*
X173979429Y-92782728D01*
X173979432Y-92782734D01*
X174109954Y-92969141D01*
X174270858Y-93130045D01*
X174270861Y-93130047D01*
X174457266Y-93260568D01*
X174663504Y-93356739D01*
X174883308Y-93415635D01*
X175045230Y-93429801D01*
X175109998Y-93435468D01*
X175110000Y-93435468D01*
X175110002Y-93435468D01*
X175166673Y-93430509D01*
X175336692Y-93415635D01*
X175556496Y-93356739D01*
X175762734Y-93260568D01*
X175949139Y-93130047D01*
X176110047Y-92969139D01*
X176240568Y-92782734D01*
X176267618Y-92724724D01*
X176313790Y-92672285D01*
X176380983Y-92653133D01*
X176447865Y-92673348D01*
X176492382Y-92724725D01*
X176519429Y-92782728D01*
X176519432Y-92782734D01*
X176649954Y-92969141D01*
X176810858Y-93130045D01*
X176810861Y-93130047D01*
X176997266Y-93260568D01*
X177203504Y-93356739D01*
X177423308Y-93415635D01*
X177585230Y-93429801D01*
X177649998Y-93435468D01*
X177650000Y-93435468D01*
X177650002Y-93435468D01*
X177706673Y-93430509D01*
X177876692Y-93415635D01*
X178096496Y-93356739D01*
X178302734Y-93260568D01*
X178489139Y-93130047D01*
X178650047Y-92969139D01*
X178780568Y-92782734D01*
X178807618Y-92724724D01*
X178853790Y-92672285D01*
X178920983Y-92653133D01*
X178987865Y-92673348D01*
X179032382Y-92724725D01*
X179059429Y-92782728D01*
X179059432Y-92782734D01*
X179189954Y-92969141D01*
X179350858Y-93130045D01*
X179350861Y-93130047D01*
X179537266Y-93260568D01*
X179743504Y-93356739D01*
X179963308Y-93415635D01*
X180125230Y-93429801D01*
X180189998Y-93435468D01*
X180190000Y-93435468D01*
X180190002Y-93435468D01*
X180246673Y-93430509D01*
X180416692Y-93415635D01*
X180636496Y-93356739D01*
X180842734Y-93260568D01*
X181029139Y-93130047D01*
X181190047Y-92969139D01*
X181320568Y-92782734D01*
X181347618Y-92724724D01*
X181393790Y-92672285D01*
X181460983Y-92653133D01*
X181527865Y-92673348D01*
X181572382Y-92724725D01*
X181599429Y-92782728D01*
X181599432Y-92782734D01*
X181729954Y-92969141D01*
X181890858Y-93130045D01*
X181890861Y-93130047D01*
X182077266Y-93260568D01*
X182283504Y-93356739D01*
X182503308Y-93415635D01*
X182665230Y-93429801D01*
X182729998Y-93435468D01*
X182730000Y-93435468D01*
X182730002Y-93435468D01*
X182786673Y-93430509D01*
X182956692Y-93415635D01*
X183176496Y-93356739D01*
X183382734Y-93260568D01*
X183569139Y-93130047D01*
X183730047Y-92969139D01*
X183860568Y-92782734D01*
X183887618Y-92724724D01*
X183933790Y-92672285D01*
X184000983Y-92653133D01*
X184067865Y-92673348D01*
X184112382Y-92724725D01*
X184139429Y-92782728D01*
X184139432Y-92782734D01*
X184269954Y-92969141D01*
X184430858Y-93130045D01*
X184430861Y-93130047D01*
X184617266Y-93260568D01*
X184823504Y-93356739D01*
X185043308Y-93415635D01*
X185205230Y-93429801D01*
X185269998Y-93435468D01*
X185270000Y-93435468D01*
X185270002Y-93435468D01*
X185326673Y-93430509D01*
X185496692Y-93415635D01*
X185716496Y-93356739D01*
X185922734Y-93260568D01*
X186109139Y-93130047D01*
X186270047Y-92969139D01*
X186400568Y-92782734D01*
X186427618Y-92724724D01*
X186473790Y-92672285D01*
X186540983Y-92653133D01*
X186607865Y-92673348D01*
X186652382Y-92724725D01*
X186679429Y-92782728D01*
X186679432Y-92782734D01*
X186809954Y-92969141D01*
X186970858Y-93130045D01*
X186970861Y-93130047D01*
X187157266Y-93260568D01*
X187363504Y-93356739D01*
X187583308Y-93415635D01*
X187745230Y-93429801D01*
X187809998Y-93435468D01*
X187810000Y-93435468D01*
X187810002Y-93435468D01*
X187866673Y-93430509D01*
X188036692Y-93415635D01*
X188256496Y-93356739D01*
X188462734Y-93260568D01*
X188649139Y-93130047D01*
X188810047Y-92969139D01*
X188940568Y-92782734D01*
X188967618Y-92724724D01*
X189013790Y-92672285D01*
X189080983Y-92653133D01*
X189147865Y-92673348D01*
X189192382Y-92724725D01*
X189219429Y-92782728D01*
X189219432Y-92782734D01*
X189349954Y-92969141D01*
X189510858Y-93130045D01*
X189510861Y-93130047D01*
X189697266Y-93260568D01*
X189903504Y-93356739D01*
X190123308Y-93415635D01*
X190285230Y-93429801D01*
X190349998Y-93435468D01*
X190350000Y-93435468D01*
X190350002Y-93435468D01*
X190406673Y-93430509D01*
X190576692Y-93415635D01*
X190796496Y-93356739D01*
X191002734Y-93260568D01*
X191189139Y-93130047D01*
X191350047Y-92969139D01*
X191480568Y-92782734D01*
X191507618Y-92724724D01*
X191553790Y-92672285D01*
X191620983Y-92653133D01*
X191687865Y-92673348D01*
X191732382Y-92724725D01*
X191759429Y-92782728D01*
X191759432Y-92782734D01*
X191889954Y-92969141D01*
X192050858Y-93130045D01*
X192050861Y-93130047D01*
X192237266Y-93260568D01*
X192443504Y-93356739D01*
X192663308Y-93415635D01*
X192825230Y-93429801D01*
X192889998Y-93435468D01*
X192890000Y-93435468D01*
X192890002Y-93435468D01*
X192946673Y-93430509D01*
X193116692Y-93415635D01*
X193336496Y-93356739D01*
X193542734Y-93260568D01*
X193729139Y-93130047D01*
X193890047Y-92969139D01*
X194020568Y-92782734D01*
X194047618Y-92724724D01*
X194093790Y-92672285D01*
X194160983Y-92653133D01*
X194227865Y-92673348D01*
X194272382Y-92724725D01*
X194299429Y-92782728D01*
X194299432Y-92782734D01*
X194429954Y-92969141D01*
X194590858Y-93130045D01*
X194590861Y-93130047D01*
X194777266Y-93260568D01*
X194983504Y-93356739D01*
X195203308Y-93415635D01*
X195365230Y-93429801D01*
X195429998Y-93435468D01*
X195430000Y-93435468D01*
X195430002Y-93435468D01*
X195486673Y-93430509D01*
X195656692Y-93415635D01*
X195876496Y-93356739D01*
X196082734Y-93260568D01*
X196269139Y-93130047D01*
X196430047Y-92969139D01*
X196560568Y-92782734D01*
X196587618Y-92724724D01*
X196633790Y-92672285D01*
X196700983Y-92653133D01*
X196767865Y-92673348D01*
X196812382Y-92724725D01*
X196839429Y-92782728D01*
X196839432Y-92782734D01*
X196969954Y-92969141D01*
X197130858Y-93130045D01*
X197130861Y-93130047D01*
X197317266Y-93260568D01*
X197523504Y-93356739D01*
X197743308Y-93415635D01*
X197905230Y-93429801D01*
X197969998Y-93435468D01*
X197970000Y-93435468D01*
X197970002Y-93435468D01*
X198026673Y-93430509D01*
X198196692Y-93415635D01*
X198416496Y-93356739D01*
X198622734Y-93260568D01*
X198809139Y-93130047D01*
X198970047Y-92969139D01*
X199100568Y-92782734D01*
X199127895Y-92724129D01*
X199174064Y-92671695D01*
X199241257Y-92652542D01*
X199308139Y-92672757D01*
X199352657Y-92724133D01*
X199379865Y-92782482D01*
X199510342Y-92968820D01*
X199671179Y-93129657D01*
X199857517Y-93260134D01*
X200063673Y-93356265D01*
X200063682Y-93356269D01*
X200259999Y-93408872D01*
X200260000Y-93408871D01*
X200260000Y-92563012D01*
X200317007Y-92595925D01*
X200444174Y-92630000D01*
X200575826Y-92630000D01*
X200702993Y-92595925D01*
X200760000Y-92563012D01*
X200760000Y-93408872D01*
X200956317Y-93356269D01*
X200956326Y-93356265D01*
X201162482Y-93260134D01*
X201348820Y-93129657D01*
X201509657Y-92968820D01*
X201640132Y-92782484D01*
X201667341Y-92724134D01*
X201713513Y-92671695D01*
X201780707Y-92652542D01*
X201847588Y-92672757D01*
X201892106Y-92724133D01*
X201919431Y-92782732D01*
X201919432Y-92782734D01*
X202049954Y-92969141D01*
X202210858Y-93130045D01*
X202210861Y-93130047D01*
X202397266Y-93260568D01*
X202603504Y-93356739D01*
X202823308Y-93415635D01*
X202985230Y-93429801D01*
X203049998Y-93435468D01*
X203050000Y-93435468D01*
X203050002Y-93435468D01*
X203106673Y-93430509D01*
X203276692Y-93415635D01*
X203496496Y-93356739D01*
X203702734Y-93260568D01*
X203889139Y-93130047D01*
X204050047Y-92969139D01*
X204180568Y-92782734D01*
X204276739Y-92576496D01*
X204335635Y-92356692D01*
X204355468Y-92130000D01*
X204335635Y-91903308D01*
X204276739Y-91683504D01*
X204180568Y-91477266D01*
X204050047Y-91290861D01*
X204050045Y-91290858D01*
X203889141Y-91129954D01*
X203702734Y-90999432D01*
X203702732Y-90999431D01*
X203496497Y-90903261D01*
X203496488Y-90903258D01*
X203276697Y-90844366D01*
X203276693Y-90844365D01*
X203276692Y-90844365D01*
X203276691Y-90844364D01*
X203276686Y-90844364D01*
X203050002Y-90824532D01*
X203049998Y-90824532D01*
X202823313Y-90844364D01*
X202823302Y-90844366D01*
X202603511Y-90903258D01*
X202603502Y-90903261D01*
X202397267Y-90999431D01*
X202397265Y-90999432D01*
X202210858Y-91129954D01*
X202049954Y-91290858D01*
X201919433Y-91477264D01*
X201919432Y-91477266D01*
X201919315Y-91477518D01*
X201892106Y-91535867D01*
X201845933Y-91588306D01*
X201778739Y-91607457D01*
X201711858Y-91587241D01*
X201667342Y-91535865D01*
X201640135Y-91477520D01*
X201640134Y-91477518D01*
X201509657Y-91291179D01*
X201348820Y-91130342D01*
X201162482Y-90999865D01*
X200956328Y-90903734D01*
X200760000Y-90851127D01*
X200760000Y-91696988D01*
X200702993Y-91664075D01*
X200575826Y-91630000D01*
X200444174Y-91630000D01*
X200317007Y-91664075D01*
X200260000Y-91696988D01*
X200260000Y-90851127D01*
X200063671Y-90903734D01*
X199857517Y-90999865D01*
X199671179Y-91130342D01*
X199510342Y-91291179D01*
X199379867Y-91477515D01*
X199352657Y-91535867D01*
X199306484Y-91588306D01*
X199239290Y-91607457D01*
X199172409Y-91587241D01*
X199127893Y-91535865D01*
X199100685Y-91477518D01*
X199100568Y-91477266D01*
X198970047Y-91290861D01*
X198970045Y-91290858D01*
X198809141Y-91129954D01*
X198622734Y-90999432D01*
X198622732Y-90999431D01*
X198416497Y-90903261D01*
X198416488Y-90903258D01*
X198196697Y-90844366D01*
X198196693Y-90844365D01*
X198196692Y-90844365D01*
X198196691Y-90844364D01*
X198196686Y-90844364D01*
X197970002Y-90824532D01*
X197969998Y-90824532D01*
X197743313Y-90844364D01*
X197743302Y-90844366D01*
X197523511Y-90903258D01*
X197523502Y-90903261D01*
X197317267Y-90999431D01*
X197317265Y-90999432D01*
X197130858Y-91129954D01*
X196969954Y-91290858D01*
X196839432Y-91477265D01*
X196839431Y-91477267D01*
X196812382Y-91535275D01*
X196766209Y-91587714D01*
X196699016Y-91606866D01*
X196632135Y-91586650D01*
X196587618Y-91535275D01*
X196560686Y-91477520D01*
X196560568Y-91477266D01*
X196430047Y-91290861D01*
X196430045Y-91290858D01*
X196269141Y-91129954D01*
X196082734Y-90999432D01*
X196082732Y-90999431D01*
X195876497Y-90903261D01*
X195876488Y-90903258D01*
X195656697Y-90844366D01*
X195656693Y-90844365D01*
X195656692Y-90844365D01*
X195656691Y-90844364D01*
X195656686Y-90844364D01*
X195430002Y-90824532D01*
X195429998Y-90824532D01*
X195203313Y-90844364D01*
X195203302Y-90844366D01*
X194983511Y-90903258D01*
X194983502Y-90903261D01*
X194777267Y-90999431D01*
X194777265Y-90999432D01*
X194590858Y-91129954D01*
X194429954Y-91290858D01*
X194299432Y-91477265D01*
X194299431Y-91477267D01*
X194272382Y-91535275D01*
X194226209Y-91587714D01*
X194159016Y-91606866D01*
X194092135Y-91586650D01*
X194047618Y-91535275D01*
X194020686Y-91477520D01*
X194020568Y-91477266D01*
X193890047Y-91290861D01*
X193890045Y-91290858D01*
X193729141Y-91129954D01*
X193542734Y-90999432D01*
X193542732Y-90999431D01*
X193336497Y-90903261D01*
X193336488Y-90903258D01*
X193116697Y-90844366D01*
X193116693Y-90844365D01*
X193116692Y-90844365D01*
X193116691Y-90844364D01*
X193116686Y-90844364D01*
X192890002Y-90824532D01*
X192889998Y-90824532D01*
X192663313Y-90844364D01*
X192663302Y-90844366D01*
X192443511Y-90903258D01*
X192443502Y-90903261D01*
X192237267Y-90999431D01*
X192237265Y-90999432D01*
X192050858Y-91129954D01*
X191889954Y-91290858D01*
X191759432Y-91477265D01*
X191759431Y-91477267D01*
X191732382Y-91535275D01*
X191686209Y-91587714D01*
X191619016Y-91606866D01*
X191552135Y-91586650D01*
X191507618Y-91535275D01*
X191480686Y-91477520D01*
X191480568Y-91477266D01*
X191350047Y-91290861D01*
X191350045Y-91290858D01*
X191189141Y-91129954D01*
X191002734Y-90999432D01*
X191002732Y-90999431D01*
X190796497Y-90903261D01*
X190796488Y-90903258D01*
X190576697Y-90844366D01*
X190576693Y-90844365D01*
X190576692Y-90844365D01*
X190576691Y-90844364D01*
X190576686Y-90844364D01*
X190350002Y-90824532D01*
X190349998Y-90824532D01*
X190123313Y-90844364D01*
X190123302Y-90844366D01*
X189903511Y-90903258D01*
X189903502Y-90903261D01*
X189697267Y-90999431D01*
X189697265Y-90999432D01*
X189510858Y-91129954D01*
X189349954Y-91290858D01*
X189219432Y-91477265D01*
X189219431Y-91477267D01*
X189192382Y-91535275D01*
X189146209Y-91587714D01*
X189079016Y-91606866D01*
X189012135Y-91586650D01*
X188967618Y-91535275D01*
X188940686Y-91477520D01*
X188940568Y-91477266D01*
X188810047Y-91290861D01*
X188810045Y-91290858D01*
X188649141Y-91129954D01*
X188462734Y-90999432D01*
X188462732Y-90999431D01*
X188256497Y-90903261D01*
X188256488Y-90903258D01*
X188036697Y-90844366D01*
X188036693Y-90844365D01*
X188036692Y-90844365D01*
X188036691Y-90844364D01*
X188036686Y-90844364D01*
X187810002Y-90824532D01*
X187809998Y-90824532D01*
X187583313Y-90844364D01*
X187583302Y-90844366D01*
X187363511Y-90903258D01*
X187363502Y-90903261D01*
X187157267Y-90999431D01*
X187157265Y-90999432D01*
X186970858Y-91129954D01*
X186809954Y-91290858D01*
X186679432Y-91477265D01*
X186679431Y-91477267D01*
X186652382Y-91535275D01*
X186606209Y-91587714D01*
X186539016Y-91606866D01*
X186472135Y-91586650D01*
X186427618Y-91535275D01*
X186400686Y-91477520D01*
X186400568Y-91477266D01*
X186270047Y-91290861D01*
X186270045Y-91290858D01*
X186109141Y-91129954D01*
X185922734Y-90999432D01*
X185922732Y-90999431D01*
X185716497Y-90903261D01*
X185716488Y-90903258D01*
X185496697Y-90844366D01*
X185496693Y-90844365D01*
X185496692Y-90844365D01*
X185496691Y-90844364D01*
X185496686Y-90844364D01*
X185270002Y-90824532D01*
X185269998Y-90824532D01*
X185043313Y-90844364D01*
X185043302Y-90844366D01*
X184823511Y-90903258D01*
X184823502Y-90903261D01*
X184617267Y-90999431D01*
X184617265Y-90999432D01*
X184430858Y-91129954D01*
X184269954Y-91290858D01*
X184139432Y-91477265D01*
X184139431Y-91477267D01*
X184112382Y-91535275D01*
X184066209Y-91587714D01*
X183999016Y-91606866D01*
X183932135Y-91586650D01*
X183887618Y-91535275D01*
X183860686Y-91477520D01*
X183860568Y-91477266D01*
X183730047Y-91290861D01*
X183730045Y-91290858D01*
X183569141Y-91129954D01*
X183382734Y-90999432D01*
X183382732Y-90999431D01*
X183176497Y-90903261D01*
X183176488Y-90903258D01*
X182956697Y-90844366D01*
X182956693Y-90844365D01*
X182956692Y-90844365D01*
X182956691Y-90844364D01*
X182956686Y-90844364D01*
X182730002Y-90824532D01*
X182729998Y-90824532D01*
X182503313Y-90844364D01*
X182503302Y-90844366D01*
X182283511Y-90903258D01*
X182283502Y-90903261D01*
X182077267Y-90999431D01*
X182077265Y-90999432D01*
X181890858Y-91129954D01*
X181729954Y-91290858D01*
X181599432Y-91477265D01*
X181599431Y-91477267D01*
X181572382Y-91535275D01*
X181526209Y-91587714D01*
X181459016Y-91606866D01*
X181392135Y-91586650D01*
X181347618Y-91535275D01*
X181320686Y-91477520D01*
X181320568Y-91477266D01*
X181190047Y-91290861D01*
X181190045Y-91290858D01*
X181029141Y-91129954D01*
X180842734Y-90999432D01*
X180842732Y-90999431D01*
X180636497Y-90903261D01*
X180636488Y-90903258D01*
X180416697Y-90844366D01*
X180416693Y-90844365D01*
X180416692Y-90844365D01*
X180416691Y-90844364D01*
X180416686Y-90844364D01*
X180190002Y-90824532D01*
X180189998Y-90824532D01*
X179963313Y-90844364D01*
X179963302Y-90844366D01*
X179743511Y-90903258D01*
X179743502Y-90903261D01*
X179537267Y-90999431D01*
X179537265Y-90999432D01*
X179350858Y-91129954D01*
X179189954Y-91290858D01*
X179059432Y-91477265D01*
X179059431Y-91477267D01*
X179032382Y-91535275D01*
X178986209Y-91587714D01*
X178919016Y-91606866D01*
X178852135Y-91586650D01*
X178807618Y-91535275D01*
X178780686Y-91477520D01*
X178780568Y-91477266D01*
X178650047Y-91290861D01*
X178650045Y-91290858D01*
X178489141Y-91129954D01*
X178302734Y-90999432D01*
X178302732Y-90999431D01*
X178096497Y-90903261D01*
X178096488Y-90903258D01*
X177876697Y-90844366D01*
X177876693Y-90844365D01*
X177876692Y-90844365D01*
X177876691Y-90844364D01*
X177876686Y-90844364D01*
X177650002Y-90824532D01*
X177649998Y-90824532D01*
X177423313Y-90844364D01*
X177423302Y-90844366D01*
X177203511Y-90903258D01*
X177203502Y-90903261D01*
X176997267Y-90999431D01*
X176997265Y-90999432D01*
X176810858Y-91129954D01*
X176649954Y-91290858D01*
X176519432Y-91477265D01*
X176519431Y-91477267D01*
X176492382Y-91535275D01*
X176446209Y-91587714D01*
X176379016Y-91606866D01*
X176312135Y-91586650D01*
X176267618Y-91535275D01*
X176240686Y-91477520D01*
X176240568Y-91477266D01*
X176110047Y-91290861D01*
X176110045Y-91290858D01*
X175949141Y-91129954D01*
X175762734Y-90999432D01*
X175762732Y-90999431D01*
X175556497Y-90903261D01*
X175556488Y-90903258D01*
X175336697Y-90844366D01*
X175336693Y-90844365D01*
X175336692Y-90844365D01*
X175336691Y-90844364D01*
X175336686Y-90844364D01*
X175110002Y-90824532D01*
X175109998Y-90824532D01*
X174883313Y-90844364D01*
X174883302Y-90844366D01*
X174663511Y-90903258D01*
X174663502Y-90903261D01*
X174457267Y-90999431D01*
X174457265Y-90999432D01*
X174270858Y-91129954D01*
X174109954Y-91290858D01*
X173979432Y-91477265D01*
X173979431Y-91477267D01*
X173952382Y-91535275D01*
X173906209Y-91587714D01*
X173839016Y-91606866D01*
X173772135Y-91586650D01*
X173727618Y-91535275D01*
X173700686Y-91477520D01*
X173700568Y-91477266D01*
X173570047Y-91290861D01*
X173570045Y-91290858D01*
X173409141Y-91129954D01*
X173222734Y-90999432D01*
X173222732Y-90999431D01*
X173016497Y-90903261D01*
X173016488Y-90903258D01*
X172796697Y-90844366D01*
X172796693Y-90844365D01*
X172796692Y-90844365D01*
X172796691Y-90844364D01*
X172796686Y-90844364D01*
X172570002Y-90824532D01*
X172569998Y-90824532D01*
X172343313Y-90844364D01*
X172343302Y-90844366D01*
X172123511Y-90903258D01*
X172123502Y-90903261D01*
X171917267Y-90999431D01*
X171917265Y-90999432D01*
X171730858Y-91129954D01*
X171569954Y-91290858D01*
X171439432Y-91477265D01*
X171439431Y-91477267D01*
X171412382Y-91535275D01*
X171366209Y-91587714D01*
X171299016Y-91606866D01*
X171232135Y-91586650D01*
X171187618Y-91535275D01*
X171160686Y-91477520D01*
X171160568Y-91477266D01*
X171030047Y-91290861D01*
X171030045Y-91290858D01*
X170869141Y-91129954D01*
X170682734Y-90999432D01*
X170682732Y-90999431D01*
X170476497Y-90903261D01*
X170476488Y-90903258D01*
X170256697Y-90844366D01*
X170256693Y-90844365D01*
X170256692Y-90844365D01*
X170256691Y-90844364D01*
X170256686Y-90844364D01*
X170030002Y-90824532D01*
X170029998Y-90824532D01*
X169803313Y-90844364D01*
X169803302Y-90844366D01*
X169583511Y-90903258D01*
X169583502Y-90903261D01*
X169377267Y-90999431D01*
X169377265Y-90999432D01*
X169190858Y-91129954D01*
X169029954Y-91290858D01*
X168899432Y-91477265D01*
X168899431Y-91477267D01*
X168872382Y-91535275D01*
X168826209Y-91587714D01*
X168759016Y-91606866D01*
X168692135Y-91586650D01*
X168647618Y-91535275D01*
X168620686Y-91477520D01*
X168620568Y-91477266D01*
X168490047Y-91290861D01*
X168490045Y-91290858D01*
X168329141Y-91129954D01*
X168142734Y-90999432D01*
X168142732Y-90999431D01*
X167936497Y-90903261D01*
X167936488Y-90903258D01*
X167716697Y-90844366D01*
X167716693Y-90844365D01*
X167716692Y-90844365D01*
X167716691Y-90844364D01*
X167716686Y-90844364D01*
X167490002Y-90824532D01*
X167489998Y-90824532D01*
X167263313Y-90844364D01*
X167263302Y-90844366D01*
X167043511Y-90903258D01*
X167043502Y-90903261D01*
X166837267Y-90999431D01*
X166837265Y-90999432D01*
X166650858Y-91129954D01*
X166489954Y-91290858D01*
X166359432Y-91477265D01*
X166359431Y-91477267D01*
X166263261Y-91683502D01*
X166263258Y-91683511D01*
X166204366Y-91903302D01*
X166204364Y-91903313D01*
X166184532Y-92129998D01*
X166184532Y-92130001D01*
X165000500Y-92130001D01*
X165000500Y-86500000D01*
X209994696Y-86500000D01*
X210013898Y-86866405D01*
X210071294Y-87228788D01*
X210071294Y-87228790D01*
X210166260Y-87583206D01*
X210297746Y-87925739D01*
X210464320Y-88252656D01*
X210664147Y-88560364D01*
X210664149Y-88560366D01*
X210895051Y-88845506D01*
X211154494Y-89104949D01*
X211154498Y-89104952D01*
X211439635Y-89335852D01*
X211747343Y-89535679D01*
X211747348Y-89535682D01*
X212074264Y-89702255D01*
X212416801Y-89833742D01*
X212771206Y-89928705D01*
X213133596Y-89986102D01*
X213479734Y-90004241D01*
X213499999Y-90005304D01*
X213500000Y-90005304D01*
X213500001Y-90005304D01*
X213519203Y-90004297D01*
X213866404Y-89986102D01*
X214228794Y-89928705D01*
X214583199Y-89833742D01*
X214925736Y-89702255D01*
X215252652Y-89535682D01*
X215560366Y-89335851D01*
X215845506Y-89104949D01*
X216104949Y-88845506D01*
X216335851Y-88560366D01*
X216535682Y-88252652D01*
X216702255Y-87925736D01*
X216833742Y-87583199D01*
X216928705Y-87228794D01*
X216986102Y-86866404D01*
X217005304Y-86500000D01*
X216986102Y-86133596D01*
X216928705Y-85771206D01*
X216869433Y-85550001D01*
X230449500Y-85550001D01*
X230449501Y-85550018D01*
X230460000Y-85652796D01*
X230460001Y-85652799D01*
X230515185Y-85819331D01*
X230515186Y-85819334D01*
X230607288Y-85968656D01*
X230731344Y-86092712D01*
X230880666Y-86184814D01*
X231047203Y-86239999D01*
X231149991Y-86250500D01*
X234350008Y-86250499D01*
X234452797Y-86239999D01*
X234619334Y-86184814D01*
X234768656Y-86092712D01*
X234892712Y-85968656D01*
X234984814Y-85819334D01*
X235039999Y-85652797D01*
X235050500Y-85550009D01*
X235050499Y-83949992D01*
X235039999Y-83847203D01*
X234984814Y-83680666D01*
X234892712Y-83531344D01*
X234768656Y-83407288D01*
X234619334Y-83315186D01*
X234452797Y-83260001D01*
X234452795Y-83260000D01*
X234350010Y-83249500D01*
X231149998Y-83249500D01*
X231149981Y-83249501D01*
X231047203Y-83260000D01*
X231047200Y-83260001D01*
X230880668Y-83315185D01*
X230880663Y-83315187D01*
X230731342Y-83407289D01*
X230607289Y-83531342D01*
X230515187Y-83680663D01*
X230515186Y-83680666D01*
X230460001Y-83847203D01*
X230460001Y-83847204D01*
X230460000Y-83847204D01*
X230449500Y-83949983D01*
X230449500Y-85550001D01*
X216869433Y-85550001D01*
X216833742Y-85416801D01*
X216702255Y-85074264D01*
X216535682Y-84747348D01*
X216335851Y-84439634D01*
X216104949Y-84154494D01*
X215845506Y-83895051D01*
X215786415Y-83847200D01*
X215560364Y-83664147D01*
X215252656Y-83464320D01*
X214925739Y-83297746D01*
X214583206Y-83166260D01*
X214583199Y-83166258D01*
X214228794Y-83071295D01*
X214228790Y-83071294D01*
X214228789Y-83071294D01*
X213866405Y-83013898D01*
X213500001Y-82994696D01*
X213499999Y-82994696D01*
X213133594Y-83013898D01*
X212771211Y-83071294D01*
X212771209Y-83071294D01*
X212416793Y-83166260D01*
X212074260Y-83297746D01*
X211747343Y-83464320D01*
X211439635Y-83664147D01*
X211154498Y-83895047D01*
X211154490Y-83895054D01*
X210895054Y-84154490D01*
X210895047Y-84154498D01*
X210664147Y-84439635D01*
X210464320Y-84747343D01*
X210297746Y-85074260D01*
X210166260Y-85416793D01*
X210071294Y-85771209D01*
X210071294Y-85771211D01*
X210013898Y-86133594D01*
X209994696Y-86499999D01*
X209994696Y-86500000D01*
X165000500Y-86500000D01*
X165000500Y-80000000D01*
X230470898Y-80000000D01*
X230486934Y-80101247D01*
X230559897Y-80325802D01*
X230667085Y-80536171D01*
X230805866Y-80727186D01*
X230972813Y-80894133D01*
X231163828Y-81032914D01*
X231374197Y-81140102D01*
X231598752Y-81213065D01*
X231598751Y-81213065D01*
X231831948Y-81250000D01*
X232500000Y-81250000D01*
X232500000Y-80404120D01*
X232545818Y-80423099D01*
X232681056Y-80450000D01*
X232818944Y-80450000D01*
X232954182Y-80423099D01*
X233000000Y-80404120D01*
X233000000Y-81250000D01*
X233668052Y-81250000D01*
X233901247Y-81213065D01*
X234125802Y-81140102D01*
X234336171Y-81032914D01*
X234527186Y-80894133D01*
X234694133Y-80727186D01*
X234832914Y-80536171D01*
X234940102Y-80325802D01*
X235013065Y-80101247D01*
X235029102Y-80000000D01*
X233404121Y-80000000D01*
X233423099Y-79954182D01*
X233450000Y-79818944D01*
X233450000Y-79681056D01*
X233423099Y-79545818D01*
X233404121Y-79500000D01*
X235029102Y-79500000D01*
X235013065Y-79398752D01*
X234940102Y-79174197D01*
X234832914Y-78963828D01*
X234694133Y-78772813D01*
X234527186Y-78605866D01*
X234336171Y-78467085D01*
X234125802Y-78359897D01*
X233901247Y-78286934D01*
X233901248Y-78286934D01*
X233668052Y-78250000D01*
X233000000Y-78250000D01*
X233000000Y-79095879D01*
X232954182Y-79076901D01*
X232818944Y-79050000D01*
X232681056Y-79050000D01*
X232545818Y-79076901D01*
X232500000Y-79095879D01*
X232500000Y-78250000D01*
X231831948Y-78250000D01*
X231598752Y-78286934D01*
X231374197Y-78359897D01*
X231163828Y-78467085D01*
X230972813Y-78605866D01*
X230805866Y-78772813D01*
X230667085Y-78963828D01*
X230559897Y-79174197D01*
X230486934Y-79398752D01*
X230470898Y-79500000D01*
X232095879Y-79500000D01*
X232076901Y-79545818D01*
X232050000Y-79681056D01*
X232050000Y-79818944D01*
X232076901Y-79954182D01*
X232095879Y-80000000D01*
X230470898Y-80000000D01*
X165000500Y-80000000D01*
X165000500Y-76890001D01*
X166184532Y-76890001D01*
X166204364Y-77116686D01*
X166204366Y-77116697D01*
X166263258Y-77336488D01*
X166263261Y-77336497D01*
X166359431Y-77542732D01*
X166359432Y-77542734D01*
X166489954Y-77729141D01*
X166650858Y-77890045D01*
X166650861Y-77890047D01*
X166837266Y-78020568D01*
X167043504Y-78116739D01*
X167263308Y-78175635D01*
X167425230Y-78189801D01*
X167489998Y-78195468D01*
X167490000Y-78195468D01*
X167490002Y-78195468D01*
X167546807Y-78190498D01*
X167716692Y-78175635D01*
X167936496Y-78116739D01*
X168142734Y-78020568D01*
X168329139Y-77890047D01*
X168490047Y-77729139D01*
X168620568Y-77542734D01*
X168647618Y-77484724D01*
X168693790Y-77432285D01*
X168760983Y-77413133D01*
X168827865Y-77433348D01*
X168872382Y-77484725D01*
X168899429Y-77542728D01*
X168899432Y-77542734D01*
X169029954Y-77729141D01*
X169190858Y-77890045D01*
X169190861Y-77890047D01*
X169377266Y-78020568D01*
X169583504Y-78116739D01*
X169803308Y-78175635D01*
X169965230Y-78189801D01*
X170029998Y-78195468D01*
X170030000Y-78195468D01*
X170030002Y-78195468D01*
X170086807Y-78190498D01*
X170256692Y-78175635D01*
X170476496Y-78116739D01*
X170682734Y-78020568D01*
X170869139Y-77890047D01*
X171030047Y-77729139D01*
X171160568Y-77542734D01*
X171187618Y-77484724D01*
X171233790Y-77432285D01*
X171300983Y-77413133D01*
X171367865Y-77433348D01*
X171412382Y-77484725D01*
X171439429Y-77542728D01*
X171439432Y-77542734D01*
X171569954Y-77729141D01*
X171730858Y-77890045D01*
X171730861Y-77890047D01*
X171917266Y-78020568D01*
X172123504Y-78116739D01*
X172343308Y-78175635D01*
X172505230Y-78189801D01*
X172569998Y-78195468D01*
X172570000Y-78195468D01*
X172570002Y-78195468D01*
X172626807Y-78190498D01*
X172796692Y-78175635D01*
X173016496Y-78116739D01*
X173222734Y-78020568D01*
X173409139Y-77890047D01*
X173570047Y-77729139D01*
X173700568Y-77542734D01*
X173727618Y-77484724D01*
X173773790Y-77432285D01*
X173840983Y-77413133D01*
X173907865Y-77433348D01*
X173952382Y-77484725D01*
X173979429Y-77542728D01*
X173979432Y-77542734D01*
X174109954Y-77729141D01*
X174270858Y-77890045D01*
X174270861Y-77890047D01*
X174457266Y-78020568D01*
X174663504Y-78116739D01*
X174883308Y-78175635D01*
X175045230Y-78189801D01*
X175109998Y-78195468D01*
X175110000Y-78195468D01*
X175110002Y-78195468D01*
X175166807Y-78190498D01*
X175336692Y-78175635D01*
X175556496Y-78116739D01*
X175762734Y-78020568D01*
X175949139Y-77890047D01*
X176110047Y-77729139D01*
X176240568Y-77542734D01*
X176267618Y-77484724D01*
X176313790Y-77432285D01*
X176380983Y-77413133D01*
X176447865Y-77433348D01*
X176492382Y-77484725D01*
X176519429Y-77542728D01*
X176519432Y-77542734D01*
X176649954Y-77729141D01*
X176810858Y-77890045D01*
X176810861Y-77890047D01*
X176997266Y-78020568D01*
X177203504Y-78116739D01*
X177423308Y-78175635D01*
X177585230Y-78189801D01*
X177649998Y-78195468D01*
X177650000Y-78195468D01*
X177650002Y-78195468D01*
X177706807Y-78190498D01*
X177876692Y-78175635D01*
X178096496Y-78116739D01*
X178302734Y-78020568D01*
X178489139Y-77890047D01*
X178650047Y-77729139D01*
X178780568Y-77542734D01*
X178807618Y-77484724D01*
X178853790Y-77432285D01*
X178920983Y-77413133D01*
X178987865Y-77433348D01*
X179032382Y-77484725D01*
X179059429Y-77542728D01*
X179059432Y-77542734D01*
X179189954Y-77729141D01*
X179350858Y-77890045D01*
X179350861Y-77890047D01*
X179537266Y-78020568D01*
X179743504Y-78116739D01*
X179963308Y-78175635D01*
X180125230Y-78189801D01*
X180189998Y-78195468D01*
X180190000Y-78195468D01*
X180190002Y-78195468D01*
X180246807Y-78190498D01*
X180416692Y-78175635D01*
X180636496Y-78116739D01*
X180842734Y-78020568D01*
X181029139Y-77890047D01*
X181190047Y-77729139D01*
X181320568Y-77542734D01*
X181347618Y-77484724D01*
X181393790Y-77432285D01*
X181460983Y-77413133D01*
X181527865Y-77433348D01*
X181572382Y-77484725D01*
X181599429Y-77542728D01*
X181599432Y-77542734D01*
X181729954Y-77729141D01*
X181890858Y-77890045D01*
X181890861Y-77890047D01*
X182077266Y-78020568D01*
X182283504Y-78116739D01*
X182503308Y-78175635D01*
X182665230Y-78189801D01*
X182729998Y-78195468D01*
X182730000Y-78195468D01*
X182730002Y-78195468D01*
X182786807Y-78190498D01*
X182956692Y-78175635D01*
X183176496Y-78116739D01*
X183382734Y-78020568D01*
X183569139Y-77890047D01*
X183730047Y-77729139D01*
X183860568Y-77542734D01*
X183887618Y-77484724D01*
X183933790Y-77432285D01*
X184000983Y-77413133D01*
X184067865Y-77433348D01*
X184112382Y-77484725D01*
X184139429Y-77542728D01*
X184139432Y-77542734D01*
X184269954Y-77729141D01*
X184430858Y-77890045D01*
X184430861Y-77890047D01*
X184617266Y-78020568D01*
X184823504Y-78116739D01*
X185043308Y-78175635D01*
X185205230Y-78189801D01*
X185269998Y-78195468D01*
X185270000Y-78195468D01*
X185270002Y-78195468D01*
X185326807Y-78190498D01*
X185496692Y-78175635D01*
X185716496Y-78116739D01*
X185922734Y-78020568D01*
X186109139Y-77890047D01*
X186270047Y-77729139D01*
X186400568Y-77542734D01*
X186427618Y-77484724D01*
X186473790Y-77432285D01*
X186540983Y-77413133D01*
X186607865Y-77433348D01*
X186652382Y-77484725D01*
X186679429Y-77542728D01*
X186679432Y-77542734D01*
X186809954Y-77729141D01*
X186970858Y-77890045D01*
X186970861Y-77890047D01*
X187157266Y-78020568D01*
X187363504Y-78116739D01*
X187583308Y-78175635D01*
X187745230Y-78189801D01*
X187809998Y-78195468D01*
X187810000Y-78195468D01*
X187810002Y-78195468D01*
X187866807Y-78190498D01*
X188036692Y-78175635D01*
X188256496Y-78116739D01*
X188462734Y-78020568D01*
X188649139Y-77890047D01*
X188810047Y-77729139D01*
X188940568Y-77542734D01*
X188967618Y-77484724D01*
X189013790Y-77432285D01*
X189080983Y-77413133D01*
X189147865Y-77433348D01*
X189192382Y-77484725D01*
X189219429Y-77542728D01*
X189219432Y-77542734D01*
X189349954Y-77729141D01*
X189510858Y-77890045D01*
X189510861Y-77890047D01*
X189697266Y-78020568D01*
X189903504Y-78116739D01*
X190123308Y-78175635D01*
X190285230Y-78189801D01*
X190349998Y-78195468D01*
X190350000Y-78195468D01*
X190350002Y-78195468D01*
X190406807Y-78190498D01*
X190576692Y-78175635D01*
X190796496Y-78116739D01*
X191002734Y-78020568D01*
X191189139Y-77890047D01*
X191350047Y-77729139D01*
X191480568Y-77542734D01*
X191507618Y-77484724D01*
X191553790Y-77432285D01*
X191620983Y-77413133D01*
X191687865Y-77433348D01*
X191732382Y-77484725D01*
X191759429Y-77542728D01*
X191759432Y-77542734D01*
X191889954Y-77729141D01*
X192050858Y-77890045D01*
X192050861Y-77890047D01*
X192237266Y-78020568D01*
X192443504Y-78116739D01*
X192663308Y-78175635D01*
X192825230Y-78189801D01*
X192889998Y-78195468D01*
X192890000Y-78195468D01*
X192890002Y-78195468D01*
X192946807Y-78190498D01*
X193116692Y-78175635D01*
X193336496Y-78116739D01*
X193542734Y-78020568D01*
X193729139Y-77890047D01*
X193890047Y-77729139D01*
X194020568Y-77542734D01*
X194047895Y-77484129D01*
X194094064Y-77431695D01*
X194161257Y-77412542D01*
X194228139Y-77432757D01*
X194272657Y-77484133D01*
X194299865Y-77542482D01*
X194430342Y-77728820D01*
X194591179Y-77889657D01*
X194777517Y-78020134D01*
X194983673Y-78116265D01*
X194983682Y-78116269D01*
X195179999Y-78168872D01*
X195180000Y-78168871D01*
X195180000Y-77323012D01*
X195237007Y-77355925D01*
X195364174Y-77390000D01*
X195495826Y-77390000D01*
X195622993Y-77355925D01*
X195680000Y-77323012D01*
X195680000Y-78168872D01*
X195876317Y-78116269D01*
X195876326Y-78116265D01*
X196082482Y-78020134D01*
X196268820Y-77889657D01*
X196429657Y-77728820D01*
X196560132Y-77542484D01*
X196587341Y-77484134D01*
X196633513Y-77431695D01*
X196700707Y-77412542D01*
X196767588Y-77432757D01*
X196812106Y-77484133D01*
X196839431Y-77542732D01*
X196839432Y-77542734D01*
X196969954Y-77729141D01*
X197130858Y-77890045D01*
X197130861Y-77890047D01*
X197317266Y-78020568D01*
X197523504Y-78116739D01*
X197743308Y-78175635D01*
X197905230Y-78189801D01*
X197969998Y-78195468D01*
X197970000Y-78195468D01*
X197970002Y-78195468D01*
X198026807Y-78190498D01*
X198196692Y-78175635D01*
X198416496Y-78116739D01*
X198622734Y-78020568D01*
X198809139Y-77890047D01*
X198970047Y-77729139D01*
X199100568Y-77542734D01*
X199127618Y-77484724D01*
X199173790Y-77432285D01*
X199240983Y-77413133D01*
X199307865Y-77433348D01*
X199352382Y-77484725D01*
X199379429Y-77542728D01*
X199379432Y-77542734D01*
X199509954Y-77729141D01*
X199670858Y-77890045D01*
X199670861Y-77890047D01*
X199857266Y-78020568D01*
X200063504Y-78116739D01*
X200283308Y-78175635D01*
X200445230Y-78189801D01*
X200509998Y-78195468D01*
X200510000Y-78195468D01*
X200510002Y-78195468D01*
X200566807Y-78190498D01*
X200736692Y-78175635D01*
X200956496Y-78116739D01*
X201162734Y-78020568D01*
X201349139Y-77890047D01*
X201510047Y-77729139D01*
X201527272Y-77704539D01*
X201581848Y-77660913D01*
X201651346Y-77653718D01*
X201713701Y-77685239D01*
X201749116Y-77745468D01*
X201752138Y-77762406D01*
X201755908Y-77797483D01*
X201806202Y-77932328D01*
X201806206Y-77932335D01*
X201892452Y-78047544D01*
X201892455Y-78047547D01*
X202007664Y-78133793D01*
X202007671Y-78133797D01*
X202142517Y-78184091D01*
X202142516Y-78184091D01*
X202149444Y-78184835D01*
X202202127Y-78190500D01*
X203897872Y-78190499D01*
X203957483Y-78184091D01*
X204092331Y-78133796D01*
X204207546Y-78047546D01*
X204293796Y-77932331D01*
X204344091Y-77797483D01*
X204350500Y-77737873D01*
X204350499Y-76042128D01*
X204344091Y-75982517D01*
X204309567Y-75889954D01*
X204293797Y-75847671D01*
X204293793Y-75847664D01*
X204207547Y-75732455D01*
X204207544Y-75732452D01*
X204092335Y-75646206D01*
X204092328Y-75646202D01*
X203957482Y-75595908D01*
X203957483Y-75595908D01*
X203897883Y-75589501D01*
X203897881Y-75589500D01*
X203897873Y-75589500D01*
X203897864Y-75589500D01*
X202202129Y-75589500D01*
X202202123Y-75589501D01*
X202142516Y-75595908D01*
X202007671Y-75646202D01*
X202007664Y-75646206D01*
X201892455Y-75732452D01*
X201892452Y-75732455D01*
X201806206Y-75847664D01*
X201806202Y-75847671D01*
X201755908Y-75982516D01*
X201752137Y-76017596D01*
X201725398Y-76082146D01*
X201668006Y-76121994D01*
X201598180Y-76124487D01*
X201538092Y-76088834D01*
X201527273Y-76075462D01*
X201510045Y-76050858D01*
X201349141Y-75889954D01*
X201162734Y-75759432D01*
X201162732Y-75759431D01*
X200956497Y-75663261D01*
X200956488Y-75663258D01*
X200736697Y-75604366D01*
X200736693Y-75604365D01*
X200736692Y-75604365D01*
X200736691Y-75604364D01*
X200736686Y-75604364D01*
X200510002Y-75584532D01*
X200509998Y-75584532D01*
X200283313Y-75604364D01*
X200283302Y-75604366D01*
X200063511Y-75663258D01*
X200063502Y-75663261D01*
X199857267Y-75759431D01*
X199857265Y-75759432D01*
X199670858Y-75889954D01*
X199509954Y-76050858D01*
X199379432Y-76237265D01*
X199379431Y-76237267D01*
X199352382Y-76295275D01*
X199306209Y-76347714D01*
X199239016Y-76366866D01*
X199172135Y-76346650D01*
X199127618Y-76295275D01*
X199100686Y-76237520D01*
X199100568Y-76237266D01*
X198970047Y-76050861D01*
X198970045Y-76050858D01*
X198809141Y-75889954D01*
X198622734Y-75759432D01*
X198622732Y-75759431D01*
X198416497Y-75663261D01*
X198416488Y-75663258D01*
X198196697Y-75604366D01*
X198196693Y-75604365D01*
X198196692Y-75604365D01*
X198196691Y-75604364D01*
X198196686Y-75604364D01*
X197970002Y-75584532D01*
X197969998Y-75584532D01*
X197743313Y-75604364D01*
X197743302Y-75604366D01*
X197523511Y-75663258D01*
X197523502Y-75663261D01*
X197317267Y-75759431D01*
X197317265Y-75759432D01*
X197130858Y-75889954D01*
X196969954Y-76050858D01*
X196839433Y-76237264D01*
X196839432Y-76237266D01*
X196839315Y-76237518D01*
X196812106Y-76295867D01*
X196765933Y-76348306D01*
X196698739Y-76367457D01*
X196631858Y-76347241D01*
X196587342Y-76295865D01*
X196560135Y-76237520D01*
X196560134Y-76237518D01*
X196429657Y-76051179D01*
X196268820Y-75890342D01*
X196082482Y-75759865D01*
X195876328Y-75663734D01*
X195680000Y-75611127D01*
X195680000Y-76456988D01*
X195622993Y-76424075D01*
X195495826Y-76390000D01*
X195364174Y-76390000D01*
X195237007Y-76424075D01*
X195180000Y-76456988D01*
X195180000Y-75611127D01*
X194983671Y-75663734D01*
X194777517Y-75759865D01*
X194591179Y-75890342D01*
X194430342Y-76051179D01*
X194299867Y-76237515D01*
X194272657Y-76295867D01*
X194226484Y-76348306D01*
X194159290Y-76367457D01*
X194092409Y-76347241D01*
X194047893Y-76295865D01*
X194020685Y-76237518D01*
X194020568Y-76237266D01*
X193890047Y-76050861D01*
X193890045Y-76050858D01*
X193729141Y-75889954D01*
X193542734Y-75759432D01*
X193542732Y-75759431D01*
X193336497Y-75663261D01*
X193336488Y-75663258D01*
X193116697Y-75604366D01*
X193116693Y-75604365D01*
X193116692Y-75604365D01*
X193116691Y-75604364D01*
X193116686Y-75604364D01*
X192890002Y-75584532D01*
X192889998Y-75584532D01*
X192663313Y-75604364D01*
X192663302Y-75604366D01*
X192443511Y-75663258D01*
X192443502Y-75663261D01*
X192237267Y-75759431D01*
X192237265Y-75759432D01*
X192050858Y-75889954D01*
X191889954Y-76050858D01*
X191759432Y-76237265D01*
X191759431Y-76237267D01*
X191732382Y-76295275D01*
X191686209Y-76347714D01*
X191619016Y-76366866D01*
X191552135Y-76346650D01*
X191507618Y-76295275D01*
X191480686Y-76237520D01*
X191480568Y-76237266D01*
X191350047Y-76050861D01*
X191350045Y-76050858D01*
X191189141Y-75889954D01*
X191002734Y-75759432D01*
X191002732Y-75759431D01*
X190796497Y-75663261D01*
X190796488Y-75663258D01*
X190576697Y-75604366D01*
X190576693Y-75604365D01*
X190576692Y-75604365D01*
X190576691Y-75604364D01*
X190576686Y-75604364D01*
X190350002Y-75584532D01*
X190349998Y-75584532D01*
X190123313Y-75604364D01*
X190123302Y-75604366D01*
X189903511Y-75663258D01*
X189903502Y-75663261D01*
X189697267Y-75759431D01*
X189697265Y-75759432D01*
X189510858Y-75889954D01*
X189349954Y-76050858D01*
X189219432Y-76237265D01*
X189219431Y-76237267D01*
X189192382Y-76295275D01*
X189146209Y-76347714D01*
X189079016Y-76366866D01*
X189012135Y-76346650D01*
X188967618Y-76295275D01*
X188940686Y-76237520D01*
X188940568Y-76237266D01*
X188810047Y-76050861D01*
X188810045Y-76050858D01*
X188649141Y-75889954D01*
X188462734Y-75759432D01*
X188462732Y-75759431D01*
X188256497Y-75663261D01*
X188256488Y-75663258D01*
X188036697Y-75604366D01*
X188036693Y-75604365D01*
X188036692Y-75604365D01*
X188036691Y-75604364D01*
X188036686Y-75604364D01*
X187810002Y-75584532D01*
X187809998Y-75584532D01*
X187583313Y-75604364D01*
X187583302Y-75604366D01*
X187363511Y-75663258D01*
X187363502Y-75663261D01*
X187157267Y-75759431D01*
X187157265Y-75759432D01*
X186970858Y-75889954D01*
X186809954Y-76050858D01*
X186679432Y-76237265D01*
X186679431Y-76237267D01*
X186652382Y-76295275D01*
X186606209Y-76347714D01*
X186539016Y-76366866D01*
X186472135Y-76346650D01*
X186427618Y-76295275D01*
X186400686Y-76237520D01*
X186400568Y-76237266D01*
X186270047Y-76050861D01*
X186270045Y-76050858D01*
X186109141Y-75889954D01*
X185922734Y-75759432D01*
X185922732Y-75759431D01*
X185716497Y-75663261D01*
X185716488Y-75663258D01*
X185496697Y-75604366D01*
X185496693Y-75604365D01*
X185496692Y-75604365D01*
X185496691Y-75604364D01*
X185496686Y-75604364D01*
X185270002Y-75584532D01*
X185269998Y-75584532D01*
X185043313Y-75604364D01*
X185043302Y-75604366D01*
X184823511Y-75663258D01*
X184823502Y-75663261D01*
X184617267Y-75759431D01*
X184617265Y-75759432D01*
X184430858Y-75889954D01*
X184269954Y-76050858D01*
X184139432Y-76237265D01*
X184139431Y-76237267D01*
X184112382Y-76295275D01*
X184066209Y-76347714D01*
X183999016Y-76366866D01*
X183932135Y-76346650D01*
X183887618Y-76295275D01*
X183860686Y-76237520D01*
X183860568Y-76237266D01*
X183730047Y-76050861D01*
X183730045Y-76050858D01*
X183569141Y-75889954D01*
X183382734Y-75759432D01*
X183382732Y-75759431D01*
X183176497Y-75663261D01*
X183176488Y-75663258D01*
X182956697Y-75604366D01*
X182956693Y-75604365D01*
X182956692Y-75604365D01*
X182956691Y-75604364D01*
X182956686Y-75604364D01*
X182730002Y-75584532D01*
X182729998Y-75584532D01*
X182503313Y-75604364D01*
X182503302Y-75604366D01*
X182283511Y-75663258D01*
X182283502Y-75663261D01*
X182077267Y-75759431D01*
X182077265Y-75759432D01*
X181890858Y-75889954D01*
X181729954Y-76050858D01*
X181599432Y-76237265D01*
X181599431Y-76237267D01*
X181572382Y-76295275D01*
X181526209Y-76347714D01*
X181459016Y-76366866D01*
X181392135Y-76346650D01*
X181347618Y-76295275D01*
X181320686Y-76237520D01*
X181320568Y-76237266D01*
X181190047Y-76050861D01*
X181190045Y-76050858D01*
X181029141Y-75889954D01*
X180842734Y-75759432D01*
X180842732Y-75759431D01*
X180636497Y-75663261D01*
X180636488Y-75663258D01*
X180416697Y-75604366D01*
X180416693Y-75604365D01*
X180416692Y-75604365D01*
X180416691Y-75604364D01*
X180416686Y-75604364D01*
X180190002Y-75584532D01*
X180189998Y-75584532D01*
X179963313Y-75604364D01*
X179963302Y-75604366D01*
X179743511Y-75663258D01*
X179743502Y-75663261D01*
X179537267Y-75759431D01*
X179537265Y-75759432D01*
X179350858Y-75889954D01*
X179189954Y-76050858D01*
X179059432Y-76237265D01*
X179059431Y-76237267D01*
X179032382Y-76295275D01*
X178986209Y-76347714D01*
X178919016Y-76366866D01*
X178852135Y-76346650D01*
X178807618Y-76295275D01*
X178780686Y-76237520D01*
X178780568Y-76237266D01*
X178650047Y-76050861D01*
X178650045Y-76050858D01*
X178489141Y-75889954D01*
X178302734Y-75759432D01*
X178302732Y-75759431D01*
X178096497Y-75663261D01*
X178096488Y-75663258D01*
X177876697Y-75604366D01*
X177876693Y-75604365D01*
X177876692Y-75604365D01*
X177876691Y-75604364D01*
X177876686Y-75604364D01*
X177650002Y-75584532D01*
X177649998Y-75584532D01*
X177423313Y-75604364D01*
X177423302Y-75604366D01*
X177203511Y-75663258D01*
X177203502Y-75663261D01*
X176997267Y-75759431D01*
X176997265Y-75759432D01*
X176810858Y-75889954D01*
X176649954Y-76050858D01*
X176519432Y-76237265D01*
X176519431Y-76237267D01*
X176492382Y-76295275D01*
X176446209Y-76347714D01*
X176379016Y-76366866D01*
X176312135Y-76346650D01*
X176267618Y-76295275D01*
X176240686Y-76237520D01*
X176240568Y-76237266D01*
X176110047Y-76050861D01*
X176110045Y-76050858D01*
X175949141Y-75889954D01*
X175762734Y-75759432D01*
X175762732Y-75759431D01*
X175556497Y-75663261D01*
X175556488Y-75663258D01*
X175336697Y-75604366D01*
X175336693Y-75604365D01*
X175336692Y-75604365D01*
X175336691Y-75604364D01*
X175336686Y-75604364D01*
X175110002Y-75584532D01*
X175109998Y-75584532D01*
X174883313Y-75604364D01*
X174883302Y-75604366D01*
X174663511Y-75663258D01*
X174663502Y-75663261D01*
X174457267Y-75759431D01*
X174457265Y-75759432D01*
X174270858Y-75889954D01*
X174109954Y-76050858D01*
X173979432Y-76237265D01*
X173979431Y-76237267D01*
X173952382Y-76295275D01*
X173906209Y-76347714D01*
X173839016Y-76366866D01*
X173772135Y-76346650D01*
X173727618Y-76295275D01*
X173700686Y-76237520D01*
X173700568Y-76237266D01*
X173570047Y-76050861D01*
X173570045Y-76050858D01*
X173409141Y-75889954D01*
X173222734Y-75759432D01*
X173222732Y-75759431D01*
X173016497Y-75663261D01*
X173016488Y-75663258D01*
X172796697Y-75604366D01*
X172796693Y-75604365D01*
X172796692Y-75604365D01*
X172796691Y-75604364D01*
X172796686Y-75604364D01*
X172570002Y-75584532D01*
X172569998Y-75584532D01*
X172343313Y-75604364D01*
X172343302Y-75604366D01*
X172123511Y-75663258D01*
X172123502Y-75663261D01*
X171917267Y-75759431D01*
X171917265Y-75759432D01*
X171730858Y-75889954D01*
X171569954Y-76050858D01*
X171439432Y-76237265D01*
X171439431Y-76237267D01*
X171412382Y-76295275D01*
X171366209Y-76347714D01*
X171299016Y-76366866D01*
X171232135Y-76346650D01*
X171187618Y-76295275D01*
X171160686Y-76237520D01*
X171160568Y-76237266D01*
X171030047Y-76050861D01*
X171030045Y-76050858D01*
X170869141Y-75889954D01*
X170682734Y-75759432D01*
X170682732Y-75759431D01*
X170476497Y-75663261D01*
X170476488Y-75663258D01*
X170256697Y-75604366D01*
X170256693Y-75604365D01*
X170256692Y-75604365D01*
X170256691Y-75604364D01*
X170256686Y-75604364D01*
X170030002Y-75584532D01*
X170029998Y-75584532D01*
X169803313Y-75604364D01*
X169803302Y-75604366D01*
X169583511Y-75663258D01*
X169583502Y-75663261D01*
X169377267Y-75759431D01*
X169377265Y-75759432D01*
X169190858Y-75889954D01*
X169029954Y-76050858D01*
X168899432Y-76237265D01*
X168899431Y-76237267D01*
X168872382Y-76295275D01*
X168826209Y-76347714D01*
X168759016Y-76366866D01*
X168692135Y-76346650D01*
X168647618Y-76295275D01*
X168620686Y-76237520D01*
X168620568Y-76237266D01*
X168490047Y-76050861D01*
X168490045Y-76050858D01*
X168329141Y-75889954D01*
X168142734Y-75759432D01*
X168142732Y-75759431D01*
X167936497Y-75663261D01*
X167936488Y-75663258D01*
X167716697Y-75604366D01*
X167716693Y-75604365D01*
X167716692Y-75604365D01*
X167716691Y-75604364D01*
X167716686Y-75604364D01*
X167490002Y-75584532D01*
X167489998Y-75584532D01*
X167263313Y-75604364D01*
X167263302Y-75604366D01*
X167043511Y-75663258D01*
X167043502Y-75663261D01*
X166837267Y-75759431D01*
X166837265Y-75759432D01*
X166650858Y-75889954D01*
X166489954Y-76050858D01*
X166359432Y-76237265D01*
X166359431Y-76237267D01*
X166263261Y-76443502D01*
X166263258Y-76443511D01*
X166204366Y-76663302D01*
X166204364Y-76663313D01*
X166184532Y-76889998D01*
X166184532Y-76890001D01*
X165000500Y-76890001D01*
X165000500Y-69868097D01*
X169227000Y-69868097D01*
X169263946Y-70101368D01*
X169336933Y-70325996D01*
X169444157Y-70536433D01*
X169582983Y-70727510D01*
X169749990Y-70894517D01*
X169941067Y-71033343D01*
X170040491Y-71084002D01*
X170151503Y-71140566D01*
X170151505Y-71140566D01*
X170151508Y-71140568D01*
X170271912Y-71179689D01*
X170376131Y-71213553D01*
X170609403Y-71250500D01*
X170609408Y-71250500D01*
X172445597Y-71250500D01*
X172678868Y-71213553D01*
X172903492Y-71140568D01*
X173113933Y-71033343D01*
X173305010Y-70894517D01*
X173472017Y-70727510D01*
X173600985Y-70550001D01*
X230422000Y-70550001D01*
X230422001Y-70550018D01*
X230432500Y-70652796D01*
X230432501Y-70652799D01*
X230457259Y-70727512D01*
X230487686Y-70819334D01*
X230579788Y-70968656D01*
X230703844Y-71092712D01*
X230853166Y-71184814D01*
X231019703Y-71239999D01*
X231122491Y-71250500D01*
X234322508Y-71250499D01*
X234425297Y-71239999D01*
X234591834Y-71184814D01*
X234741156Y-71092712D01*
X234865212Y-70968656D01*
X234957314Y-70819334D01*
X235012499Y-70652797D01*
X235023000Y-70550009D01*
X235022999Y-68949992D01*
X235012499Y-68847203D01*
X234957314Y-68680666D01*
X234865212Y-68531344D01*
X234741156Y-68407288D01*
X234591834Y-68315186D01*
X234425297Y-68260001D01*
X234425295Y-68260000D01*
X234322510Y-68249500D01*
X231122498Y-68249500D01*
X231122481Y-68249501D01*
X231019703Y-68260000D01*
X231019700Y-68260001D01*
X230853168Y-68315185D01*
X230853163Y-68315187D01*
X230703842Y-68407289D01*
X230579789Y-68531342D01*
X230487687Y-68680663D01*
X230487686Y-68680666D01*
X230432501Y-68847203D01*
X230432501Y-68847204D01*
X230432500Y-68847204D01*
X230422000Y-68949983D01*
X230422000Y-70550001D01*
X173600985Y-70550001D01*
X173610843Y-70536433D01*
X173718068Y-70325992D01*
X173791053Y-70101368D01*
X173828000Y-69868097D01*
X173828000Y-69631902D01*
X173791053Y-69398631D01*
X173718066Y-69174003D01*
X173610842Y-68963566D01*
X173472017Y-68772490D01*
X173305010Y-68605483D01*
X173113933Y-68466657D01*
X172903496Y-68359433D01*
X172678868Y-68286446D01*
X172445597Y-68249500D01*
X172445592Y-68249500D01*
X170609408Y-68249500D01*
X170609403Y-68249500D01*
X170376131Y-68286446D01*
X170151503Y-68359433D01*
X169941066Y-68466657D01*
X169852036Y-68531342D01*
X169749990Y-68605483D01*
X169749988Y-68605485D01*
X169749987Y-68605485D01*
X169582985Y-68772487D01*
X169582985Y-68772488D01*
X169582983Y-68772490D01*
X169528703Y-68847200D01*
X169444157Y-68963566D01*
X169336933Y-69174003D01*
X169263946Y-69398631D01*
X169227000Y-69631902D01*
X169227000Y-69868097D01*
X165000500Y-69868097D01*
X165000500Y-65550001D01*
X169227000Y-65550001D01*
X169227001Y-65550018D01*
X169237500Y-65652796D01*
X169237501Y-65652799D01*
X169262259Y-65727512D01*
X169292686Y-65819334D01*
X169384788Y-65968656D01*
X169508844Y-66092712D01*
X169658166Y-66184814D01*
X169824703Y-66239999D01*
X169927491Y-66250500D01*
X173127508Y-66250499D01*
X173230297Y-66239999D01*
X173396834Y-66184814D01*
X173546156Y-66092712D01*
X173670212Y-65968656D01*
X173762314Y-65819334D01*
X173817499Y-65652797D01*
X173828000Y-65550009D01*
X173828000Y-64868097D01*
X230422000Y-64868097D01*
X230458946Y-65101368D01*
X230531933Y-65325996D01*
X230639157Y-65536433D01*
X230777983Y-65727510D01*
X230944990Y-65894517D01*
X231136067Y-66033343D01*
X231235491Y-66084002D01*
X231346503Y-66140566D01*
X231346505Y-66140566D01*
X231346508Y-66140568D01*
X231466912Y-66179689D01*
X231571131Y-66213553D01*
X231804403Y-66250500D01*
X231804408Y-66250500D01*
X233640597Y-66250500D01*
X233873868Y-66213553D01*
X234098492Y-66140568D01*
X234308933Y-66033343D01*
X234500010Y-65894517D01*
X234667017Y-65727510D01*
X234805843Y-65536433D01*
X234913068Y-65325992D01*
X234986053Y-65101368D01*
X235023000Y-64868097D01*
X235023000Y-64631902D01*
X234986053Y-64398631D01*
X234942894Y-64265804D01*
X234913068Y-64174008D01*
X234913066Y-64174005D01*
X234913066Y-64174003D01*
X234832677Y-64016232D01*
X234805843Y-63963567D01*
X234667017Y-63772490D01*
X234500010Y-63605483D01*
X234308933Y-63466657D01*
X234098496Y-63359433D01*
X233873868Y-63286446D01*
X233640597Y-63249500D01*
X233640592Y-63249500D01*
X231804408Y-63249500D01*
X231804403Y-63249500D01*
X231571131Y-63286446D01*
X231346503Y-63359433D01*
X231136066Y-63466657D01*
X231093688Y-63497447D01*
X230944990Y-63605483D01*
X230944988Y-63605485D01*
X230944987Y-63605485D01*
X230777985Y-63772487D01*
X230777985Y-63772488D01*
X230777983Y-63772490D01*
X230736858Y-63829094D01*
X230639157Y-63963566D01*
X230531933Y-64174003D01*
X230458946Y-64398631D01*
X230422000Y-64631902D01*
X230422000Y-64868097D01*
X173828000Y-64868097D01*
X173827999Y-63949992D01*
X173822212Y-63893345D01*
X173817499Y-63847203D01*
X173817498Y-63847200D01*
X173801522Y-63798988D01*
X173762314Y-63680666D01*
X173670212Y-63531344D01*
X173546156Y-63407288D01*
X173396834Y-63315186D01*
X173230297Y-63260001D01*
X173230295Y-63260000D01*
X173127510Y-63249500D01*
X169927498Y-63249500D01*
X169927481Y-63249501D01*
X169824703Y-63260000D01*
X169824700Y-63260001D01*
X169658168Y-63315185D01*
X169658163Y-63315187D01*
X169508842Y-63407289D01*
X169384789Y-63531342D01*
X169292687Y-63680663D01*
X169292686Y-63680666D01*
X169237501Y-63847203D01*
X169237501Y-63847204D01*
X169237500Y-63847204D01*
X169227000Y-63949983D01*
X169227000Y-65550001D01*
X165000500Y-65550001D01*
X165000500Y-61374500D01*
X165020185Y-61307461D01*
X165072989Y-61261706D01*
X165124500Y-61250500D01*
X177535567Y-61250500D01*
X177602606Y-61270185D01*
G37*
%TD.AperFunction*%
%TD*%
M02*
