%TF.GenerationSoftware,KiCad,Pcbnew,8.0.1*%
%TF.CreationDate,2024-07-20T14:45:51-04:00*%
%TF.ProjectId,musubwi,6d757375-6277-4692-9e6b-696361645f70,rev?*%
%TF.SameCoordinates,Original*%
%TF.FileFunction,Copper,L1,Top*%
%TF.FilePolarity,Positive*%
%FSLAX46Y46*%
G04 Gerber Fmt 4.6, Leading zero omitted, Abs format (unit mm)*
G04 Created by KiCad (PCBNEW 8.0.1) date 2024-07-20 14:45:51*
%MOMM*%
%LPD*%
G01*
G04 APERTURE LIST*
G04 Aperture macros list*
%AMRoundRect*
0 Rectangle with rounded corners*
0 $1 Rounding radius*
0 $2 $3 $4 $5 $6 $7 $8 $9 X,Y pos of 4 corners*
0 Add a 4 corners polygon primitive as box body*
4,1,4,$2,$3,$4,$5,$6,$7,$8,$9,$2,$3,0*
0 Add four circle primitives for the rounded corners*
1,1,$1+$1,$2,$3*
1,1,$1+$1,$4,$5*
1,1,$1+$1,$6,$7*
1,1,$1+$1,$8,$9*
0 Add four rect primitives between the rounded corners*
20,1,$1+$1,$2,$3,$4,$5,0*
20,1,$1+$1,$4,$5,$6,$7,0*
20,1,$1+$1,$6,$7,$8,$9,0*
20,1,$1+$1,$8,$9,$2,$3,0*%
G04 Aperture macros list end*
%TA.AperFunction,ComponentPad*%
%ADD10C,6.000000*%
%TD*%
%TA.AperFunction,SMDPad,CuDef*%
%ADD11RoundRect,0.250000X0.337500X0.475000X-0.337500X0.475000X-0.337500X-0.475000X0.337500X-0.475000X0*%
%TD*%
%TA.AperFunction,ComponentPad*%
%ADD12O,1.600000X1.600000*%
%TD*%
%TA.AperFunction,ComponentPad*%
%ADD13R,1.600000X1.600000*%
%TD*%
%TA.AperFunction,ComponentPad*%
%ADD14O,1.200000X1.750000*%
%TD*%
%TA.AperFunction,ComponentPad*%
%ADD15RoundRect,0.250000X-0.350000X-0.625000X0.350000X-0.625000X0.350000X0.625000X-0.350000X0.625000X0*%
%TD*%
%TA.AperFunction,SMDPad,CuDef*%
%ADD16R,1.000000X1.600000*%
%TD*%
%TA.AperFunction,SMDPad,CuDef*%
%ADD17RoundRect,0.250000X-0.337500X-0.475000X0.337500X-0.475000X0.337500X0.475000X-0.337500X0.475000X0*%
%TD*%
%TA.AperFunction,ComponentPad*%
%ADD18RoundRect,1.500000X-1.500000X-1.500000X1.500000X-1.500000X1.500000X1.500000X-1.500000X1.500000X0*%
%TD*%
%TA.AperFunction,ComponentPad*%
%ADD19O,3.600000X2.000000*%
%TD*%
%TA.AperFunction,ComponentPad*%
%ADD20RoundRect,0.250000X1.550000X-0.750000X1.550000X0.750000X-1.550000X0.750000X-1.550000X-0.750000X0*%
%TD*%
%TA.AperFunction,ComponentPad*%
%ADD21RoundRect,0.250000X0.350000X0.625000X-0.350000X0.625000X-0.350000X-0.625000X0.350000X-0.625000X0*%
%TD*%
%TA.AperFunction,ComponentPad*%
%ADD22RoundRect,0.250000X-1.550000X0.750000X-1.550000X-0.750000X1.550000X-0.750000X1.550000X0.750000X0*%
%TD*%
%TA.AperFunction,SMDPad,CuDef*%
%ADD23R,1.170000X1.800000*%
%TD*%
%TA.AperFunction,ViaPad*%
%ADD24C,0.600000*%
%TD*%
%TA.AperFunction,Conductor*%
%ADD25C,0.200000*%
%TD*%
G04 APERTURE END LIST*
D10*
%TO.P,REF\u002A\u002A,1*%
%TO.N,N/C*%
X213500000Y-86500000D03*
%TD*%
%TO.P,REF\u002A\u002A,1*%
%TO.N,N/C*%
X170500000Y-105500000D03*
%TD*%
D11*
%TO.P,C7,2*%
%TO.N,GND*%
X185462500Y-98750000D03*
%TO.P,C7,1*%
%TO.N,+3.3V*%
X187537500Y-98750000D03*
%TD*%
D12*
%TO.P,A1,30,VIN*%
%TO.N,+12V*%
X203050000Y-92130000D03*
%TO.P,A1,29,GND*%
%TO.N,GND*%
X200510000Y-92130000D03*
%TO.P,A1,28,~{RESET}*%
%TO.N,unconnected-(A1-~{RESET}-Pad28)*%
X197970000Y-92130000D03*
%TO.P,A1,27,+5V*%
%TO.N,+5V*%
X195430000Y-92130000D03*
%TO.P,A1,26,A7*%
%TO.N,unconnected-(A1-A7-Pad26)*%
X192890000Y-92130000D03*
%TO.P,A1,25,A6*%
%TO.N,unconnected-(A1-A6-Pad25)*%
X190350000Y-92130000D03*
%TO.P,A1,24,SCL/A5*%
%TO.N,Right_MD1*%
X187810000Y-92130000D03*
%TO.P,A1,23,SDA/A4*%
%TO.N,Right_MD2*%
X185270000Y-92130000D03*
%TO.P,A1,22,A3*%
%TO.N,Line_Back*%
X182730000Y-92130000D03*
%TO.P,A1,21,A2*%
%TO.N,Start_Mod*%
X180190000Y-92130000D03*
%TO.P,A1,20,A1*%
%TO.N,unconnected-(A1-A1-Pad20)*%
X177650000Y-92130000D03*
%TO.P,A1,19,A0*%
%TO.N,unconnected-(A1-A0-Pad19)*%
X175110000Y-92130000D03*
%TO.P,A1,18,AREF*%
%TO.N,unconnected-(A1-AREF-Pad18)*%
X172570000Y-92130000D03*
%TO.P,A1,17,3V3*%
%TO.N,+3.3V*%
X170030000Y-92130000D03*
%TO.P,A1,16,SCK*%
%TO.N,unconnected-(A1-SCK-Pad16)*%
X167490000Y-92130000D03*
%TO.P,A1,15,MISO*%
%TO.N,unconnected-(A1-MISO-Pad15)*%
X167490000Y-76890000D03*
%TO.P,A1,14,MOSI*%
%TO.N,unconnected-(A1-MOSI-Pad14)*%
X170030000Y-76890000D03*
%TO.P,A1,13,D10*%
%TO.N,Left_MD2*%
X172570000Y-76890000D03*
%TO.P,A1,12,D9*%
%TO.N,Left_MD1*%
X175110000Y-76890000D03*
%TO.P,A1,11,D8*%
%TO.N,DS_Left*%
X177650000Y-76890000D03*
%TO.P,A1,10,D7*%
%TO.N,DS_FrontLeft*%
X180190000Y-76890000D03*
%TO.P,A1,9,D6*%
%TO.N,Line_Front*%
X182730000Y-76890000D03*
%TO.P,A1,8,D5*%
%TO.N,DS_Right*%
X185270000Y-76890000D03*
%TO.P,A1,7,D4*%
%TO.N,unconnected-(A1-D4-Pad7)*%
X187810000Y-76890000D03*
%TO.P,A1,6,D3*%
%TO.N,unconnected-(A1-D3-Pad6)*%
X190350000Y-76890000D03*
%TO.P,A1,5,D2*%
%TO.N,DS_FrontRight*%
X192890000Y-76890000D03*
%TO.P,A1,4,GND*%
%TO.N,GND*%
X195430000Y-76890000D03*
%TO.P,A1,3,~{RESET}*%
%TO.N,unconnected-(A1-~{RESET}-Pad3)*%
X197970000Y-76890000D03*
%TO.P,A1,2,RX1*%
%TO.N,unconnected-(A1-RX1-Pad2)*%
X200510000Y-76890000D03*
D13*
%TO.P,A1,1,TX1*%
%TO.N,unconnected-(A1-TX1-Pad1)*%
X203050000Y-76890000D03*
%TD*%
D14*
%TO.P,J4,3,Pin_3*%
%TO.N,DS_FrontRight*%
X215250000Y-62800000D03*
%TO.P,J4,2,Pin_2*%
%TO.N,GND*%
X213250000Y-62800000D03*
D15*
%TO.P,J4,1,Pin_1*%
%TO.N,+3.3V*%
X211250000Y-62800000D03*
%TD*%
D16*
%TO.P,SW1,3*%
%TO.N,N/C*%
X232750000Y-96200000D03*
%TO.P,SW1,2,B*%
%TO.N,Net-(J8-Pin_2)*%
X230250000Y-93800000D03*
%TO.P,SW1,1,A*%
%TO.N,Net-(SW1-A)*%
X227750000Y-96200000D03*
%TD*%
D17*
%TO.P,C8,2*%
%TO.N,+12V*%
X204037500Y-96250000D03*
%TO.P,C8,1*%
%TO.N,GND*%
X201962500Y-96250000D03*
%TD*%
D14*
%TO.P,J1,3,Pin_3*%
%TO.N,DS_Left*%
X182250000Y-62800000D03*
%TO.P,J1,2,Pin_2*%
%TO.N,GND*%
X180250000Y-62800000D03*
D15*
%TO.P,J1,1,Pin_1*%
%TO.N,+3.3V*%
X178250000Y-62800000D03*
%TD*%
D10*
%TO.P,J8,2,Pin_2*%
%TO.N,Net-(J8-Pin_2)*%
X233250000Y-105250000D03*
D18*
%TO.P,J8,1,Pin_1*%
%TO.N,Net-(J8-Pin_1)*%
X226050000Y-105250000D03*
%TD*%
D11*
%TO.P,C9,2*%
%TO.N,GND*%
X216462500Y-98250000D03*
%TO.P,C9,1*%
%TO.N,Net-(J8-Pin_1)*%
X218537500Y-98250000D03*
%TD*%
D19*
%TO.P,J11,2,Pin_2*%
%TO.N,GND*%
X232750000Y-79750000D03*
D20*
%TO.P,J11,1,Pin_1*%
%TO.N,+12V*%
X232750000Y-84750000D03*
%TD*%
D14*
%TO.P,J6,3,Pin_3*%
%TO.N,Line_Back*%
X201000000Y-108700000D03*
%TO.P,J6,2,Pin_2*%
%TO.N,+3.3V*%
X203000000Y-108700000D03*
D21*
%TO.P,J6,1,Pin_1*%
%TO.N,GND*%
X205000000Y-108700000D03*
%TD*%
D19*
%TO.P,J10,2,Pin_2*%
%TO.N,Left_MD2*%
X171527500Y-69750000D03*
D22*
%TO.P,J10,1,Pin_1*%
%TO.N,Left_MD1*%
X171527500Y-64750000D03*
%TD*%
D14*
%TO.P,J5,3,Pin_3*%
%TO.N,Line_Front*%
X204500000Y-62800000D03*
%TO.P,J5,2,Pin_2*%
%TO.N,+3.3V*%
X202500000Y-62800000D03*
D15*
%TO.P,J5,1,Pin_1*%
%TO.N,GND*%
X200500000Y-62800000D03*
%TD*%
D17*
%TO.P,C2,2*%
%TO.N,GND*%
X180787500Y-72250000D03*
%TO.P,C2,1*%
%TO.N,+3.3V*%
X178712500Y-72250000D03*
%TD*%
D14*
%TO.P,J7,3,Pin_3*%
%TO.N,Start_Mod*%
X184250000Y-108950000D03*
%TO.P,J7,2,Pin_2*%
%TO.N,GND*%
X186250000Y-108950000D03*
D21*
%TO.P,J7,1,Pin_1*%
%TO.N,+3.3V*%
X188250000Y-108950000D03*
%TD*%
D17*
%TO.P,C3,2*%
%TO.N,GND*%
X191537500Y-72250000D03*
%TO.P,C3,1*%
%TO.N,+3.3V*%
X189462500Y-72250000D03*
%TD*%
D23*
%TO.P,F1,2*%
%TO.N,Net-(SW1-A)*%
X218970000Y-94750000D03*
%TO.P,F1,1*%
%TO.N,+12V*%
X216030000Y-94750000D03*
%TD*%
D17*
%TO.P,C5,2*%
%TO.N,+3.3V*%
X203287500Y-72500000D03*
%TO.P,C5,1*%
%TO.N,GND*%
X201212500Y-72500000D03*
%TD*%
%TO.P,C1,2*%
%TO.N,GND*%
X224287500Y-72500000D03*
%TO.P,C1,1*%
%TO.N,+3.3V*%
X222212500Y-72500000D03*
%TD*%
D14*
%TO.P,J2,3,Pin_3*%
%TO.N,DS_Right*%
X226000000Y-63050000D03*
%TO.P,J2,2,Pin_2*%
%TO.N,GND*%
X224000000Y-63050000D03*
D15*
%TO.P,J2,1,Pin_1*%
%TO.N,+3.3V*%
X222000000Y-63050000D03*
%TD*%
D19*
%TO.P,J9,2,Pin_2*%
%TO.N,Right_MD2*%
X232722500Y-64750000D03*
D20*
%TO.P,J9,1,Pin_1*%
%TO.N,Right_MD1*%
X232722500Y-69750000D03*
%TD*%
D17*
%TO.P,C4,2*%
%TO.N,GND*%
X214037500Y-72500000D03*
%TO.P,C4,1*%
%TO.N,+3.3V*%
X211962500Y-72500000D03*
%TD*%
D11*
%TO.P,C6,2*%
%TO.N,+3.3V*%
X201962500Y-99250000D03*
%TO.P,C6,1*%
%TO.N,GND*%
X204037500Y-99250000D03*
%TD*%
D14*
%TO.P,J3,3,Pin_3*%
%TO.N,DS_FrontLeft*%
X193000000Y-62800000D03*
%TO.P,J3,2,Pin_2*%
%TO.N,GND*%
X191000000Y-62800000D03*
D15*
%TO.P,J3,1,Pin_1*%
%TO.N,+3.3V*%
X189000000Y-62800000D03*
%TD*%
D24*
%TO.N,GND*%
X196500000Y-75250000D03*
X197000000Y-73500000D03*
%TD*%
D25*
%TO.N,GND*%
X201610000Y-91030000D02*
X218970000Y-91030000D01*
X191537500Y-72250000D02*
X191537500Y-63337500D01*
X224000000Y-63050000D02*
X224000000Y-72212500D01*
X218970000Y-91030000D02*
X230250000Y-79750000D01*
X198500000Y-72500000D02*
X201212500Y-72500000D01*
X185462500Y-98750000D02*
X185462500Y-108162500D01*
X180787500Y-72250000D02*
X180787500Y-63337500D01*
X201212500Y-72500000D02*
X201212500Y-63512500D01*
X205000000Y-108700000D02*
X205000000Y-102287500D01*
X214037500Y-72500000D02*
X214037500Y-63587500D01*
X191537500Y-63337500D02*
X191000000Y-62800000D01*
X200510000Y-92130000D02*
X200510000Y-94797500D01*
X180787500Y-63337500D02*
X180250000Y-62800000D01*
X200510000Y-94797500D02*
X201962500Y-96250000D01*
X204037500Y-101325000D02*
X204037500Y-99250000D01*
X197000000Y-73500000D02*
X197500000Y-73500000D01*
X196500000Y-75820000D02*
X196500000Y-75250000D01*
X185462500Y-108162500D02*
X186250000Y-108950000D01*
X205000000Y-102287500D02*
X204037500Y-101325000D01*
X230250000Y-79750000D02*
X232750000Y-79750000D01*
X197500000Y-73500000D02*
X198500000Y-72500000D01*
X200510000Y-92130000D02*
X201610000Y-91030000D01*
X214037500Y-63587500D02*
X213250000Y-62800000D01*
X224000000Y-72212500D02*
X224287500Y-72500000D01*
X201212500Y-63512500D02*
X200500000Y-62800000D01*
X195430000Y-76890000D02*
X196500000Y-75820000D01*
%TO.N,+3.3V*%
X165500000Y-79500000D02*
X165500000Y-65250000D01*
X189462500Y-72250000D02*
X189462500Y-63262500D01*
X165500000Y-65250000D02*
X167950000Y-62800000D01*
X220450000Y-61500000D02*
X222000000Y-63050000D01*
X211962500Y-63512500D02*
X211250000Y-62800000D01*
X189000000Y-62800000D02*
X190300000Y-61500000D01*
X190300000Y-61500000D02*
X201200000Y-61500000D01*
X222212500Y-72500000D02*
X222212500Y-63262500D01*
X178712500Y-72250000D02*
X178712500Y-63262500D01*
X202500000Y-62800000D02*
X203800000Y-61500000D01*
X187537500Y-108237500D02*
X188250000Y-108950000D01*
X170030000Y-98030000D02*
X182150000Y-110150000D01*
X212550000Y-61500000D02*
X220450000Y-61500000D01*
X201550000Y-110150000D02*
X203000000Y-108700000D01*
X179550000Y-61500000D02*
X187700000Y-61500000D01*
X203800000Y-61500000D02*
X209950000Y-61500000D01*
X211250000Y-62800000D02*
X212550000Y-61500000D01*
X178250000Y-62800000D02*
X179550000Y-61500000D01*
X211962500Y-72500000D02*
X211962500Y-63512500D01*
X178712500Y-63262500D02*
X178250000Y-62800000D01*
X203287500Y-63587500D02*
X202500000Y-62800000D01*
X182150000Y-110150000D02*
X187050000Y-110150000D01*
X187537500Y-98750000D02*
X187537500Y-108237500D01*
X187700000Y-61500000D02*
X189000000Y-62800000D01*
X170030000Y-84030000D02*
X165500000Y-79500000D01*
X167950000Y-62800000D02*
X178250000Y-62800000D01*
X189462500Y-63262500D02*
X189000000Y-62800000D01*
X222212500Y-63262500D02*
X222000000Y-63050000D01*
X201200000Y-61500000D02*
X202500000Y-62800000D01*
X201962500Y-99250000D02*
X201962500Y-107662500D01*
X170030000Y-92130000D02*
X170030000Y-98030000D01*
X203287500Y-72500000D02*
X203287500Y-63587500D01*
X201962500Y-107662500D02*
X203000000Y-108700000D01*
X188250000Y-108950000D02*
X189450000Y-110150000D01*
X187050000Y-110150000D02*
X188250000Y-108950000D01*
X170030000Y-92130000D02*
X170030000Y-84030000D01*
X209950000Y-61500000D02*
X211250000Y-62800000D01*
X189450000Y-110150000D02*
X201550000Y-110150000D01*
%TO.N,+12V*%
X226030000Y-84750000D02*
X216030000Y-94750000D01*
X216030000Y-94750000D02*
X205670000Y-94750000D01*
X203050000Y-95262500D02*
X204037500Y-96250000D01*
X203050000Y-92130000D02*
X203050000Y-95262500D01*
X205670000Y-94750000D02*
X203050000Y-92130000D01*
X232750000Y-84750000D02*
X226030000Y-84750000D01*
%TO.N,DS_Right*%
X188280000Y-79900000D02*
X185270000Y-76890000D01*
X226000000Y-72384744D02*
X218484744Y-79900000D01*
X218484744Y-79900000D02*
X188280000Y-79900000D01*
X226000000Y-63050000D02*
X226000000Y-72384744D01*
%TO.N,Right_MD1*%
X199040000Y-80900000D02*
X221572500Y-80900000D01*
X187810000Y-92130000D02*
X199040000Y-80900000D01*
X221572500Y-80900000D02*
X232722500Y-69750000D01*
%TO.N,DS_Left*%
X182250000Y-72384744D02*
X177744744Y-76890000D01*
X182250000Y-62800000D02*
X182250000Y-72384744D01*
X177744744Y-76890000D02*
X177650000Y-76890000D01*
%TO.N,DS_FrontRight*%
X215250000Y-62800000D02*
X215250000Y-74750000D01*
X215250000Y-74750000D02*
X210500000Y-79500000D01*
X195500000Y-79500000D02*
X192890000Y-76890000D01*
X210500000Y-79500000D02*
X195500000Y-79500000D01*
%TO.N,Line_Front*%
X185370000Y-74250000D02*
X182730000Y-76890000D01*
X204500000Y-62800000D02*
X204500000Y-73000000D01*
X204500000Y-73000000D02*
X203250000Y-74250000D01*
X203250000Y-74250000D02*
X185370000Y-74250000D01*
%TO.N,DS_FrontLeft*%
X183330000Y-73750000D02*
X180190000Y-76890000D01*
X191750000Y-73750000D02*
X183330000Y-73750000D01*
X193000000Y-72500000D02*
X191750000Y-73750000D01*
X193000000Y-62800000D02*
X193000000Y-72500000D01*
%TO.N,Left_MD1*%
X175110000Y-68332500D02*
X175110000Y-76890000D01*
X171527500Y-64750000D02*
X175110000Y-68332500D01*
%TO.N,Right_MD2*%
X185270000Y-89230000D02*
X185270000Y-92130000D01*
X232722500Y-66227930D02*
X218450430Y-80500000D01*
X232722500Y-64750000D02*
X232722500Y-66227930D01*
X218450430Y-80500000D02*
X194000000Y-80500000D01*
X194000000Y-80500000D02*
X185270000Y-89230000D01*
%TO.N,Start_Mod*%
X180190000Y-104890000D02*
X184250000Y-108950000D01*
X180190000Y-92130000D02*
X180190000Y-104890000D01*
%TO.N,Line_Back*%
X201000000Y-107500000D02*
X201000000Y-108700000D01*
X190000000Y-96500000D02*
X201000000Y-107500000D01*
X187100000Y-96500000D02*
X190000000Y-96500000D01*
X182730000Y-92130000D02*
X187100000Y-96500000D01*
%TO.N,Left_MD2*%
X171527500Y-75847500D02*
X172570000Y-76890000D01*
X171527500Y-69750000D02*
X171527500Y-75847500D01*
%TO.N,Net-(J8-Pin_1)*%
X219050000Y-98250000D02*
X226050000Y-105250000D01*
X218537500Y-98250000D02*
X219050000Y-98250000D01*
%TO.N,Net-(SW1-A)*%
X227750000Y-96200000D02*
X220420000Y-96200000D01*
X220420000Y-96200000D02*
X218970000Y-94750000D01*
%TO.N,Net-(J8-Pin_2)*%
X230250000Y-102250000D02*
X230250000Y-93800000D01*
X233250000Y-105250000D02*
X230250000Y-102250000D01*
%TD*%
%TA.AperFunction,Conductor*%
%TO.N,GND*%
G36*
X238942539Y-61270185D02*
G01*
X238988294Y-61322989D01*
X238999500Y-61374500D01*
X238999500Y-110125500D01*
X238979815Y-110192539D01*
X238927011Y-110238294D01*
X238875500Y-110249500D01*
X205712844Y-110249500D01*
X205645805Y-110229815D01*
X205600050Y-110177011D01*
X205590106Y-110107853D01*
X205619131Y-110044297D01*
X205663610Y-110014621D01*
X205662579Y-110012408D01*
X205669124Y-110009356D01*
X205818345Y-109917315D01*
X205942315Y-109793345D01*
X206034356Y-109644124D01*
X206034358Y-109644119D01*
X206089505Y-109477697D01*
X206089506Y-109477690D01*
X206099999Y-109374986D01*
X206100000Y-109374973D01*
X206100000Y-108950000D01*
X205280330Y-108950000D01*
X205300075Y-108930255D01*
X205349444Y-108844745D01*
X205375000Y-108749370D01*
X205375000Y-108650630D01*
X205349444Y-108555255D01*
X205300075Y-108469745D01*
X205280330Y-108450000D01*
X206099999Y-108450000D01*
X206099999Y-108025028D01*
X206099998Y-108025013D01*
X206089505Y-107922302D01*
X206034358Y-107755880D01*
X206034356Y-107755875D01*
X205942315Y-107606654D01*
X205818345Y-107482684D01*
X205669124Y-107390643D01*
X205669119Y-107390641D01*
X205502697Y-107335494D01*
X205502690Y-107335493D01*
X205399986Y-107325000D01*
X205250000Y-107325000D01*
X205250000Y-108419670D01*
X205230255Y-108399925D01*
X205144745Y-108350556D01*
X205049370Y-108325000D01*
X204950630Y-108325000D01*
X204855255Y-108350556D01*
X204769745Y-108399925D01*
X204750000Y-108419670D01*
X204750000Y-107325000D01*
X204600027Y-107325000D01*
X204600012Y-107325001D01*
X204497302Y-107335494D01*
X204330880Y-107390641D01*
X204330875Y-107390643D01*
X204181654Y-107482684D01*
X204057684Y-107606654D01*
X204018053Y-107670907D01*
X203966105Y-107717631D01*
X203897142Y-107728853D01*
X203833060Y-107701010D01*
X203824833Y-107693491D01*
X203716930Y-107585588D01*
X203716928Y-107585586D01*
X203576788Y-107483768D01*
X203422445Y-107405127D01*
X203257701Y-107351598D01*
X203257699Y-107351597D01*
X203257698Y-107351597D01*
X203126271Y-107330781D01*
X203086611Y-107324500D01*
X202913389Y-107324500D01*
X202881192Y-107329599D01*
X202742301Y-107351597D01*
X202742296Y-107351598D01*
X202725314Y-107357116D01*
X202655473Y-107359109D01*
X202595641Y-107323027D01*
X202564815Y-107260325D01*
X202563000Y-107239184D01*
X202563000Y-100513767D01*
X202582685Y-100446728D01*
X202621901Y-100408230D01*
X202768656Y-100317712D01*
X202892712Y-100193656D01*
X202894752Y-100190347D01*
X202896745Y-100188555D01*
X202897193Y-100187989D01*
X202897289Y-100188065D01*
X202946694Y-100143623D01*
X203015656Y-100132395D01*
X203079740Y-100160234D01*
X203105829Y-100190339D01*
X203107681Y-100193341D01*
X203107683Y-100193344D01*
X203231654Y-100317315D01*
X203380875Y-100409356D01*
X203380880Y-100409358D01*
X203547302Y-100464505D01*
X203547309Y-100464506D01*
X203650019Y-100474999D01*
X203787499Y-100474999D01*
X203787500Y-100474998D01*
X203787500Y-99500000D01*
X204287500Y-99500000D01*
X204287500Y-100474999D01*
X204424972Y-100474999D01*
X204424986Y-100474998D01*
X204527697Y-100464505D01*
X204694119Y-100409358D01*
X204694124Y-100409356D01*
X204843345Y-100317315D01*
X204967315Y-100193345D01*
X205059356Y-100044124D01*
X205059358Y-100044119D01*
X205114505Y-99877697D01*
X205114506Y-99877690D01*
X205124999Y-99774986D01*
X205125000Y-99774973D01*
X205125000Y-99500000D01*
X204287500Y-99500000D01*
X203787500Y-99500000D01*
X203787500Y-98025000D01*
X204287500Y-98025000D01*
X204287500Y-99000000D01*
X205124999Y-99000000D01*
X205124999Y-98725028D01*
X205124998Y-98725013D01*
X205114505Y-98622302D01*
X205073978Y-98500000D01*
X215375001Y-98500000D01*
X215375001Y-98774986D01*
X215385494Y-98877697D01*
X215440641Y-99044119D01*
X215440643Y-99044124D01*
X215532684Y-99193345D01*
X215656654Y-99317315D01*
X215805875Y-99409356D01*
X215805880Y-99409358D01*
X215972302Y-99464505D01*
X215972309Y-99464506D01*
X216075019Y-99474999D01*
X216212499Y-99474999D01*
X216712500Y-99474999D01*
X216849972Y-99474999D01*
X216849986Y-99474998D01*
X216952697Y-99464505D01*
X217119119Y-99409358D01*
X217119124Y-99409356D01*
X217268345Y-99317315D01*
X217392318Y-99193342D01*
X217394165Y-99190348D01*
X217395969Y-99188724D01*
X217396798Y-99187677D01*
X217396976Y-99187818D01*
X217446110Y-99143621D01*
X217515073Y-99132396D01*
X217579156Y-99160236D01*
X217605243Y-99190341D01*
X217607288Y-99193656D01*
X217731344Y-99317712D01*
X217880666Y-99409814D01*
X218047203Y-99464999D01*
X218149991Y-99475500D01*
X218925008Y-99475499D01*
X218925016Y-99475498D01*
X218925019Y-99475498D01*
X218981302Y-99469748D01*
X219027797Y-99464999D01*
X219194334Y-99409814D01*
X219213708Y-99397863D01*
X219281099Y-99379423D01*
X219347763Y-99400345D01*
X219366486Y-99415721D01*
X222710137Y-102759372D01*
X222743622Y-102820695D01*
X222738638Y-102890387D01*
X222731291Y-102906475D01*
X222725635Y-102916833D01*
X222625628Y-103184962D01*
X222564804Y-103464566D01*
X222549500Y-103678549D01*
X222549500Y-106821450D01*
X222564804Y-107035433D01*
X222625628Y-107315037D01*
X222625630Y-107315043D01*
X222625631Y-107315046D01*
X222717130Y-107560364D01*
X222725635Y-107583166D01*
X222862770Y-107834309D01*
X222862775Y-107834317D01*
X223034254Y-108063387D01*
X223034270Y-108063405D01*
X223236594Y-108265729D01*
X223236612Y-108265745D01*
X223465682Y-108437224D01*
X223465690Y-108437229D01*
X223716833Y-108574364D01*
X223716832Y-108574364D01*
X223716836Y-108574365D01*
X223716839Y-108574367D01*
X223984954Y-108674369D01*
X223984960Y-108674370D01*
X223984962Y-108674371D01*
X224264566Y-108735195D01*
X224264568Y-108735195D01*
X224264572Y-108735196D01*
X224478552Y-108750500D01*
X227621448Y-108750500D01*
X227835428Y-108735196D01*
X227906456Y-108719745D01*
X228115037Y-108674371D01*
X228115037Y-108674370D01*
X228115046Y-108674369D01*
X228383161Y-108574367D01*
X228634315Y-108437226D01*
X228863395Y-108265739D01*
X229065739Y-108063395D01*
X229237226Y-107834315D01*
X229374367Y-107583161D01*
X229474369Y-107315046D01*
X229535196Y-107035428D01*
X229550500Y-106821448D01*
X229550500Y-105844629D01*
X229570185Y-105777590D01*
X229622989Y-105731835D01*
X229692147Y-105721891D01*
X229755703Y-105750916D01*
X229793477Y-105809694D01*
X229796973Y-105825231D01*
X229821294Y-105978788D01*
X229821294Y-105978790D01*
X229916260Y-106333206D01*
X230047746Y-106675739D01*
X230214320Y-107002656D01*
X230414147Y-107310364D01*
X230425594Y-107324500D01*
X230645051Y-107595506D01*
X230904494Y-107854949D01*
X230906217Y-107856344D01*
X231189635Y-108085852D01*
X231480896Y-108274998D01*
X231497348Y-108285682D01*
X231824264Y-108452255D01*
X232166801Y-108583742D01*
X232521206Y-108678705D01*
X232883596Y-108736102D01*
X233229734Y-108754241D01*
X233249999Y-108755304D01*
X233250000Y-108755304D01*
X233250001Y-108755304D01*
X233269203Y-108754297D01*
X233616404Y-108736102D01*
X233978794Y-108678705D01*
X234333199Y-108583742D01*
X234675736Y-108452255D01*
X235002652Y-108285682D01*
X235310366Y-108085851D01*
X235595506Y-107854949D01*
X235854949Y-107595506D01*
X236085851Y-107310366D01*
X236285682Y-107002652D01*
X236452255Y-106675736D01*
X236583742Y-106333199D01*
X236678705Y-105978794D01*
X236736102Y-105616404D01*
X236755304Y-105250000D01*
X236736102Y-104883596D01*
X236678705Y-104521206D01*
X236583742Y-104166801D01*
X236452255Y-103824264D01*
X236285682Y-103497348D01*
X236248203Y-103439635D01*
X236085852Y-103189635D01*
X235854952Y-102904498D01*
X235854949Y-102904494D01*
X235595506Y-102645051D01*
X235415766Y-102499500D01*
X235310364Y-102414147D01*
X235002656Y-102214320D01*
X234675739Y-102047746D01*
X234333206Y-101916260D01*
X234310355Y-101910137D01*
X233978794Y-101821295D01*
X233978790Y-101821294D01*
X233978789Y-101821294D01*
X233616405Y-101763898D01*
X233250001Y-101744696D01*
X233249999Y-101744696D01*
X232883594Y-101763898D01*
X232521211Y-101821294D01*
X232521209Y-101821294D01*
X232166793Y-101916260D01*
X231824260Y-102047746D01*
X231497343Y-102214320D01*
X231318560Y-102330423D01*
X231251615Y-102350427D01*
X231184483Y-102331061D01*
X231163344Y-102314109D01*
X230886819Y-102037583D01*
X230853334Y-101976260D01*
X230850500Y-101949902D01*
X230850500Y-97047870D01*
X231749500Y-97047870D01*
X231749501Y-97047876D01*
X231755908Y-97107483D01*
X231806202Y-97242328D01*
X231806206Y-97242335D01*
X231892452Y-97357544D01*
X231892455Y-97357547D01*
X232007664Y-97443793D01*
X232007671Y-97443797D01*
X232142517Y-97494091D01*
X232142516Y-97494091D01*
X232149444Y-97494835D01*
X232202127Y-97500500D01*
X233297872Y-97500499D01*
X233357483Y-97494091D01*
X233492331Y-97443796D01*
X233607546Y-97357546D01*
X233693796Y-97242331D01*
X233744091Y-97107483D01*
X233750500Y-97047873D01*
X233750499Y-95352128D01*
X233744091Y-95292517D01*
X233702978Y-95182288D01*
X233693797Y-95157671D01*
X233693793Y-95157664D01*
X233607547Y-95042455D01*
X233607544Y-95042452D01*
X233492335Y-94956206D01*
X233492328Y-94956202D01*
X233357482Y-94905908D01*
X233357483Y-94905908D01*
X233297883Y-94899501D01*
X233297881Y-94899500D01*
X233297873Y-94899500D01*
X233297864Y-94899500D01*
X232202129Y-94899500D01*
X232202123Y-94899501D01*
X232142516Y-94905908D01*
X232007671Y-94956202D01*
X232007664Y-94956206D01*
X231892455Y-95042452D01*
X231892452Y-95042455D01*
X231806206Y-95157664D01*
X231806202Y-95157671D01*
X231755908Y-95292517D01*
X231750636Y-95341557D01*
X231749501Y-95352123D01*
X231749500Y-95352135D01*
X231749500Y-97047870D01*
X230850500Y-97047870D01*
X230850500Y-95182790D01*
X230870185Y-95115751D01*
X230922989Y-95069996D01*
X230931146Y-95066616D01*
X230992331Y-95043796D01*
X231107546Y-94957546D01*
X231193796Y-94842331D01*
X231244091Y-94707483D01*
X231250500Y-94647873D01*
X231250499Y-92952128D01*
X231244091Y-92892517D01*
X231203145Y-92782736D01*
X231193797Y-92757671D01*
X231193793Y-92757664D01*
X231107547Y-92642455D01*
X231107544Y-92642452D01*
X230992335Y-92556206D01*
X230992328Y-92556202D01*
X230857482Y-92505908D01*
X230857483Y-92505908D01*
X230797883Y-92499501D01*
X230797881Y-92499500D01*
X230797873Y-92499500D01*
X230797864Y-92499500D01*
X229702129Y-92499500D01*
X229702123Y-92499501D01*
X229642516Y-92505908D01*
X229507671Y-92556202D01*
X229507664Y-92556206D01*
X229392455Y-92642452D01*
X229392452Y-92642455D01*
X229306206Y-92757664D01*
X229306202Y-92757671D01*
X229255908Y-92892517D01*
X229249501Y-92952116D01*
X229249501Y-92952123D01*
X229249500Y-92952135D01*
X229249500Y-94647870D01*
X229249501Y-94647876D01*
X229255908Y-94707483D01*
X229306202Y-94842328D01*
X229306206Y-94842335D01*
X229392452Y-94957544D01*
X229392455Y-94957547D01*
X229507664Y-95043793D01*
X229507669Y-95043796D01*
X229568833Y-95066608D01*
X229624766Y-95108478D01*
X229649184Y-95173942D01*
X229649500Y-95182790D01*
X229649500Y-102163330D01*
X229649499Y-102163348D01*
X229649499Y-102329054D01*
X229649498Y-102329054D01*
X229685743Y-102464318D01*
X229690423Y-102481785D01*
X229700651Y-102499500D01*
X229769477Y-102618712D01*
X229769481Y-102618717D01*
X229888349Y-102737585D01*
X229888355Y-102737590D01*
X230314109Y-103163344D01*
X230347594Y-103224667D01*
X230342610Y-103294359D01*
X230330423Y-103318560D01*
X230214320Y-103497343D01*
X230047746Y-103824260D01*
X229916260Y-104166793D01*
X229821294Y-104521209D01*
X229821294Y-104521211D01*
X229796973Y-104674768D01*
X229767044Y-104737903D01*
X229707732Y-104774834D01*
X229637870Y-104773836D01*
X229579637Y-104735226D01*
X229551523Y-104671262D01*
X229550500Y-104655370D01*
X229550500Y-103678552D01*
X229535196Y-103464572D01*
X229529771Y-103439635D01*
X229474371Y-103184962D01*
X229474370Y-103184960D01*
X229474369Y-103184954D01*
X229374367Y-102916839D01*
X229367628Y-102904498D01*
X229237229Y-102665690D01*
X229237224Y-102665682D01*
X229065745Y-102436612D01*
X229065729Y-102436594D01*
X228863405Y-102234270D01*
X228863387Y-102234254D01*
X228634317Y-102062775D01*
X228634309Y-102062770D01*
X228383166Y-101925635D01*
X228383167Y-101925635D01*
X228275915Y-101885632D01*
X228115046Y-101825631D01*
X228115043Y-101825630D01*
X228115037Y-101825628D01*
X227835433Y-101764804D01*
X227621450Y-101749500D01*
X227621448Y-101749500D01*
X224478552Y-101749500D01*
X224478549Y-101749500D01*
X224264566Y-101764804D01*
X223984962Y-101825628D01*
X223716833Y-101925635D01*
X223706475Y-101931291D01*
X223638201Y-101946140D01*
X223572738Y-101921719D01*
X223559372Y-101910137D01*
X219661818Y-98012583D01*
X219628333Y-97951260D01*
X219625499Y-97924902D01*
X219625499Y-97724998D01*
X219625498Y-97724981D01*
X219614999Y-97622203D01*
X219614998Y-97622200D01*
X219604390Y-97590187D01*
X219559814Y-97455666D01*
X219467712Y-97306344D01*
X219343656Y-97182288D01*
X219222377Y-97107483D01*
X219194336Y-97090187D01*
X219194331Y-97090185D01*
X219192862Y-97089698D01*
X219027797Y-97035001D01*
X219027795Y-97035000D01*
X218925010Y-97024500D01*
X218149998Y-97024500D01*
X218149980Y-97024501D01*
X218047203Y-97035000D01*
X218047200Y-97035001D01*
X217880668Y-97090185D01*
X217880663Y-97090187D01*
X217731342Y-97182289D01*
X217607288Y-97306343D01*
X217607283Y-97306349D01*
X217605241Y-97309661D01*
X217603247Y-97311453D01*
X217602807Y-97312011D01*
X217602711Y-97311935D01*
X217553291Y-97356383D01*
X217484328Y-97367602D01*
X217420247Y-97339755D01*
X217394168Y-97309656D01*
X217392319Y-97306659D01*
X217392316Y-97306655D01*
X217268345Y-97182684D01*
X217119124Y-97090643D01*
X217119119Y-97090641D01*
X216952697Y-97035494D01*
X216952690Y-97035493D01*
X216849986Y-97025000D01*
X216712500Y-97025000D01*
X216712500Y-99474999D01*
X216212499Y-99474999D01*
X216212500Y-99474998D01*
X216212500Y-98500000D01*
X215375001Y-98500000D01*
X205073978Y-98500000D01*
X205059358Y-98455880D01*
X205059356Y-98455875D01*
X204967315Y-98306654D01*
X204843345Y-98182684D01*
X204694124Y-98090643D01*
X204694119Y-98090641D01*
X204527697Y-98035494D01*
X204527690Y-98035493D01*
X204424986Y-98025000D01*
X204287500Y-98025000D01*
X203787500Y-98025000D01*
X203650027Y-98025000D01*
X203650012Y-98025001D01*
X203547302Y-98035494D01*
X203380880Y-98090641D01*
X203380875Y-98090643D01*
X203231654Y-98182684D01*
X203107683Y-98306655D01*
X203107679Y-98306660D01*
X203105826Y-98309665D01*
X203104018Y-98311290D01*
X203103202Y-98312323D01*
X203103025Y-98312183D01*
X203053874Y-98356385D01*
X202984911Y-98367601D01*
X202920831Y-98339752D01*
X202894753Y-98309653D01*
X202894737Y-98309628D01*
X202892712Y-98306344D01*
X202768656Y-98182288D01*
X202619334Y-98090186D01*
X202452797Y-98035001D01*
X202452795Y-98035000D01*
X202350010Y-98024500D01*
X201574998Y-98024500D01*
X201574980Y-98024501D01*
X201472203Y-98035000D01*
X201472200Y-98035001D01*
X201305668Y-98090185D01*
X201305663Y-98090187D01*
X201156342Y-98182289D01*
X201032289Y-98306342D01*
X200940187Y-98455663D01*
X200940185Y-98455668D01*
X200940115Y-98455880D01*
X200885001Y-98622203D01*
X200885001Y-98622204D01*
X200885000Y-98622204D01*
X200874500Y-98724983D01*
X200874500Y-99775001D01*
X200874501Y-99775019D01*
X200885000Y-99877796D01*
X200885001Y-99877799D01*
X200930057Y-100013767D01*
X200940186Y-100044334D01*
X201032288Y-100193656D01*
X201156344Y-100317712D01*
X201303097Y-100408229D01*
X201349821Y-100460175D01*
X201362000Y-100513767D01*
X201362000Y-106713403D01*
X201342315Y-106780442D01*
X201289511Y-106826197D01*
X201220353Y-106836141D01*
X201156797Y-106807116D01*
X201150319Y-106801084D01*
X192349235Y-98000000D01*
X215375000Y-98000000D01*
X216212500Y-98000000D01*
X216212500Y-97025000D01*
X216075027Y-97025000D01*
X216075012Y-97025001D01*
X215972302Y-97035494D01*
X215805880Y-97090641D01*
X215805875Y-97090643D01*
X215656654Y-97182684D01*
X215532684Y-97306654D01*
X215440643Y-97455875D01*
X215440641Y-97455880D01*
X215385494Y-97622302D01*
X215385493Y-97622309D01*
X215375000Y-97725013D01*
X215375000Y-98000000D01*
X192349235Y-98000000D01*
X190849235Y-96500000D01*
X200875001Y-96500000D01*
X200875001Y-96774986D01*
X200885494Y-96877697D01*
X200940641Y-97044119D01*
X200940643Y-97044124D01*
X201032684Y-97193345D01*
X201156654Y-97317315D01*
X201305875Y-97409356D01*
X201305880Y-97409358D01*
X201472302Y-97464505D01*
X201472309Y-97464506D01*
X201575019Y-97474999D01*
X201712499Y-97474999D01*
X201712500Y-97474998D01*
X201712500Y-96500000D01*
X200875001Y-96500000D01*
X190849235Y-96500000D01*
X190487590Y-96138355D01*
X190487588Y-96138352D01*
X190368717Y-96019481D01*
X190368716Y-96019480D01*
X190334975Y-96000000D01*
X200875000Y-96000000D01*
X201712500Y-96000000D01*
X201712500Y-95025000D01*
X201575027Y-95025000D01*
X201575012Y-95025001D01*
X201472302Y-95035494D01*
X201305880Y-95090641D01*
X201305875Y-95090643D01*
X201156654Y-95182684D01*
X201032684Y-95306654D01*
X200940643Y-95455875D01*
X200940641Y-95455880D01*
X200885494Y-95622302D01*
X200885493Y-95622309D01*
X200875000Y-95725013D01*
X200875000Y-96000000D01*
X190334975Y-96000000D01*
X190279923Y-95968216D01*
X190279922Y-95968215D01*
X190231783Y-95940422D01*
X190175881Y-95925443D01*
X190079057Y-95899499D01*
X189920943Y-95899499D01*
X189913347Y-95899499D01*
X189913331Y-95899500D01*
X187400097Y-95899500D01*
X187333058Y-95879815D01*
X187312416Y-95863181D01*
X185088663Y-93639428D01*
X185055178Y-93578105D01*
X185060162Y-93508413D01*
X185102034Y-93452480D01*
X185167498Y-93428063D01*
X185187142Y-93428218D01*
X185270000Y-93435468D01*
X185270002Y-93435468D01*
X185326673Y-93430509D01*
X185496692Y-93415635D01*
X185716496Y-93356739D01*
X185922734Y-93260568D01*
X186109139Y-93130047D01*
X186270047Y-92969139D01*
X186400568Y-92782734D01*
X186427618Y-92724724D01*
X186473790Y-92672285D01*
X186540983Y-92653133D01*
X186607865Y-92673348D01*
X186652382Y-92724725D01*
X186679429Y-92782728D01*
X186679432Y-92782734D01*
X186809954Y-92969141D01*
X186970858Y-93130045D01*
X186970861Y-93130047D01*
X187157266Y-93260568D01*
X187363504Y-93356739D01*
X187363509Y-93356740D01*
X187363511Y-93356741D01*
X187381989Y-93361692D01*
X187583308Y-93415635D01*
X187725361Y-93428063D01*
X187809998Y-93435468D01*
X187810000Y-93435468D01*
X187810002Y-93435468D01*
X187866673Y-93430509D01*
X188036692Y-93415635D01*
X188256496Y-93356739D01*
X188462734Y-93260568D01*
X188649139Y-93130047D01*
X188810047Y-92969139D01*
X188940568Y-92782734D01*
X188967618Y-92724724D01*
X189013790Y-92672285D01*
X189080983Y-92653133D01*
X189147865Y-92673348D01*
X189192382Y-92724725D01*
X189219429Y-92782728D01*
X189219432Y-92782734D01*
X189349954Y-92969141D01*
X189510858Y-93130045D01*
X189510861Y-93130047D01*
X189697266Y-93260568D01*
X189903504Y-93356739D01*
X189903509Y-93356740D01*
X189903511Y-93356741D01*
X189921989Y-93361692D01*
X190123308Y-93415635D01*
X190265361Y-93428063D01*
X190349998Y-93435468D01*
X190350000Y-93435468D01*
X190350002Y-93435468D01*
X190406673Y-93430509D01*
X190576692Y-93415635D01*
X190796496Y-93356739D01*
X191002734Y-93260568D01*
X191189139Y-93130047D01*
X191350047Y-92969139D01*
X191480568Y-92782734D01*
X191507618Y-92724724D01*
X191553790Y-92672285D01*
X191620983Y-92653133D01*
X191687865Y-92673348D01*
X191732382Y-92724725D01*
X191759429Y-92782728D01*
X191759432Y-92782734D01*
X191889954Y-92969141D01*
X192050858Y-93130045D01*
X192050861Y-93130047D01*
X192237266Y-93260568D01*
X192443504Y-93356739D01*
X192443509Y-93356740D01*
X192443511Y-93356741D01*
X192461989Y-93361692D01*
X192663308Y-93415635D01*
X192805361Y-93428063D01*
X192889998Y-93435468D01*
X192890000Y-93435468D01*
X192890002Y-93435468D01*
X192946673Y-93430509D01*
X193116692Y-93415635D01*
X193336496Y-93356739D01*
X193542734Y-93260568D01*
X193729139Y-93130047D01*
X193890047Y-92969139D01*
X194020568Y-92782734D01*
X194047618Y-92724724D01*
X194093790Y-92672285D01*
X194160983Y-92653133D01*
X194227865Y-92673348D01*
X194272382Y-92724725D01*
X194299429Y-92782728D01*
X194299432Y-92782734D01*
X194429954Y-92969141D01*
X194590858Y-93130045D01*
X194590861Y-93130047D01*
X194777266Y-93260568D01*
X194983504Y-93356739D01*
X194983509Y-93356740D01*
X194983511Y-93356741D01*
X195001989Y-93361692D01*
X195203308Y-93415635D01*
X195345361Y-93428063D01*
X195429998Y-93435468D01*
X195430000Y-93435468D01*
X195430002Y-93435468D01*
X195486673Y-93430509D01*
X195656692Y-93415635D01*
X195876496Y-93356739D01*
X196082734Y-93260568D01*
X196269139Y-93130047D01*
X196430047Y-92969139D01*
X196560568Y-92782734D01*
X196587618Y-92724724D01*
X196633790Y-92672285D01*
X196700983Y-92653133D01*
X196767865Y-92673348D01*
X196812382Y-92724725D01*
X196839429Y-92782728D01*
X196839432Y-92782734D01*
X196969954Y-92969141D01*
X197130858Y-93130045D01*
X197130861Y-93130047D01*
X197317266Y-93260568D01*
X197523504Y-93356739D01*
X197523509Y-93356740D01*
X197523511Y-93356741D01*
X197541989Y-93361692D01*
X197743308Y-93415635D01*
X197885361Y-93428063D01*
X197969998Y-93435468D01*
X197970000Y-93435468D01*
X197970002Y-93435468D01*
X198026673Y-93430509D01*
X198196692Y-93415635D01*
X198416496Y-93356739D01*
X198622734Y-93260568D01*
X198809139Y-93130047D01*
X198970047Y-92969139D01*
X199100568Y-92782734D01*
X199127895Y-92724129D01*
X199174064Y-92671695D01*
X199241257Y-92652542D01*
X199308139Y-92672757D01*
X199352657Y-92724133D01*
X199379865Y-92782482D01*
X199510342Y-92968820D01*
X199671179Y-93129657D01*
X199857517Y-93260134D01*
X200063673Y-93356265D01*
X200063682Y-93356269D01*
X200259999Y-93408872D01*
X200260000Y-93408871D01*
X200260000Y-92563012D01*
X200317007Y-92595925D01*
X200444174Y-92630000D01*
X200575826Y-92630000D01*
X200702993Y-92595925D01*
X200760000Y-92563012D01*
X200760000Y-93408872D01*
X200956317Y-93356269D01*
X200956326Y-93356265D01*
X201162482Y-93260134D01*
X201348820Y-93129657D01*
X201509657Y-92968820D01*
X201640132Y-92782484D01*
X201667341Y-92724134D01*
X201713513Y-92671695D01*
X201780707Y-92652542D01*
X201847588Y-92672757D01*
X201892106Y-92724133D01*
X201919431Y-92782732D01*
X201919432Y-92782734D01*
X202049954Y-92969141D01*
X202210858Y-93130045D01*
X202210861Y-93130047D01*
X202396624Y-93260118D01*
X202440248Y-93314693D01*
X202449500Y-93361692D01*
X202449500Y-94901000D01*
X202429815Y-94968039D01*
X202377011Y-95013794D01*
X202325500Y-95025000D01*
X202212500Y-95025000D01*
X202212500Y-97474999D01*
X202349972Y-97474999D01*
X202349986Y-97474998D01*
X202452697Y-97464505D01*
X202619119Y-97409358D01*
X202619124Y-97409356D01*
X202768345Y-97317315D01*
X202892318Y-97193342D01*
X202894165Y-97190348D01*
X202895969Y-97188724D01*
X202896798Y-97187677D01*
X202896976Y-97187818D01*
X202946110Y-97143621D01*
X203015073Y-97132396D01*
X203079156Y-97160236D01*
X203105243Y-97190341D01*
X203107288Y-97193656D01*
X203231344Y-97317712D01*
X203380666Y-97409814D01*
X203547203Y-97464999D01*
X203649991Y-97475500D01*
X204425008Y-97475499D01*
X204425016Y-97475498D01*
X204425019Y-97475498D01*
X204481302Y-97469748D01*
X204527797Y-97464999D01*
X204694334Y-97409814D01*
X204843656Y-97317712D01*
X204967712Y-97193656D01*
X205059814Y-97044334D01*
X205114999Y-96877797D01*
X205125500Y-96775009D01*
X205125499Y-95724992D01*
X205122728Y-95697870D01*
X205114999Y-95622203D01*
X205114998Y-95622200D01*
X205066386Y-95475500D01*
X205059814Y-95455666D01*
X204967712Y-95306344D01*
X204843656Y-95182288D01*
X204694334Y-95090186D01*
X204527797Y-95035001D01*
X204527795Y-95035000D01*
X204425016Y-95024500D01*
X204425009Y-95024500D01*
X203774500Y-95024500D01*
X203707461Y-95004815D01*
X203661706Y-94952011D01*
X203650500Y-94900500D01*
X203650500Y-93879097D01*
X203670185Y-93812058D01*
X203722989Y-93766303D01*
X203792147Y-93756359D01*
X203855703Y-93785384D01*
X203862179Y-93791414D01*
X205301284Y-95230520D01*
X205301286Y-95230521D01*
X205301290Y-95230524D01*
X205408665Y-95292516D01*
X205438216Y-95309577D01*
X205590943Y-95350501D01*
X205590945Y-95350501D01*
X205756654Y-95350501D01*
X205756670Y-95350500D01*
X214820501Y-95350500D01*
X214887540Y-95370185D01*
X214933295Y-95422989D01*
X214944501Y-95474500D01*
X214944501Y-95697876D01*
X214950908Y-95757483D01*
X215001202Y-95892328D01*
X215001206Y-95892335D01*
X215087452Y-96007544D01*
X215087455Y-96007547D01*
X215202664Y-96093793D01*
X215202671Y-96093797D01*
X215337517Y-96144091D01*
X215337516Y-96144091D01*
X215344444Y-96144835D01*
X215397127Y-96150500D01*
X216662872Y-96150499D01*
X216722483Y-96144091D01*
X216857331Y-96093796D01*
X216972546Y-96007546D01*
X217058796Y-95892331D01*
X217109091Y-95757483D01*
X217115500Y-95697873D01*
X217115499Y-94565095D01*
X217135184Y-94498057D01*
X217151813Y-94477420D01*
X217672821Y-93956412D01*
X217734142Y-93922929D01*
X217803834Y-93927913D01*
X217859767Y-93969785D01*
X217884184Y-94035249D01*
X217884500Y-94044095D01*
X217884500Y-95697870D01*
X217884501Y-95697876D01*
X217890908Y-95757483D01*
X217941202Y-95892328D01*
X217941206Y-95892335D01*
X218027452Y-96007544D01*
X218027455Y-96007547D01*
X218142664Y-96093793D01*
X218142671Y-96093797D01*
X218277517Y-96144091D01*
X218277516Y-96144091D01*
X218284444Y-96144835D01*
X218337127Y-96150500D01*
X219469901Y-96150499D01*
X219536940Y-96170184D01*
X219557582Y-96186818D01*
X220051284Y-96680520D01*
X220051286Y-96680521D01*
X220051290Y-96680524D01*
X220188209Y-96759573D01*
X220188216Y-96759577D01*
X220340943Y-96800501D01*
X220340945Y-96800501D01*
X220506654Y-96800501D01*
X220506670Y-96800500D01*
X226625501Y-96800500D01*
X226692540Y-96820185D01*
X226738295Y-96872989D01*
X226749501Y-96924500D01*
X226749501Y-97047876D01*
X226755908Y-97107483D01*
X226806202Y-97242328D01*
X226806206Y-97242335D01*
X226892452Y-97357544D01*
X226892455Y-97357547D01*
X227007664Y-97443793D01*
X227007671Y-97443797D01*
X227142517Y-97494091D01*
X227142516Y-97494091D01*
X227149444Y-97494835D01*
X227202127Y-97500500D01*
X228297872Y-97500499D01*
X228357483Y-97494091D01*
X228492331Y-97443796D01*
X228607546Y-97357546D01*
X228693796Y-97242331D01*
X228744091Y-97107483D01*
X228750500Y-97047873D01*
X228750499Y-95352128D01*
X228744091Y-95292517D01*
X228702978Y-95182288D01*
X228693797Y-95157671D01*
X228693793Y-95157664D01*
X228607547Y-95042455D01*
X228607544Y-95042452D01*
X228492335Y-94956206D01*
X228492328Y-94956202D01*
X228357482Y-94905908D01*
X228357483Y-94905908D01*
X228297883Y-94899501D01*
X228297881Y-94899500D01*
X228297873Y-94899500D01*
X228297864Y-94899500D01*
X227202129Y-94899500D01*
X227202123Y-94899501D01*
X227142516Y-94905908D01*
X227007671Y-94956202D01*
X227007664Y-94956206D01*
X226892455Y-95042452D01*
X226892452Y-95042455D01*
X226806206Y-95157664D01*
X226806202Y-95157671D01*
X226755908Y-95292517D01*
X226750636Y-95341557D01*
X226749501Y-95352123D01*
X226749500Y-95352135D01*
X226749500Y-95475500D01*
X226729815Y-95542539D01*
X226677011Y-95588294D01*
X226625500Y-95599500D01*
X220720098Y-95599500D01*
X220653059Y-95579815D01*
X220632417Y-95563181D01*
X220091818Y-95022582D01*
X220058333Y-94961259D01*
X220055499Y-94934901D01*
X220055499Y-93802129D01*
X220055498Y-93802123D01*
X220055497Y-93802116D01*
X220049091Y-93742517D01*
X220010641Y-93639428D01*
X219998797Y-93607671D01*
X219998793Y-93607664D01*
X219912547Y-93492455D01*
X219912544Y-93492452D01*
X219797335Y-93406206D01*
X219797328Y-93406202D01*
X219662482Y-93355908D01*
X219662483Y-93355908D01*
X219602883Y-93349501D01*
X219602881Y-93349500D01*
X219602873Y-93349500D01*
X219602865Y-93349500D01*
X218579095Y-93349500D01*
X218512056Y-93329815D01*
X218466301Y-93277011D01*
X218456357Y-93207853D01*
X218485382Y-93144297D01*
X218491399Y-93137834D01*
X226242417Y-85386819D01*
X226303740Y-85353334D01*
X226330098Y-85350500D01*
X230325501Y-85350500D01*
X230392540Y-85370185D01*
X230438295Y-85422989D01*
X230449501Y-85474500D01*
X230449501Y-85550018D01*
X230460000Y-85652796D01*
X230460001Y-85652799D01*
X230515185Y-85819331D01*
X230515186Y-85819334D01*
X230607288Y-85968656D01*
X230731344Y-86092712D01*
X230880666Y-86184814D01*
X231047203Y-86239999D01*
X231149991Y-86250500D01*
X234350008Y-86250499D01*
X234452797Y-86239999D01*
X234619334Y-86184814D01*
X234768656Y-86092712D01*
X234892712Y-85968656D01*
X234984814Y-85819334D01*
X235039999Y-85652797D01*
X235050500Y-85550009D01*
X235050499Y-83949992D01*
X235039999Y-83847203D01*
X234984814Y-83680666D01*
X234892712Y-83531344D01*
X234768656Y-83407288D01*
X234619334Y-83315186D01*
X234452797Y-83260001D01*
X234452795Y-83260000D01*
X234350010Y-83249500D01*
X231149998Y-83249500D01*
X231149981Y-83249501D01*
X231047203Y-83260000D01*
X231047200Y-83260001D01*
X230880668Y-83315185D01*
X230880663Y-83315187D01*
X230731342Y-83407289D01*
X230607289Y-83531342D01*
X230515187Y-83680663D01*
X230515186Y-83680666D01*
X230460001Y-83847203D01*
X230460001Y-83847204D01*
X230460000Y-83847204D01*
X230449500Y-83949983D01*
X230449500Y-84025500D01*
X230429815Y-84092539D01*
X230377011Y-84138294D01*
X230325500Y-84149500D01*
X226116670Y-84149500D01*
X226116654Y-84149499D01*
X226109058Y-84149499D01*
X225950943Y-84149499D01*
X225874579Y-84169961D01*
X225798214Y-84190423D01*
X225798209Y-84190426D01*
X225661290Y-84269475D01*
X225661282Y-84269481D01*
X216617582Y-93313181D01*
X216556259Y-93346666D01*
X216529901Y-93349500D01*
X215397129Y-93349500D01*
X215397123Y-93349501D01*
X215337516Y-93355908D01*
X215202671Y-93406202D01*
X215202664Y-93406206D01*
X215087455Y-93492452D01*
X215087452Y-93492455D01*
X215001206Y-93607664D01*
X215001202Y-93607671D01*
X214950908Y-93742517D01*
X214944501Y-93802116D01*
X214944501Y-93802123D01*
X214944500Y-93802135D01*
X214944500Y-94025500D01*
X214924815Y-94092539D01*
X214872011Y-94138294D01*
X214820500Y-94149500D01*
X205970098Y-94149500D01*
X205903059Y-94129815D01*
X205882417Y-94113181D01*
X205115902Y-93346666D01*
X204341940Y-92572705D01*
X204308456Y-92511383D01*
X204309847Y-92452931D01*
X204314114Y-92437007D01*
X204335635Y-92356692D01*
X204355468Y-92130000D01*
X204335635Y-91903308D01*
X204276739Y-91683504D01*
X204180568Y-91477266D01*
X204050047Y-91290861D01*
X204050045Y-91290858D01*
X203889141Y-91129954D01*
X203702734Y-90999432D01*
X203702732Y-90999431D01*
X203496497Y-90903261D01*
X203496488Y-90903258D01*
X203276697Y-90844366D01*
X203276693Y-90844365D01*
X203276692Y-90844365D01*
X203276691Y-90844364D01*
X203276686Y-90844364D01*
X203050002Y-90824532D01*
X203049998Y-90824532D01*
X202823313Y-90844364D01*
X202823302Y-90844366D01*
X202603511Y-90903258D01*
X202603502Y-90903261D01*
X202397267Y-90999431D01*
X202397265Y-90999432D01*
X202210858Y-91129954D01*
X202049954Y-91290858D01*
X201919433Y-91477264D01*
X201919432Y-91477266D01*
X201919315Y-91477518D01*
X201892106Y-91535867D01*
X201845933Y-91588306D01*
X201778739Y-91607457D01*
X201711858Y-91587241D01*
X201667342Y-91535865D01*
X201640135Y-91477520D01*
X201640134Y-91477518D01*
X201509657Y-91291179D01*
X201348820Y-91130342D01*
X201162482Y-90999865D01*
X200956328Y-90903734D01*
X200760000Y-90851127D01*
X200760000Y-91696988D01*
X200702993Y-91664075D01*
X200575826Y-91630000D01*
X200444174Y-91630000D01*
X200317007Y-91664075D01*
X200260000Y-91696988D01*
X200260000Y-90851127D01*
X200063671Y-90903734D01*
X199857517Y-90999865D01*
X199671179Y-91130342D01*
X199510342Y-91291179D01*
X199379867Y-91477515D01*
X199352657Y-91535867D01*
X199306484Y-91588306D01*
X199239290Y-91607457D01*
X199172409Y-91587241D01*
X199127893Y-91535865D01*
X199100685Y-91477518D01*
X199100568Y-91477266D01*
X198970047Y-91290861D01*
X198970045Y-91290858D01*
X198809141Y-91129954D01*
X198622734Y-90999432D01*
X198622732Y-90999431D01*
X198416497Y-90903261D01*
X198416488Y-90903258D01*
X198196697Y-90844366D01*
X198196693Y-90844365D01*
X198196692Y-90844365D01*
X198196691Y-90844364D01*
X198196686Y-90844364D01*
X197970002Y-90824532D01*
X197969998Y-90824532D01*
X197743313Y-90844364D01*
X197743302Y-90844366D01*
X197523511Y-90903258D01*
X197523502Y-90903261D01*
X197317267Y-90999431D01*
X197317265Y-90999432D01*
X197130858Y-91129954D01*
X196969954Y-91290858D01*
X196839432Y-91477265D01*
X196839431Y-91477267D01*
X196812382Y-91535275D01*
X196766209Y-91587714D01*
X196699016Y-91606866D01*
X196632135Y-91586650D01*
X196587618Y-91535275D01*
X196560686Y-91477520D01*
X196560568Y-91477266D01*
X196430047Y-91290861D01*
X196430045Y-91290858D01*
X196269141Y-91129954D01*
X196082734Y-90999432D01*
X196082732Y-90999431D01*
X195876497Y-90903261D01*
X195876488Y-90903258D01*
X195656697Y-90844366D01*
X195656693Y-90844365D01*
X195656692Y-90844365D01*
X195656691Y-90844364D01*
X195656686Y-90844364D01*
X195430002Y-90824532D01*
X195429998Y-90824532D01*
X195203313Y-90844364D01*
X195203302Y-90844366D01*
X194983511Y-90903258D01*
X194983502Y-90903261D01*
X194777267Y-90999431D01*
X194777265Y-90999432D01*
X194590858Y-91129954D01*
X194429954Y-91290858D01*
X194299432Y-91477265D01*
X194299431Y-91477267D01*
X194272382Y-91535275D01*
X194226209Y-91587714D01*
X194159016Y-91606866D01*
X194092135Y-91586650D01*
X194047618Y-91535275D01*
X194020686Y-91477520D01*
X194020568Y-91477266D01*
X193890047Y-91290861D01*
X193890045Y-91290858D01*
X193729141Y-91129954D01*
X193542734Y-90999432D01*
X193542732Y-90999431D01*
X193336497Y-90903261D01*
X193336488Y-90903258D01*
X193116697Y-90844366D01*
X193116693Y-90844365D01*
X193116692Y-90844365D01*
X193116691Y-90844364D01*
X193116686Y-90844364D01*
X192890002Y-90824532D01*
X192889998Y-90824532D01*
X192663313Y-90844364D01*
X192663302Y-90844366D01*
X192443511Y-90903258D01*
X192443502Y-90903261D01*
X192237267Y-90999431D01*
X192237265Y-90999432D01*
X192050858Y-91129954D01*
X191889954Y-91290858D01*
X191759432Y-91477265D01*
X191759431Y-91477267D01*
X191732382Y-91535275D01*
X191686209Y-91587714D01*
X191619016Y-91606866D01*
X191552135Y-91586650D01*
X191507618Y-91535275D01*
X191480686Y-91477520D01*
X191480568Y-91477266D01*
X191350047Y-91290861D01*
X191350045Y-91290858D01*
X191189141Y-91129954D01*
X191002734Y-90999432D01*
X191002732Y-90999431D01*
X190796497Y-90903261D01*
X190796488Y-90903258D01*
X190576697Y-90844366D01*
X190576693Y-90844365D01*
X190576692Y-90844365D01*
X190576691Y-90844364D01*
X190576686Y-90844364D01*
X190350002Y-90824532D01*
X190349998Y-90824532D01*
X190267150Y-90831780D01*
X190198650Y-90818013D01*
X190148467Y-90769398D01*
X190132534Y-90701369D01*
X190155910Y-90635526D01*
X190168656Y-90620578D01*
X194289234Y-86500000D01*
X209994696Y-86500000D01*
X210013898Y-86866405D01*
X210071294Y-87228788D01*
X210071294Y-87228790D01*
X210166260Y-87583206D01*
X210297746Y-87925739D01*
X210464320Y-88252656D01*
X210664147Y-88560364D01*
X210664149Y-88560366D01*
X210895051Y-88845506D01*
X211154494Y-89104949D01*
X211154498Y-89104952D01*
X211439635Y-89335852D01*
X211747343Y-89535679D01*
X211747348Y-89535682D01*
X212074264Y-89702255D01*
X212416801Y-89833742D01*
X212771206Y-89928705D01*
X213133596Y-89986102D01*
X213479734Y-90004241D01*
X213499999Y-90005304D01*
X213500000Y-90005304D01*
X213500001Y-90005304D01*
X213519203Y-90004297D01*
X213866404Y-89986102D01*
X214228794Y-89928705D01*
X214583199Y-89833742D01*
X214925736Y-89702255D01*
X215252652Y-89535682D01*
X215560366Y-89335851D01*
X215845506Y-89104949D01*
X216104949Y-88845506D01*
X216335851Y-88560366D01*
X216535682Y-88252652D01*
X216702255Y-87925736D01*
X216833742Y-87583199D01*
X216928705Y-87228794D01*
X216986102Y-86866404D01*
X217005304Y-86500000D01*
X216986102Y-86133596D01*
X216928705Y-85771206D01*
X216833742Y-85416801D01*
X216702255Y-85074264D01*
X216535682Y-84747348D01*
X216335851Y-84439634D01*
X216104949Y-84154494D01*
X215845506Y-83895051D01*
X215725916Y-83798209D01*
X215560364Y-83664147D01*
X215252656Y-83464320D01*
X214925739Y-83297746D01*
X214583206Y-83166260D01*
X214583199Y-83166258D01*
X214228794Y-83071295D01*
X214228790Y-83071294D01*
X214228789Y-83071294D01*
X213866405Y-83013898D01*
X213500001Y-82994696D01*
X213499999Y-82994696D01*
X213133594Y-83013898D01*
X212771211Y-83071294D01*
X212771209Y-83071294D01*
X212416793Y-83166260D01*
X212074260Y-83297746D01*
X211747343Y-83464320D01*
X211439635Y-83664147D01*
X211154498Y-83895047D01*
X211154490Y-83895054D01*
X210895054Y-84154490D01*
X210895047Y-84154498D01*
X210664147Y-84439635D01*
X210464320Y-84747343D01*
X210297746Y-85074260D01*
X210166260Y-85416793D01*
X210071294Y-85771209D01*
X210071294Y-85771211D01*
X210013898Y-86133594D01*
X209994696Y-86499999D01*
X209994696Y-86500000D01*
X194289234Y-86500000D01*
X199252416Y-81536819D01*
X199313739Y-81503334D01*
X199340097Y-81500500D01*
X221485831Y-81500500D01*
X221485847Y-81500501D01*
X221493443Y-81500501D01*
X221651554Y-81500501D01*
X221651557Y-81500501D01*
X221804285Y-81459577D01*
X221854404Y-81430639D01*
X221941216Y-81380520D01*
X222053020Y-81268716D01*
X222053020Y-81268714D01*
X222063228Y-81258507D01*
X222063230Y-81258504D01*
X223321734Y-80000000D01*
X230470898Y-80000000D01*
X230486934Y-80101247D01*
X230559897Y-80325802D01*
X230667085Y-80536171D01*
X230805866Y-80727186D01*
X230972813Y-80894133D01*
X231163828Y-81032914D01*
X231374197Y-81140102D01*
X231598752Y-81213065D01*
X231598751Y-81213065D01*
X231831948Y-81250000D01*
X232500000Y-81250000D01*
X232500000Y-80404120D01*
X232545818Y-80423099D01*
X232681056Y-80450000D01*
X232818944Y-80450000D01*
X232954182Y-80423099D01*
X233000000Y-80404120D01*
X233000000Y-81250000D01*
X233668052Y-81250000D01*
X233901247Y-81213065D01*
X234125802Y-81140102D01*
X234336171Y-81032914D01*
X234527186Y-80894133D01*
X234694133Y-80727186D01*
X234832914Y-80536171D01*
X234940102Y-80325802D01*
X235013065Y-80101247D01*
X235029102Y-80000000D01*
X233404121Y-80000000D01*
X233423099Y-79954182D01*
X233450000Y-79818944D01*
X233450000Y-79681056D01*
X233423099Y-79545818D01*
X233404121Y-79500000D01*
X235029102Y-79500000D01*
X235013065Y-79398752D01*
X234940102Y-79174197D01*
X234832914Y-78963828D01*
X234694133Y-78772813D01*
X234527186Y-78605866D01*
X234336171Y-78467085D01*
X234125802Y-78359897D01*
X233901247Y-78286934D01*
X233901248Y-78286934D01*
X233668052Y-78250000D01*
X233000000Y-78250000D01*
X233000000Y-79095879D01*
X232954182Y-79076901D01*
X232818944Y-79050000D01*
X232681056Y-79050000D01*
X232545818Y-79076901D01*
X232500000Y-79095879D01*
X232500000Y-78250000D01*
X231831948Y-78250000D01*
X231598752Y-78286934D01*
X231374197Y-78359897D01*
X231163828Y-78467085D01*
X230972813Y-78605866D01*
X230805866Y-78772813D01*
X230667085Y-78963828D01*
X230559897Y-79174197D01*
X230486934Y-79398752D01*
X230470898Y-79500000D01*
X232095879Y-79500000D01*
X232076901Y-79545818D01*
X232050000Y-79681056D01*
X232050000Y-79818944D01*
X232076901Y-79954182D01*
X232095879Y-80000000D01*
X230470898Y-80000000D01*
X223321734Y-80000000D01*
X232034916Y-71286818D01*
X232096239Y-71253333D01*
X232122597Y-71250499D01*
X234322502Y-71250499D01*
X234322508Y-71250499D01*
X234425297Y-71239999D01*
X234591834Y-71184814D01*
X234741156Y-71092712D01*
X234865212Y-70968656D01*
X234957314Y-70819334D01*
X235012499Y-70652797D01*
X235023000Y-70550009D01*
X235022999Y-68949992D01*
X235012499Y-68847203D01*
X234957314Y-68680666D01*
X234865212Y-68531344D01*
X234741156Y-68407288D01*
X234591834Y-68315186D01*
X234425297Y-68260001D01*
X234425295Y-68260000D01*
X234322516Y-68249500D01*
X234322509Y-68249500D01*
X231849526Y-68249500D01*
X231782487Y-68229815D01*
X231736732Y-68177011D01*
X231726788Y-68107853D01*
X231755813Y-68044297D01*
X231761845Y-68037819D01*
X231952025Y-67847639D01*
X233091213Y-66708451D01*
X233091216Y-66708450D01*
X233203020Y-66596646D01*
X233253139Y-66509834D01*
X233282077Y-66459715D01*
X233313510Y-66342404D01*
X233349875Y-66282746D01*
X233412723Y-66252217D01*
X233433285Y-66250500D01*
X233640597Y-66250500D01*
X233873868Y-66213553D01*
X233873874Y-66213551D01*
X234098492Y-66140568D01*
X234308933Y-66033343D01*
X234500010Y-65894517D01*
X234667017Y-65727510D01*
X234805843Y-65536433D01*
X234913068Y-65325992D01*
X234986053Y-65101368D01*
X235023000Y-64868097D01*
X235023000Y-64631902D01*
X234986053Y-64398631D01*
X234933551Y-64237049D01*
X234913068Y-64174008D01*
X234913066Y-64174005D01*
X234913066Y-64174003D01*
X234832677Y-64016232D01*
X234805843Y-63963567D01*
X234667017Y-63772490D01*
X234500010Y-63605483D01*
X234308933Y-63466657D01*
X234243747Y-63433443D01*
X234098496Y-63359433D01*
X233873868Y-63286446D01*
X233640597Y-63249500D01*
X233640592Y-63249500D01*
X231804408Y-63249500D01*
X231804403Y-63249500D01*
X231571131Y-63286446D01*
X231346503Y-63359433D01*
X231136066Y-63466657D01*
X231093688Y-63497447D01*
X230944990Y-63605483D01*
X230944988Y-63605485D01*
X230944987Y-63605485D01*
X230777985Y-63772487D01*
X230777985Y-63772488D01*
X230777983Y-63772490D01*
X230737801Y-63827796D01*
X230639157Y-63963566D01*
X230531933Y-64174003D01*
X230458946Y-64398631D01*
X230422000Y-64631902D01*
X230422000Y-64868097D01*
X230458946Y-65101368D01*
X230531933Y-65325996D01*
X230601443Y-65462416D01*
X230639157Y-65536433D01*
X230777983Y-65727510D01*
X230944990Y-65894517D01*
X231136067Y-66033343D01*
X231235491Y-66084002D01*
X231346503Y-66140566D01*
X231346505Y-66140566D01*
X231346508Y-66140568D01*
X231571132Y-66213553D01*
X231603999Y-66218758D01*
X231667132Y-66248686D01*
X231704064Y-66307996D01*
X231703068Y-66377859D01*
X231672282Y-66428912D01*
X226812181Y-71289014D01*
X226750858Y-71322499D01*
X226681166Y-71317515D01*
X226625233Y-71275643D01*
X226600816Y-71210179D01*
X226600500Y-71201333D01*
X226600500Y-64312184D01*
X226620185Y-64245145D01*
X226651609Y-64211870D01*
X226716928Y-64164414D01*
X226839414Y-64041928D01*
X226941232Y-63901788D01*
X227019873Y-63747445D01*
X227073402Y-63582701D01*
X227100500Y-63411611D01*
X227100500Y-62688389D01*
X227073402Y-62517299D01*
X227019873Y-62352555D01*
X226941232Y-62198212D01*
X226839414Y-62058072D01*
X226716928Y-61935586D01*
X226576788Y-61833768D01*
X226422445Y-61755127D01*
X226257701Y-61701598D01*
X226257699Y-61701597D01*
X226257698Y-61701597D01*
X226122688Y-61680214D01*
X226086611Y-61674500D01*
X225913389Y-61674500D01*
X225877312Y-61680214D01*
X225742302Y-61701597D01*
X225577552Y-61755128D01*
X225423211Y-61833768D01*
X225393069Y-61855668D01*
X225283072Y-61935586D01*
X225283070Y-61935588D01*
X225283069Y-61935588D01*
X225160585Y-62058072D01*
X225100007Y-62141450D01*
X225044677Y-62184115D01*
X224975063Y-62190093D01*
X224913269Y-62157486D01*
X224899371Y-62141447D01*
X224839036Y-62058401D01*
X224716602Y-61935967D01*
X224576524Y-61834195D01*
X224422257Y-61755591D01*
X224257589Y-61702087D01*
X224257581Y-61702085D01*
X224250000Y-61700884D01*
X224250000Y-62769670D01*
X224230255Y-62749925D01*
X224144745Y-62700556D01*
X224049370Y-62675000D01*
X223950630Y-62675000D01*
X223855255Y-62700556D01*
X223769745Y-62749925D01*
X223750000Y-62769670D01*
X223750000Y-61700884D01*
X223749999Y-61700884D01*
X223742418Y-61702085D01*
X223742410Y-61702087D01*
X223577742Y-61755591D01*
X223423475Y-61834195D01*
X223283401Y-61935964D01*
X223175799Y-62043566D01*
X223114476Y-62077050D01*
X223044784Y-62072066D01*
X222988851Y-62030194D01*
X222982585Y-62020988D01*
X222942712Y-61956344D01*
X222818656Y-61832288D01*
X222693559Y-61755128D01*
X222669336Y-61740187D01*
X222669331Y-61740185D01*
X222667862Y-61739698D01*
X222502797Y-61685001D01*
X222502795Y-61685000D01*
X222400010Y-61674500D01*
X221599998Y-61674500D01*
X221599975Y-61674502D01*
X221544052Y-61680214D01*
X221475360Y-61667443D01*
X221443772Y-61644537D01*
X221261416Y-61462181D01*
X221227931Y-61400858D01*
X221232915Y-61331166D01*
X221274787Y-61275233D01*
X221340251Y-61250816D01*
X221349097Y-61250500D01*
X238875500Y-61250500D01*
X238942539Y-61270185D01*
G37*
%TD.AperFunction*%
%TA.AperFunction,Conductor*%
G36*
X181527865Y-92673348D02*
G01*
X181572382Y-92724725D01*
X181599429Y-92782728D01*
X181599432Y-92782734D01*
X181729954Y-92969141D01*
X181890858Y-93130045D01*
X181890861Y-93130047D01*
X182077266Y-93260568D01*
X182283504Y-93356739D01*
X182283509Y-93356740D01*
X182283511Y-93356741D01*
X182301989Y-93361692D01*
X182503308Y-93415635D01*
X182645361Y-93428063D01*
X182729998Y-93435468D01*
X182730000Y-93435468D01*
X182730002Y-93435468D01*
X182786673Y-93430509D01*
X182956692Y-93415635D01*
X183052932Y-93389847D01*
X183122781Y-93391510D01*
X183172706Y-93421941D01*
X186615139Y-96864374D01*
X186615149Y-96864385D01*
X186619479Y-96868715D01*
X186619480Y-96868716D01*
X186731284Y-96980520D01*
X186807462Y-97024501D01*
X186868215Y-97059577D01*
X187020942Y-97100500D01*
X187020943Y-97100500D01*
X189699903Y-97100500D01*
X189766942Y-97120185D01*
X189787584Y-97136819D01*
X200172029Y-107521264D01*
X200205514Y-107582587D01*
X200200530Y-107652279D01*
X200172035Y-107696620D01*
X200160594Y-107708062D01*
X200160590Y-107708066D01*
X200058768Y-107848211D01*
X199980128Y-108002552D01*
X199926597Y-108167302D01*
X199909543Y-108274981D01*
X199899500Y-108338389D01*
X199899500Y-109061611D01*
X199926598Y-109232701D01*
X199976793Y-109387184D01*
X199978788Y-109457023D01*
X199942708Y-109516856D01*
X199880007Y-109547684D01*
X199858862Y-109549500D01*
X189750097Y-109549500D01*
X189683058Y-109529815D01*
X189662416Y-109513181D01*
X189386818Y-109237583D01*
X189353333Y-109176260D01*
X189350499Y-109149902D01*
X189350499Y-108274998D01*
X189350498Y-108274981D01*
X189339999Y-108172203D01*
X189339998Y-108172200D01*
X189317712Y-108104945D01*
X189284814Y-108005666D01*
X189192712Y-107856344D01*
X189068656Y-107732288D01*
X188943559Y-107655128D01*
X188919336Y-107640187D01*
X188919331Y-107640185D01*
X188910724Y-107637333D01*
X188752797Y-107585001D01*
X188752795Y-107585000D01*
X188650016Y-107574500D01*
X188650009Y-107574500D01*
X188262000Y-107574500D01*
X188194961Y-107554815D01*
X188149206Y-107502011D01*
X188138000Y-107450500D01*
X188138000Y-100013767D01*
X188157685Y-99946728D01*
X188196901Y-99908230D01*
X188343656Y-99817712D01*
X188467712Y-99693656D01*
X188559814Y-99544334D01*
X188614999Y-99377797D01*
X188625500Y-99275009D01*
X188625499Y-98224992D01*
X188614999Y-98122203D01*
X188559814Y-97955666D01*
X188467712Y-97806344D01*
X188343656Y-97682288D01*
X188194334Y-97590186D01*
X188027797Y-97535001D01*
X188027795Y-97535000D01*
X187925010Y-97524500D01*
X187149998Y-97524500D01*
X187149980Y-97524501D01*
X187047203Y-97535000D01*
X187047200Y-97535001D01*
X186880668Y-97590185D01*
X186880663Y-97590187D01*
X186731342Y-97682289D01*
X186607288Y-97806343D01*
X186607283Y-97806349D01*
X186605241Y-97809661D01*
X186603247Y-97811453D01*
X186602807Y-97812011D01*
X186602711Y-97811935D01*
X186553291Y-97856383D01*
X186484328Y-97867602D01*
X186420247Y-97839755D01*
X186394168Y-97809656D01*
X186392319Y-97806659D01*
X186392316Y-97806655D01*
X186268345Y-97682684D01*
X186119124Y-97590643D01*
X186119119Y-97590641D01*
X185952697Y-97535494D01*
X185952690Y-97535493D01*
X185849986Y-97525000D01*
X185712500Y-97525000D01*
X185712500Y-99974999D01*
X185849972Y-99974999D01*
X185849986Y-99974998D01*
X185952697Y-99964505D01*
X186119119Y-99909358D01*
X186119124Y-99909356D01*
X186268345Y-99817315D01*
X186392318Y-99693342D01*
X186394165Y-99690348D01*
X186395969Y-99688724D01*
X186396798Y-99687677D01*
X186396976Y-99687818D01*
X186446110Y-99643621D01*
X186515073Y-99632396D01*
X186579156Y-99660236D01*
X186605243Y-99690341D01*
X186607288Y-99693656D01*
X186731344Y-99817712D01*
X186878097Y-99908229D01*
X186924821Y-99960175D01*
X186937000Y-100013767D01*
X186937000Y-107588135D01*
X186917315Y-107655174D01*
X186864511Y-107700929D01*
X186795353Y-107710873D01*
X186756705Y-107698620D01*
X186672257Y-107655592D01*
X186507589Y-107602087D01*
X186507581Y-107602085D01*
X186500000Y-107600884D01*
X186500000Y-108669670D01*
X186480255Y-108649925D01*
X186394745Y-108600556D01*
X186299370Y-108575000D01*
X186200630Y-108575000D01*
X186105255Y-108600556D01*
X186019745Y-108649925D01*
X186000000Y-108669670D01*
X186000000Y-107600884D01*
X185999999Y-107600884D01*
X185992418Y-107602085D01*
X185992410Y-107602087D01*
X185827742Y-107655591D01*
X185673475Y-107734195D01*
X185533397Y-107835967D01*
X185410965Y-107958399D01*
X185410961Y-107958404D01*
X185350627Y-108041448D01*
X185295297Y-108084114D01*
X185225684Y-108090093D01*
X185163889Y-108057488D01*
X185149991Y-108041449D01*
X185149990Y-108041448D01*
X185089414Y-107958072D01*
X184966928Y-107835586D01*
X184826788Y-107733768D01*
X184672445Y-107655127D01*
X184507701Y-107601598D01*
X184507699Y-107601597D01*
X184507698Y-107601597D01*
X184376271Y-107580781D01*
X184336611Y-107574500D01*
X184163389Y-107574500D01*
X184131192Y-107579599D01*
X183992301Y-107601597D01*
X183992297Y-107601598D01*
X183882316Y-107637333D01*
X183812475Y-107639328D01*
X183756318Y-107607083D01*
X180826819Y-104677584D01*
X180793334Y-104616261D01*
X180790500Y-104589903D01*
X180790500Y-99000000D01*
X184375001Y-99000000D01*
X184375001Y-99274986D01*
X184385494Y-99377697D01*
X184440641Y-99544119D01*
X184440643Y-99544124D01*
X184532684Y-99693345D01*
X184656654Y-99817315D01*
X184805875Y-99909356D01*
X184805880Y-99909358D01*
X184972302Y-99964505D01*
X184972309Y-99964506D01*
X185075019Y-99974999D01*
X185212499Y-99974999D01*
X185212500Y-99974998D01*
X185212500Y-99000000D01*
X184375001Y-99000000D01*
X180790500Y-99000000D01*
X180790500Y-98500000D01*
X184375000Y-98500000D01*
X185212500Y-98500000D01*
X185212500Y-97525000D01*
X185075027Y-97525000D01*
X185075012Y-97525001D01*
X184972302Y-97535494D01*
X184805880Y-97590641D01*
X184805875Y-97590643D01*
X184656654Y-97682684D01*
X184532684Y-97806654D01*
X184440643Y-97955875D01*
X184440641Y-97955880D01*
X184385494Y-98122302D01*
X184385493Y-98122309D01*
X184375000Y-98225013D01*
X184375000Y-98500000D01*
X180790500Y-98500000D01*
X180790500Y-93361692D01*
X180810185Y-93294653D01*
X180843374Y-93260119D01*
X181029139Y-93130047D01*
X181190047Y-92969139D01*
X181320568Y-92782734D01*
X181347618Y-92724724D01*
X181393790Y-92672285D01*
X181460983Y-92653133D01*
X181527865Y-92673348D01*
G37*
%TD.AperFunction*%
%TA.AperFunction,Conductor*%
G36*
X209716942Y-62120185D02*
G01*
X209737584Y-62136819D01*
X210113181Y-62512416D01*
X210146666Y-62573739D01*
X210149500Y-62600097D01*
X210149500Y-63475001D01*
X210149501Y-63475019D01*
X210160000Y-63577796D01*
X210160001Y-63577799D01*
X210184519Y-63651788D01*
X210215186Y-63744334D01*
X210307288Y-63893656D01*
X210431344Y-64017712D01*
X210580666Y-64109814D01*
X210747203Y-64164999D01*
X210849991Y-64175500D01*
X211238000Y-64175499D01*
X211305039Y-64195183D01*
X211350794Y-64247987D01*
X211362000Y-64299499D01*
X211362000Y-71236232D01*
X211342315Y-71303271D01*
X211303098Y-71341769D01*
X211261219Y-71367601D01*
X211156342Y-71432289D01*
X211032289Y-71556342D01*
X210940187Y-71705663D01*
X210940185Y-71705668D01*
X210940115Y-71705880D01*
X210885001Y-71872203D01*
X210885001Y-71872204D01*
X210885000Y-71872204D01*
X210874500Y-71974983D01*
X210874500Y-73025001D01*
X210874501Y-73025019D01*
X210885000Y-73127796D01*
X210885001Y-73127799D01*
X210940185Y-73294331D01*
X210940187Y-73294336D01*
X210975069Y-73350888D01*
X211032288Y-73443656D01*
X211156344Y-73567712D01*
X211305666Y-73659814D01*
X211472203Y-73714999D01*
X211574991Y-73725500D01*
X212350008Y-73725499D01*
X212350016Y-73725498D01*
X212350019Y-73725498D01*
X212442831Y-73716017D01*
X212452797Y-73714999D01*
X212619334Y-73659814D01*
X212768656Y-73567712D01*
X212892712Y-73443656D01*
X212894752Y-73440347D01*
X212896745Y-73438555D01*
X212897193Y-73437989D01*
X212897289Y-73438065D01*
X212946694Y-73393623D01*
X213015656Y-73382395D01*
X213079740Y-73410234D01*
X213105829Y-73440339D01*
X213107681Y-73443341D01*
X213107683Y-73443344D01*
X213231654Y-73567315D01*
X213380875Y-73659356D01*
X213380880Y-73659358D01*
X213547302Y-73714505D01*
X213547309Y-73714506D01*
X213650019Y-73724999D01*
X213787499Y-73724999D01*
X213787500Y-73724998D01*
X213787500Y-71275000D01*
X213650027Y-71275000D01*
X213650012Y-71275001D01*
X213547302Y-71285494D01*
X213380880Y-71340641D01*
X213380875Y-71340643D01*
X213231654Y-71432684D01*
X213107683Y-71556655D01*
X213107679Y-71556660D01*
X213105826Y-71559665D01*
X213104018Y-71561290D01*
X213103202Y-71562323D01*
X213103025Y-71562183D01*
X213053874Y-71606385D01*
X212984911Y-71617601D01*
X212920831Y-71589752D01*
X212894753Y-71559653D01*
X212894737Y-71559628D01*
X212892712Y-71556344D01*
X212768656Y-71432288D01*
X212621902Y-71341770D01*
X212575179Y-71289823D01*
X212563000Y-71236232D01*
X212563000Y-64161864D01*
X212582685Y-64094825D01*
X212635489Y-64049070D01*
X212704647Y-64039126D01*
X212743296Y-64051380D01*
X212827742Y-64094408D01*
X212992415Y-64147914D01*
X212992414Y-64147914D01*
X212999999Y-64149115D01*
X213000000Y-64149114D01*
X213000000Y-63080330D01*
X213019745Y-63100075D01*
X213105255Y-63149444D01*
X213200630Y-63175000D01*
X213299370Y-63175000D01*
X213394745Y-63149444D01*
X213480255Y-63100075D01*
X213500000Y-63080330D01*
X213500000Y-64149115D01*
X213507584Y-64147914D01*
X213672255Y-64094408D01*
X213826524Y-64015804D01*
X213966602Y-63914032D01*
X214089036Y-63791598D01*
X214149371Y-63708552D01*
X214204700Y-63665886D01*
X214274313Y-63659905D01*
X214336109Y-63692510D01*
X214350008Y-63708550D01*
X214361966Y-63725008D01*
X214410586Y-63791928D01*
X214533072Y-63914414D01*
X214598388Y-63961868D01*
X214641051Y-64017195D01*
X214649500Y-64062184D01*
X214649500Y-71160624D01*
X214629815Y-71227663D01*
X214577011Y-71273418D01*
X214512897Y-71283982D01*
X214424986Y-71275000D01*
X214287500Y-71275000D01*
X214287500Y-73724999D01*
X214424972Y-73724999D01*
X214424984Y-73724998D01*
X214512897Y-73716017D01*
X214581590Y-73728786D01*
X214632475Y-73776667D01*
X214649500Y-73839375D01*
X214649500Y-74449903D01*
X214629815Y-74516942D01*
X214613181Y-74537584D01*
X210287584Y-78863181D01*
X210226261Y-78896666D01*
X210199903Y-78899500D01*
X195800097Y-78899500D01*
X195733058Y-78879815D01*
X195712416Y-78863181D01*
X195188378Y-78339143D01*
X195154893Y-78277820D01*
X195159877Y-78208128D01*
X195180000Y-78180910D01*
X195180000Y-77323012D01*
X195237007Y-77355925D01*
X195364174Y-77390000D01*
X195495826Y-77390000D01*
X195622993Y-77355925D01*
X195680000Y-77323012D01*
X195680000Y-78168872D01*
X195876317Y-78116269D01*
X195876326Y-78116265D01*
X196082482Y-78020134D01*
X196268820Y-77889657D01*
X196429657Y-77728820D01*
X196560132Y-77542484D01*
X196587341Y-77484134D01*
X196633513Y-77431695D01*
X196700707Y-77412542D01*
X196767588Y-77432757D01*
X196812106Y-77484133D01*
X196839431Y-77542732D01*
X196839432Y-77542734D01*
X196969954Y-77729141D01*
X197130858Y-77890045D01*
X197130861Y-77890047D01*
X197317266Y-78020568D01*
X197523504Y-78116739D01*
X197743308Y-78175635D01*
X197885361Y-78188063D01*
X197969998Y-78195468D01*
X197970000Y-78195468D01*
X197970002Y-78195468D01*
X198026807Y-78190498D01*
X198196692Y-78175635D01*
X198416496Y-78116739D01*
X198622734Y-78020568D01*
X198809139Y-77890047D01*
X198970047Y-77729139D01*
X199100568Y-77542734D01*
X199127618Y-77484724D01*
X199173790Y-77432285D01*
X199240983Y-77413133D01*
X199307865Y-77433348D01*
X199352382Y-77484725D01*
X199379429Y-77542728D01*
X199379432Y-77542734D01*
X199509954Y-77729141D01*
X199670858Y-77890045D01*
X199670861Y-77890047D01*
X199857266Y-78020568D01*
X200063504Y-78116739D01*
X200283308Y-78175635D01*
X200425361Y-78188063D01*
X200509998Y-78195468D01*
X200510000Y-78195468D01*
X200510002Y-78195468D01*
X200566807Y-78190498D01*
X200736692Y-78175635D01*
X200956496Y-78116739D01*
X201162734Y-78020568D01*
X201349139Y-77890047D01*
X201510047Y-77729139D01*
X201527272Y-77704539D01*
X201581848Y-77660913D01*
X201651346Y-77653718D01*
X201713701Y-77685239D01*
X201749116Y-77745468D01*
X201752138Y-77762406D01*
X201755908Y-77797483D01*
X201806202Y-77932328D01*
X201806206Y-77932335D01*
X201892452Y-78047544D01*
X201892455Y-78047547D01*
X202007664Y-78133793D01*
X202007671Y-78133797D01*
X202142517Y-78184091D01*
X202142516Y-78184091D01*
X202149444Y-78184835D01*
X202202127Y-78190500D01*
X203897872Y-78190499D01*
X203957483Y-78184091D01*
X204092331Y-78133796D01*
X204207546Y-78047546D01*
X204293796Y-77932331D01*
X204344091Y-77797483D01*
X204350500Y-77737873D01*
X204350499Y-76042128D01*
X204344091Y-75982517D01*
X204323219Y-75926557D01*
X204293797Y-75847671D01*
X204293793Y-75847664D01*
X204207547Y-75732455D01*
X204207544Y-75732452D01*
X204092335Y-75646206D01*
X204092328Y-75646202D01*
X203957482Y-75595908D01*
X203957483Y-75595908D01*
X203897883Y-75589501D01*
X203897881Y-75589500D01*
X203897873Y-75589500D01*
X203897864Y-75589500D01*
X202202129Y-75589500D01*
X202202123Y-75589501D01*
X202142516Y-75595908D01*
X202007671Y-75646202D01*
X202007664Y-75646206D01*
X201892455Y-75732452D01*
X201892452Y-75732455D01*
X201806206Y-75847664D01*
X201806202Y-75847671D01*
X201755908Y-75982516D01*
X201752137Y-76017596D01*
X201725398Y-76082146D01*
X201668006Y-76121994D01*
X201598180Y-76124487D01*
X201538092Y-76088834D01*
X201527273Y-76075462D01*
X201510045Y-76050858D01*
X201349141Y-75889954D01*
X201162734Y-75759432D01*
X201162732Y-75759431D01*
X200956497Y-75663261D01*
X200956488Y-75663258D01*
X200736697Y-75604366D01*
X200736693Y-75604365D01*
X200736692Y-75604365D01*
X200736691Y-75604364D01*
X200736686Y-75604364D01*
X200510002Y-75584532D01*
X200509998Y-75584532D01*
X200283313Y-75604364D01*
X200283302Y-75604366D01*
X200063511Y-75663258D01*
X200063502Y-75663261D01*
X199857267Y-75759431D01*
X199857265Y-75759432D01*
X199670858Y-75889954D01*
X199509954Y-76050858D01*
X199379432Y-76237265D01*
X199379431Y-76237267D01*
X199352382Y-76295275D01*
X199306209Y-76347714D01*
X199239016Y-76366866D01*
X199172135Y-76346650D01*
X199127618Y-76295275D01*
X199123118Y-76285625D01*
X199100568Y-76237266D01*
X198970047Y-76050861D01*
X198970045Y-76050858D01*
X198809141Y-75889954D01*
X198622734Y-75759432D01*
X198622732Y-75759431D01*
X198416497Y-75663261D01*
X198416488Y-75663258D01*
X198196697Y-75604366D01*
X198196693Y-75604365D01*
X198196692Y-75604365D01*
X198196691Y-75604364D01*
X198196686Y-75604364D01*
X197970002Y-75584532D01*
X197969998Y-75584532D01*
X197743313Y-75604364D01*
X197743302Y-75604366D01*
X197523511Y-75663258D01*
X197523502Y-75663261D01*
X197317267Y-75759431D01*
X197317265Y-75759432D01*
X197130858Y-75889954D01*
X196969954Y-76050858D01*
X196839433Y-76237264D01*
X196839432Y-76237266D01*
X196817718Y-76283833D01*
X196812106Y-76295867D01*
X196765933Y-76348306D01*
X196698739Y-76367457D01*
X196631858Y-76347241D01*
X196587342Y-76295865D01*
X196560135Y-76237520D01*
X196560134Y-76237518D01*
X196429657Y-76051179D01*
X196268820Y-75890342D01*
X196082482Y-75759865D01*
X195876328Y-75663734D01*
X195680000Y-75611127D01*
X195680000Y-76456988D01*
X195622993Y-76424075D01*
X195495826Y-76390000D01*
X195364174Y-76390000D01*
X195237007Y-76424075D01*
X195180000Y-76456988D01*
X195180000Y-75611127D01*
X194983671Y-75663734D01*
X194777517Y-75759865D01*
X194591179Y-75890342D01*
X194430342Y-76051179D01*
X194299867Y-76237515D01*
X194272657Y-76295867D01*
X194226484Y-76348306D01*
X194159290Y-76367457D01*
X194092409Y-76347241D01*
X194047893Y-76295865D01*
X194042282Y-76283833D01*
X194020568Y-76237266D01*
X193890047Y-76050861D01*
X193890045Y-76050858D01*
X193729141Y-75889954D01*
X193542734Y-75759432D01*
X193542732Y-75759431D01*
X193336497Y-75663261D01*
X193336488Y-75663258D01*
X193116697Y-75604366D01*
X193116693Y-75604365D01*
X193116692Y-75604365D01*
X193116691Y-75604364D01*
X193116686Y-75604364D01*
X192890002Y-75584532D01*
X192889998Y-75584532D01*
X192663313Y-75604364D01*
X192663302Y-75604366D01*
X192443511Y-75663258D01*
X192443502Y-75663261D01*
X192237267Y-75759431D01*
X192237265Y-75759432D01*
X192050858Y-75889954D01*
X191889954Y-76050858D01*
X191759432Y-76237265D01*
X191759431Y-76237267D01*
X191732382Y-76295275D01*
X191686209Y-76347714D01*
X191619016Y-76366866D01*
X191552135Y-76346650D01*
X191507618Y-76295275D01*
X191503118Y-76285625D01*
X191480568Y-76237266D01*
X191350047Y-76050861D01*
X191350045Y-76050858D01*
X191189141Y-75889954D01*
X191002734Y-75759432D01*
X191002732Y-75759431D01*
X190796497Y-75663261D01*
X190796488Y-75663258D01*
X190576697Y-75604366D01*
X190576693Y-75604365D01*
X190576692Y-75604365D01*
X190576691Y-75604364D01*
X190576686Y-75604364D01*
X190350002Y-75584532D01*
X190349998Y-75584532D01*
X190123313Y-75604364D01*
X190123302Y-75604366D01*
X189903511Y-75663258D01*
X189903502Y-75663261D01*
X189697267Y-75759431D01*
X189697265Y-75759432D01*
X189510858Y-75889954D01*
X189349954Y-76050858D01*
X189219432Y-76237265D01*
X189219431Y-76237267D01*
X189192382Y-76295275D01*
X189146209Y-76347714D01*
X189079016Y-76366866D01*
X189012135Y-76346650D01*
X188967618Y-76295275D01*
X188963118Y-76285625D01*
X188940568Y-76237266D01*
X188810047Y-76050861D01*
X188810045Y-76050858D01*
X188649141Y-75889954D01*
X188462734Y-75759432D01*
X188462732Y-75759431D01*
X188256497Y-75663261D01*
X188256488Y-75663258D01*
X188036697Y-75604366D01*
X188036693Y-75604365D01*
X188036692Y-75604365D01*
X188036691Y-75604364D01*
X188036686Y-75604364D01*
X187810002Y-75584532D01*
X187809998Y-75584532D01*
X187583313Y-75604364D01*
X187583302Y-75604366D01*
X187363511Y-75663258D01*
X187363502Y-75663261D01*
X187157267Y-75759431D01*
X187157265Y-75759432D01*
X186970858Y-75889954D01*
X186809954Y-76050858D01*
X186679432Y-76237265D01*
X186679431Y-76237267D01*
X186652382Y-76295275D01*
X186606209Y-76347714D01*
X186539016Y-76366866D01*
X186472135Y-76346650D01*
X186427618Y-76295275D01*
X186423118Y-76285625D01*
X186400568Y-76237266D01*
X186270047Y-76050861D01*
X186270045Y-76050858D01*
X186109141Y-75889954D01*
X185922734Y-75759432D01*
X185922732Y-75759431D01*
X185716497Y-75663261D01*
X185716488Y-75663258D01*
X185496697Y-75604366D01*
X185496693Y-75604365D01*
X185496692Y-75604365D01*
X185496691Y-75604364D01*
X185496686Y-75604364D01*
X185270002Y-75584532D01*
X185269998Y-75584532D01*
X185187152Y-75591780D01*
X185118652Y-75578013D01*
X185068469Y-75529398D01*
X185052536Y-75461369D01*
X185075911Y-75395526D01*
X185088664Y-75380571D01*
X185228504Y-75240732D01*
X185582417Y-74886819D01*
X185643740Y-74853334D01*
X185670098Y-74850500D01*
X203163331Y-74850500D01*
X203163347Y-74850501D01*
X203170943Y-74850501D01*
X203329054Y-74850501D01*
X203329057Y-74850501D01*
X203481785Y-74809577D01*
X203531904Y-74780639D01*
X203618716Y-74730520D01*
X203730520Y-74618716D01*
X203730520Y-74618714D01*
X203740728Y-74608507D01*
X203740730Y-74608504D01*
X204868713Y-73480521D01*
X204868716Y-73480520D01*
X204980520Y-73368716D01*
X205030639Y-73281904D01*
X205059577Y-73231785D01*
X205100501Y-73079057D01*
X205100501Y-72920943D01*
X205100501Y-72913348D01*
X205100500Y-72913330D01*
X205100500Y-64062184D01*
X205120185Y-63995145D01*
X205151609Y-63961870D01*
X205216928Y-63914414D01*
X205339414Y-63791928D01*
X205441232Y-63651788D01*
X205519873Y-63497445D01*
X205573402Y-63332701D01*
X205600500Y-63161611D01*
X205600500Y-62438389D01*
X205573402Y-62267299D01*
X205571945Y-62262814D01*
X205569952Y-62192973D01*
X205606034Y-62133141D01*
X205668736Y-62102315D01*
X205689877Y-62100500D01*
X209649903Y-62100500D01*
X209716942Y-62120185D01*
G37*
%TD.AperFunction*%
%TA.AperFunction,Conductor*%
G36*
X199343039Y-62120185D02*
G01*
X199388794Y-62172989D01*
X199400000Y-62224500D01*
X199400000Y-62550000D01*
X200219670Y-62550000D01*
X200199925Y-62569745D01*
X200150556Y-62655255D01*
X200125000Y-62750630D01*
X200125000Y-62849370D01*
X200150556Y-62944745D01*
X200199925Y-63030255D01*
X200219670Y-63050000D01*
X199400001Y-63050000D01*
X199400001Y-63474986D01*
X199410494Y-63577697D01*
X199465641Y-63744119D01*
X199465643Y-63744124D01*
X199557684Y-63893345D01*
X199681654Y-64017315D01*
X199830875Y-64109356D01*
X199830880Y-64109358D01*
X199997302Y-64164505D01*
X199997309Y-64164506D01*
X200100019Y-64174999D01*
X200249999Y-64174999D01*
X200250000Y-64174998D01*
X200250000Y-63080330D01*
X200269745Y-63100075D01*
X200355255Y-63149444D01*
X200450630Y-63175000D01*
X200549370Y-63175000D01*
X200644745Y-63149444D01*
X200730255Y-63100075D01*
X200750000Y-63080330D01*
X200750000Y-64174999D01*
X200899972Y-64174999D01*
X200899986Y-64174998D01*
X201002697Y-64164505D01*
X201169119Y-64109358D01*
X201169124Y-64109356D01*
X201318345Y-64017315D01*
X201442315Y-63893345D01*
X201481945Y-63829094D01*
X201533893Y-63782368D01*
X201602855Y-63771145D01*
X201666937Y-63798988D01*
X201675166Y-63806508D01*
X201783072Y-63914414D01*
X201923212Y-64016232D01*
X202077555Y-64094873D01*
X202242299Y-64148402D01*
X202413389Y-64175500D01*
X202413390Y-64175500D01*
X202563000Y-64175500D01*
X202630039Y-64195185D01*
X202675794Y-64247989D01*
X202687000Y-64299500D01*
X202687000Y-71236232D01*
X202667315Y-71303271D01*
X202628098Y-71341769D01*
X202586219Y-71367601D01*
X202481342Y-71432289D01*
X202357288Y-71556343D01*
X202357283Y-71556349D01*
X202355241Y-71559661D01*
X202353247Y-71561453D01*
X202352807Y-71562011D01*
X202352711Y-71561935D01*
X202303291Y-71606383D01*
X202234328Y-71617602D01*
X202170247Y-71589755D01*
X202144168Y-71559656D01*
X202142319Y-71556659D01*
X202142316Y-71556655D01*
X202018345Y-71432684D01*
X201869124Y-71340643D01*
X201869119Y-71340641D01*
X201702697Y-71285494D01*
X201702690Y-71285493D01*
X201599986Y-71275000D01*
X201462500Y-71275000D01*
X201462500Y-72626000D01*
X201442815Y-72693039D01*
X201390011Y-72738794D01*
X201338500Y-72750000D01*
X200125001Y-72750000D01*
X200125001Y-73024986D01*
X200135494Y-73127697D01*
X200190641Y-73294119D01*
X200190643Y-73294124D01*
X200282684Y-73443345D01*
X200286832Y-73448591D01*
X200312971Y-73513387D01*
X200299929Y-73582029D01*
X200251847Y-73632723D01*
X200189564Y-73649500D01*
X192999097Y-73649500D01*
X192932058Y-73629815D01*
X192886303Y-73577011D01*
X192876359Y-73507853D01*
X192905384Y-73444297D01*
X192911416Y-73437819D01*
X193017648Y-73331586D01*
X193358506Y-72990727D01*
X193358511Y-72990724D01*
X193368714Y-72980520D01*
X193368716Y-72980520D01*
X193480520Y-72868716D01*
X193534622Y-72775009D01*
X193538544Y-72768216D01*
X193538545Y-72768214D01*
X193559574Y-72731790D01*
X193559575Y-72731789D01*
X193559575Y-72731787D01*
X193559577Y-72731785D01*
X193600501Y-72579057D01*
X193600501Y-72420943D01*
X193600501Y-72413348D01*
X193600500Y-72413330D01*
X193600500Y-72250000D01*
X200125000Y-72250000D01*
X200962500Y-72250000D01*
X200962500Y-71275000D01*
X200825027Y-71275000D01*
X200825012Y-71275001D01*
X200722302Y-71285494D01*
X200555880Y-71340641D01*
X200555875Y-71340643D01*
X200406654Y-71432684D01*
X200282684Y-71556654D01*
X200190643Y-71705875D01*
X200190641Y-71705880D01*
X200135494Y-71872302D01*
X200135493Y-71872309D01*
X200125000Y-71975013D01*
X200125000Y-72250000D01*
X193600500Y-72250000D01*
X193600500Y-64062184D01*
X193620185Y-63995145D01*
X193651609Y-63961870D01*
X193716928Y-63914414D01*
X193839414Y-63791928D01*
X193941232Y-63651788D01*
X194019873Y-63497445D01*
X194073402Y-63332701D01*
X194100500Y-63161611D01*
X194100500Y-62438389D01*
X194073402Y-62267299D01*
X194071945Y-62262814D01*
X194069952Y-62192973D01*
X194106034Y-62133141D01*
X194168736Y-62102315D01*
X194189877Y-62100500D01*
X199276000Y-62100500D01*
X199343039Y-62120185D01*
G37*
%TD.AperFunction*%
%TA.AperFunction,Conductor*%
G36*
X224250000Y-64399115D02*
G01*
X224257584Y-64397914D01*
X224422255Y-64344408D01*
X224576524Y-64265804D01*
X224716602Y-64164032D01*
X224839036Y-64041598D01*
X224899371Y-63958552D01*
X224954700Y-63915886D01*
X225024313Y-63909905D01*
X225086109Y-63942510D01*
X225100008Y-63958550D01*
X225102417Y-63961865D01*
X225160586Y-64041928D01*
X225283072Y-64164414D01*
X225348388Y-64211868D01*
X225391051Y-64267195D01*
X225399500Y-64312184D01*
X225399500Y-71439477D01*
X225379815Y-71506516D01*
X225327011Y-71552271D01*
X225257853Y-71562215D01*
X225194297Y-71533190D01*
X225187819Y-71527158D01*
X225093345Y-71432684D01*
X224944124Y-71340643D01*
X224944119Y-71340641D01*
X224777697Y-71285494D01*
X224777690Y-71285493D01*
X224674986Y-71275000D01*
X224537500Y-71275000D01*
X224537500Y-72626000D01*
X224517815Y-72693039D01*
X224465011Y-72738794D01*
X224413500Y-72750000D01*
X224161500Y-72750000D01*
X224094461Y-72730315D01*
X224048706Y-72677511D01*
X224037500Y-72626000D01*
X224037500Y-71275000D01*
X223900027Y-71275000D01*
X223900012Y-71275001D01*
X223797302Y-71285494D01*
X223630880Y-71340641D01*
X223630875Y-71340643D01*
X223481654Y-71432684D01*
X223357683Y-71556655D01*
X223357679Y-71556660D01*
X223355826Y-71559665D01*
X223354018Y-71561290D01*
X223353202Y-71562323D01*
X223353025Y-71562183D01*
X223303874Y-71606385D01*
X223234911Y-71617601D01*
X223170831Y-71589752D01*
X223144753Y-71559653D01*
X223144737Y-71559628D01*
X223142712Y-71556344D01*
X223018656Y-71432288D01*
X222871902Y-71341770D01*
X222825179Y-71289823D01*
X222813000Y-71236232D01*
X222813000Y-64324730D01*
X222832685Y-64257691D01*
X222849319Y-64237049D01*
X222891185Y-64195183D01*
X222942712Y-64143656D01*
X222982581Y-64079016D01*
X223034525Y-64032294D01*
X223103488Y-64021071D01*
X223167570Y-64048914D01*
X223175799Y-64056434D01*
X223283397Y-64164032D01*
X223423475Y-64265804D01*
X223577744Y-64344408D01*
X223742415Y-64397914D01*
X223742414Y-64397914D01*
X223749999Y-64399115D01*
X223750000Y-64399114D01*
X223750000Y-63330330D01*
X223769745Y-63350075D01*
X223855255Y-63399444D01*
X223950630Y-63425000D01*
X224049370Y-63425000D01*
X224144745Y-63399444D01*
X224230255Y-63350075D01*
X224250000Y-63330330D01*
X224250000Y-64399115D01*
G37*
%TD.AperFunction*%
%TA.AperFunction,Conductor*%
G36*
X180500000Y-64149115D02*
G01*
X180507584Y-64147914D01*
X180672255Y-64094408D01*
X180826524Y-64015804D01*
X180966602Y-63914032D01*
X181089036Y-63791598D01*
X181149371Y-63708552D01*
X181204700Y-63665886D01*
X181274313Y-63659905D01*
X181336109Y-63692510D01*
X181350008Y-63708550D01*
X181361966Y-63725008D01*
X181410586Y-63791928D01*
X181533072Y-63914414D01*
X181598388Y-63961868D01*
X181641051Y-64017195D01*
X181649500Y-64062184D01*
X181649500Y-70995145D01*
X181629815Y-71062184D01*
X181577011Y-71107939D01*
X181507853Y-71117883D01*
X181460406Y-71100685D01*
X181444131Y-71090647D01*
X181444119Y-71090641D01*
X181277697Y-71035494D01*
X181277690Y-71035493D01*
X181174986Y-71025000D01*
X181037500Y-71025000D01*
X181037500Y-72376000D01*
X181017815Y-72443039D01*
X180965011Y-72488794D01*
X180913500Y-72500000D01*
X180661500Y-72500000D01*
X180594461Y-72480315D01*
X180548706Y-72427511D01*
X180537500Y-72376000D01*
X180537500Y-71025000D01*
X180400027Y-71025000D01*
X180400012Y-71025001D01*
X180297302Y-71035494D01*
X180130880Y-71090641D01*
X180130875Y-71090643D01*
X179981654Y-71182684D01*
X179857683Y-71306655D01*
X179857679Y-71306660D01*
X179855826Y-71309665D01*
X179854018Y-71311290D01*
X179853202Y-71312323D01*
X179853025Y-71312183D01*
X179803874Y-71356385D01*
X179734911Y-71367601D01*
X179670831Y-71339752D01*
X179644753Y-71309653D01*
X179643401Y-71307461D01*
X179642712Y-71306344D01*
X179518656Y-71182288D01*
X179371902Y-71091770D01*
X179325179Y-71039823D01*
X179313000Y-70986232D01*
X179313000Y-63992997D01*
X179332685Y-63925958D01*
X179385489Y-63880203D01*
X179454647Y-63870259D01*
X179518203Y-63899284D01*
X179524681Y-63905316D01*
X179533397Y-63914032D01*
X179673475Y-64015804D01*
X179827744Y-64094408D01*
X179992415Y-64147914D01*
X179992414Y-64147914D01*
X179999999Y-64149115D01*
X180000000Y-64149114D01*
X180000000Y-63080330D01*
X180019745Y-63100075D01*
X180105255Y-63149444D01*
X180200630Y-63175000D01*
X180299370Y-63175000D01*
X180394745Y-63149444D01*
X180480255Y-63100075D01*
X180500000Y-63080330D01*
X180500000Y-64149115D01*
G37*
%TD.AperFunction*%
%TA.AperFunction,Conductor*%
G36*
X191250000Y-64149115D02*
G01*
X191257584Y-64147914D01*
X191422255Y-64094408D01*
X191576524Y-64015804D01*
X191716602Y-63914032D01*
X191839036Y-63791598D01*
X191899371Y-63708552D01*
X191954700Y-63665886D01*
X192024313Y-63659905D01*
X192086109Y-63692510D01*
X192100008Y-63708550D01*
X192111966Y-63725008D01*
X192160586Y-63791928D01*
X192283072Y-63914414D01*
X192348388Y-63961868D01*
X192391051Y-64017195D01*
X192399500Y-64062184D01*
X192399500Y-70995145D01*
X192379815Y-71062184D01*
X192327011Y-71107939D01*
X192257853Y-71117883D01*
X192210406Y-71100685D01*
X192194131Y-71090647D01*
X192194119Y-71090641D01*
X192027697Y-71035494D01*
X192027690Y-71035493D01*
X191924986Y-71025000D01*
X191787500Y-71025000D01*
X191787500Y-72376000D01*
X191767815Y-72443039D01*
X191715011Y-72488794D01*
X191663500Y-72500000D01*
X191411500Y-72500000D01*
X191344461Y-72480315D01*
X191298706Y-72427511D01*
X191287500Y-72376000D01*
X191287500Y-71025000D01*
X191150027Y-71025000D01*
X191150012Y-71025001D01*
X191047302Y-71035494D01*
X190880880Y-71090641D01*
X190880875Y-71090643D01*
X190731654Y-71182684D01*
X190607683Y-71306655D01*
X190607679Y-71306660D01*
X190605826Y-71309665D01*
X190604018Y-71311290D01*
X190603202Y-71312323D01*
X190603025Y-71312183D01*
X190553874Y-71356385D01*
X190484911Y-71367601D01*
X190420831Y-71339752D01*
X190394753Y-71309653D01*
X190393401Y-71307461D01*
X190392712Y-71306344D01*
X190268656Y-71182288D01*
X190121902Y-71091770D01*
X190075179Y-71039823D01*
X190063000Y-70986232D01*
X190063000Y-63992997D01*
X190082685Y-63925958D01*
X190135489Y-63880203D01*
X190204647Y-63870259D01*
X190268203Y-63899284D01*
X190274681Y-63905316D01*
X190283397Y-63914032D01*
X190423475Y-64015804D01*
X190577744Y-64094408D01*
X190742415Y-64147914D01*
X190742414Y-64147914D01*
X190749999Y-64149115D01*
X190750000Y-64149114D01*
X190750000Y-63080330D01*
X190769745Y-63100075D01*
X190855255Y-63149444D01*
X190950630Y-63175000D01*
X191049370Y-63175000D01*
X191144745Y-63149444D01*
X191230255Y-63100075D01*
X191250000Y-63080330D01*
X191250000Y-64149115D01*
G37*
%TD.AperFunction*%
%TD*%
M02*
