%TF.GenerationSoftware,KiCad,Pcbnew,8.0.1*%
%TF.CreationDate,2024-07-20T14:45:51-04:00*%
%TF.ProjectId,musubwi,6d757375-6277-4692-9e6b-696361645f70,rev?*%
%TF.SameCoordinates,Original*%
%TF.FileFunction,Legend,Top*%
%TF.FilePolarity,Positive*%
%FSLAX46Y46*%
G04 Gerber Fmt 4.6, Leading zero omitted, Abs format (unit mm)*
G04 Created by KiCad (PCBNEW 8.0.1) date 2024-07-20 14:45:51*
%MOMM*%
%LPD*%
G01*
G04 APERTURE LIST*
G04 Aperture macros list*
%AMRoundRect*
0 Rectangle with rounded corners*
0 $1 Rounding radius*
0 $2 $3 $4 $5 $6 $7 $8 $9 X,Y pos of 4 corners*
0 Add a 4 corners polygon primitive as box body*
4,1,4,$2,$3,$4,$5,$6,$7,$8,$9,$2,$3,0*
0 Add four circle primitives for the rounded corners*
1,1,$1+$1,$2,$3*
1,1,$1+$1,$4,$5*
1,1,$1+$1,$6,$7*
1,1,$1+$1,$8,$9*
0 Add four rect primitives between the rounded corners*
20,1,$1+$1,$2,$3,$4,$5,0*
20,1,$1+$1,$4,$5,$6,$7,0*
20,1,$1+$1,$6,$7,$8,$9,0*
20,1,$1+$1,$8,$9,$2,$3,0*%
G04 Aperture macros list end*
%ADD10C,0.100000*%
%ADD11C,0.200000*%
%ADD12C,0.150000*%
%ADD13C,0.120000*%
%ADD14C,0.152400*%
%ADD15C,0.127000*%
%ADD16C,6.000000*%
%ADD17RoundRect,0.250000X0.337500X0.475000X-0.337500X0.475000X-0.337500X-0.475000X0.337500X-0.475000X0*%
%ADD18O,1.600000X1.600000*%
%ADD19R,1.600000X1.600000*%
%ADD20O,1.200000X1.750000*%
%ADD21RoundRect,0.250000X-0.350000X-0.625000X0.350000X-0.625000X0.350000X0.625000X-0.350000X0.625000X0*%
%ADD22RoundRect,0.102000X0.500000X-0.800000X0.500000X0.800000X-0.500000X0.800000X-0.500000X-0.800000X0*%
%ADD23RoundRect,0.250000X-0.337500X-0.475000X0.337500X-0.475000X0.337500X0.475000X-0.337500X0.475000X0*%
%ADD24RoundRect,1.500000X-1.500000X-1.500000X1.500000X-1.500000X1.500000X1.500000X-1.500000X1.500000X0*%
%ADD25O,3.600000X2.000000*%
%ADD26RoundRect,0.250000X1.550000X-0.750000X1.550000X0.750000X-1.550000X0.750000X-1.550000X-0.750000X0*%
%ADD27RoundRect,0.250000X0.350000X0.625000X-0.350000X0.625000X-0.350000X-0.625000X0.350000X-0.625000X0*%
%ADD28RoundRect,0.250000X-1.550000X0.750000X-1.550000X-0.750000X1.550000X-0.750000X1.550000X0.750000X0*%
%ADD29RoundRect,0.102000X-0.585000X-0.900000X0.585000X-0.900000X0.585000X0.900000X-0.585000X0.900000X0*%
G04 APERTURE END LIST*
D10*
X219803884Y-90872419D02*
X219803884Y-90205752D01*
X219803884Y-89872419D02*
X219756265Y-89920038D01*
X219756265Y-89920038D02*
X219803884Y-89967657D01*
X219803884Y-89967657D02*
X219851503Y-89920038D01*
X219851503Y-89920038D02*
X219803884Y-89872419D01*
X219803884Y-89872419D02*
X219803884Y-89967657D01*
X221041979Y-90205752D02*
X221041979Y-90872419D01*
X221041979Y-90300990D02*
X221089598Y-90253371D01*
X221089598Y-90253371D02*
X221184836Y-90205752D01*
X221184836Y-90205752D02*
X221327693Y-90205752D01*
X221327693Y-90205752D02*
X221422931Y-90253371D01*
X221422931Y-90253371D02*
X221470550Y-90348609D01*
X221470550Y-90348609D02*
X221470550Y-90872419D01*
X222327693Y-90824800D02*
X222232455Y-90872419D01*
X222232455Y-90872419D02*
X222041979Y-90872419D01*
X222041979Y-90872419D02*
X221946741Y-90824800D01*
X221946741Y-90824800D02*
X221899122Y-90729561D01*
X221899122Y-90729561D02*
X221899122Y-90348609D01*
X221899122Y-90348609D02*
X221946741Y-90253371D01*
X221946741Y-90253371D02*
X222041979Y-90205752D01*
X222041979Y-90205752D02*
X222232455Y-90205752D01*
X222232455Y-90205752D02*
X222327693Y-90253371D01*
X222327693Y-90253371D02*
X222375312Y-90348609D01*
X222375312Y-90348609D02*
X222375312Y-90443847D01*
X222375312Y-90443847D02*
X221899122Y-90539085D01*
X223184836Y-90824800D02*
X223089598Y-90872419D01*
X223089598Y-90872419D02*
X222899122Y-90872419D01*
X222899122Y-90872419D02*
X222803884Y-90824800D01*
X222803884Y-90824800D02*
X222756265Y-90729561D01*
X222756265Y-90729561D02*
X222756265Y-90348609D01*
X222756265Y-90348609D02*
X222803884Y-90253371D01*
X222803884Y-90253371D02*
X222899122Y-90205752D01*
X222899122Y-90205752D02*
X223089598Y-90205752D01*
X223089598Y-90205752D02*
X223184836Y-90253371D01*
X223184836Y-90253371D02*
X223232455Y-90348609D01*
X223232455Y-90348609D02*
X223232455Y-90443847D01*
X223232455Y-90443847D02*
X222756265Y-90539085D01*
X224089598Y-90872419D02*
X224089598Y-89872419D01*
X224089598Y-90824800D02*
X223994360Y-90872419D01*
X223994360Y-90872419D02*
X223803884Y-90872419D01*
X223803884Y-90872419D02*
X223708646Y-90824800D01*
X223708646Y-90824800D02*
X223661027Y-90777180D01*
X223661027Y-90777180D02*
X223613408Y-90681942D01*
X223613408Y-90681942D02*
X223613408Y-90396228D01*
X223613408Y-90396228D02*
X223661027Y-90300990D01*
X223661027Y-90300990D02*
X223708646Y-90253371D01*
X223708646Y-90253371D02*
X223803884Y-90205752D01*
X223803884Y-90205752D02*
X223994360Y-90205752D01*
X223994360Y-90205752D02*
X224089598Y-90253371D01*
X225327694Y-90872419D02*
X225327694Y-89872419D01*
X225756265Y-90872419D02*
X225756265Y-90348609D01*
X225756265Y-90348609D02*
X225708646Y-90253371D01*
X225708646Y-90253371D02*
X225613408Y-90205752D01*
X225613408Y-90205752D02*
X225470551Y-90205752D01*
X225470551Y-90205752D02*
X225375313Y-90253371D01*
X225375313Y-90253371D02*
X225327694Y-90300990D01*
X226613408Y-90824800D02*
X226518170Y-90872419D01*
X226518170Y-90872419D02*
X226327694Y-90872419D01*
X226327694Y-90872419D02*
X226232456Y-90824800D01*
X226232456Y-90824800D02*
X226184837Y-90729561D01*
X226184837Y-90729561D02*
X226184837Y-90348609D01*
X226184837Y-90348609D02*
X226232456Y-90253371D01*
X226232456Y-90253371D02*
X226327694Y-90205752D01*
X226327694Y-90205752D02*
X226518170Y-90205752D01*
X226518170Y-90205752D02*
X226613408Y-90253371D01*
X226613408Y-90253371D02*
X226661027Y-90348609D01*
X226661027Y-90348609D02*
X226661027Y-90443847D01*
X226661027Y-90443847D02*
X226184837Y-90539085D01*
X227232456Y-90872419D02*
X227137218Y-90824800D01*
X227137218Y-90824800D02*
X227089599Y-90729561D01*
X227089599Y-90729561D02*
X227089599Y-89872419D01*
X227613409Y-90205752D02*
X227613409Y-91205752D01*
X227613409Y-90253371D02*
X227708647Y-90205752D01*
X227708647Y-90205752D02*
X227899123Y-90205752D01*
X227899123Y-90205752D02*
X227994361Y-90253371D01*
X227994361Y-90253371D02*
X228041980Y-90300990D01*
X228041980Y-90300990D02*
X228089599Y-90396228D01*
X228089599Y-90396228D02*
X228089599Y-90681942D01*
X228089599Y-90681942D02*
X228041980Y-90777180D01*
X228041980Y-90777180D02*
X227994361Y-90824800D01*
X227994361Y-90824800D02*
X227899123Y-90872419D01*
X227899123Y-90872419D02*
X227708647Y-90872419D01*
X227708647Y-90872419D02*
X227613409Y-90824800D01*
D11*
X219449516Y-88673188D02*
X219449516Y-88673168D01*
X221401717Y-87651948D02*
X221401722Y-87651995D01*
X220568941Y-88445650D02*
X220568951Y-88445648D01*
X219885180Y-87538748D02*
X219885166Y-87538715D01*
X222224491Y-88837171D02*
X222224491Y-88837176D01*
X223904908Y-88443250D02*
X223904908Y-88443260D01*
X224217869Y-87569924D02*
X223847318Y-88270220D01*
X223687059Y-87468105D02*
X224217869Y-87569915D01*
X223293721Y-87781743D02*
X223687029Y-87468115D01*
X223222136Y-89007978D02*
X223222221Y-89007973D01*
X226461393Y-84580586D02*
X226461409Y-84580586D01*
X226273634Y-83706700D02*
X226470193Y-84537686D01*
X226518793Y-83532989D02*
X226518812Y-83532984D01*
X226354788Y-83888853D02*
X226273634Y-83706700D01*
X226727653Y-84594268D02*
X226727646Y-84594276D01*
X220482935Y-85627110D02*
X220482925Y-85627112D01*
X220332224Y-85862538D02*
X220432215Y-85654162D01*
X220450107Y-86055648D02*
X220332236Y-85862539D01*
X220162231Y-86072729D02*
X220162231Y-86072728D01*
X221400950Y-86232956D02*
X220450107Y-86055648D01*
X221119154Y-86442259D02*
X221119154Y-86442261D01*
X221953689Y-85518867D02*
X221400950Y-86232956D01*
X223565931Y-85713070D02*
X223565940Y-85713036D01*
X222263555Y-85687560D02*
X221953689Y-85518867D01*
X223593933Y-86934899D02*
X223593932Y-86934924D01*
X222132288Y-85974999D02*
X222263555Y-85687560D01*
X222195768Y-86221798D02*
X222195758Y-86221824D01*
X222281115Y-85900957D02*
X222132288Y-85974999D01*
X222337435Y-85990347D02*
X222337435Y-85990343D01*
X222367323Y-85863719D02*
X222281115Y-85900957D01*
X222027819Y-86445439D02*
X222027816Y-86445443D01*
X226495245Y-86077099D02*
X226495234Y-86077103D01*
X227182108Y-86447446D02*
X226538814Y-86093953D01*
X227083318Y-86526909D02*
X227182108Y-86447446D01*
X226479455Y-87221309D02*
X226479395Y-87221331D01*
X223739939Y-87453875D02*
X223687059Y-87468105D01*
X223797389Y-87379885D02*
X223739939Y-87453875D01*
X223788089Y-87324945D02*
X223797389Y-87379885D01*
X223717439Y-87409215D02*
X223788089Y-87324945D01*
X223707539Y-87431095D02*
X223717439Y-87409215D01*
X223687029Y-87468115D02*
X223707539Y-87431095D01*
X219937680Y-87526038D02*
X219885180Y-87538748D01*
X219947380Y-87516038D02*
X219937680Y-87526038D01*
X220165866Y-87258336D02*
X220083366Y-87447763D01*
X219947380Y-87516038D01*
X220111526Y-87283016D02*
X220165866Y-87258336D01*
X219929406Y-87480455D02*
X220087452Y-87352919D01*
X220111526Y-87283016D01*
X219885166Y-87538715D02*
X219929406Y-87480455D01*
X224261269Y-87556684D02*
X224217869Y-87569924D01*
X224312889Y-87527744D02*
X224261269Y-87556684D01*
X224364879Y-87505774D02*
X224312889Y-87527744D01*
X224427819Y-87413934D02*
X224364879Y-87505774D01*
X224443079Y-87361534D02*
X224427819Y-87413934D01*
X224362509Y-87404014D02*
X224443079Y-87361534D01*
X224303669Y-87456564D02*
X224362509Y-87404014D01*
X224217869Y-87569915D02*
X224303669Y-87456564D01*
X221448057Y-87623218D02*
X221401717Y-87651948D01*
X221589326Y-87406376D02*
X221462443Y-87571694D01*
X221448057Y-87623218D01*
X221614756Y-87385116D02*
X221589326Y-87406376D01*
X221668016Y-87375916D02*
X221614756Y-87385116D01*
X221698516Y-87357066D02*
X221668016Y-87375916D01*
X221505800Y-87402546D02*
X221698516Y-87357066D01*
X221401722Y-87651995D02*
X221468090Y-87454844D01*
X221505800Y-87402546D01*
X220711291Y-88233200D02*
X220718991Y-88302560D01*
X220686601Y-88313560D02*
X220711291Y-88233200D01*
X220607691Y-88467648D02*
X220568951Y-88445648D01*
X220646421Y-88441518D02*
X220607691Y-88467648D01*
X220663591Y-88428908D02*
X220646421Y-88441518D01*
X220718991Y-88302560D02*
X220663591Y-88428908D01*
X220615421Y-88408780D02*
X220686601Y-88313560D01*
X220568941Y-88445650D02*
X220615421Y-88408780D01*
X224003288Y-88475980D02*
X223904908Y-88443260D01*
X223956028Y-88413040D02*
X224003288Y-88475980D01*
X223886058Y-88318340D02*
X223956028Y-88413040D01*
X223847318Y-88270220D02*
X223886058Y-88318340D01*
X223830208Y-88309260D02*
X223847318Y-88270220D01*
X223841968Y-88371320D02*
X223830208Y-88309260D01*
X223904908Y-88443250D02*
X223841968Y-88371320D01*
X219548946Y-88713868D02*
X219449516Y-88673168D01*
X219521606Y-88644198D02*
X219548946Y-88713868D01*
X219449676Y-88609458D02*
X219521606Y-88644198D01*
X219405116Y-88608158D02*
X219449676Y-88609458D01*
X219449516Y-88673188D02*
X219405116Y-88608158D01*
X222281381Y-88777031D02*
X222224491Y-88837171D01*
X222359111Y-88675636D02*
X222281381Y-88777031D01*
X222370071Y-88615736D02*
X222359111Y-88675636D01*
X222331331Y-88640416D02*
X222370071Y-88615736D01*
X222309231Y-88658926D02*
X222331331Y-88640416D01*
X222224491Y-88837176D02*
X222309231Y-88658926D01*
X223327630Y-88987378D02*
X223222136Y-89007978D01*
X223346910Y-88745262D02*
X223348780Y-88946796D01*
X223327630Y-88987378D01*
X223365180Y-88604221D02*
X223346910Y-88745262D01*
X223367980Y-88379828D02*
X223375117Y-88582695D01*
X223365180Y-88604221D01*
X223338930Y-88225576D02*
X223367980Y-88379828D01*
X223318950Y-88134486D02*
X223338930Y-88225576D01*
X223338540Y-87953446D02*
X223318950Y-88134486D01*
X223356510Y-87798506D02*
X223338540Y-87953446D01*
X223313140Y-87765426D02*
X223356510Y-87798506D01*
X223321540Y-87746996D02*
X223313140Y-87765426D01*
X223270040Y-87480473D02*
X223358984Y-87661706D01*
X223321540Y-87746996D01*
X223270521Y-87539963D02*
X223270040Y-87480473D01*
X223318941Y-87624083D02*
X223270521Y-87539963D01*
X223296521Y-87721283D02*
X223318941Y-87624083D01*
X223293721Y-87781743D02*
X223296521Y-87721283D01*
X223319331Y-87912664D02*
X223293721Y-87781743D01*
X223273231Y-88125002D02*
X223287567Y-87924915D01*
X223319331Y-87912664D01*
X223278831Y-88286786D02*
X223273231Y-88125002D01*
X223306511Y-88379816D02*
X223278831Y-88286786D01*
X223316531Y-88582422D02*
X223306511Y-88379816D01*
X223312831Y-88842793D02*
X223296545Y-88640677D01*
X223316531Y-88582422D01*
X223316031Y-88921873D02*
X223312831Y-88842793D01*
X223307531Y-88932763D02*
X223316031Y-88921873D01*
X223290011Y-88961253D02*
X223307531Y-88932763D01*
X223270511Y-88985653D02*
X223290011Y-88961253D01*
X223252281Y-88995353D02*
X223270511Y-88985653D01*
X223222221Y-89007973D02*
X223252281Y-88995353D01*
X226374998Y-83647010D02*
X226518812Y-83532984D01*
X226273634Y-83706700D02*
X226374998Y-83647010D01*
X222955944Y-82862078D02*
X223248170Y-82909401D01*
X223540846Y-82960449D01*
X223831450Y-83014578D01*
X224117462Y-83071148D01*
X224396359Y-83129517D01*
X224665622Y-83189042D01*
X224922727Y-83249082D01*
X225165155Y-83308995D01*
X225390384Y-83368139D01*
X225595893Y-83425872D01*
X225861666Y-83508422D01*
X226068886Y-83584188D01*
X226261026Y-83689503D01*
X226273634Y-83706700D01*
X222583474Y-82791548D02*
X222794718Y-82835764D01*
X222955944Y-82862078D01*
X223153683Y-82458201D02*
X222950650Y-82557886D01*
X222758292Y-82669022D01*
X222588834Y-82783476D01*
X222583474Y-82791548D01*
X224364893Y-82521431D02*
X224107332Y-82484284D01*
X223889192Y-82455966D01*
X223665029Y-82432625D01*
X223455467Y-82421685D01*
X223251723Y-82434750D01*
X223153683Y-82458201D01*
X226828741Y-83178206D02*
X226626089Y-83088992D01*
X226375091Y-82996947D01*
X226160606Y-82927518D01*
X225927909Y-82858891D01*
X225680852Y-82792091D01*
X225423283Y-82728146D01*
X225159052Y-82668081D01*
X224892010Y-82612922D01*
X224626007Y-82563697D01*
X224364893Y-82521431D01*
X226915141Y-83284889D02*
X226828741Y-83178206D01*
X226737814Y-83381779D02*
X226913746Y-83285015D01*
X226915141Y-83284889D01*
X226565573Y-83464349D02*
X226737814Y-83381779D01*
X226559373Y-83474799D02*
X226565573Y-83464349D01*
X226518793Y-83532989D02*
X226559373Y-83474799D01*
X226469809Y-84636406D02*
X226461409Y-84580586D01*
X226470193Y-84537686D02*
X226469809Y-84636406D01*
X226461393Y-84580586D02*
X226470193Y-84537686D01*
X226449708Y-84822815D02*
X226615463Y-84702035D01*
X226727653Y-84594268D01*
X226436988Y-84656675D02*
X226449708Y-84822815D01*
X226414048Y-84284420D02*
X226430183Y-84485394D01*
X226436988Y-84656675D01*
X226392608Y-83963583D02*
X226403367Y-84166810D01*
X226414048Y-84284420D01*
X226379888Y-83913533D02*
X226392608Y-83963583D01*
X226354788Y-83888853D02*
X226379888Y-83913533D01*
X226450248Y-83717021D02*
X226354788Y-83888853D01*
X226533978Y-83652121D02*
X226450248Y-83717021D01*
X226990859Y-83372829D02*
X226806714Y-83471011D01*
X226620676Y-83587067D01*
X226533978Y-83652121D01*
X227104821Y-83702073D02*
X227099608Y-83501682D01*
X226990859Y-83372829D01*
X226811256Y-84510056D02*
X226959647Y-84348246D01*
X227056653Y-84162173D01*
X227095782Y-83951724D01*
X227104597Y-83742505D01*
X227104821Y-83702073D01*
X226727646Y-84594276D02*
X226811256Y-84510056D01*
X224452022Y-85095448D02*
X224422972Y-85085748D01*
X224481072Y-85071538D02*
X224452022Y-85095448D01*
X224452022Y-85061838D02*
X224481072Y-85071538D01*
X224422972Y-85085748D02*
X224452022Y-85061838D01*
X223135076Y-85761306D02*
X223344433Y-85758178D01*
X223550671Y-85717217D01*
X223565940Y-85713036D01*
X221953689Y-85518867D02*
X222157977Y-85566454D01*
X222371419Y-85613822D01*
X222582800Y-85658669D01*
X222780904Y-85698693D01*
X222985313Y-85737117D01*
X223135076Y-85761306D01*
X219751444Y-85070215D02*
X219986043Y-85097284D01*
X220225633Y-85136130D01*
X220454945Y-85179659D01*
X220652982Y-85220402D01*
X220876277Y-85268683D01*
X221127464Y-85325037D01*
X221409177Y-85390001D01*
X221615245Y-85438359D01*
X221836832Y-85490942D01*
X221953689Y-85518867D01*
X219600254Y-85019845D02*
X219751444Y-85070215D01*
X220629278Y-84230689D02*
X220450854Y-84363588D01*
X220248203Y-84517874D01*
X220067543Y-84656258D01*
X219892114Y-84791285D01*
X219710711Y-84931939D01*
X219600254Y-85019845D01*
X221016619Y-84258209D02*
X220807476Y-84223115D01*
X220629278Y-84230689D01*
X221914955Y-84419353D02*
X221701840Y-84381151D01*
X221481097Y-84341566D01*
X221272474Y-84304140D01*
X221074218Y-84268555D01*
X221016619Y-84258209D01*
X224180847Y-84938503D02*
X223991955Y-84853535D01*
X223780595Y-84797053D01*
X223575644Y-84748283D01*
X223333586Y-84694637D01*
X223056843Y-84636668D01*
X222854274Y-84595896D01*
X222638083Y-84553614D01*
X222408988Y-84509986D01*
X222167706Y-84465178D01*
X221914955Y-84419353D01*
X224215747Y-84945403D02*
X224180847Y-84938503D01*
X224532378Y-85101249D02*
X224359364Y-84983699D01*
X224215747Y-84945403D01*
X224417591Y-85244724D02*
X224532378Y-85101249D01*
X223703966Y-85639880D02*
X223895287Y-85574335D01*
X224072820Y-85470486D01*
X224267173Y-85345757D01*
X224417591Y-85244724D01*
X223693666Y-85647880D02*
X223703966Y-85639880D01*
X223565931Y-85713070D02*
X223693666Y-85647880D01*
X220432215Y-85654162D02*
X220482925Y-85627112D01*
X220415855Y-85541640D02*
X220432215Y-85654162D01*
X220482935Y-85627110D02*
X220415855Y-85541640D01*
X220257766Y-85900959D02*
X220332236Y-85862539D01*
X220185476Y-85659096D02*
X220196887Y-85858786D01*
X220257766Y-85900959D01*
X220355224Y-85677216D02*
X220185476Y-85659096D01*
X220332224Y-85862538D02*
X220355224Y-85677216D01*
X220450107Y-86055648D02*
X220249968Y-86111423D01*
X220162231Y-86072728D01*
X220495997Y-85474834D02*
X220578619Y-85659308D01*
X220566751Y-85871027D01*
X220450107Y-86055648D01*
X220084078Y-85494634D02*
X220252178Y-85375866D01*
X220451514Y-85426782D01*
X220495997Y-85474834D01*
X220016978Y-85735739D02*
X220054899Y-85535017D01*
X220084078Y-85494634D01*
X220162231Y-86072729D02*
X220036477Y-85906823D01*
X220016978Y-85735739D01*
X224590768Y-86178609D02*
X224580968Y-86147759D01*
X224590768Y-86116909D02*
X224590768Y-86178609D01*
X224580968Y-86147759D02*
X224590768Y-86116909D01*
X221400950Y-86232956D02*
X221320624Y-86417463D01*
X221119154Y-86442261D01*
X221277557Y-86258816D02*
X221400950Y-86232956D01*
X221175033Y-86320516D02*
X221277557Y-86258816D01*
X221064640Y-86258816D02*
X221175033Y-86320516D01*
X220956280Y-86247656D02*
X221064640Y-86258816D01*
X221119154Y-86442259D02*
X220970760Y-86300965D01*
X220956280Y-86247656D01*
X222245265Y-86001903D02*
X222337435Y-85990343D01*
X222281115Y-85900957D02*
X222245265Y-86001903D01*
X222337435Y-85990347D02*
X222281115Y-85900957D01*
X222053508Y-86226024D02*
X222195758Y-86221824D01*
X222132288Y-85974999D02*
X222025625Y-86148576D01*
X222053508Y-86226024D01*
X222234498Y-86123078D02*
X222132288Y-85974999D01*
X222195768Y-86221798D02*
X222234498Y-86123078D01*
X222236457Y-86465239D02*
X222036513Y-86450431D01*
X222027819Y-86445439D01*
X222367323Y-85863719D02*
X222439305Y-86054726D01*
X222414186Y-86271029D01*
X222290753Y-86435005D01*
X222236457Y-86465239D01*
X221956166Y-85834679D02*
X222137628Y-85733841D01*
X222322607Y-85810047D01*
X222367323Y-85863719D01*
X222027816Y-86445443D02*
X221894738Y-86292550D01*
X221859498Y-86081381D01*
X221929063Y-85871329D01*
X221956166Y-85834679D01*
X223138807Y-87008224D02*
X223338847Y-87006456D01*
X223536158Y-86958988D01*
X223593932Y-86934924D01*
X222089249Y-86886916D02*
X222311489Y-86926406D01*
X222529391Y-86961407D01*
X222740347Y-86987937D01*
X222961316Y-87003661D01*
X223138807Y-87008224D01*
X220820710Y-86599287D02*
X221051002Y-86660282D01*
X221250418Y-86711025D01*
X221467192Y-86762517D01*
X221680532Y-86808549D01*
X221912816Y-86854194D01*
X222089249Y-86886916D01*
X220278433Y-86454713D02*
X220489655Y-86510727D01*
X220691556Y-86564672D01*
X220820710Y-86599287D01*
X219419144Y-86082596D02*
X219608273Y-86202063D01*
X219816394Y-86295604D01*
X220017478Y-86372927D01*
X220216394Y-86437603D01*
X220278433Y-86454713D01*
X219320484Y-85567810D02*
X219329765Y-85783522D01*
X219371277Y-85990325D01*
X219419144Y-86082596D01*
X219438292Y-85154755D02*
X219335965Y-85340757D01*
X219320654Y-85544897D01*
X219320484Y-85567810D01*
X221488875Y-85505632D02*
X221260247Y-85451654D01*
X221045024Y-85401952D01*
X220843205Y-85356524D01*
X220565603Y-85296395D01*
X220318145Y-85245881D01*
X220100826Y-85204981D01*
X219857937Y-85165401D01*
X219629628Y-85139953D01*
X219438292Y-85154755D01*
X222263555Y-85687560D02*
X222050068Y-85638101D01*
X221843705Y-85589684D01*
X221622908Y-85537503D01*
X221488875Y-85505632D01*
X222776781Y-85806478D02*
X222578126Y-85760063D01*
X222371285Y-85712248D01*
X222263555Y-85687560D01*
X223648296Y-85805889D02*
X223449126Y-85854079D01*
X223233854Y-85865367D01*
X223025914Y-85850881D01*
X222808206Y-85813653D01*
X222776781Y-85806478D01*
X224417940Y-85368202D02*
X224249762Y-85478433D01*
X224057459Y-85599143D01*
X223880279Y-85699902D01*
X223687000Y-85790363D01*
X223648296Y-85805889D01*
X224565725Y-85285772D02*
X224417940Y-85368202D01*
X224615825Y-86117375D02*
X224610285Y-85907985D01*
X224600231Y-85704441D01*
X224585703Y-85476193D01*
X224565725Y-85285772D01*
X224178945Y-86603875D02*
X224362042Y-86489821D01*
X224535292Y-86371427D01*
X224615861Y-86175230D01*
X224615825Y-86117375D01*
X223822597Y-86826970D02*
X223998789Y-86716291D01*
X224178945Y-86603875D01*
X223593933Y-86934899D02*
X223777730Y-86851131D01*
X223822597Y-86826970D01*
X226538814Y-86093953D02*
X226495234Y-86077103D01*
X226677527Y-85826928D02*
X226607153Y-86015660D01*
X226538814Y-86093953D01*
X226707837Y-85776888D02*
X226677527Y-85826928D01*
X226735367Y-85763938D02*
X226707837Y-85776888D01*
X226751847Y-85586538D02*
X226735367Y-85763938D01*
X226727637Y-85629328D02*
X226751847Y-85586538D01*
X226583875Y-85826925D02*
X226718220Y-85670497D01*
X226727637Y-85629328D01*
X226575775Y-85881695D02*
X226583875Y-85826925D01*
X226533935Y-86036719D02*
X226575775Y-85881695D01*
X226495245Y-86077099D02*
X226533935Y-86036719D01*
X226456805Y-84975446D02*
X226447205Y-85937959D01*
X226519625Y-84910636D02*
X226456805Y-84975446D01*
X226435115Y-87283009D02*
X226479455Y-87221309D01*
X226425215Y-87091740D02*
X226435115Y-87283009D01*
X226447205Y-85937959D02*
X226444414Y-86183820D01*
X226441129Y-86418947D01*
X226437524Y-86634098D01*
X226433019Y-86852896D01*
X226426527Y-87067262D01*
X226425215Y-87091740D01*
X222596293Y-89556600D02*
X222596369Y-89556730D01*
X226974765Y-84502992D02*
X226810467Y-84633442D01*
X226654537Y-84777227D01*
X226519625Y-84910636D01*
X227117380Y-84805986D02*
X227109497Y-84599597D01*
X226974765Y-84502992D01*
X227115180Y-84913989D02*
X227117380Y-84805986D01*
X227114988Y-85160462D02*
X227124914Y-84959412D01*
X227115180Y-84913989D01*
X227057938Y-85297670D02*
X227114988Y-85160462D01*
X227119868Y-85631834D02*
X227059695Y-85430403D01*
X227057938Y-85297670D01*
X227132538Y-85960036D02*
X227171119Y-85758501D01*
X227119868Y-85631834D01*
X227102948Y-86062298D02*
X227132538Y-85960036D01*
X227096348Y-86157738D02*
X227102948Y-86062298D01*
X227105948Y-86262412D02*
X227096348Y-86157738D01*
X227083318Y-86526909D02*
X227129285Y-86325133D01*
X227105948Y-86262412D01*
X226965370Y-86593949D02*
X227083318Y-86526909D01*
X226843774Y-86724381D02*
X226965370Y-86593949D01*
X226717985Y-86919521D02*
X226838552Y-86759406D01*
X226843774Y-86724381D01*
X226638975Y-87002971D02*
X226717985Y-86919521D01*
X226630575Y-87023701D02*
X226638975Y-87002971D01*
X226611425Y-87032101D02*
X226630575Y-87023701D01*
X226561245Y-87071611D02*
X226611425Y-87032101D01*
X226521905Y-87123641D02*
X226561245Y-87071611D01*
X226517105Y-87159631D02*
X226521905Y-87123641D01*
X226479395Y-87221331D02*
X226517105Y-87159631D01*
X219480262Y-86231954D02*
X219425872Y-86192174D01*
X219407272Y-86273594D02*
X219480262Y-86231954D01*
X222737962Y-89590100D02*
X222596293Y-89556600D01*
X223146423Y-89592000D02*
X222944301Y-89576488D01*
X222737962Y-89590100D01*
X223265161Y-89569160D02*
X223146423Y-89592000D01*
X223305321Y-89544310D02*
X223265161Y-89569160D01*
X223418572Y-89472390D02*
X223305321Y-89544310D01*
X223512412Y-89442200D02*
X223418572Y-89472390D01*
X223692524Y-89247166D02*
X223589040Y-89421458D01*
X223512412Y-89442200D01*
X223759944Y-89131197D02*
X223692524Y-89247166D01*
X223791734Y-89143117D02*
X223759944Y-89131197D01*
X223946946Y-89232627D02*
X223791734Y-89143117D01*
X224040236Y-89146187D02*
X223946946Y-89232627D01*
X224051376Y-89144787D02*
X224040236Y-89146187D01*
X224102466Y-89118947D02*
X224051376Y-89144787D01*
X224193166Y-89046537D02*
X224102466Y-89118947D01*
X224277796Y-88969447D02*
X224193166Y-89046537D01*
X224317946Y-88928927D02*
X224277796Y-88969447D01*
X224417536Y-88818358D02*
X224317946Y-88928927D01*
X224566524Y-88709445D02*
X224417536Y-88818358D01*
X225435133Y-88163652D02*
X225252456Y-88290669D01*
X225053455Y-88428086D01*
X224867084Y-88554332D01*
X224682797Y-88670129D01*
X224566524Y-88709445D01*
X226316537Y-87550081D02*
X226133448Y-87677422D01*
X225961321Y-87797238D01*
X225788755Y-87917387D01*
X225597241Y-88050750D01*
X225435133Y-88163652D01*
X226411417Y-87433211D02*
X226316537Y-87550081D01*
X226488377Y-87301085D02*
X226411417Y-87433211D01*
X226553277Y-87181666D02*
X226488377Y-87301085D01*
X226567797Y-87134746D02*
X226553277Y-87181666D01*
X226656027Y-87048366D02*
X226567797Y-87134746D01*
X226755987Y-86962106D02*
X226656027Y-87048366D01*
X226876999Y-86747144D02*
X226795534Y-86937536D01*
X226755987Y-86962106D01*
X226877962Y-86701244D02*
X226876999Y-86747144D01*
X226928132Y-86677414D02*
X226877962Y-86701244D01*
X227011252Y-86641264D02*
X226928132Y-86677414D01*
X227182108Y-86447446D02*
X227067479Y-86618091D01*
X227011252Y-86641264D01*
X227171348Y-86306204D02*
X227182108Y-86447446D01*
X227193358Y-85947884D02*
X227152754Y-86154689D01*
X227171348Y-86306204D01*
X227182508Y-85633042D02*
X227227052Y-85828152D01*
X227193358Y-85947884D01*
X227134328Y-85491133D02*
X227182508Y-85633042D01*
X227119808Y-85456603D02*
X227134328Y-85491133D01*
X227099958Y-85357703D02*
X227119808Y-85456603D01*
X227136128Y-85187327D02*
X227099958Y-85357703D01*
X227165538Y-85090887D02*
X227136128Y-85187327D01*
X227172938Y-85057677D02*
X227165538Y-85090887D01*
X227173938Y-84967127D02*
X227172938Y-85057677D01*
X227170938Y-84779322D02*
X227173938Y-84967127D01*
X227074868Y-84468721D02*
X227173270Y-84653021D01*
X227170938Y-84779322D01*
X227055268Y-84359970D02*
X227074868Y-84468721D01*
X227179138Y-83729044D02*
X227168776Y-83931990D01*
X227138969Y-84133101D01*
X227074841Y-84328335D01*
X227055268Y-84359970D01*
X226877385Y-83119278D02*
X227053802Y-83242013D01*
X227161018Y-83431566D01*
X227179288Y-83661592D01*
X227179138Y-83729044D01*
X223600069Y-82355043D02*
X223902347Y-82379016D01*
X224120915Y-82404320D01*
X224349705Y-82436286D01*
X224585788Y-82474229D01*
X224826234Y-82517466D01*
X225068113Y-82565316D01*
X225308496Y-82617093D01*
X225544453Y-82672116D01*
X225773056Y-82729701D01*
X225991375Y-82789165D01*
X226196480Y-82849825D01*
X226472953Y-82941563D01*
X226703217Y-83032149D01*
X226877385Y-83119278D01*
X222723537Y-82609581D02*
X222915571Y-82489574D01*
X223111253Y-82393216D01*
X223319607Y-82351243D01*
X223527014Y-82351549D01*
X223600069Y-82355043D01*
X222367204Y-82815891D02*
X222553116Y-82716350D01*
X222723537Y-82609581D01*
X221159604Y-83534401D02*
X221355188Y-83388643D01*
X221533195Y-83267058D01*
X221718602Y-83148035D01*
X221900568Y-83038025D01*
X222106668Y-82923017D01*
X222294710Y-82834644D01*
X222367204Y-82815891D01*
X220588277Y-84093672D02*
X220730748Y-83925478D01*
X220876817Y-83776247D01*
X221026291Y-83643250D01*
X221159604Y-83534401D01*
X219920115Y-84677927D02*
X220100439Y-84538031D01*
X220266322Y-84405624D01*
X220422349Y-84271299D01*
X220565772Y-84121253D01*
X220588277Y-84093672D01*
X219351988Y-85127026D02*
X219518611Y-84990940D01*
X219689456Y-84856711D01*
X219866612Y-84719191D01*
X219920115Y-84677927D01*
X219281988Y-85889513D02*
X219255486Y-85664163D01*
X219260554Y-85437611D01*
X219299816Y-85226789D01*
X219351988Y-85127026D01*
X219425872Y-86192174D02*
X219312906Y-86015305D01*
X219281988Y-85889513D01*
X219302800Y-86395662D02*
X219407272Y-86273594D01*
X219285840Y-86583391D02*
X219302800Y-86395662D01*
X219281640Y-86853028D02*
X219305095Y-86650172D01*
X219285840Y-86583391D01*
X219284840Y-87109661D02*
X219264135Y-86905393D01*
X219281640Y-86853028D01*
X219312510Y-87261419D02*
X219284840Y-87109661D01*
X219336920Y-87410969D02*
X219312510Y-87261419D01*
X219320800Y-87661719D02*
X219355210Y-87460571D01*
X219336920Y-87410969D01*
X219286910Y-87809797D02*
X219320800Y-87661719D01*
X219281310Y-88122053D02*
X219290881Y-87918335D01*
X219286910Y-87809797D01*
X219250000Y-88250000D02*
X219281310Y-88122053D01*
X219278350Y-88421015D02*
X219250000Y-88250000D01*
X219337760Y-88535440D02*
X219278350Y-88421015D01*
X219394870Y-88523100D02*
X219337760Y-88535440D01*
X219320560Y-88402037D02*
X219394870Y-88523100D01*
X219307250Y-88236380D02*
X219320560Y-88402037D01*
X219337620Y-87837745D02*
X219344135Y-88048170D01*
X219307250Y-88236380D01*
X219366510Y-87692011D02*
X219337620Y-87837745D01*
X219374210Y-87370156D02*
X219405330Y-87576668D01*
X219366510Y-87692011D01*
X219373921Y-87196559D02*
X219374210Y-87370156D01*
X219361391Y-87110179D02*
X219373921Y-87196559D01*
X219297241Y-87029969D02*
X219361391Y-87110179D01*
X219319681Y-86893138D02*
X219297241Y-87029969D01*
X219353331Y-86720380D02*
X219319681Y-86893138D01*
X219344231Y-86380412D02*
X219345296Y-86597693D01*
X219353331Y-86720380D01*
X219385971Y-86360532D02*
X219344231Y-86380412D01*
X219771871Y-86361496D02*
X219566414Y-86313955D01*
X219385971Y-86360532D01*
X222716540Y-87072671D02*
X222449740Y-87035046D01*
X222164772Y-86987487D01*
X221967476Y-86950932D01*
X221766273Y-86910967D01*
X221562829Y-86867996D01*
X221358811Y-86822421D01*
X221155885Y-86774645D01*
X220955720Y-86725070D01*
X220759982Y-86674099D01*
X220478322Y-86595904D01*
X220215999Y-86516833D01*
X219978640Y-86438244D01*
X219771871Y-86361496D01*
X223539678Y-87058091D02*
X223338487Y-87102940D01*
X223119111Y-87108434D01*
X222901884Y-87093516D01*
X222716540Y-87072671D01*
X224534566Y-86476791D02*
X224343777Y-86609090D01*
X224173144Y-86718800D01*
X224001029Y-86822702D01*
X223804546Y-86932698D01*
X223607816Y-87029891D01*
X223539678Y-87058091D01*
X224628796Y-86455501D02*
X224534566Y-86476791D01*
X224585246Y-88571126D02*
X224595897Y-88368324D01*
X224602357Y-88157420D01*
X224609028Y-87899931D01*
X224615503Y-87615668D01*
X224621373Y-87324445D01*
X224626232Y-87046073D01*
X224629670Y-86800364D01*
X224631341Y-86557806D01*
X224628796Y-86455501D01*
X224528346Y-88590976D02*
X224585246Y-88571126D01*
X224481076Y-88612286D02*
X224528346Y-88590976D01*
X224430946Y-88697486D02*
X224481076Y-88612286D01*
X224393356Y-88787226D02*
X224430946Y-88697486D01*
X224380546Y-88813776D02*
X224393356Y-88787226D01*
X224298706Y-88887816D02*
X224380546Y-88813776D01*
X224224936Y-88961166D02*
X224298706Y-88887816D01*
X224219436Y-88985566D02*
X224224936Y-88961166D01*
X224202726Y-88996006D02*
X224219436Y-88985566D01*
X224038816Y-89108931D02*
X224202726Y-88996006D01*
X223826329Y-89121851D02*
X224032140Y-89117207D01*
X224038816Y-89108931D01*
X223706448Y-89088221D02*
X223826329Y-89121851D01*
X223653808Y-89210536D02*
X223706448Y-89088221D01*
X223650808Y-89299696D02*
X223653808Y-89210536D01*
X223589798Y-89351816D02*
X223650808Y-89299696D01*
X223480011Y-89396806D02*
X223589798Y-89351816D01*
X223386151Y-89458036D02*
X223480011Y-89396806D01*
X223354421Y-89472986D02*
X223386151Y-89458036D01*
X223246010Y-89517986D02*
X223354421Y-89472986D01*
X223108111Y-89532666D02*
X223246010Y-89517986D01*
X222822725Y-89509186D02*
X223024708Y-89509747D01*
X223108111Y-89532666D01*
X222689268Y-89524796D02*
X222822725Y-89509186D01*
X222573215Y-89504526D02*
X222689268Y-89524796D01*
X222552625Y-89444166D02*
X222573215Y-89504526D01*
X222491395Y-89434566D02*
X222552625Y-89444166D01*
X222319728Y-89467756D02*
X222491395Y-89434566D01*
X222193625Y-89446736D02*
X222319728Y-89467756D01*
X222082927Y-89412576D02*
X222193625Y-89446736D01*
X221798718Y-89328086D02*
X221998724Y-89358631D01*
X222082927Y-89412576D01*
X221595364Y-89257056D02*
X221789633Y-89328188D01*
X221798718Y-89328086D01*
X221469904Y-89235896D02*
X221595364Y-89257056D01*
X221257848Y-89170636D02*
X221447913Y-89244475D01*
X221469904Y-89235896D01*
X221177188Y-89146176D02*
X221257848Y-89170636D01*
X220997631Y-89143476D02*
X221177188Y-89146176D01*
X220887685Y-89117066D02*
X220997631Y-89143476D01*
X220777989Y-89086326D02*
X220887685Y-89117066D01*
X220527266Y-89007426D02*
X220728026Y-89045300D01*
X220777989Y-89086326D01*
X220351934Y-88939706D02*
X220527266Y-89007426D01*
X220258014Y-88888556D02*
X220351934Y-88939706D01*
X220069833Y-88862546D02*
X220258014Y-88888556D01*
X220015293Y-88834426D02*
X220069833Y-88862546D01*
X219835777Y-88766086D02*
X220015293Y-88834426D01*
X219762827Y-88714466D02*
X219835777Y-88766086D01*
X219676537Y-88663196D02*
X219762827Y-88714466D01*
X219607527Y-88625996D02*
X219676537Y-88663196D01*
X219695057Y-88745632D02*
X219607527Y-88625996D01*
X219842652Y-88851261D02*
X219695057Y-88745632D01*
X219978221Y-88918271D02*
X219842652Y-88851261D01*
X220119044Y-88963531D02*
X219978221Y-88918271D01*
X220218254Y-88968631D02*
X220119044Y-88963531D01*
X220326459Y-89002751D02*
X220218254Y-88968631D01*
X220584316Y-89062691D02*
X220385130Y-89043604D01*
X220326459Y-89002751D01*
X220636676Y-89059891D02*
X220584316Y-89062691D01*
X220686276Y-89084641D02*
X220636676Y-89059891D01*
X220723866Y-89106681D02*
X220686276Y-89084641D01*
X221111206Y-89217501D02*
X220903502Y-89191570D01*
X220723866Y-89106681D01*
X221271604Y-89267631D02*
X221111206Y-89217501D01*
X221438856Y-89300371D02*
X221271604Y-89267631D01*
X221607698Y-89333871D02*
X221438856Y-89300371D01*
X221818194Y-89355931D02*
X221613445Y-89338421D01*
X221607698Y-89333871D01*
X221859454Y-89368271D02*
X221818194Y-89355931D01*
X221928564Y-89405481D02*
X221859454Y-89368271D01*
X222033216Y-89456481D02*
X221928564Y-89405481D01*
X222161388Y-89507531D02*
X222033216Y-89456481D01*
X222313886Y-89534291D02*
X222161388Y-89507531D01*
X222462722Y-89534450D02*
X222313886Y-89534291D01*
X222596369Y-89556730D02*
X222462722Y-89534450D01*
D10*
X166077693Y-108933609D02*
X166077693Y-109290752D01*
X166077693Y-109290752D02*
X166053884Y-109362180D01*
X166053884Y-109362180D02*
X166006265Y-109409800D01*
X166006265Y-109409800D02*
X165934836Y-109433609D01*
X165934836Y-109433609D02*
X165887217Y-109433609D01*
X166315788Y-109433609D02*
X166315788Y-109100276D01*
X166315788Y-108933609D02*
X166291979Y-108957419D01*
X166291979Y-108957419D02*
X166315788Y-108981228D01*
X166315788Y-108981228D02*
X166339598Y-108957419D01*
X166339598Y-108957419D02*
X166315788Y-108933609D01*
X166315788Y-108933609D02*
X166315788Y-108981228D01*
X166553883Y-109100276D02*
X166553883Y-109433609D01*
X166553883Y-109147895D02*
X166577693Y-109124085D01*
X166577693Y-109124085D02*
X166625312Y-109100276D01*
X166625312Y-109100276D02*
X166696740Y-109100276D01*
X166696740Y-109100276D02*
X166744359Y-109124085D01*
X166744359Y-109124085D02*
X166768169Y-109171704D01*
X166768169Y-109171704D02*
X166768169Y-109433609D01*
X167006264Y-109433609D02*
X167006264Y-108933609D01*
X167220550Y-109433609D02*
X167220550Y-109171704D01*
X167220550Y-109171704D02*
X167196740Y-109124085D01*
X167196740Y-109124085D02*
X167149121Y-109100276D01*
X167149121Y-109100276D02*
X167077693Y-109100276D01*
X167077693Y-109100276D02*
X167030074Y-109124085D01*
X167030074Y-109124085D02*
X167006264Y-109147895D01*
X167649121Y-109409800D02*
X167601502Y-109433609D01*
X167601502Y-109433609D02*
X167506264Y-109433609D01*
X167506264Y-109433609D02*
X167458645Y-109409800D01*
X167458645Y-109409800D02*
X167434836Y-109362180D01*
X167434836Y-109362180D02*
X167434836Y-109171704D01*
X167434836Y-109171704D02*
X167458645Y-109124085D01*
X167458645Y-109124085D02*
X167506264Y-109100276D01*
X167506264Y-109100276D02*
X167601502Y-109100276D01*
X167601502Y-109100276D02*
X167649121Y-109124085D01*
X167649121Y-109124085D02*
X167672931Y-109171704D01*
X167672931Y-109171704D02*
X167672931Y-109219323D01*
X167672931Y-109219323D02*
X167434836Y-109266942D01*
X168077692Y-109409800D02*
X168030073Y-109433609D01*
X168030073Y-109433609D02*
X167934835Y-109433609D01*
X167934835Y-109433609D02*
X167887216Y-109409800D01*
X167887216Y-109409800D02*
X167863407Y-109362180D01*
X167863407Y-109362180D02*
X167863407Y-109171704D01*
X167863407Y-109171704D02*
X167887216Y-109124085D01*
X167887216Y-109124085D02*
X167934835Y-109100276D01*
X167934835Y-109100276D02*
X168030073Y-109100276D01*
X168030073Y-109100276D02*
X168077692Y-109124085D01*
X168077692Y-109124085D02*
X168101502Y-109171704D01*
X168101502Y-109171704D02*
X168101502Y-109219323D01*
X168101502Y-109219323D02*
X167863407Y-109266942D01*
X168696739Y-109100276D02*
X168696739Y-109433609D01*
X168696739Y-109147895D02*
X168720549Y-109124085D01*
X168720549Y-109124085D02*
X168768168Y-109100276D01*
X168768168Y-109100276D02*
X168839596Y-109100276D01*
X168839596Y-109100276D02*
X168887215Y-109124085D01*
X168887215Y-109124085D02*
X168911025Y-109171704D01*
X168911025Y-109171704D02*
X168911025Y-109433609D01*
X169339596Y-109409800D02*
X169291977Y-109433609D01*
X169291977Y-109433609D02*
X169196739Y-109433609D01*
X169196739Y-109433609D02*
X169149120Y-109409800D01*
X169149120Y-109409800D02*
X169125311Y-109362180D01*
X169125311Y-109362180D02*
X169125311Y-109171704D01*
X169125311Y-109171704D02*
X169149120Y-109124085D01*
X169149120Y-109124085D02*
X169196739Y-109100276D01*
X169196739Y-109100276D02*
X169291977Y-109100276D01*
X169291977Y-109100276D02*
X169339596Y-109124085D01*
X169339596Y-109124085D02*
X169363406Y-109171704D01*
X169363406Y-109171704D02*
X169363406Y-109219323D01*
X169363406Y-109219323D02*
X169125311Y-109266942D01*
X169768167Y-109409800D02*
X169720548Y-109433609D01*
X169720548Y-109433609D02*
X169625310Y-109433609D01*
X169625310Y-109433609D02*
X169577691Y-109409800D01*
X169577691Y-109409800D02*
X169553882Y-109362180D01*
X169553882Y-109362180D02*
X169553882Y-109171704D01*
X169553882Y-109171704D02*
X169577691Y-109124085D01*
X169577691Y-109124085D02*
X169625310Y-109100276D01*
X169625310Y-109100276D02*
X169720548Y-109100276D01*
X169720548Y-109100276D02*
X169768167Y-109124085D01*
X169768167Y-109124085D02*
X169791977Y-109171704D01*
X169791977Y-109171704D02*
X169791977Y-109219323D01*
X169791977Y-109219323D02*
X169553882Y-109266942D01*
X170220548Y-109433609D02*
X170220548Y-108933609D01*
X170220548Y-109409800D02*
X170172929Y-109433609D01*
X170172929Y-109433609D02*
X170077691Y-109433609D01*
X170077691Y-109433609D02*
X170030072Y-109409800D01*
X170030072Y-109409800D02*
X170006262Y-109385990D01*
X170006262Y-109385990D02*
X169982453Y-109338371D01*
X169982453Y-109338371D02*
X169982453Y-109195514D01*
X169982453Y-109195514D02*
X170006262Y-109147895D01*
X170006262Y-109147895D02*
X170030072Y-109124085D01*
X170030072Y-109124085D02*
X170077691Y-109100276D01*
X170077691Y-109100276D02*
X170172929Y-109100276D01*
X170172929Y-109100276D02*
X170220548Y-109124085D01*
X170434834Y-109409800D02*
X170482453Y-109433609D01*
X170482453Y-109433609D02*
X170577691Y-109433609D01*
X170577691Y-109433609D02*
X170625310Y-109409800D01*
X170625310Y-109409800D02*
X170649119Y-109362180D01*
X170649119Y-109362180D02*
X170649119Y-109338371D01*
X170649119Y-109338371D02*
X170625310Y-109290752D01*
X170625310Y-109290752D02*
X170577691Y-109266942D01*
X170577691Y-109266942D02*
X170506262Y-109266942D01*
X170506262Y-109266942D02*
X170458643Y-109243133D01*
X170458643Y-109243133D02*
X170434834Y-109195514D01*
X170434834Y-109195514D02*
X170434834Y-109171704D01*
X170434834Y-109171704D02*
X170458643Y-109124085D01*
X170458643Y-109124085D02*
X170506262Y-109100276D01*
X170506262Y-109100276D02*
X170577691Y-109100276D01*
X170577691Y-109100276D02*
X170625310Y-109124085D01*
X171172929Y-109100276D02*
X171363405Y-109100276D01*
X171244357Y-108933609D02*
X171244357Y-109362180D01*
X171244357Y-109362180D02*
X171268167Y-109409800D01*
X171268167Y-109409800D02*
X171315786Y-109433609D01*
X171315786Y-109433609D02*
X171363405Y-109433609D01*
X171601500Y-109433609D02*
X171553881Y-109409800D01*
X171553881Y-109409800D02*
X171530071Y-109385990D01*
X171530071Y-109385990D02*
X171506262Y-109338371D01*
X171506262Y-109338371D02*
X171506262Y-109195514D01*
X171506262Y-109195514D02*
X171530071Y-109147895D01*
X171530071Y-109147895D02*
X171553881Y-109124085D01*
X171553881Y-109124085D02*
X171601500Y-109100276D01*
X171601500Y-109100276D02*
X171672928Y-109100276D01*
X171672928Y-109100276D02*
X171720547Y-109124085D01*
X171720547Y-109124085D02*
X171744357Y-109147895D01*
X171744357Y-109147895D02*
X171768166Y-109195514D01*
X171768166Y-109195514D02*
X171768166Y-109338371D01*
X171768166Y-109338371D02*
X171744357Y-109385990D01*
X171744357Y-109385990D02*
X171720547Y-109409800D01*
X171720547Y-109409800D02*
X171672928Y-109433609D01*
X171672928Y-109433609D02*
X171601500Y-109433609D01*
X172577690Y-109100276D02*
X172577690Y-109505038D01*
X172577690Y-109505038D02*
X172553880Y-109552657D01*
X172553880Y-109552657D02*
X172530071Y-109576466D01*
X172530071Y-109576466D02*
X172482452Y-109600276D01*
X172482452Y-109600276D02*
X172411023Y-109600276D01*
X172411023Y-109600276D02*
X172363404Y-109576466D01*
X172577690Y-109409800D02*
X172530071Y-109433609D01*
X172530071Y-109433609D02*
X172434833Y-109433609D01*
X172434833Y-109433609D02*
X172387214Y-109409800D01*
X172387214Y-109409800D02*
X172363404Y-109385990D01*
X172363404Y-109385990D02*
X172339595Y-109338371D01*
X172339595Y-109338371D02*
X172339595Y-109195514D01*
X172339595Y-109195514D02*
X172363404Y-109147895D01*
X172363404Y-109147895D02*
X172387214Y-109124085D01*
X172387214Y-109124085D02*
X172434833Y-109100276D01*
X172434833Y-109100276D02*
X172530071Y-109100276D01*
X172530071Y-109100276D02*
X172577690Y-109124085D01*
X173006261Y-109409800D02*
X172958642Y-109433609D01*
X172958642Y-109433609D02*
X172863404Y-109433609D01*
X172863404Y-109433609D02*
X172815785Y-109409800D01*
X172815785Y-109409800D02*
X172791976Y-109362180D01*
X172791976Y-109362180D02*
X172791976Y-109171704D01*
X172791976Y-109171704D02*
X172815785Y-109124085D01*
X172815785Y-109124085D02*
X172863404Y-109100276D01*
X172863404Y-109100276D02*
X172958642Y-109100276D01*
X172958642Y-109100276D02*
X173006261Y-109124085D01*
X173006261Y-109124085D02*
X173030071Y-109171704D01*
X173030071Y-109171704D02*
X173030071Y-109219323D01*
X173030071Y-109219323D02*
X172791976Y-109266942D01*
X173172928Y-109100276D02*
X173363404Y-109100276D01*
X173244356Y-108933609D02*
X173244356Y-109362180D01*
X173244356Y-109362180D02*
X173268166Y-109409800D01*
X173268166Y-109409800D02*
X173315785Y-109433609D01*
X173315785Y-109433609D02*
X173363404Y-109433609D01*
X173982451Y-109433609D02*
X173934832Y-109409800D01*
X173934832Y-109409800D02*
X173911022Y-109385990D01*
X173911022Y-109385990D02*
X173887213Y-109338371D01*
X173887213Y-109338371D02*
X173887213Y-109195514D01*
X173887213Y-109195514D02*
X173911022Y-109147895D01*
X173911022Y-109147895D02*
X173934832Y-109124085D01*
X173934832Y-109124085D02*
X173982451Y-109100276D01*
X173982451Y-109100276D02*
X174053879Y-109100276D01*
X174053879Y-109100276D02*
X174101498Y-109124085D01*
X174101498Y-109124085D02*
X174125308Y-109147895D01*
X174125308Y-109147895D02*
X174149117Y-109195514D01*
X174149117Y-109195514D02*
X174149117Y-109338371D01*
X174149117Y-109338371D02*
X174125308Y-109385990D01*
X174125308Y-109385990D02*
X174101498Y-109409800D01*
X174101498Y-109409800D02*
X174053879Y-109433609D01*
X174053879Y-109433609D02*
X173982451Y-109433609D01*
X174577689Y-109100276D02*
X174577689Y-109433609D01*
X174363403Y-109100276D02*
X174363403Y-109362180D01*
X174363403Y-109362180D02*
X174387213Y-109409800D01*
X174387213Y-109409800D02*
X174434832Y-109433609D01*
X174434832Y-109433609D02*
X174506260Y-109433609D01*
X174506260Y-109433609D02*
X174553879Y-109409800D01*
X174553879Y-109409800D02*
X174577689Y-109385990D01*
X174744356Y-109100276D02*
X174934832Y-109100276D01*
X174815784Y-108933609D02*
X174815784Y-109362180D01*
X174815784Y-109362180D02*
X174839594Y-109409800D01*
X174839594Y-109409800D02*
X174887213Y-109433609D01*
X174887213Y-109433609D02*
X174934832Y-109433609D01*
X175553879Y-109433609D02*
X175506260Y-109409800D01*
X175506260Y-109409800D02*
X175482450Y-109385990D01*
X175482450Y-109385990D02*
X175458641Y-109338371D01*
X175458641Y-109338371D02*
X175458641Y-109195514D01*
X175458641Y-109195514D02*
X175482450Y-109147895D01*
X175482450Y-109147895D02*
X175506260Y-109124085D01*
X175506260Y-109124085D02*
X175553879Y-109100276D01*
X175553879Y-109100276D02*
X175625307Y-109100276D01*
X175625307Y-109100276D02*
X175672926Y-109124085D01*
X175672926Y-109124085D02*
X175696736Y-109147895D01*
X175696736Y-109147895D02*
X175720545Y-109195514D01*
X175720545Y-109195514D02*
X175720545Y-109338371D01*
X175720545Y-109338371D02*
X175696736Y-109385990D01*
X175696736Y-109385990D02*
X175672926Y-109409800D01*
X175672926Y-109409800D02*
X175625307Y-109433609D01*
X175625307Y-109433609D02*
X175553879Y-109433609D01*
X175863403Y-109100276D02*
X176053879Y-109100276D01*
X175934831Y-109433609D02*
X175934831Y-109005038D01*
X175934831Y-109005038D02*
X175958641Y-108957419D01*
X175958641Y-108957419D02*
X176006260Y-108933609D01*
X176006260Y-108933609D02*
X176053879Y-108933609D01*
X176601497Y-109433609D02*
X176601497Y-108933609D01*
X176601497Y-109124085D02*
X176649116Y-109100276D01*
X176649116Y-109100276D02*
X176744354Y-109100276D01*
X176744354Y-109100276D02*
X176791973Y-109124085D01*
X176791973Y-109124085D02*
X176815783Y-109147895D01*
X176815783Y-109147895D02*
X176839592Y-109195514D01*
X176839592Y-109195514D02*
X176839592Y-109338371D01*
X176839592Y-109338371D02*
X176815783Y-109385990D01*
X176815783Y-109385990D02*
X176791973Y-109409800D01*
X176791973Y-109409800D02*
X176744354Y-109433609D01*
X176744354Y-109433609D02*
X176649116Y-109433609D01*
X176649116Y-109433609D02*
X176601497Y-109409800D01*
X177244354Y-109409800D02*
X177196735Y-109433609D01*
X177196735Y-109433609D02*
X177101497Y-109433609D01*
X177101497Y-109433609D02*
X177053878Y-109409800D01*
X177053878Y-109409800D02*
X177030069Y-109362180D01*
X177030069Y-109362180D02*
X177030069Y-109171704D01*
X177030069Y-109171704D02*
X177053878Y-109124085D01*
X177053878Y-109124085D02*
X177101497Y-109100276D01*
X177101497Y-109100276D02*
X177196735Y-109100276D01*
X177196735Y-109100276D02*
X177244354Y-109124085D01*
X177244354Y-109124085D02*
X177268164Y-109171704D01*
X177268164Y-109171704D02*
X177268164Y-109219323D01*
X177268164Y-109219323D02*
X177030069Y-109266942D01*
X177696735Y-109433609D02*
X177696735Y-108933609D01*
X177696735Y-109409800D02*
X177649116Y-109433609D01*
X177649116Y-109433609D02*
X177553878Y-109433609D01*
X177553878Y-109433609D02*
X177506259Y-109409800D01*
X177506259Y-109409800D02*
X177482449Y-109385990D01*
X177482449Y-109385990D02*
X177458640Y-109338371D01*
X177458640Y-109338371D02*
X177458640Y-109195514D01*
X177458640Y-109195514D02*
X177482449Y-109147895D01*
X177482449Y-109147895D02*
X177506259Y-109124085D01*
X177506259Y-109124085D02*
X177553878Y-109100276D01*
X177553878Y-109100276D02*
X177649116Y-109100276D01*
X177649116Y-109100276D02*
X177696735Y-109124085D01*
D12*
X212166666Y-82954819D02*
X211833333Y-82478628D01*
X211595238Y-82954819D02*
X211595238Y-81954819D01*
X211595238Y-81954819D02*
X211976190Y-81954819D01*
X211976190Y-81954819D02*
X212071428Y-82002438D01*
X212071428Y-82002438D02*
X212119047Y-82050057D01*
X212119047Y-82050057D02*
X212166666Y-82145295D01*
X212166666Y-82145295D02*
X212166666Y-82288152D01*
X212166666Y-82288152D02*
X212119047Y-82383390D01*
X212119047Y-82383390D02*
X212071428Y-82431009D01*
X212071428Y-82431009D02*
X211976190Y-82478628D01*
X211976190Y-82478628D02*
X211595238Y-82478628D01*
X212595238Y-82431009D02*
X212928571Y-82431009D01*
X213071428Y-82954819D02*
X212595238Y-82954819D01*
X212595238Y-82954819D02*
X212595238Y-81954819D01*
X212595238Y-81954819D02*
X213071428Y-81954819D01*
X213833333Y-82431009D02*
X213500000Y-82431009D01*
X213500000Y-82954819D02*
X213500000Y-81954819D01*
X213500000Y-81954819D02*
X213976190Y-81954819D01*
X214500000Y-81954819D02*
X214500000Y-82192914D01*
X214261905Y-82097676D02*
X214500000Y-82192914D01*
X214500000Y-82192914D02*
X214738095Y-82097676D01*
X214357143Y-82383390D02*
X214500000Y-82192914D01*
X214500000Y-82192914D02*
X214642857Y-82383390D01*
X215261905Y-81954819D02*
X215261905Y-82192914D01*
X215023810Y-82097676D02*
X215261905Y-82192914D01*
X215261905Y-82192914D02*
X215500000Y-82097676D01*
X215119048Y-82383390D02*
X215261905Y-82192914D01*
X215261905Y-82192914D02*
X215404762Y-82383390D01*
X169166666Y-101954819D02*
X168833333Y-101478628D01*
X168595238Y-101954819D02*
X168595238Y-100954819D01*
X168595238Y-100954819D02*
X168976190Y-100954819D01*
X168976190Y-100954819D02*
X169071428Y-101002438D01*
X169071428Y-101002438D02*
X169119047Y-101050057D01*
X169119047Y-101050057D02*
X169166666Y-101145295D01*
X169166666Y-101145295D02*
X169166666Y-101288152D01*
X169166666Y-101288152D02*
X169119047Y-101383390D01*
X169119047Y-101383390D02*
X169071428Y-101431009D01*
X169071428Y-101431009D02*
X168976190Y-101478628D01*
X168976190Y-101478628D02*
X168595238Y-101478628D01*
X169595238Y-101431009D02*
X169928571Y-101431009D01*
X170071428Y-101954819D02*
X169595238Y-101954819D01*
X169595238Y-101954819D02*
X169595238Y-100954819D01*
X169595238Y-100954819D02*
X170071428Y-100954819D01*
X170833333Y-101431009D02*
X170500000Y-101431009D01*
X170500000Y-101954819D02*
X170500000Y-100954819D01*
X170500000Y-100954819D02*
X170976190Y-100954819D01*
X171500000Y-100954819D02*
X171500000Y-101192914D01*
X171261905Y-101097676D02*
X171500000Y-101192914D01*
X171500000Y-101192914D02*
X171738095Y-101097676D01*
X171357143Y-101383390D02*
X171500000Y-101192914D01*
X171500000Y-101192914D02*
X171642857Y-101383390D01*
X172261905Y-100954819D02*
X172261905Y-101192914D01*
X172023810Y-101097676D02*
X172261905Y-101192914D01*
X172261905Y-101192914D02*
X172500000Y-101097676D01*
X172119048Y-101383390D02*
X172261905Y-101192914D01*
X172261905Y-101192914D02*
X172404762Y-101383390D01*
X186333333Y-100789580D02*
X186285714Y-100837200D01*
X186285714Y-100837200D02*
X186142857Y-100884819D01*
X186142857Y-100884819D02*
X186047619Y-100884819D01*
X186047619Y-100884819D02*
X185904762Y-100837200D01*
X185904762Y-100837200D02*
X185809524Y-100741961D01*
X185809524Y-100741961D02*
X185761905Y-100646723D01*
X185761905Y-100646723D02*
X185714286Y-100456247D01*
X185714286Y-100456247D02*
X185714286Y-100313390D01*
X185714286Y-100313390D02*
X185761905Y-100122914D01*
X185761905Y-100122914D02*
X185809524Y-100027676D01*
X185809524Y-100027676D02*
X185904762Y-99932438D01*
X185904762Y-99932438D02*
X186047619Y-99884819D01*
X186047619Y-99884819D02*
X186142857Y-99884819D01*
X186142857Y-99884819D02*
X186285714Y-99932438D01*
X186285714Y-99932438D02*
X186333333Y-99980057D01*
X186666667Y-99884819D02*
X187333333Y-99884819D01*
X187333333Y-99884819D02*
X186904762Y-100884819D01*
X208299104Y-85224285D02*
X208299104Y-84748095D01*
X208584819Y-85319523D02*
X207584819Y-84986190D01*
X207584819Y-84986190D02*
X208584819Y-84652857D01*
X208584819Y-83795714D02*
X208584819Y-84367142D01*
X208584819Y-84081428D02*
X207584819Y-84081428D01*
X207584819Y-84081428D02*
X207727676Y-84176666D01*
X207727676Y-84176666D02*
X207822914Y-84271904D01*
X207822914Y-84271904D02*
X207870533Y-84367142D01*
X168035180Y-83248095D02*
X167225657Y-83248095D01*
X167225657Y-83248095D02*
X167130419Y-83295714D01*
X167130419Y-83295714D02*
X167082800Y-83343333D01*
X167082800Y-83343333D02*
X167035180Y-83438571D01*
X167035180Y-83438571D02*
X167035180Y-83629047D01*
X167035180Y-83629047D02*
X167082800Y-83724285D01*
X167082800Y-83724285D02*
X167130419Y-83771904D01*
X167130419Y-83771904D02*
X167225657Y-83819523D01*
X167225657Y-83819523D02*
X168035180Y-83819523D01*
X167082800Y-84248095D02*
X167035180Y-84390952D01*
X167035180Y-84390952D02*
X167035180Y-84629047D01*
X167035180Y-84629047D02*
X167082800Y-84724285D01*
X167082800Y-84724285D02*
X167130419Y-84771904D01*
X167130419Y-84771904D02*
X167225657Y-84819523D01*
X167225657Y-84819523D02*
X167320895Y-84819523D01*
X167320895Y-84819523D02*
X167416133Y-84771904D01*
X167416133Y-84771904D02*
X167463752Y-84724285D01*
X167463752Y-84724285D02*
X167511371Y-84629047D01*
X167511371Y-84629047D02*
X167558990Y-84438571D01*
X167558990Y-84438571D02*
X167606609Y-84343333D01*
X167606609Y-84343333D02*
X167654228Y-84295714D01*
X167654228Y-84295714D02*
X167749466Y-84248095D01*
X167749466Y-84248095D02*
X167844704Y-84248095D01*
X167844704Y-84248095D02*
X167939942Y-84295714D01*
X167939942Y-84295714D02*
X167987561Y-84343333D01*
X167987561Y-84343333D02*
X168035180Y-84438571D01*
X168035180Y-84438571D02*
X168035180Y-84676666D01*
X168035180Y-84676666D02*
X167987561Y-84819523D01*
X167558990Y-85581428D02*
X167511371Y-85724285D01*
X167511371Y-85724285D02*
X167463752Y-85771904D01*
X167463752Y-85771904D02*
X167368514Y-85819523D01*
X167368514Y-85819523D02*
X167225657Y-85819523D01*
X167225657Y-85819523D02*
X167130419Y-85771904D01*
X167130419Y-85771904D02*
X167082800Y-85724285D01*
X167082800Y-85724285D02*
X167035180Y-85629047D01*
X167035180Y-85629047D02*
X167035180Y-85248095D01*
X167035180Y-85248095D02*
X168035180Y-85248095D01*
X168035180Y-85248095D02*
X168035180Y-85581428D01*
X168035180Y-85581428D02*
X167987561Y-85676666D01*
X167987561Y-85676666D02*
X167939942Y-85724285D01*
X167939942Y-85724285D02*
X167844704Y-85771904D01*
X167844704Y-85771904D02*
X167749466Y-85771904D01*
X167749466Y-85771904D02*
X167654228Y-85724285D01*
X167654228Y-85724285D02*
X167606609Y-85676666D01*
X167606609Y-85676666D02*
X167558990Y-85581428D01*
X167558990Y-85581428D02*
X167558990Y-85248095D01*
X212916666Y-59704819D02*
X212916666Y-60419104D01*
X212916666Y-60419104D02*
X212869047Y-60561961D01*
X212869047Y-60561961D02*
X212773809Y-60657200D01*
X212773809Y-60657200D02*
X212630952Y-60704819D01*
X212630952Y-60704819D02*
X212535714Y-60704819D01*
X213821428Y-60038152D02*
X213821428Y-60704819D01*
X213583333Y-59657200D02*
X213345238Y-60371485D01*
X213345238Y-60371485D02*
X213964285Y-60371485D01*
X227588986Y-92269447D02*
X227731989Y-92317114D01*
X227731989Y-92317114D02*
X227970326Y-92317114D01*
X227970326Y-92317114D02*
X228065661Y-92269447D01*
X228065661Y-92269447D02*
X228113328Y-92221779D01*
X228113328Y-92221779D02*
X228160995Y-92126444D01*
X228160995Y-92126444D02*
X228160995Y-92031109D01*
X228160995Y-92031109D02*
X228113328Y-91935775D01*
X228113328Y-91935775D02*
X228065661Y-91888107D01*
X228065661Y-91888107D02*
X227970326Y-91840440D01*
X227970326Y-91840440D02*
X227779656Y-91792772D01*
X227779656Y-91792772D02*
X227684321Y-91745105D01*
X227684321Y-91745105D02*
X227636654Y-91697437D01*
X227636654Y-91697437D02*
X227588986Y-91602103D01*
X227588986Y-91602103D02*
X227588986Y-91506768D01*
X227588986Y-91506768D02*
X227636654Y-91411433D01*
X227636654Y-91411433D02*
X227684321Y-91363765D01*
X227684321Y-91363765D02*
X227779656Y-91316098D01*
X227779656Y-91316098D02*
X228017993Y-91316098D01*
X228017993Y-91316098D02*
X228160995Y-91363765D01*
X228494668Y-91316098D02*
X228733005Y-92317114D01*
X228733005Y-92317114D02*
X228923675Y-91602103D01*
X228923675Y-91602103D02*
X229114344Y-92317114D01*
X229114344Y-92317114D02*
X229352682Y-91316098D01*
X230258362Y-92317114D02*
X229686353Y-92317114D01*
X229972358Y-92317114D02*
X229972358Y-91316098D01*
X229972358Y-91316098D02*
X229877023Y-91459100D01*
X229877023Y-91459100D02*
X229781688Y-91554435D01*
X229781688Y-91554435D02*
X229686353Y-91602103D01*
X202833333Y-94929580D02*
X202785714Y-94977200D01*
X202785714Y-94977200D02*
X202642857Y-95024819D01*
X202642857Y-95024819D02*
X202547619Y-95024819D01*
X202547619Y-95024819D02*
X202404762Y-94977200D01*
X202404762Y-94977200D02*
X202309524Y-94881961D01*
X202309524Y-94881961D02*
X202261905Y-94786723D01*
X202261905Y-94786723D02*
X202214286Y-94596247D01*
X202214286Y-94596247D02*
X202214286Y-94453390D01*
X202214286Y-94453390D02*
X202261905Y-94262914D01*
X202261905Y-94262914D02*
X202309524Y-94167676D01*
X202309524Y-94167676D02*
X202404762Y-94072438D01*
X202404762Y-94072438D02*
X202547619Y-94024819D01*
X202547619Y-94024819D02*
X202642857Y-94024819D01*
X202642857Y-94024819D02*
X202785714Y-94072438D01*
X202785714Y-94072438D02*
X202833333Y-94120057D01*
X203404762Y-94453390D02*
X203309524Y-94405771D01*
X203309524Y-94405771D02*
X203261905Y-94358152D01*
X203261905Y-94358152D02*
X203214286Y-94262914D01*
X203214286Y-94262914D02*
X203214286Y-94215295D01*
X203214286Y-94215295D02*
X203261905Y-94120057D01*
X203261905Y-94120057D02*
X203309524Y-94072438D01*
X203309524Y-94072438D02*
X203404762Y-94024819D01*
X203404762Y-94024819D02*
X203595238Y-94024819D01*
X203595238Y-94024819D02*
X203690476Y-94072438D01*
X203690476Y-94072438D02*
X203738095Y-94120057D01*
X203738095Y-94120057D02*
X203785714Y-94215295D01*
X203785714Y-94215295D02*
X203785714Y-94262914D01*
X203785714Y-94262914D02*
X203738095Y-94358152D01*
X203738095Y-94358152D02*
X203690476Y-94405771D01*
X203690476Y-94405771D02*
X203595238Y-94453390D01*
X203595238Y-94453390D02*
X203404762Y-94453390D01*
X203404762Y-94453390D02*
X203309524Y-94501009D01*
X203309524Y-94501009D02*
X203261905Y-94548628D01*
X203261905Y-94548628D02*
X203214286Y-94643866D01*
X203214286Y-94643866D02*
X203214286Y-94834342D01*
X203214286Y-94834342D02*
X203261905Y-94929580D01*
X203261905Y-94929580D02*
X203309524Y-94977200D01*
X203309524Y-94977200D02*
X203404762Y-95024819D01*
X203404762Y-95024819D02*
X203595238Y-95024819D01*
X203595238Y-95024819D02*
X203690476Y-94977200D01*
X203690476Y-94977200D02*
X203738095Y-94929580D01*
X203738095Y-94929580D02*
X203785714Y-94834342D01*
X203785714Y-94834342D02*
X203785714Y-94643866D01*
X203785714Y-94643866D02*
X203738095Y-94548628D01*
X203738095Y-94548628D02*
X203690476Y-94501009D01*
X203690476Y-94501009D02*
X203595238Y-94453390D01*
X179916666Y-59704819D02*
X179916666Y-60419104D01*
X179916666Y-60419104D02*
X179869047Y-60561961D01*
X179869047Y-60561961D02*
X179773809Y-60657200D01*
X179773809Y-60657200D02*
X179630952Y-60704819D01*
X179630952Y-60704819D02*
X179535714Y-60704819D01*
X180916666Y-60704819D02*
X180345238Y-60704819D01*
X180630952Y-60704819D02*
X180630952Y-59704819D01*
X180630952Y-59704819D02*
X180535714Y-59847676D01*
X180535714Y-59847676D02*
X180440476Y-59942914D01*
X180440476Y-59942914D02*
X180345238Y-59990533D01*
X229316666Y-99404819D02*
X229316666Y-100119104D01*
X229316666Y-100119104D02*
X229269047Y-100261961D01*
X229269047Y-100261961D02*
X229173809Y-100357200D01*
X229173809Y-100357200D02*
X229030952Y-100404819D01*
X229030952Y-100404819D02*
X228935714Y-100404819D01*
X229935714Y-99833390D02*
X229840476Y-99785771D01*
X229840476Y-99785771D02*
X229792857Y-99738152D01*
X229792857Y-99738152D02*
X229745238Y-99642914D01*
X229745238Y-99642914D02*
X229745238Y-99595295D01*
X229745238Y-99595295D02*
X229792857Y-99500057D01*
X229792857Y-99500057D02*
X229840476Y-99452438D01*
X229840476Y-99452438D02*
X229935714Y-99404819D01*
X229935714Y-99404819D02*
X230126190Y-99404819D01*
X230126190Y-99404819D02*
X230221428Y-99452438D01*
X230221428Y-99452438D02*
X230269047Y-99500057D01*
X230269047Y-99500057D02*
X230316666Y-99595295D01*
X230316666Y-99595295D02*
X230316666Y-99642914D01*
X230316666Y-99642914D02*
X230269047Y-99738152D01*
X230269047Y-99738152D02*
X230221428Y-99785771D01*
X230221428Y-99785771D02*
X230126190Y-99833390D01*
X230126190Y-99833390D02*
X229935714Y-99833390D01*
X229935714Y-99833390D02*
X229840476Y-99881009D01*
X229840476Y-99881009D02*
X229792857Y-99928628D01*
X229792857Y-99928628D02*
X229745238Y-100023866D01*
X229745238Y-100023866D02*
X229745238Y-100214342D01*
X229745238Y-100214342D02*
X229792857Y-100309580D01*
X229792857Y-100309580D02*
X229840476Y-100357200D01*
X229840476Y-100357200D02*
X229935714Y-100404819D01*
X229935714Y-100404819D02*
X230126190Y-100404819D01*
X230126190Y-100404819D02*
X230221428Y-100357200D01*
X230221428Y-100357200D02*
X230269047Y-100309580D01*
X230269047Y-100309580D02*
X230316666Y-100214342D01*
X230316666Y-100214342D02*
X230316666Y-100023866D01*
X230316666Y-100023866D02*
X230269047Y-99928628D01*
X230269047Y-99928628D02*
X230221428Y-99881009D01*
X230221428Y-99881009D02*
X230126190Y-99833390D01*
X217333333Y-100289580D02*
X217285714Y-100337200D01*
X217285714Y-100337200D02*
X217142857Y-100384819D01*
X217142857Y-100384819D02*
X217047619Y-100384819D01*
X217047619Y-100384819D02*
X216904762Y-100337200D01*
X216904762Y-100337200D02*
X216809524Y-100241961D01*
X216809524Y-100241961D02*
X216761905Y-100146723D01*
X216761905Y-100146723D02*
X216714286Y-99956247D01*
X216714286Y-99956247D02*
X216714286Y-99813390D01*
X216714286Y-99813390D02*
X216761905Y-99622914D01*
X216761905Y-99622914D02*
X216809524Y-99527676D01*
X216809524Y-99527676D02*
X216904762Y-99432438D01*
X216904762Y-99432438D02*
X217047619Y-99384819D01*
X217047619Y-99384819D02*
X217142857Y-99384819D01*
X217142857Y-99384819D02*
X217285714Y-99432438D01*
X217285714Y-99432438D02*
X217333333Y-99480057D01*
X217809524Y-100384819D02*
X218000000Y-100384819D01*
X218000000Y-100384819D02*
X218095238Y-100337200D01*
X218095238Y-100337200D02*
X218142857Y-100289580D01*
X218142857Y-100289580D02*
X218238095Y-100146723D01*
X218238095Y-100146723D02*
X218285714Y-99956247D01*
X218285714Y-99956247D02*
X218285714Y-99575295D01*
X218285714Y-99575295D02*
X218238095Y-99480057D01*
X218238095Y-99480057D02*
X218190476Y-99432438D01*
X218190476Y-99432438D02*
X218095238Y-99384819D01*
X218095238Y-99384819D02*
X217904762Y-99384819D01*
X217904762Y-99384819D02*
X217809524Y-99432438D01*
X217809524Y-99432438D02*
X217761905Y-99480057D01*
X217761905Y-99480057D02*
X217714286Y-99575295D01*
X217714286Y-99575295D02*
X217714286Y-99813390D01*
X217714286Y-99813390D02*
X217761905Y-99908628D01*
X217761905Y-99908628D02*
X217809524Y-99956247D01*
X217809524Y-99956247D02*
X217904762Y-100003866D01*
X217904762Y-100003866D02*
X218095238Y-100003866D01*
X218095238Y-100003866D02*
X218190476Y-99956247D01*
X218190476Y-99956247D02*
X218238095Y-99908628D01*
X218238095Y-99908628D02*
X218285714Y-99813390D01*
X229004819Y-83059523D02*
X229719104Y-83059523D01*
X229719104Y-83059523D02*
X229861961Y-83107142D01*
X229861961Y-83107142D02*
X229957200Y-83202380D01*
X229957200Y-83202380D02*
X230004819Y-83345237D01*
X230004819Y-83345237D02*
X230004819Y-83440475D01*
X230004819Y-82059523D02*
X230004819Y-82630951D01*
X230004819Y-82345237D02*
X229004819Y-82345237D01*
X229004819Y-82345237D02*
X229147676Y-82440475D01*
X229147676Y-82440475D02*
X229242914Y-82535713D01*
X229242914Y-82535713D02*
X229290533Y-82630951D01*
X230004819Y-81107142D02*
X230004819Y-81678570D01*
X230004819Y-81392856D02*
X229004819Y-81392856D01*
X229004819Y-81392856D02*
X229147676Y-81488094D01*
X229147676Y-81488094D02*
X229242914Y-81583332D01*
X229242914Y-81583332D02*
X229290533Y-81678570D01*
X202666666Y-110704819D02*
X202666666Y-111419104D01*
X202666666Y-111419104D02*
X202619047Y-111561961D01*
X202619047Y-111561961D02*
X202523809Y-111657200D01*
X202523809Y-111657200D02*
X202380952Y-111704819D01*
X202380952Y-111704819D02*
X202285714Y-111704819D01*
X203571428Y-110704819D02*
X203380952Y-110704819D01*
X203380952Y-110704819D02*
X203285714Y-110752438D01*
X203285714Y-110752438D02*
X203238095Y-110800057D01*
X203238095Y-110800057D02*
X203142857Y-110942914D01*
X203142857Y-110942914D02*
X203095238Y-111133390D01*
X203095238Y-111133390D02*
X203095238Y-111514342D01*
X203095238Y-111514342D02*
X203142857Y-111609580D01*
X203142857Y-111609580D02*
X203190476Y-111657200D01*
X203190476Y-111657200D02*
X203285714Y-111704819D01*
X203285714Y-111704819D02*
X203476190Y-111704819D01*
X203476190Y-111704819D02*
X203571428Y-111657200D01*
X203571428Y-111657200D02*
X203619047Y-111609580D01*
X203619047Y-111609580D02*
X203666666Y-111514342D01*
X203666666Y-111514342D02*
X203666666Y-111276247D01*
X203666666Y-111276247D02*
X203619047Y-111181009D01*
X203619047Y-111181009D02*
X203571428Y-111133390D01*
X203571428Y-111133390D02*
X203476190Y-111085771D01*
X203476190Y-111085771D02*
X203285714Y-111085771D01*
X203285714Y-111085771D02*
X203190476Y-111133390D01*
X203190476Y-111133390D02*
X203142857Y-111181009D01*
X203142857Y-111181009D02*
X203095238Y-111276247D01*
X174182319Y-68059523D02*
X174896604Y-68059523D01*
X174896604Y-68059523D02*
X175039461Y-68107142D01*
X175039461Y-68107142D02*
X175134700Y-68202380D01*
X175134700Y-68202380D02*
X175182319Y-68345237D01*
X175182319Y-68345237D02*
X175182319Y-68440475D01*
X175182319Y-67059523D02*
X175182319Y-67630951D01*
X175182319Y-67345237D02*
X174182319Y-67345237D01*
X174182319Y-67345237D02*
X174325176Y-67440475D01*
X174325176Y-67440475D02*
X174420414Y-67535713D01*
X174420414Y-67535713D02*
X174468033Y-67630951D01*
X174182319Y-66440475D02*
X174182319Y-66345237D01*
X174182319Y-66345237D02*
X174229938Y-66249999D01*
X174229938Y-66249999D02*
X174277557Y-66202380D01*
X174277557Y-66202380D02*
X174372795Y-66154761D01*
X174372795Y-66154761D02*
X174563271Y-66107142D01*
X174563271Y-66107142D02*
X174801366Y-66107142D01*
X174801366Y-66107142D02*
X174991842Y-66154761D01*
X174991842Y-66154761D02*
X175087080Y-66202380D01*
X175087080Y-66202380D02*
X175134700Y-66249999D01*
X175134700Y-66249999D02*
X175182319Y-66345237D01*
X175182319Y-66345237D02*
X175182319Y-66440475D01*
X175182319Y-66440475D02*
X175134700Y-66535713D01*
X175134700Y-66535713D02*
X175087080Y-66583332D01*
X175087080Y-66583332D02*
X174991842Y-66630951D01*
X174991842Y-66630951D02*
X174801366Y-66678570D01*
X174801366Y-66678570D02*
X174563271Y-66678570D01*
X174563271Y-66678570D02*
X174372795Y-66630951D01*
X174372795Y-66630951D02*
X174277557Y-66583332D01*
X174277557Y-66583332D02*
X174229938Y-66535713D01*
X174229938Y-66535713D02*
X174182319Y-66440475D01*
X202166666Y-59704819D02*
X202166666Y-60419104D01*
X202166666Y-60419104D02*
X202119047Y-60561961D01*
X202119047Y-60561961D02*
X202023809Y-60657200D01*
X202023809Y-60657200D02*
X201880952Y-60704819D01*
X201880952Y-60704819D02*
X201785714Y-60704819D01*
X203119047Y-59704819D02*
X202642857Y-59704819D01*
X202642857Y-59704819D02*
X202595238Y-60181009D01*
X202595238Y-60181009D02*
X202642857Y-60133390D01*
X202642857Y-60133390D02*
X202738095Y-60085771D01*
X202738095Y-60085771D02*
X202976190Y-60085771D01*
X202976190Y-60085771D02*
X203071428Y-60133390D01*
X203071428Y-60133390D02*
X203119047Y-60181009D01*
X203119047Y-60181009D02*
X203166666Y-60276247D01*
X203166666Y-60276247D02*
X203166666Y-60514342D01*
X203166666Y-60514342D02*
X203119047Y-60609580D01*
X203119047Y-60609580D02*
X203071428Y-60657200D01*
X203071428Y-60657200D02*
X202976190Y-60704819D01*
X202976190Y-60704819D02*
X202738095Y-60704819D01*
X202738095Y-60704819D02*
X202642857Y-60657200D01*
X202642857Y-60657200D02*
X202595238Y-60609580D01*
X179583333Y-70929580D02*
X179535714Y-70977200D01*
X179535714Y-70977200D02*
X179392857Y-71024819D01*
X179392857Y-71024819D02*
X179297619Y-71024819D01*
X179297619Y-71024819D02*
X179154762Y-70977200D01*
X179154762Y-70977200D02*
X179059524Y-70881961D01*
X179059524Y-70881961D02*
X179011905Y-70786723D01*
X179011905Y-70786723D02*
X178964286Y-70596247D01*
X178964286Y-70596247D02*
X178964286Y-70453390D01*
X178964286Y-70453390D02*
X179011905Y-70262914D01*
X179011905Y-70262914D02*
X179059524Y-70167676D01*
X179059524Y-70167676D02*
X179154762Y-70072438D01*
X179154762Y-70072438D02*
X179297619Y-70024819D01*
X179297619Y-70024819D02*
X179392857Y-70024819D01*
X179392857Y-70024819D02*
X179535714Y-70072438D01*
X179535714Y-70072438D02*
X179583333Y-70120057D01*
X179964286Y-70120057D02*
X180011905Y-70072438D01*
X180011905Y-70072438D02*
X180107143Y-70024819D01*
X180107143Y-70024819D02*
X180345238Y-70024819D01*
X180345238Y-70024819D02*
X180440476Y-70072438D01*
X180440476Y-70072438D02*
X180488095Y-70120057D01*
X180488095Y-70120057D02*
X180535714Y-70215295D01*
X180535714Y-70215295D02*
X180535714Y-70310533D01*
X180535714Y-70310533D02*
X180488095Y-70453390D01*
X180488095Y-70453390D02*
X179916667Y-71024819D01*
X179916667Y-71024819D02*
X180535714Y-71024819D01*
X185916666Y-110954819D02*
X185916666Y-111669104D01*
X185916666Y-111669104D02*
X185869047Y-111811961D01*
X185869047Y-111811961D02*
X185773809Y-111907200D01*
X185773809Y-111907200D02*
X185630952Y-111954819D01*
X185630952Y-111954819D02*
X185535714Y-111954819D01*
X186297619Y-110954819D02*
X186964285Y-110954819D01*
X186964285Y-110954819D02*
X186535714Y-111954819D01*
X190333333Y-70929580D02*
X190285714Y-70977200D01*
X190285714Y-70977200D02*
X190142857Y-71024819D01*
X190142857Y-71024819D02*
X190047619Y-71024819D01*
X190047619Y-71024819D02*
X189904762Y-70977200D01*
X189904762Y-70977200D02*
X189809524Y-70881961D01*
X189809524Y-70881961D02*
X189761905Y-70786723D01*
X189761905Y-70786723D02*
X189714286Y-70596247D01*
X189714286Y-70596247D02*
X189714286Y-70453390D01*
X189714286Y-70453390D02*
X189761905Y-70262914D01*
X189761905Y-70262914D02*
X189809524Y-70167676D01*
X189809524Y-70167676D02*
X189904762Y-70072438D01*
X189904762Y-70072438D02*
X190047619Y-70024819D01*
X190047619Y-70024819D02*
X190142857Y-70024819D01*
X190142857Y-70024819D02*
X190285714Y-70072438D01*
X190285714Y-70072438D02*
X190333333Y-70120057D01*
X190666667Y-70024819D02*
X191285714Y-70024819D01*
X191285714Y-70024819D02*
X190952381Y-70405771D01*
X190952381Y-70405771D02*
X191095238Y-70405771D01*
X191095238Y-70405771D02*
X191190476Y-70453390D01*
X191190476Y-70453390D02*
X191238095Y-70501009D01*
X191238095Y-70501009D02*
X191285714Y-70596247D01*
X191285714Y-70596247D02*
X191285714Y-70834342D01*
X191285714Y-70834342D02*
X191238095Y-70929580D01*
X191238095Y-70929580D02*
X191190476Y-70977200D01*
X191190476Y-70977200D02*
X191095238Y-71024819D01*
X191095238Y-71024819D02*
X190809524Y-71024819D01*
X190809524Y-71024819D02*
X190714286Y-70977200D01*
X190714286Y-70977200D02*
X190666667Y-70929580D01*
X217341666Y-92546009D02*
X217008333Y-92546009D01*
X217008333Y-93069819D02*
X217008333Y-92069819D01*
X217008333Y-92069819D02*
X217484523Y-92069819D01*
X218389285Y-93069819D02*
X217817857Y-93069819D01*
X218103571Y-93069819D02*
X218103571Y-92069819D01*
X218103571Y-92069819D02*
X218008333Y-92212676D01*
X218008333Y-92212676D02*
X217913095Y-92307914D01*
X217913095Y-92307914D02*
X217817857Y-92355533D01*
X202083333Y-71179580D02*
X202035714Y-71227200D01*
X202035714Y-71227200D02*
X201892857Y-71274819D01*
X201892857Y-71274819D02*
X201797619Y-71274819D01*
X201797619Y-71274819D02*
X201654762Y-71227200D01*
X201654762Y-71227200D02*
X201559524Y-71131961D01*
X201559524Y-71131961D02*
X201511905Y-71036723D01*
X201511905Y-71036723D02*
X201464286Y-70846247D01*
X201464286Y-70846247D02*
X201464286Y-70703390D01*
X201464286Y-70703390D02*
X201511905Y-70512914D01*
X201511905Y-70512914D02*
X201559524Y-70417676D01*
X201559524Y-70417676D02*
X201654762Y-70322438D01*
X201654762Y-70322438D02*
X201797619Y-70274819D01*
X201797619Y-70274819D02*
X201892857Y-70274819D01*
X201892857Y-70274819D02*
X202035714Y-70322438D01*
X202035714Y-70322438D02*
X202083333Y-70370057D01*
X202988095Y-70274819D02*
X202511905Y-70274819D01*
X202511905Y-70274819D02*
X202464286Y-70751009D01*
X202464286Y-70751009D02*
X202511905Y-70703390D01*
X202511905Y-70703390D02*
X202607143Y-70655771D01*
X202607143Y-70655771D02*
X202845238Y-70655771D01*
X202845238Y-70655771D02*
X202940476Y-70703390D01*
X202940476Y-70703390D02*
X202988095Y-70751009D01*
X202988095Y-70751009D02*
X203035714Y-70846247D01*
X203035714Y-70846247D02*
X203035714Y-71084342D01*
X203035714Y-71084342D02*
X202988095Y-71179580D01*
X202988095Y-71179580D02*
X202940476Y-71227200D01*
X202940476Y-71227200D02*
X202845238Y-71274819D01*
X202845238Y-71274819D02*
X202607143Y-71274819D01*
X202607143Y-71274819D02*
X202511905Y-71227200D01*
X202511905Y-71227200D02*
X202464286Y-71179580D01*
X223083333Y-71179580D02*
X223035714Y-71227200D01*
X223035714Y-71227200D02*
X222892857Y-71274819D01*
X222892857Y-71274819D02*
X222797619Y-71274819D01*
X222797619Y-71274819D02*
X222654762Y-71227200D01*
X222654762Y-71227200D02*
X222559524Y-71131961D01*
X222559524Y-71131961D02*
X222511905Y-71036723D01*
X222511905Y-71036723D02*
X222464286Y-70846247D01*
X222464286Y-70846247D02*
X222464286Y-70703390D01*
X222464286Y-70703390D02*
X222511905Y-70512914D01*
X222511905Y-70512914D02*
X222559524Y-70417676D01*
X222559524Y-70417676D02*
X222654762Y-70322438D01*
X222654762Y-70322438D02*
X222797619Y-70274819D01*
X222797619Y-70274819D02*
X222892857Y-70274819D01*
X222892857Y-70274819D02*
X223035714Y-70322438D01*
X223035714Y-70322438D02*
X223083333Y-70370057D01*
X224035714Y-71274819D02*
X223464286Y-71274819D01*
X223750000Y-71274819D02*
X223750000Y-70274819D01*
X223750000Y-70274819D02*
X223654762Y-70417676D01*
X223654762Y-70417676D02*
X223559524Y-70512914D01*
X223559524Y-70512914D02*
X223464286Y-70560533D01*
X223666666Y-59954819D02*
X223666666Y-60669104D01*
X223666666Y-60669104D02*
X223619047Y-60811961D01*
X223619047Y-60811961D02*
X223523809Y-60907200D01*
X223523809Y-60907200D02*
X223380952Y-60954819D01*
X223380952Y-60954819D02*
X223285714Y-60954819D01*
X224095238Y-60050057D02*
X224142857Y-60002438D01*
X224142857Y-60002438D02*
X224238095Y-59954819D01*
X224238095Y-59954819D02*
X224476190Y-59954819D01*
X224476190Y-59954819D02*
X224571428Y-60002438D01*
X224571428Y-60002438D02*
X224619047Y-60050057D01*
X224619047Y-60050057D02*
X224666666Y-60145295D01*
X224666666Y-60145295D02*
X224666666Y-60240533D01*
X224666666Y-60240533D02*
X224619047Y-60383390D01*
X224619047Y-60383390D02*
X224047619Y-60954819D01*
X224047619Y-60954819D02*
X224666666Y-60954819D01*
X228977319Y-67583333D02*
X229691604Y-67583333D01*
X229691604Y-67583333D02*
X229834461Y-67630952D01*
X229834461Y-67630952D02*
X229929700Y-67726190D01*
X229929700Y-67726190D02*
X229977319Y-67869047D01*
X229977319Y-67869047D02*
X229977319Y-67964285D01*
X229977319Y-67059523D02*
X229977319Y-66869047D01*
X229977319Y-66869047D02*
X229929700Y-66773809D01*
X229929700Y-66773809D02*
X229882080Y-66726190D01*
X229882080Y-66726190D02*
X229739223Y-66630952D01*
X229739223Y-66630952D02*
X229548747Y-66583333D01*
X229548747Y-66583333D02*
X229167795Y-66583333D01*
X229167795Y-66583333D02*
X229072557Y-66630952D01*
X229072557Y-66630952D02*
X229024938Y-66678571D01*
X229024938Y-66678571D02*
X228977319Y-66773809D01*
X228977319Y-66773809D02*
X228977319Y-66964285D01*
X228977319Y-66964285D02*
X229024938Y-67059523D01*
X229024938Y-67059523D02*
X229072557Y-67107142D01*
X229072557Y-67107142D02*
X229167795Y-67154761D01*
X229167795Y-67154761D02*
X229405890Y-67154761D01*
X229405890Y-67154761D02*
X229501128Y-67107142D01*
X229501128Y-67107142D02*
X229548747Y-67059523D01*
X229548747Y-67059523D02*
X229596366Y-66964285D01*
X229596366Y-66964285D02*
X229596366Y-66773809D01*
X229596366Y-66773809D02*
X229548747Y-66678571D01*
X229548747Y-66678571D02*
X229501128Y-66630952D01*
X229501128Y-66630952D02*
X229405890Y-66583333D01*
X212833333Y-71179580D02*
X212785714Y-71227200D01*
X212785714Y-71227200D02*
X212642857Y-71274819D01*
X212642857Y-71274819D02*
X212547619Y-71274819D01*
X212547619Y-71274819D02*
X212404762Y-71227200D01*
X212404762Y-71227200D02*
X212309524Y-71131961D01*
X212309524Y-71131961D02*
X212261905Y-71036723D01*
X212261905Y-71036723D02*
X212214286Y-70846247D01*
X212214286Y-70846247D02*
X212214286Y-70703390D01*
X212214286Y-70703390D02*
X212261905Y-70512914D01*
X212261905Y-70512914D02*
X212309524Y-70417676D01*
X212309524Y-70417676D02*
X212404762Y-70322438D01*
X212404762Y-70322438D02*
X212547619Y-70274819D01*
X212547619Y-70274819D02*
X212642857Y-70274819D01*
X212642857Y-70274819D02*
X212785714Y-70322438D01*
X212785714Y-70322438D02*
X212833333Y-70370057D01*
X213690476Y-70608152D02*
X213690476Y-71274819D01*
X213452381Y-70227200D02*
X213214286Y-70941485D01*
X213214286Y-70941485D02*
X213833333Y-70941485D01*
X202833333Y-101289580D02*
X202785714Y-101337200D01*
X202785714Y-101337200D02*
X202642857Y-101384819D01*
X202642857Y-101384819D02*
X202547619Y-101384819D01*
X202547619Y-101384819D02*
X202404762Y-101337200D01*
X202404762Y-101337200D02*
X202309524Y-101241961D01*
X202309524Y-101241961D02*
X202261905Y-101146723D01*
X202261905Y-101146723D02*
X202214286Y-100956247D01*
X202214286Y-100956247D02*
X202214286Y-100813390D01*
X202214286Y-100813390D02*
X202261905Y-100622914D01*
X202261905Y-100622914D02*
X202309524Y-100527676D01*
X202309524Y-100527676D02*
X202404762Y-100432438D01*
X202404762Y-100432438D02*
X202547619Y-100384819D01*
X202547619Y-100384819D02*
X202642857Y-100384819D01*
X202642857Y-100384819D02*
X202785714Y-100432438D01*
X202785714Y-100432438D02*
X202833333Y-100480057D01*
X203690476Y-100384819D02*
X203500000Y-100384819D01*
X203500000Y-100384819D02*
X203404762Y-100432438D01*
X203404762Y-100432438D02*
X203357143Y-100480057D01*
X203357143Y-100480057D02*
X203261905Y-100622914D01*
X203261905Y-100622914D02*
X203214286Y-100813390D01*
X203214286Y-100813390D02*
X203214286Y-101194342D01*
X203214286Y-101194342D02*
X203261905Y-101289580D01*
X203261905Y-101289580D02*
X203309524Y-101337200D01*
X203309524Y-101337200D02*
X203404762Y-101384819D01*
X203404762Y-101384819D02*
X203595238Y-101384819D01*
X203595238Y-101384819D02*
X203690476Y-101337200D01*
X203690476Y-101337200D02*
X203738095Y-101289580D01*
X203738095Y-101289580D02*
X203785714Y-101194342D01*
X203785714Y-101194342D02*
X203785714Y-100956247D01*
X203785714Y-100956247D02*
X203738095Y-100861009D01*
X203738095Y-100861009D02*
X203690476Y-100813390D01*
X203690476Y-100813390D02*
X203595238Y-100765771D01*
X203595238Y-100765771D02*
X203404762Y-100765771D01*
X203404762Y-100765771D02*
X203309524Y-100813390D01*
X203309524Y-100813390D02*
X203261905Y-100861009D01*
X203261905Y-100861009D02*
X203214286Y-100956247D01*
X190666666Y-59704819D02*
X190666666Y-60419104D01*
X190666666Y-60419104D02*
X190619047Y-60561961D01*
X190619047Y-60561961D02*
X190523809Y-60657200D01*
X190523809Y-60657200D02*
X190380952Y-60704819D01*
X190380952Y-60704819D02*
X190285714Y-60704819D01*
X191047619Y-59704819D02*
X191666666Y-59704819D01*
X191666666Y-59704819D02*
X191333333Y-60085771D01*
X191333333Y-60085771D02*
X191476190Y-60085771D01*
X191476190Y-60085771D02*
X191571428Y-60133390D01*
X191571428Y-60133390D02*
X191619047Y-60181009D01*
X191619047Y-60181009D02*
X191666666Y-60276247D01*
X191666666Y-60276247D02*
X191666666Y-60514342D01*
X191666666Y-60514342D02*
X191619047Y-60609580D01*
X191619047Y-60609580D02*
X191571428Y-60657200D01*
X191571428Y-60657200D02*
X191476190Y-60704819D01*
X191476190Y-60704819D02*
X191190476Y-60704819D01*
X191190476Y-60704819D02*
X191095238Y-60657200D01*
X191095238Y-60657200D02*
X191047619Y-60609580D01*
D13*
%TO.C,C7*%
X186761252Y-99485000D02*
X186238748Y-99485000D01*
X186761252Y-98015000D02*
X186238748Y-98015000D01*
%TO.C,A1*%
X206990000Y-93530000D02*
X206990000Y-75490000D01*
X206990000Y-75490000D02*
X204320000Y-75490000D01*
X204320000Y-90860000D02*
X204320000Y-93530000D01*
X204320000Y-90860000D02*
X166220000Y-90860000D01*
X204320000Y-78160000D02*
X204320000Y-75490000D01*
X201780000Y-78160000D02*
X204320000Y-78160000D01*
X201780000Y-78160000D02*
X201780000Y-75490000D01*
X201780000Y-78160000D02*
X166220000Y-78160000D01*
X201780000Y-75490000D02*
X163550000Y-75490000D01*
X171430000Y-88450000D02*
X161010000Y-88450000D01*
X171430000Y-80570000D02*
X171430000Y-88450000D01*
X166220000Y-90860000D02*
X166220000Y-93530000D01*
X166220000Y-78160000D02*
X166220000Y-75490000D01*
X163550000Y-93530000D02*
X206990000Y-93530000D01*
X163550000Y-93530000D02*
X163550000Y-88450000D01*
X163550000Y-75490000D02*
X163550000Y-80570000D01*
X161010000Y-88450000D02*
X161010000Y-80570000D01*
X161010000Y-80570000D02*
X171430000Y-80570000D01*
%TO.C,J4*%
X217310000Y-69160000D02*
X217310000Y-61340000D01*
X217310000Y-62940000D02*
X216390000Y-62940000D01*
X217310000Y-61340000D02*
X216390000Y-61340000D01*
X216550000Y-66900000D02*
X215550000Y-66900000D01*
X216550000Y-65300000D02*
X216550000Y-66900000D01*
X216390000Y-62940000D02*
X216110000Y-62940000D01*
X216390000Y-61340000D02*
X216390000Y-62940000D01*
X215550000Y-66900000D02*
X215550000Y-65300000D01*
X215550000Y-65300000D02*
X216550000Y-65300000D01*
X214750000Y-64800000D02*
X214750000Y-69160000D01*
X211750000Y-69160000D02*
X211750000Y-64800000D01*
X211750000Y-64800000D02*
X214750000Y-64800000D01*
X210950000Y-66900000D02*
X210950000Y-69160000D01*
X210950000Y-66900000D02*
X210950000Y-65300000D01*
X210950000Y-65300000D02*
X209950000Y-65300000D01*
X210450000Y-66900000D02*
X210450000Y-69160000D01*
X210390000Y-62940000D02*
X210390000Y-61725000D01*
X210390000Y-62940000D02*
X210110000Y-62940000D01*
X210110000Y-62940000D02*
X210110000Y-61340000D01*
X210110000Y-61340000D02*
X209190000Y-61340000D01*
X209950000Y-66900000D02*
X210950000Y-66900000D01*
X209950000Y-65300000D02*
X209950000Y-66900000D01*
X209190000Y-69160000D02*
X217310000Y-69160000D01*
X209190000Y-62940000D02*
X210110000Y-62940000D01*
X209190000Y-61340000D02*
X209190000Y-69160000D01*
D14*
%TO.C,SW1*%
X227891419Y-97500000D02*
G75*
G02*
X227608581Y-97500000I-141419J0D01*
G01*
X227608581Y-97500000D02*
G75*
G02*
X227891419Y-97500000I141419J0D01*
G01*
D15*
X234500000Y-93200000D02*
X234500000Y-96800000D01*
X231910000Y-96800000D02*
X228590000Y-96800000D01*
X231130000Y-93200000D02*
X234500000Y-93200000D01*
X226000000Y-96800000D02*
X226000000Y-93200000D01*
X226000000Y-93200000D02*
X229370000Y-93200000D01*
D13*
%TO.C,C8*%
X202738748Y-96985000D02*
X203261252Y-96985000D01*
X202738748Y-95515000D02*
X203261252Y-95515000D01*
%TO.C,J1*%
X184310000Y-69160000D02*
X184310000Y-61340000D01*
X184310000Y-62940000D02*
X183390000Y-62940000D01*
X184310000Y-61340000D02*
X183390000Y-61340000D01*
X183550000Y-66900000D02*
X182550000Y-66900000D01*
X183550000Y-65300000D02*
X183550000Y-66900000D01*
X183390000Y-62940000D02*
X183110000Y-62940000D01*
X183390000Y-61340000D02*
X183390000Y-62940000D01*
X182550000Y-66900000D02*
X182550000Y-65300000D01*
X182550000Y-65300000D02*
X183550000Y-65300000D01*
X181750000Y-64800000D02*
X181750000Y-69160000D01*
X178750000Y-69160000D02*
X178750000Y-64800000D01*
X178750000Y-64800000D02*
X181750000Y-64800000D01*
X177950000Y-66900000D02*
X177950000Y-69160000D01*
X177950000Y-66900000D02*
X177950000Y-65300000D01*
X177950000Y-65300000D02*
X176950000Y-65300000D01*
X177450000Y-66900000D02*
X177450000Y-69160000D01*
X177390000Y-62940000D02*
X177390000Y-61725000D01*
X177390000Y-62940000D02*
X177110000Y-62940000D01*
X177110000Y-62940000D02*
X177110000Y-61340000D01*
X177110000Y-61340000D02*
X176190000Y-61340000D01*
X176950000Y-66900000D02*
X177950000Y-66900000D01*
X176950000Y-65300000D02*
X176950000Y-66900000D01*
X176190000Y-69160000D02*
X184310000Y-69160000D01*
X176190000Y-62940000D02*
X177110000Y-62940000D01*
X176190000Y-61340000D02*
X176190000Y-69160000D01*
%TO.C,J8*%
X237500000Y-109400000D02*
X237500000Y-101100000D01*
X237500000Y-101100000D02*
X224650000Y-101100000D01*
X224650000Y-109400000D02*
X237500000Y-109400000D01*
X224650000Y-101100000D02*
X221800000Y-103650000D01*
X221800000Y-106800000D02*
X224650000Y-109400000D01*
X221800000Y-103650000D02*
X221800000Y-106800000D01*
%TO.C,C9*%
X217761252Y-98985000D02*
X217238748Y-98985000D01*
X217761252Y-97515000D02*
X217238748Y-97515000D01*
%TO.C,J11*%
X242860000Y-88360000D02*
X242860000Y-76140000D01*
X242860000Y-85750000D02*
X242860000Y-83750000D01*
X242860000Y-83750000D02*
X241360000Y-84000000D01*
X242860000Y-80750000D02*
X242860000Y-78750000D01*
X242860000Y-78750000D02*
X241360000Y-79000000D01*
X242860000Y-76140000D02*
X230640000Y-76140000D01*
X241360000Y-88360000D02*
X239560000Y-88360000D01*
X241360000Y-85500000D02*
X242860000Y-85750000D01*
X241360000Y-84000000D02*
X241360000Y-85500000D01*
X241360000Y-80500000D02*
X242860000Y-80750000D01*
X241360000Y-79000000D02*
X241360000Y-80500000D01*
X241360000Y-76140000D02*
X241360000Y-88360000D01*
X239560000Y-88360000D02*
X239560000Y-76140000D01*
X239560000Y-76140000D02*
X241360000Y-76140000D01*
X230640000Y-88360000D02*
X242860000Y-88360000D01*
X230640000Y-76140000D02*
X230640000Y-88360000D01*
X230440000Y-84750000D02*
X229840000Y-85050000D01*
X229840000Y-85050000D02*
X229840000Y-84450000D01*
X229840000Y-84450000D02*
X230440000Y-84750000D01*
%TO.C,J6*%
X207060000Y-110160000D02*
X207060000Y-102340000D01*
X207060000Y-108560000D02*
X206140000Y-108560000D01*
X207060000Y-102340000D02*
X198940000Y-102340000D01*
X206300000Y-106200000D02*
X206300000Y-104600000D01*
X206300000Y-104600000D02*
X205300000Y-104600000D01*
X206140000Y-110160000D02*
X207060000Y-110160000D01*
X206140000Y-108560000D02*
X206140000Y-110160000D01*
X205860000Y-108560000D02*
X206140000Y-108560000D01*
X205860000Y-108560000D02*
X205860000Y-109775000D01*
X205800000Y-104600000D02*
X205800000Y-102340000D01*
X205300000Y-106200000D02*
X206300000Y-106200000D01*
X205300000Y-104600000D02*
X205300000Y-106200000D01*
X205300000Y-104600000D02*
X205300000Y-102340000D01*
X204500000Y-106700000D02*
X201500000Y-106700000D01*
X204500000Y-102340000D02*
X204500000Y-106700000D01*
X201500000Y-106700000D02*
X201500000Y-102340000D01*
X200700000Y-106200000D02*
X199700000Y-106200000D01*
X200700000Y-104600000D02*
X200700000Y-106200000D01*
X199860000Y-110160000D02*
X199860000Y-108560000D01*
X199860000Y-108560000D02*
X200140000Y-108560000D01*
X199700000Y-106200000D02*
X199700000Y-104600000D01*
X199700000Y-104600000D02*
X200700000Y-104600000D01*
X198940000Y-110160000D02*
X199860000Y-110160000D01*
X198940000Y-108560000D02*
X199860000Y-108560000D01*
X198940000Y-102340000D02*
X198940000Y-110160000D01*
%TO.C,J10*%
X174437500Y-65050000D02*
X173837500Y-64750000D01*
X174437500Y-64450000D02*
X174437500Y-65050000D01*
X173837500Y-64750000D02*
X174437500Y-64450000D01*
X173637500Y-73360000D02*
X173637500Y-61140000D01*
X173637500Y-61140000D02*
X161417500Y-61140000D01*
X164717500Y-73360000D02*
X162917500Y-73360000D01*
X164717500Y-61140000D02*
X164717500Y-73360000D01*
X162917500Y-73360000D02*
X162917500Y-61140000D01*
X162917500Y-70500000D02*
X162917500Y-69000000D01*
X162917500Y-69000000D02*
X161417500Y-68750000D01*
X162917500Y-65500000D02*
X162917500Y-64000000D01*
X162917500Y-64000000D02*
X161417500Y-63750000D01*
X162917500Y-61140000D02*
X164717500Y-61140000D01*
X161417500Y-73360000D02*
X173637500Y-73360000D01*
X161417500Y-70750000D02*
X162917500Y-70500000D01*
X161417500Y-68750000D02*
X161417500Y-70750000D01*
X161417500Y-65750000D02*
X162917500Y-65500000D01*
X161417500Y-63750000D02*
X161417500Y-65750000D01*
X161417500Y-61140000D02*
X161417500Y-73360000D01*
%TO.C,J5*%
X206560000Y-69160000D02*
X206560000Y-61340000D01*
X206560000Y-62940000D02*
X205640000Y-62940000D01*
X206560000Y-61340000D02*
X205640000Y-61340000D01*
X205800000Y-66900000D02*
X204800000Y-66900000D01*
X205800000Y-65300000D02*
X205800000Y-66900000D01*
X205640000Y-62940000D02*
X205360000Y-62940000D01*
X205640000Y-61340000D02*
X205640000Y-62940000D01*
X204800000Y-66900000D02*
X204800000Y-65300000D01*
X204800000Y-65300000D02*
X205800000Y-65300000D01*
X204000000Y-64800000D02*
X204000000Y-69160000D01*
X201000000Y-69160000D02*
X201000000Y-64800000D01*
X201000000Y-64800000D02*
X204000000Y-64800000D01*
X200200000Y-66900000D02*
X200200000Y-69160000D01*
X200200000Y-66900000D02*
X200200000Y-65300000D01*
X200200000Y-65300000D02*
X199200000Y-65300000D01*
X199700000Y-66900000D02*
X199700000Y-69160000D01*
X199640000Y-62940000D02*
X199640000Y-61725000D01*
X199640000Y-62940000D02*
X199360000Y-62940000D01*
X199360000Y-62940000D02*
X199360000Y-61340000D01*
X199360000Y-61340000D02*
X198440000Y-61340000D01*
X199200000Y-66900000D02*
X200200000Y-66900000D01*
X199200000Y-65300000D02*
X199200000Y-66900000D01*
X198440000Y-69160000D02*
X206560000Y-69160000D01*
X198440000Y-62940000D02*
X199360000Y-62940000D01*
X198440000Y-61340000D02*
X198440000Y-69160000D01*
%TO.C,C2*%
X179488748Y-72985000D02*
X180011252Y-72985000D01*
X179488748Y-71515000D02*
X180011252Y-71515000D01*
%TO.C,J7*%
X190310000Y-110410000D02*
X190310000Y-102590000D01*
X190310000Y-108810000D02*
X189390000Y-108810000D01*
X190310000Y-102590000D02*
X182190000Y-102590000D01*
X189550000Y-106450000D02*
X189550000Y-104850000D01*
X189550000Y-104850000D02*
X188550000Y-104850000D01*
X189390000Y-110410000D02*
X190310000Y-110410000D01*
X189390000Y-108810000D02*
X189390000Y-110410000D01*
X189110000Y-108810000D02*
X189390000Y-108810000D01*
X189110000Y-108810000D02*
X189110000Y-110025000D01*
X189050000Y-104850000D02*
X189050000Y-102590000D01*
X188550000Y-106450000D02*
X189550000Y-106450000D01*
X188550000Y-104850000D02*
X188550000Y-106450000D01*
X188550000Y-104850000D02*
X188550000Y-102590000D01*
X187750000Y-106950000D02*
X184750000Y-106950000D01*
X187750000Y-102590000D02*
X187750000Y-106950000D01*
X184750000Y-106950000D02*
X184750000Y-102590000D01*
X183950000Y-106450000D02*
X182950000Y-106450000D01*
X183950000Y-104850000D02*
X183950000Y-106450000D01*
X183110000Y-110410000D02*
X183110000Y-108810000D01*
X183110000Y-108810000D02*
X183390000Y-108810000D01*
X182950000Y-106450000D02*
X182950000Y-104850000D01*
X182950000Y-104850000D02*
X183950000Y-104850000D01*
X182190000Y-110410000D02*
X183110000Y-110410000D01*
X182190000Y-108810000D02*
X183110000Y-108810000D01*
X182190000Y-102590000D02*
X182190000Y-110410000D01*
%TO.C,C3*%
X190238748Y-72985000D02*
X190761252Y-72985000D01*
X190238748Y-71515000D02*
X190761252Y-71515000D01*
D15*
%TO.C,F1*%
X217940000Y-95540000D02*
X217060000Y-95540000D01*
X217060000Y-93960000D02*
X217940000Y-93960000D01*
D13*
%TO.C,C5*%
X201988748Y-73235000D02*
X202511252Y-73235000D01*
X201988748Y-71765000D02*
X202511252Y-71765000D01*
%TO.C,C1*%
X222988748Y-73235000D02*
X223511252Y-73235000D01*
X222988748Y-71765000D02*
X223511252Y-71765000D01*
%TO.C,J2*%
X228060000Y-69410000D02*
X228060000Y-61590000D01*
X228060000Y-63190000D02*
X227140000Y-63190000D01*
X228060000Y-61590000D02*
X227140000Y-61590000D01*
X227300000Y-67150000D02*
X226300000Y-67150000D01*
X227300000Y-65550000D02*
X227300000Y-67150000D01*
X227140000Y-63190000D02*
X226860000Y-63190000D01*
X227140000Y-61590000D02*
X227140000Y-63190000D01*
X226300000Y-67150000D02*
X226300000Y-65550000D01*
X226300000Y-65550000D02*
X227300000Y-65550000D01*
X225500000Y-65050000D02*
X225500000Y-69410000D01*
X222500000Y-69410000D02*
X222500000Y-65050000D01*
X222500000Y-65050000D02*
X225500000Y-65050000D01*
X221700000Y-67150000D02*
X221700000Y-69410000D01*
X221700000Y-67150000D02*
X221700000Y-65550000D01*
X221700000Y-65550000D02*
X220700000Y-65550000D01*
X221200000Y-67150000D02*
X221200000Y-69410000D01*
X221140000Y-63190000D02*
X221140000Y-61975000D01*
X221140000Y-63190000D02*
X220860000Y-63190000D01*
X220860000Y-63190000D02*
X220860000Y-61590000D01*
X220860000Y-61590000D02*
X219940000Y-61590000D01*
X220700000Y-67150000D02*
X221700000Y-67150000D01*
X220700000Y-65550000D02*
X220700000Y-67150000D01*
X219940000Y-69410000D02*
X228060000Y-69410000D01*
X219940000Y-63190000D02*
X220860000Y-63190000D01*
X219940000Y-61590000D02*
X219940000Y-69410000D01*
%TO.C,J9*%
X242832500Y-73360000D02*
X242832500Y-61140000D01*
X242832500Y-70750000D02*
X242832500Y-68750000D01*
X242832500Y-68750000D02*
X241332500Y-69000000D01*
X242832500Y-65750000D02*
X242832500Y-63750000D01*
X242832500Y-63750000D02*
X241332500Y-64000000D01*
X242832500Y-61140000D02*
X230612500Y-61140000D01*
X241332500Y-73360000D02*
X239532500Y-73360000D01*
X241332500Y-70500000D02*
X242832500Y-70750000D01*
X241332500Y-69000000D02*
X241332500Y-70500000D01*
X241332500Y-65500000D02*
X242832500Y-65750000D01*
X241332500Y-64000000D02*
X241332500Y-65500000D01*
X241332500Y-61140000D02*
X241332500Y-73360000D01*
X239532500Y-73360000D02*
X239532500Y-61140000D01*
X239532500Y-61140000D02*
X241332500Y-61140000D01*
X230612500Y-73360000D02*
X242832500Y-73360000D01*
X230612500Y-61140000D02*
X230612500Y-73360000D01*
X230412500Y-69750000D02*
X229812500Y-70050000D01*
X229812500Y-70050000D02*
X229812500Y-69450000D01*
X229812500Y-69450000D02*
X230412500Y-69750000D01*
%TO.C,C4*%
X212738748Y-73235000D02*
X213261252Y-73235000D01*
X212738748Y-71765000D02*
X213261252Y-71765000D01*
%TO.C,C6*%
X203261252Y-99985000D02*
X202738748Y-99985000D01*
X203261252Y-98515000D02*
X202738748Y-98515000D01*
%TO.C,J3*%
X195060000Y-69160000D02*
X195060000Y-61340000D01*
X195060000Y-62940000D02*
X194140000Y-62940000D01*
X195060000Y-61340000D02*
X194140000Y-61340000D01*
X194300000Y-66900000D02*
X193300000Y-66900000D01*
X194300000Y-65300000D02*
X194300000Y-66900000D01*
X194140000Y-62940000D02*
X193860000Y-62940000D01*
X194140000Y-61340000D02*
X194140000Y-62940000D01*
X193300000Y-66900000D02*
X193300000Y-65300000D01*
X193300000Y-65300000D02*
X194300000Y-65300000D01*
X192500000Y-64800000D02*
X192500000Y-69160000D01*
X189500000Y-69160000D02*
X189500000Y-64800000D01*
X189500000Y-64800000D02*
X192500000Y-64800000D01*
X188700000Y-66900000D02*
X188700000Y-69160000D01*
X188700000Y-66900000D02*
X188700000Y-65300000D01*
X188700000Y-65300000D02*
X187700000Y-65300000D01*
X188200000Y-66900000D02*
X188200000Y-69160000D01*
X188140000Y-62940000D02*
X188140000Y-61725000D01*
X188140000Y-62940000D02*
X187860000Y-62940000D01*
X187860000Y-62940000D02*
X187860000Y-61340000D01*
X187860000Y-61340000D02*
X186940000Y-61340000D01*
X187700000Y-66900000D02*
X188700000Y-66900000D01*
X187700000Y-65300000D02*
X187700000Y-66900000D01*
X186940000Y-69160000D02*
X195060000Y-69160000D01*
X186940000Y-62940000D02*
X187860000Y-62940000D01*
X186940000Y-61340000D02*
X186940000Y-69160000D01*
%TD*%
%LPC*%
D16*
%TO.C,REF\u002A\u002A*%
X213500000Y-86500000D03*
%TD*%
%TO.C,REF\u002A\u002A*%
X170500000Y-105500000D03*
%TD*%
D17*
%TO.C,C7*%
X185462500Y-98750000D03*
X187537500Y-98750000D03*
%TD*%
D18*
%TO.C,A1*%
X203050000Y-92130000D03*
X200510000Y-92130000D03*
X197970000Y-92130000D03*
X195430000Y-92130000D03*
X192890000Y-92130000D03*
X190350000Y-92130000D03*
X187810000Y-92130000D03*
X185270000Y-92130000D03*
X182730000Y-92130000D03*
X180190000Y-92130000D03*
X177650000Y-92130000D03*
X175110000Y-92130000D03*
X172570000Y-92130000D03*
X170030000Y-92130000D03*
X167490000Y-92130000D03*
X167490000Y-76890000D03*
X170030000Y-76890000D03*
X172570000Y-76890000D03*
X175110000Y-76890000D03*
X177650000Y-76890000D03*
X180190000Y-76890000D03*
X182730000Y-76890000D03*
X185270000Y-76890000D03*
X187810000Y-76890000D03*
X190350000Y-76890000D03*
X192890000Y-76890000D03*
X195430000Y-76890000D03*
X197970000Y-76890000D03*
X200510000Y-76890000D03*
D19*
X203050000Y-76890000D03*
%TD*%
D20*
%TO.C,J4*%
X215250000Y-62800000D03*
X213250000Y-62800000D03*
D21*
X211250000Y-62800000D03*
%TD*%
D22*
%TO.C,SW1*%
X232750000Y-96200000D03*
X230250000Y-93800000D03*
X227750000Y-96200000D03*
%TD*%
D23*
%TO.C,C8*%
X204037500Y-96250000D03*
X201962500Y-96250000D03*
%TD*%
D20*
%TO.C,J1*%
X182250000Y-62800000D03*
X180250000Y-62800000D03*
D21*
X178250000Y-62800000D03*
%TD*%
D16*
%TO.C,J8*%
X233250000Y-105250000D03*
D24*
X226050000Y-105250000D03*
%TD*%
D17*
%TO.C,C9*%
X216462500Y-98250000D03*
X218537500Y-98250000D03*
%TD*%
D25*
%TO.C,J11*%
X232750000Y-79750000D03*
D26*
X232750000Y-84750000D03*
%TD*%
D20*
%TO.C,J6*%
X201000000Y-108700000D03*
X203000000Y-108700000D03*
D27*
X205000000Y-108700000D03*
%TD*%
D25*
%TO.C,J10*%
X171527500Y-69750000D03*
D28*
X171527500Y-64750000D03*
%TD*%
D20*
%TO.C,J5*%
X204500000Y-62800000D03*
X202500000Y-62800000D03*
D21*
X200500000Y-62800000D03*
%TD*%
D23*
%TO.C,C2*%
X180787500Y-72250000D03*
X178712500Y-72250000D03*
%TD*%
D20*
%TO.C,J7*%
X184250000Y-108950000D03*
X186250000Y-108950000D03*
D27*
X188250000Y-108950000D03*
%TD*%
D23*
%TO.C,C3*%
X191537500Y-72250000D03*
X189462500Y-72250000D03*
%TD*%
D29*
%TO.C,F1*%
X218970000Y-94750000D03*
X216030000Y-94750000D03*
%TD*%
D23*
%TO.C,C5*%
X203287500Y-72500000D03*
X201212500Y-72500000D03*
%TD*%
%TO.C,C1*%
X224287500Y-72500000D03*
X222212500Y-72500000D03*
%TD*%
D20*
%TO.C,J2*%
X226000000Y-63050000D03*
X224000000Y-63050000D03*
D21*
X222000000Y-63050000D03*
%TD*%
D25*
%TO.C,J9*%
X232722500Y-64750000D03*
D26*
X232722500Y-69750000D03*
%TD*%
D23*
%TO.C,C4*%
X214037500Y-72500000D03*
X211962500Y-72500000D03*
%TD*%
D17*
%TO.C,C6*%
X201962500Y-99250000D03*
X204037500Y-99250000D03*
%TD*%
D20*
%TO.C,J3*%
X193000000Y-62800000D03*
X191000000Y-62800000D03*
D21*
X189000000Y-62800000D03*
%TD*%
%LPD*%
M02*
