M48
; DRILL file {KiCad 8.0.1} date 2024-07-18T00:44:42-0400
; FORMAT={-:-/ absolute / metric / decimal}
; #@! TF.CreationDate,2024-07-18T00:44:42-04:00
; #@! TF.GenerationSoftware,Kicad,Pcbnew,8.0.1
; #@! TF.FileFunction,Plated,1,2,PTH
FMAT,2
METRIC
; #@! TA.AperFunction,Plated,PTH,ViaDrill
T1C0.300
; #@! TA.AperFunction,Plated,PTH,ComponentDrill
T2C0.750
; #@! TA.AperFunction,Plated,PTH,ComponentDrill
T3C1.000
; #@! TA.AperFunction,Plated,PTH,ComponentDrill
T4C1.400
; #@! TA.AperFunction,Plated,PTH,ComponentDrill
T5C3.000
; #@! TA.AperFunction,Plated,PTH,ComponentDrill
T6C4.500
%
G90
G05
T1
X196.5Y-75.25
X197.0Y-73.5
T2
X178.25Y-62.8
X180.25Y-62.8
X182.25Y-62.8
X184.25Y-108.95
X186.25Y-108.95
X188.25Y-108.95
X189.0Y-62.8
X191.0Y-62.8
X193.0Y-62.8
X200.5Y-62.8
X201.0Y-108.7
X202.5Y-62.8
X203.0Y-108.7
X204.5Y-62.8
X205.0Y-108.7
X211.25Y-62.8
X213.25Y-62.8
X215.25Y-62.8
X222.0Y-63.05
X224.0Y-63.05
X226.0Y-63.05
T3
X167.49Y-76.89
X167.49Y-92.13
X170.03Y-76.89
X170.03Y-92.13
X172.57Y-76.89
X172.57Y-92.13
X175.11Y-76.89
X175.11Y-92.13
X177.65Y-76.89
X177.65Y-92.13
X180.19Y-76.89
X180.19Y-92.13
X182.73Y-76.89
X182.73Y-92.13
X185.27Y-76.89
X185.27Y-92.13
X187.81Y-76.89
X187.81Y-92.13
X190.35Y-76.89
X190.35Y-92.13
X192.89Y-76.89
X192.89Y-92.13
X195.43Y-76.89
X195.43Y-92.13
X197.97Y-76.89
X197.97Y-92.13
X200.51Y-76.89
X200.51Y-92.13
X203.05Y-76.89
X203.05Y-92.13
T4
X171.528Y-64.75
X171.528Y-69.75
X232.722Y-64.75
X232.722Y-69.75
X232.75Y-79.75
X232.75Y-84.75
T5
X170.75Y-105.0
X214.0Y-85.75
T6
X226.05Y-105.25
X233.25Y-105.25
M30
