%TF.GenerationSoftware,KiCad,Pcbnew,8.0.1*%
%TF.CreationDate,2024-07-20T14:45:51-04:00*%
%TF.ProjectId,musubwi,6d757375-6277-4692-9e6b-696361645f70,rev?*%
%TF.SameCoordinates,Original*%
%TF.FileFunction,Soldermask,Top*%
%TF.FilePolarity,Negative*%
%FSLAX46Y46*%
G04 Gerber Fmt 4.6, Leading zero omitted, Abs format (unit mm)*
G04 Created by KiCad (PCBNEW 8.0.1) date 2024-07-20 14:45:51*
%MOMM*%
%LPD*%
G01*
G04 APERTURE LIST*
G04 Aperture macros list*
%AMRoundRect*
0 Rectangle with rounded corners*
0 $1 Rounding radius*
0 $2 $3 $4 $5 $6 $7 $8 $9 X,Y pos of 4 corners*
0 Add a 4 corners polygon primitive as box body*
4,1,4,$2,$3,$4,$5,$6,$7,$8,$9,$2,$3,0*
0 Add four circle primitives for the rounded corners*
1,1,$1+$1,$2,$3*
1,1,$1+$1,$4,$5*
1,1,$1+$1,$6,$7*
1,1,$1+$1,$8,$9*
0 Add four rect primitives between the rounded corners*
20,1,$1+$1,$2,$3,$4,$5,0*
20,1,$1+$1,$4,$5,$6,$7,0*
20,1,$1+$1,$6,$7,$8,$9,0*
20,1,$1+$1,$8,$9,$2,$3,0*%
G04 Aperture macros list end*
%ADD10C,6.000000*%
%ADD11RoundRect,0.250000X0.337500X0.475000X-0.337500X0.475000X-0.337500X-0.475000X0.337500X-0.475000X0*%
%ADD12O,1.600000X1.600000*%
%ADD13R,1.600000X1.600000*%
%ADD14O,1.200000X1.750000*%
%ADD15RoundRect,0.250000X-0.350000X-0.625000X0.350000X-0.625000X0.350000X0.625000X-0.350000X0.625000X0*%
%ADD16RoundRect,0.102000X0.500000X-0.800000X0.500000X0.800000X-0.500000X0.800000X-0.500000X-0.800000X0*%
%ADD17RoundRect,0.250000X-0.337500X-0.475000X0.337500X-0.475000X0.337500X0.475000X-0.337500X0.475000X0*%
%ADD18RoundRect,1.500000X-1.500000X-1.500000X1.500000X-1.500000X1.500000X1.500000X-1.500000X1.500000X0*%
%ADD19O,3.600000X2.000000*%
%ADD20RoundRect,0.250000X1.550000X-0.750000X1.550000X0.750000X-1.550000X0.750000X-1.550000X-0.750000X0*%
%ADD21RoundRect,0.250000X0.350000X0.625000X-0.350000X0.625000X-0.350000X-0.625000X0.350000X-0.625000X0*%
%ADD22RoundRect,0.250000X-1.550000X0.750000X-1.550000X-0.750000X1.550000X-0.750000X1.550000X0.750000X0*%
%ADD23RoundRect,0.102000X-0.585000X-0.900000X0.585000X-0.900000X0.585000X0.900000X-0.585000X0.900000X0*%
G04 APERTURE END LIST*
D10*
%TO.C,REF\u002A\u002A*%
X213500000Y-86500000D03*
%TD*%
%TO.C,REF\u002A\u002A*%
X170500000Y-105500000D03*
%TD*%
D11*
%TO.C,C7*%
X185462500Y-98750000D03*
X187537500Y-98750000D03*
%TD*%
D12*
%TO.C,A1*%
X203050000Y-92130000D03*
X200510000Y-92130000D03*
X197970000Y-92130000D03*
X195430000Y-92130000D03*
X192890000Y-92130000D03*
X190350000Y-92130000D03*
X187810000Y-92130000D03*
X185270000Y-92130000D03*
X182730000Y-92130000D03*
X180190000Y-92130000D03*
X177650000Y-92130000D03*
X175110000Y-92130000D03*
X172570000Y-92130000D03*
X170030000Y-92130000D03*
X167490000Y-92130000D03*
X167490000Y-76890000D03*
X170030000Y-76890000D03*
X172570000Y-76890000D03*
X175110000Y-76890000D03*
X177650000Y-76890000D03*
X180190000Y-76890000D03*
X182730000Y-76890000D03*
X185270000Y-76890000D03*
X187810000Y-76890000D03*
X190350000Y-76890000D03*
X192890000Y-76890000D03*
X195430000Y-76890000D03*
X197970000Y-76890000D03*
X200510000Y-76890000D03*
D13*
X203050000Y-76890000D03*
%TD*%
D14*
%TO.C,J4*%
X215250000Y-62800000D03*
X213250000Y-62800000D03*
D15*
X211250000Y-62800000D03*
%TD*%
D16*
%TO.C,SW1*%
X232750000Y-96200000D03*
X230250000Y-93800000D03*
X227750000Y-96200000D03*
%TD*%
D17*
%TO.C,C8*%
X204037500Y-96250000D03*
X201962500Y-96250000D03*
%TD*%
D14*
%TO.C,J1*%
X182250000Y-62800000D03*
X180250000Y-62800000D03*
D15*
X178250000Y-62800000D03*
%TD*%
D10*
%TO.C,J8*%
X233250000Y-105250000D03*
D18*
X226050000Y-105250000D03*
%TD*%
D11*
%TO.C,C9*%
X216462500Y-98250000D03*
X218537500Y-98250000D03*
%TD*%
D19*
%TO.C,J11*%
X232750000Y-79750000D03*
D20*
X232750000Y-84750000D03*
%TD*%
D14*
%TO.C,J6*%
X201000000Y-108700000D03*
X203000000Y-108700000D03*
D21*
X205000000Y-108700000D03*
%TD*%
D19*
%TO.C,J10*%
X171527500Y-69750000D03*
D22*
X171527500Y-64750000D03*
%TD*%
D14*
%TO.C,J5*%
X204500000Y-62800000D03*
X202500000Y-62800000D03*
D15*
X200500000Y-62800000D03*
%TD*%
D17*
%TO.C,C2*%
X180787500Y-72250000D03*
X178712500Y-72250000D03*
%TD*%
D14*
%TO.C,J7*%
X184250000Y-108950000D03*
X186250000Y-108950000D03*
D21*
X188250000Y-108950000D03*
%TD*%
D17*
%TO.C,C3*%
X191537500Y-72250000D03*
X189462500Y-72250000D03*
%TD*%
D23*
%TO.C,F1*%
X218970000Y-94750000D03*
X216030000Y-94750000D03*
%TD*%
D17*
%TO.C,C5*%
X203287500Y-72500000D03*
X201212500Y-72500000D03*
%TD*%
%TO.C,C1*%
X224287500Y-72500000D03*
X222212500Y-72500000D03*
%TD*%
D14*
%TO.C,J2*%
X226000000Y-63050000D03*
X224000000Y-63050000D03*
D15*
X222000000Y-63050000D03*
%TD*%
D19*
%TO.C,J9*%
X232722500Y-64750000D03*
D20*
X232722500Y-69750000D03*
%TD*%
D17*
%TO.C,C4*%
X214037500Y-72500000D03*
X211962500Y-72500000D03*
%TD*%
D11*
%TO.C,C6*%
X201962500Y-99250000D03*
X204037500Y-99250000D03*
%TD*%
D14*
%TO.C,J3*%
X193000000Y-62800000D03*
X191000000Y-62800000D03*
D15*
X189000000Y-62800000D03*
%TD*%
M02*
