  0
SECTION
  2
HEADER
  9
$ACADVER
  1
AC1014
  9
$HANDSEED
  5
FFFF
  9
$INSUNITS
 70
     0
  9
$MEASUREMENT
 70
     1
  0
ENDSEC
  0
SECTION
  2
TABLES
  0
TABLE
  2
VPORT
  5
8
330
0
100
AcDbSymbolTable
 70
     4
  0
VPORT
  5
2E
330
8
100
AcDbSymbolTableRecord
100
AcDbViewportTableRecord
  2
*ACTIVE
 70
     0
 10
0.0
 20
0.0
 11
1.0
 21
1.0
 12
210.0
 22
148.5
 13
0.0
 23
0.0
 14
10.0
 24
10.0
 15
10.0
 25
10.0
 16
0.0
 26
0.0
 36
1.0
 17
0.0
 27
0.0
 37
0.0
 40
341.0
 41
1.24
 42
50.0
 43
0.0
 44
0.0
 50
0.0
 51
0.0
 71
     0
 72
   100
 73
     1
 74
     3
 75
     0
 76
     0
 77
     0
 78
     0
  0
ENDTAB
  0
TABLE
  2
LTYPE
  5
5
330
0
100
AcDbSymbolTable
 70
     1
  0
LTYPE
  5
14
330
5
100
AcDbSymbolTableRecord
100
AcDbLinetypeTableRecord
  2
BYBLOCK
 70
     0
  3

 72
    65
 73
     0
 40
0.0
  0
LTYPE
  5
15
330
5
100
AcDbSymbolTableRecord
100
AcDbLinetypeTableRecord
  2
BYLAYER
 70
     0
  3

 72
    65
 73
     0
 40
0.0
  0
LTYPE
  5
16
330
5
100
AcDbSymbolTableRecord
100
AcDbLinetypeTableRecord
  2
CONTINUOUS
 70
     0
  3
Solid line
 72
    65
 73
     0
 40
0.0
  0
ENDTAB
  0
TABLE
  2
LAYER
  5
2
100
AcDbSymbolTable
 70
2
  0
LAYER
  5
50
100
AcDbSymbolTableRecord
100
AcDbLayerTableRecord
  2
0
 70
0
  6
CONTINUOUS
  0
LAYER
  5
51
100
AcDbSymbolTableRecord
100
AcDbLayerTableRecord
  2
Image
 70
0
  6
CONTINUOUS
  0
ENDTAB
  0
TABLE
  2
STYLE
  5
3
330
0
100
AcDbSymbolTable
 70
     1
  0
STYLE
  5
11
330
3
100
AcDbSymbolTableRecord
100
AcDbTextStyleTableRecord
  2
STANDARD
 70
     0
 40
0.0
 41
1.0
 50
0.0
 71
     0
 42
2.5
  3
txt
  4

  0
ENDTAB
  0
TABLE
  2
VIEW
  5
6
330
0
100
AcDbSymbolTable
 70
     0
  0
ENDTAB
  0
TABLE
  2
UCS
  5
7
330
0
100
AcDbSymbolTable
 70
     0
  0
ENDTAB
  0
TABLE
  2
APPID
  5
9
330
0
100
AcDbSymbolTable
 70
     2
  0
APPID
  5
12
330
9
100
AcDbSymbolTableRecord
100
AcDbRegAppTableRecord
  2
ACAD
 70
     0
  0
ENDTAB
  0
TABLE
  2
DIMSTYLE
  5
A
330
0
100
AcDbSymbolTable
 70
     1
  0
DIMSTYLE
105
27
330
A
100
AcDbSymbolTableRecord
100
AcDbDimStyleTableRecord
  2
ISO-25
 70
     0
  3

  4

  5

  6

  7

 40
1.0
 41
2.5
 42
0.625
 43
3.75
 44
1.25
 45
0.0
 46
0.0
 47
0.0
 48
0.0
140
2.5
141
2.5
142
0.0
143
0.03937007874016
144
1.0
145
0.0
146
1.0
147
0.625
 71
     0
 72
     0
 73
     0
 74
     0
 75
     0
 76
     0
 77
     1
 78
     8
170
     0
171
     3
172
     1
173
     0
174
     0
175
     0
176
     0
177
     0
178
     0
270
     2
271
     2
272
     2
273
     2
274
     3
340
11
275
     0
280
     0
281
     0
282
     0
283
     0
284
     8
285
     0
286
     0
287
     3
288
     0
  0
ENDTAB
  0
TABLE
  2
BLOCK_RECORD
  5
1
330
0
100
AcDbSymbolTable
 70
     1
  0
BLOCK_RECORD
  5
1F
330
1
100
AcDbSymbolTableRecord
100
AcDbBlockTableRecord
  2
*MODEL_SPACE
  0
BLOCK_RECORD
  5
1B
330
1
100
AcDbSymbolTableRecord
100
AcDbBlockTableRecord
  2
*PAPER_SPACE
  0
ENDTAB
  0
ENDSEC
  0
SECTION
  2
BLOCKS
  0
BLOCK
  5
20
330
1F
100
AcDbEntity
  8
0
100
AcDbBlockBegin
  2
*MODEL_SPACE
 70
     0
 10
0.0
 20
0.0
 30
0.0
  3
*MODEL_SPACE
  1

  0
ENDBLK
  5
21
330
1F
100
AcDbEntity
  8
0
100
AcDbBlockEnd
  0
BLOCK
  5
1C
330
1B
100
AcDbEntity
 67
     1
  8
0
100
AcDbBlockBegin
  2
*PAPER_SPACE
  1

  0
ENDBLK
  5
1D
330
1B
100
AcDbEntity
 67
     1
  8
0
100
AcDbBlockEnd
  0
ENDSEC
  0
SECTION
  2
ENTITIES
  0
SPLINE
  5
100
100
AcDbEntity
  8
Image
 62
7
100
AcDbSpline
 70
8
 71
3
 72
8
 73
4
 74
0
 40
0
 40
0
 40
0
 40
0
 40
1
 40
1
 40
1
 40
1
 10
15.557576
 20
428.760535
 30
0.0
 10
15.496716
 20
428.800755
 30
0.0
 10
15.473156
 20
428.804685
 30
0.0
 10
15.423929
 20
428.782815
 30
0.0
  0
SPLINE
  5
101
100
AcDbEntity
  8
Image
 62
7
100
AcDbSpline
 70
8
 71
3
 72
8
 73
4
 74
0
 40
0
 40
0
 40
0
 40
0
 40
1
 40
1
 40
1
 40
1
 10
15.423929
 20
428.782815
 30
0.0
 10
15.381229
 20
428.763845
 30
0.0
 10
15.338739
 20
428.763895
 30
0.0
 10
15.275093
 20
428.782974
 30
0.0
  0
SPLINE
  5
102
100
AcDbEntity
  8
Image
 62
7
100
AcDbSpline
 70
8
 71
3
 72
8
 73
4
 74
0
 40
0
 40
0
 40
0
 40
0
 40
1
 40
1
 40
1
 40
1
 10
15.275093
 20
428.782974
 30
0.0
 10
15.226103
 20
428.797664
 30
0.0
 10
15.157479
 20
428.809704
 30
0.0
 10
15.122595
 20
428.809734
 30
0.0
  0
SPLINE
  5
103
100
AcDbEntity
  8
Image
 62
7
100
AcDbSpline
 70
8
 71
3
 72
8
 73
4
 74
0
 40
0
 40
0
 40
0
 40
0
 40
1
 40
1
 40
1
 40
1
 10
15.122595
 20
428.809734
 30
0.0
 10
15.087715
 20
428.809764
 30
0.0
 10
15.030035
 20
428.832734
 30
0.0
 10
14.994423
 20
428.860784
 30
0.0
  0
SPLINE
  5
104
100
AcDbEntity
  8
Image
 62
7
100
AcDbSpline
 70
8
 71
3
 72
8
 73
4
 74
0
 40
0
 40
0
 40
0
 40
0
 40
1
 40
1
 40
1
 40
1
 10
14.994423
 20
428.860784
 30
0.0
 10
14.958813
 20
428.888834
 30
0.0
 10
14.911723
 20
428.911784
 30
0.0
 10
14.889771
 20
428.911784
 30
0.0
  0
SPLINE
  5
105
100
AcDbEntity
  8
Image
 62
7
100
AcDbSpline
 70
8
 71
3
 72
8
 73
4
 74
0
 40
0
 40
0
 40
0
 40
0
 40
1
 40
1
 40
1
 40
1
 10
14.889771
 20
428.911784
 30
0.0
 10
14.867821
 20
428.911784
 30
0.0
 10
14.836721
 20
428.928534
 30
0.0
 10
14.820661
 20
428.948994
 30
0.0
  0
SPLINE
  5
106
100
AcDbEntity
  8
Image
 62
7
100
AcDbSpline
 70
8
 71
3
 72
8
 73
4
 74
0
 40
0
 40
0
 40
0
 40
0
 40
1
 40
1
 40
1
 40
1
 10
14.820661
 20
428.948994
 30
0.0
 10
14.802561
 20
428.972054
 30
0.0
 10
14.786881
 20
428.976754
 30
0.0
 10
14.779401
 20
428.961334
 30
0.0
  0
SPLINE
  5
107
100
AcDbEntity
  8
Image
 62
7
100
AcDbSpline
 70
8
 71
3
 72
8
 73
4
 74
0
 40
0
 40
0
 40
0
 40
0
 40
1
 40
1
 40
1
 40
1
 10
14.779401
 20
428.961334
 30
0.0
 10
14.759341
 20
428.919964
 30
0.0
 10
14.628019
 20
428.933724
 30
0.0
 10
14.568905
 20
428.983394
 30
0.0
  0
SPLINE
  5
108
100
AcDbEntity
  8
Image
 62
7
100
AcDbSpline
 70
8
 71
3
 72
8
 73
4
 74
0
 40
0
 40
0
 40
0
 40
0
 40
1
 40
1
 40
1
 40
1
 10
14.568905
 20
428.983394
 30
0.0
 10
14.524575
 20
429.020634
 30
0.0
 10
14.490665
 20
429.027364
 30
0.0
 10
14.400063
 20
429.016894
 30
0.0
  0
SPLINE
  5
109
100
AcDbEntity
  8
Image
 62
7
100
AcDbSpline
 70
8
 71
3
 72
8
 73
4
 74
0
 40
0
 40
0
 40
0
 40
0
 40
1
 40
1
 40
1
 40
1
 10
14.400063
 20
429.016894
 30
0.0
 10
14.309863
 20
429.006474
 30
0.0
 10
14.275676
 20
429.013094
 30
0.0
 10
14.232811
 20
429.049634
 30
0.0
  0
SPLINE
  5
10a
100
AcDbEntity
  8
Image
 62
7
100
AcDbSpline
 70
8
 71
3
 72
8
 73
4
 74
0
 40
0
 40
0
 40
0
 40
0
 40
1
 40
1
 40
1
 40
1
 10
14.232811
 20
429.049634
 30
0.0
 10
14.199031
 20
429.078374
 30
0.0
 10
14.139201
 20
429.097074
 30
0.0
 10
14.072413
 20
429.099764
 30
0.0
  0
SPLINE
  5
10b
100
AcDbEntity
  8
Image
 62
7
100
AcDbSpline
 70
8
 71
3
 72
8
 73
4
 74
0
 40
0
 40
0
 40
0
 40
0
 40
1
 40
1
 40
1
 40
1
 10
14.072413
 20
429.099764
 30
0.0
 10
13.878657
 20
429.107564
 30
0.0
 10
13.685073
 20
429.162944
 30
0.0
 10
13.685073
 20
429.210584
 30
0.0
  0
SPLINE
  5
10c
100
AcDbEntity
  8
Image
 62
7
100
AcDbSpline
 70
8
 71
3
 72
8
 73
4
 74
0
 40
0
 40
0
 40
0
 40
0
 40
1
 40
1
 40
1
 40
1
 10
13.685073
 20
429.210584
 30
0.0
 10
13.685073
 20
429.222704
 30
0.0
 10
13.668163
 20
429.232624
 30
0.0
 10
13.647483
 20
429.232624
 30
0.0
  0
SPLINE
  5
10d
100
AcDbEntity
  8
Image
 62
7
100
AcDbSpline
 70
8
 71
3
 72
8
 73
4
 74
0
 40
0
 40
0
 40
0
 40
0
 40
1
 40
1
 40
1
 40
1
 10
13.647483
 20
429.232624
 30
0.0
 10
13.626803
 20
429.232624
 30
0.0
 10
13.604493
 20
429.243764
 30
0.0
 10
13.597883
 20
429.257374
 30
0.0
  0
SPLINE
  5
10e
100
AcDbEntity
  8
Image
 62
7
100
AcDbSpline
 70
8
 71
3
 72
8
 73
4
 74
0
 40
0
 40
0
 40
0
 40
0
 40
1
 40
1
 40
1
 40
1
 10
13.597883
 20
429.257374
 30
0.0
 10
13.589983
 20
429.273664
 30
0.0
 10
13.572083
 20
429.272714
 30
0.0
 10
13.545523
 20
429.254574
 30
0.0
  0
SPLINE
  5
10f
100
AcDbEntity
  8
Image
 62
7
100
AcDbSpline
 70
8
 71
3
 72
8
 73
4
 74
0
 40
0
 40
0
 40
0
 40
0
 40
1
 40
1
 40
1
 40
1
 10
13.545523
 20
429.254574
 30
0.0
 10
13.487483
 20
429.214984
 30
0.0
 10
13.371459
 20
429.241954
 30
0.0
 10
13.287666
 20
429.314514
 30
0.0
  0
SPLINE
  5
110
100
AcDbEntity
  8
Image
 62
7
100
AcDbSpline
 70
8
 71
3
 72
8
 73
4
 74
0
 40
0
 40
0
 40
0
 40
0
 40
1
 40
1
 40
1
 40
1
 10
13.287666
 20
429.314514
 30
0.0
 10
13.228466
 20
429.365774
 30
0.0
 10
13.208796
 20
429.371974
 30
0.0
 10
13.179461
 20
429.348634
 30
0.0
  0
SPLINE
  5
111
100
AcDbEntity
  8
Image
 62
7
100
AcDbSpline
 70
8
 71
3
 72
8
 73
4
 74
0
 40
0
 40
0
 40
0
 40
0
 40
1
 40
1
 40
1
 40
1
 10
13.179461
 20
429.348634
 30
0.0
 10
13.151861
 20
429.326674
 30
0.0
 10
13.129021
 20
429.327844
 30
0.0
 10
13.080251
 20
429.353734
 30
0.0
  0
SPLINE
  5
112
100
AcDbEntity
  8
Image
 62
7
100
AcDbSpline
 70
8
 71
3
 72
8
 73
4
 74
0
 40
0
 40
0
 40
0
 40
0
 40
1
 40
1
 40
1
 40
1
 10
13.080251
 20
429.353734
 30
0.0
 10
13.045401
 20
429.372224
 30
0.0
 10
12.982031
 20
429.392584
 30
0.0
 10
12.939428
 20
429.398994
 30
0.0
  0
SPLINE
  5
113
100
AcDbEntity
  8
Image
 62
7
100
AcDbSpline
 70
8
 71
3
 72
8
 73
4
 74
0
 40
0
 40
0
 40
0
 40
0
 40
1
 40
1
 40
1
 40
1
 10
12.939428
 20
429.398994
 30
0.0
 10
12.896818
 20
429.405394
 30
0.0
 10
12.835815
 20
429.435554
 30
0.0
 10
12.803859
 20
429.466004
 30
0.0
  0
SPLINE
  5
114
100
AcDbEntity
  8
Image
 62
7
100
AcDbSpline
 70
8
 71
3
 72
8
 73
4
 74
0
 40
0
 40
0
 40
0
 40
0
 40
1
 40
1
 40
1
 40
1
 10
12.803859
 20
429.466004
 30
0.0
 10
12.771899
 20
429.496454
 30
0.0
 10
12.705489
 20
429.543994
 30
0.0
 10
12.656264
 20
429.571633
 30
0.0
  0
SPLINE
  5
115
100
AcDbEntity
  8
Image
 62
7
100
AcDbSpline
 70
8
 71
3
 72
8
 73
4
 74
0
 40
0
 40
0
 40
0
 40
0
 40
1
 40
1
 40
1
 40
1
 10
12.656264
 20
429.571633
 30
0.0
 10
12.556494
 20
429.627663
 30
0.0
 10
12.525443
 20
429.670103
 30
0.0
 10
12.568734
 20
429.691269
 30
0.0
  0
SPLINE
  5
116
100
AcDbEntity
  8
Image
 62
7
100
AcDbSpline
 70
8
 71
3
 72
8
 73
4
 74
0
 40
0
 40
0
 40
0
 40
0
 40
1
 40
1
 40
1
 40
1
 10
12.568734
 20
429.691269
 30
0.0
 10
12.584564
 20
429.698969
 30
0.0
 10
12.615614
 20
429.682269
 30
0.0
 10
12.637744
 20
429.654069
 30
0.0
  0
SPLINE
  5
117
100
AcDbEntity
  8
Image
 62
7
100
AcDbSpline
 70
8
 71
3
 72
8
 73
4
 74
0
 40
0
 40
0
 40
0
 40
0
 40
1
 40
1
 40
1
 40
1
 10
12.637744
 20
429.654069
 30
0.0
 10
12.659864
 20
429.625869
 30
0.0
 10
12.698704
 20
429.602799
 30
0.0
 10
12.724034
 20
429.602799
 30
0.0
  0
SPLINE
  5
118
100
AcDbEntity
  8
Image
 62
7
100
AcDbSpline
 70
8
 71
3
 72
8
 73
4
 74
0
 40
0
 40
0
 40
0
 40
0
 40
1
 40
1
 40
1
 40
1
 10
12.724034
 20
429.602799
 30
0.0
 10
12.749364
 20
429.602799
 30
0.0
 10
12.782194
 20
429.579569
 30
0.0
 10
12.796984
 20
429.551179
 30
0.0
  0
SPLINE
  5
119
100
AcDbEntity
  8
Image
 62
7
100
AcDbSpline
 70
8
 71
3
 72
8
 73
4
 74
0
 40
0
 40
0
 40
0
 40
0
 40
1
 40
1
 40
1
 40
1
 10
12.796984
 20
429.551179
 30
0.0
 10
12.822464
 20
429.502279
 30
0.0
 10
12.999815
 20
429.434763
 30
0.0
 10
12.976500
 20
429.482839
 30
0.0
  0
SPLINE
  5
11a
100
AcDbEntity
  8
Image
 62
7
100
AcDbSpline
 70
8
 71
3
 72
8
 73
4
 74
0
 40
0
 40
0
 40
0
 40
0
 40
1
 40
1
 40
1
 40
1
 10
12.976500
 20
429.482839
 30
0.0
 10
12.958020
 20
429.520939
 30
0.0
 10
12.988510
 20
429.505219
 30
0.0
 10
13.031040
 20
429.454719
 30
0.0
  0
SPLINE
  5
11b
100
AcDbEntity
  8
Image
 62
7
100
AcDbSpline
 70
8
 71
3
 72
8
 73
4
 74
0
 40
0
 40
0
 40
0
 40
0
 40
1
 40
1
 40
1
 40
1
 10
13.031040
 20
429.454719
 30
0.0
 10
13.074480
 20
429.403149
 30
0.0
 10
13.170975
 20
429.389809
 30
0.0
 10
13.219221
 20
429.428709
 30
0.0
  0
SPLINE
  5
11c
100
AcDbEntity
  8
Image
 62
7
100
AcDbSpline
 70
8
 71
3
 72
8
 73
4
 74
0
 40
0
 40
0
 40
0
 40
0
 40
1
 40
1
 40
1
 40
1
 10
13.219221
 20
429.428709
 30
0.0
 10
13.239191
 20
429.444819
 30
0.0
 10
13.266161
 20
429.430109
 30
0.0
 10
13.313141
 20
429.377559
 30
0.0
  0
SPLINE
  5
11d
100
AcDbEntity
  8
Image
 62
7
100
AcDbSpline
 70
8
 71
3
 72
8
 73
4
 74
0
 40
0
 40
0
 40
0
 40
0
 40
1
 40
1
 40
1
 40
1
 10
13.313141
 20
429.377559
 30
0.0
 10
13.371741
 20
429.311989
 30
0.0
 10
13.391161
 20
429.304489
 30
0.0
 10
13.488473
 20
429.309839
 30
0.0
  0
SPLINE
  5
11e
100
AcDbEntity
  8
Image
 62
7
100
AcDbSpline
 70
8
 71
3
 72
8
 73
4
 74
0
 40
0
 40
0
 40
0
 40
0
 40
1
 40
1
 40
1
 40
1
 10
13.488473
 20
429.309839
 30
0.0
 10
13.610161
 20
429.316539
 30
0.0
 10
13.673065
 20
429.296729
 30
0.0
 10
13.739196
 20
429.230939
 30
0.0
  0
SPLINE
  5
11f
100
AcDbEntity
  8
Image
 62
7
100
AcDbSpline
 70
8
 71
3
 72
8
 73
4
 74
0
 40
0
 40
0
 40
0
 40
0
 40
1
 40
1
 40
1
 40
1
 10
13.739196
 20
429.230939
 30
0.0
 10
13.770386
 20
429.199909
 30
0.0
 10
13.803116
 20
429.190729
 30
0.0
 10
13.848892
 20
429.200199
 30
0.0
  0
SPLINE
  5
120
100
AcDbEntity
  8
Image
 62
7
100
AcDbSpline
 70
8
 71
3
 72
8
 73
4
 74
0
 40
0
 40
0
 40
0
 40
0
 40
1
 40
1
 40
1
 40
1
 10
13.848892
 20
429.200199
 30
0.0
 10
13.892132
 20
429.209099
 30
0.0
 10
13.929202
 20
429.200235
 30
0.0
 10
13.958838
 20
429.173789
 30
0.0
  0
SPLINE
  5
121
100
AcDbEntity
  8
Image
 62
7
100
AcDbSpline
 70
8
 71
3
 72
8
 73
4
 74
0
 40
0
 40
0
 40
0
 40
0
 40
1
 40
1
 40
1
 40
1
 10
13.958838
 20
429.173789
 30
0.0
 10
14.013768
 20
429.124769
 30
0.0
 10
14.089185
 20
429.123629
 30
0.0
 10
14.138395
 20
429.171089
 30
0.0
  0
SPLINE
  5
122
100
AcDbEntity
  8
Image
 62
7
100
AcDbSpline
 70
8
 71
3
 72
8
 73
4
 74
0
 40
0
 40
0
 40
0
 40
0
 40
1
 40
1
 40
1
 40
1
 10
14.138395
 20
429.171089
 30
0.0
 10
14.171595
 20
429.203109
 30
0.0
 10
14.179785
 20
429.200619
 30
0.0
 10
14.219055
 20
429.146629
 30
0.0
  0
SPLINE
  5
123
100
AcDbEntity
  8
Image
 62
7
100
AcDbSpline
 70
8
 71
3
 72
8
 73
4
 74
0
 40
0
 40
0
 40
0
 40
0
 40
1
 40
1
 40
1
 40
1
 10
14.219055
 20
429.146629
 30
0.0
 10
14.275475
 20
429.069049
 30
0.0
 10
14.352766
 20
429.045266
 30
0.0
 10
14.431111
 20
429.081369
 30
0.0
  0
SPLINE
  5
124
100
AcDbEntity
  8
Image
 62
7
100
AcDbSpline
 70
8
 71
3
 72
8
 73
4
 74
0
 40
0
 40
0
 40
0
 40
0
 40
1
 40
1
 40
1
 40
1
 10
14.431111
 20
429.081369
 30
0.0
 10
14.491901
 20
429.109379
 30
0.0
 10
14.556571
 20
429.098469
 30
0.0
 10
14.556571
 20
429.060209
 30
0.0
  0
SPLINE
  5
125
100
AcDbEntity
  8
Image
 62
7
100
AcDbSpline
 70
8
 71
3
 72
8
 73
4
 74
0
 40
0
 40
0
 40
0
 40
0
 40
1
 40
1
 40
1
 40
1
 10
14.556571
 20
429.060209
 30
0.0
 10
14.556571
 20
429.024139
 30
0.0
 10
14.663296
 20
428.986859
 30
0.0
 10
14.759925
 20
428.989179
 30
0.0
  0
SPLINE
  5
126
100
AcDbEntity
  8
Image
 62
7
100
AcDbSpline
 70
8
 71
3
 72
8
 73
4
 74
0
 40
0
 40
0
 40
0
 40
0
 40
1
 40
1
 40
1
 40
1
 10
14.759925
 20
428.989179
 30
0.0
 10
14.887881
 20
428.992279
 30
0.0
 10
14.980383
 20
428.964749
 30
0.0
 10
15.044134
 20
428.904689
 30
0.0
  0
SPLINE
  5
127
100
AcDbEntity
  8
Image
 62
7
100
AcDbSpline
 70
8
 71
3
 72
8
 73
4
 74
0
 40
0
 40
0
 40
0
 40
0
 40
1
 40
1
 40
1
 40
1
 10
15.044134
 20
428.904689
 30
0.0
 10
15.081354
 20
428.869619
 30
0.0
 10
15.112984
 20
428.859859
 30
0.0
 10
15.154832
 20
428.870529
 30
0.0
  0
SPLINE
  5
128
100
AcDbEntity
  8
Image
 62
7
100
AcDbSpline
 70
8
 71
3
 72
8
 73
4
 74
0
 40
0
 40
0
 40
0
 40
0
 40
1
 40
1
 40
1
 40
1
 10
15.154832
 20
428.870529
 30
0.0
 10
15.188812
 20
428.879229
 30
0.0
 10
15.241782
 20
428.870357
 30
0.0
 10
15.280935
 20
428.849509
 30
0.0
  0
SPLINE
  5
129
100
AcDbEntity
  8
Image
 62
7
100
AcDbSpline
 70
8
 71
3
 72
8
 73
4
 74
0
 40
0
 40
0
 40
0
 40
0
 40
1
 40
1
 40
1
 40
1
 10
15.280935
 20
428.849509
 30
0.0
 10
15.351725
 20
428.811819
 30
0.0
 10
15.395617
 20
428.820299
 30
0.0
 10
15.452602
 20
428.882699
 30
0.0
  0
SPLINE
  5
12a
100
AcDbEntity
  8
Image
 62
7
100
AcDbSpline
 70
8
 71
3
 72
8
 73
4
 74
0
 40
0
 40
0
 40
0
 40
0
 40
1
 40
1
 40
1
 40
1
 10
15.452602
 20
428.882699
 30
0.0
 10
15.483442
 20
428.916469
 30
0.0
 10
15.489462
 20
428.915519
 30
0.0
 10
15.513832
 20
428.873099
 30
0.0
  0
SPLINE
  5
12b
100
AcDbEntity
  8
Image
 62
7
100
AcDbSpline
 70
8
 71
3
 72
8
 73
4
 74
0
 40
0
 40
0
 40
0
 40
0
 40
1
 40
1
 40
1
 40
1
 10
15.513832
 20
428.873099
 30
0.0
 10
15.528702
 20
428.847199
 30
0.0
 10
15.537962
 20
428.820029
 30
0.0
 10
15.534422
 20
428.812739
 30
0.0
  0
SPLINE
  5
12c
100
AcDbEntity
  8
Image
 62
7
100
AcDbSpline
 70
8
 71
3
 72
8
 73
4
 74
0
 40
0
 40
0
 40
0
 40
0
 40
1
 40
1
 40
1
 40
1
 10
15.534422
 20
428.812739
 30
0.0
 10
15.530922
 20
428.805439
 30
0.0
 10
15.583112
 20
428.796319
 30
0.0
 10
15.650475
 20
428.792469
 30
0.0
  0
SPLINE
  5
12d
100
AcDbEntity
  8
Image
 62
7
100
AcDbSpline
 70
8
 71
3
 72
8
 73
4
 74
0
 40
0
 40
0
 40
0
 40
0
 40
1
 40
1
 40
1
 40
1
 10
15.650475
 20
428.792469
 30
0.0
 10
15.717845
 20
428.788569
 30
0.0
 10
15.777898
 20
428.795669
 30
0.0
 10
15.783932
 20
428.808079
 30
0.0
  0
SPLINE
  5
12e
100
AcDbEntity
  8
Image
 62
7
100
AcDbSpline
 70
8
 71
3
 72
8
 73
4
 74
0
 40
0
 40
0
 40
0
 40
0
 40
1
 40
1
 40
1
 40
1
 10
15.783932
 20
428.808079
 30
0.0
 10
15.797242
 20
428.835529
 30
0.0
 10
15.972886
 20
428.821079
 30
0.0
 10
16.069318
 20
428.784599
 30
0.0
  0
SPLINE
  5
12f
100
AcDbEntity
  8
Image
 62
7
100
AcDbSpline
 70
8
 71
3
 72
8
 73
4
 74
0
 40
0
 40
0
 40
0
 40
0
 40
1
 40
1
 40
1
 40
1
 10
16.069318
 20
428.784599
 30
0.0
 10
16.125738
 20
428.763259
 30
0.0
 10
16.152328
 20
428.766089
 30
0.0
 10
16.207217
 20
428.799279
 30
0.0
  0
SPLINE
  5
130
100
AcDbEntity
  8
Image
 62
7
100
AcDbSpline
 70
8
 71
3
 72
8
 73
4
 74
0
 40
0
 40
0
 40
0
 40
0
 40
1
 40
1
 40
1
 40
1
 10
16.207217
 20
428.799279
 30
0.0
 10
16.244617
 20
428.821899
 30
0.0
 10
16.293397
 20
428.842139
 30
0.0
 10
16.315628
 20
428.844279
 30
0.0
  0
SPLINE
  5
131
100
AcDbEntity
  8
Image
 62
7
100
AcDbSpline
 70
8
 71
3
 72
8
 73
4
 74
0
 40
0
 40
0
 40
0
 40
0
 40
1
 40
1
 40
1
 40
1
 10
16.315628
 20
428.844279
 30
0.0
 10
16.337858
 20
428.846379
 30
0.0
 10
16.352138
 20
428.853179
 30
0.0
 10
16.347358
 20
428.859229
 30
0.0
  0
SPLINE
  5
132
100
AcDbEntity
  8
Image
 62
7
100
AcDbSpline
 70
8
 71
3
 72
8
 73
4
 74
0
 40
0
 40
0
 40
0
 40
0
 40
1
 40
1
 40
1
 40
1
 10
16.347358
 20
428.859229
 30
0.0
 10
16.322798
 20
428.890529
 30
0.0
 10
16.385838
 20
428.931649
 30
0.0
 10
16.441218
 20
428.920459
 30
0.0
  0
SPLINE
  5
133
100
AcDbEntity
  8
Image
 62
7
100
AcDbSpline
 70
8
 71
3
 72
8
 73
4
 74
0
 40
0
 40
0
 40
0
 40
0
 40
1
 40
1
 40
1
 40
1
 10
16.441218
 20
428.920459
 30
0.0
 10
16.488008
 20
428.910959
 30
0.0
 10
16.514598
 20
428.921859
 30
0.0
 10
16.551005
 20
428.965449
 30
0.0
  0
SPLINE
  5
134
100
AcDbEntity
  8
Image
 62
7
100
AcDbSpline
 70
8
 71
3
 72
8
 73
4
 74
0
 40
0
 40
0
 40
0
 40
0
 40
1
 40
1
 40
1
 40
1
 10
16.551005
 20
428.965449
 30
0.0
 10
16.577435
 20
428.997059
 30
0.0
 10
16.604885
 20
429.020509
 30
0.0
 10
16.612015
 20
429.017569
 30
0.0
  0
SPLINE
  5
135
100
AcDbEntity
  8
Image
 62
7
100
AcDbSpline
 70
8
 71
3
 72
8
 73
4
 74
0
 40
0
 40
0
 40
0
 40
0
 40
1
 40
1
 40
1
 40
1
 10
16.612015
 20
429.017569
 30
0.0
 10
16.619115
 20
429.014669
 30
0.0
 10
16.620515
 20
429.054749
 30
0.0
 10
16.615015
 20
429.106729
 30
0.0
  0
SPLINE
  5
136
100
AcDbEntity
  8
Image
 62
7
100
AcDbSpline
 70
8
 71
3
 72
8
 73
4
 74
0
 40
0
 40
0
 40
0
 40
0
 40
1
 40
1
 40
1
 40
1
 10
16.615015
 20
429.106729
 30
0.0
 10
16.605715
 20
429.195419
 30
0.0
 10
16.608915
 20
429.202949
 30
0.0
 10
16.667655
 20
429.229044
 30
0.0
  0
SPLINE
  5
137
100
AcDbEntity
  8
Image
 62
7
100
AcDbSpline
 70
8
 71
3
 72
8
 73
4
 74
0
 40
0
 40
0
 40
0
 40
0
 40
1
 40
1
 40
1
 40
1
 10
16.667655
 20
429.229044
 30
0.0
 10
16.723405
 20
429.253804
 30
0.0
 10
16.736505
 20
429.250134
 30
0.0
 10
16.787536
 20
429.195414
 30
0.0
  0
SPLINE
  5
138
100
AcDbEntity
  8
Image
 62
7
100
AcDbSpline
 70
8
 71
3
 72
8
 73
4
 74
0
 40
0
 40
0
 40
0
 40
0
 40
1
 40
1
 40
1
 40
1
 10
16.787536
 20
429.195414
 30
0.0
 10
16.864016
 20
429.113404
 30
0.0
 10
16.928609
 20
429.117334
 30
0.0
 10
17.000023
 20
429.208334
 30
0.0
  0
SPLINE
  5
139
100
AcDbEntity
  8
Image
 62
7
100
AcDbSpline
 70
8
 71
3
 72
8
 73
4
 74
0
 40
0
 40
0
 40
0
 40
0
 40
1
 40
1
 40
1
 40
1
 10
17.000023
 20
429.208334
 30
0.0
 10
17.073553
 20
429.302044
 30
0.0
 10
17.127390
 20
429.339128
 30
0.0
 10
17.163933
 20
429.321259
 30
0.0
  0
SPLINE
  5
13a
100
AcDbEntity
  8
Image
 62
7
100
AcDbSpline
 70
8
 71
3
 72
8
 73
4
 74
0
 40
0
 40
0
 40
0
 40
0
 40
1
 40
1
 40
1
 40
1
 10
17.163933
 20
429.321259
 30
0.0
 10
17.179973
 20
429.313459
 30
0.0
 10
17.187293
 20
429.317959
 30
0.0
 10
17.180643
 20
429.331699
 30
0.0
  0
SPLINE
  5
13b
100
AcDbEntity
  8
Image
 62
7
100
AcDbSpline
 70
8
 71
3
 72
8
 73
4
 74
0
 40
0
 40
0
 40
0
 40
0
 40
1
 40
1
 40
1
 40
1
 10
17.180643
 20
429.331699
 30
0.0
 10
17.174143
 20
429.345119
 30
0.0
 10
17.176543
 20
429.356099
 30
0.0
 10
17.186143
 20
429.356099
 30
0.0
  0
SPLINE
  5
13c
100
AcDbEntity
  8
Image
 62
7
100
AcDbSpline
 70
8
 71
3
 72
8
 73
4
 74
0
 40
0
 40
0
 40
0
 40
0
 40
1
 40
1
 40
1
 40
1
 10
17.186143
 20
429.356099
 30
0.0
 10
17.195643
 20
429.356099
 30
0.0
 10
17.228843
 20
429.389109
 30
0.0
 10
17.259913
 20
429.429449
 30
0.0
  0
SPLINE
  5
13d
100
AcDbEntity
  8
Image
 62
7
100
AcDbSpline
 70
8
 71
3
 72
8
 73
4
 74
0
 40
0
 40
0
 40
0
 40
0
 40
1
 40
1
 40
1
 40
1
 10
17.259913
 20
429.429449
 30
0.0
 10
17.290983
 20
429.469799
 30
0.0
 10
17.327813
 20
429.503109
 30
0.0
 10
17.341753
 20
429.503489
 30
0.0
  0
SPLINE
  5
13e
100
AcDbEntity
  8
Image
 62
7
100
AcDbSpline
 70
8
 71
3
 72
8
 73
4
 74
0
 40
0
 40
0
 40
0
 40
0
 40
1
 40
1
 40
1
 40
1
 10
17.341753
 20
429.503489
 30
0.0
 10
17.355703
 20
429.503868
 30
0.0
 10
17.361463
 20
429.515809
 30
0.0
 10
17.354563
 20
429.530039
 30
0.0
  0
SPLINE
  5
13f
100
AcDbEntity
  8
Image
 62
7
100
AcDbSpline
 70
8
 71
3
 72
8
 73
4
 74
0
 40
0
 40
0
 40
0
 40
0
 40
1
 40
1
 40
1
 40
1
 10
17.354563
 20
429.530039
 30
0.0
 10
17.347663
 20
429.544259
 30
0.0
 10
17.364583
 20
429.584649
 30
0.0
 10
17.392153
 20
429.619779
 30
0.0
  0
SPLINE
  5
140
100
AcDbEntity
  8
Image
 62
7
100
AcDbSpline
 70
8
 71
3
 72
8
 73
4
 74
0
 40
0
 40
0
 40
0
 40
0
 40
1
 40
1
 40
1
 40
1
 10
17.392153
 20
429.619779
 30
0.0
 10
17.419723
 20
429.654919
 30
0.0
 10
17.442283
 20
429.693259
 30
0.0
 10
17.442283
 20
429.704979
 30
0.0
  0
SPLINE
  5
141
100
AcDbEntity
  8
Image
 62
7
100
AcDbSpline
 70
8
 71
3
 72
8
 73
4
 74
0
 40
0
 40
0
 40
0
 40
0
 40
1
 40
1
 40
1
 40
1
 10
17.442283
 20
429.704979
 30
0.0
 10
17.442283
 20
429.716709
 30
0.0
 10
17.463553
 20
429.726289
 30
0.0
 10
17.489553
 20
429.726289
 30
0.0
  0
SPLINE
  5
142
100
AcDbEntity
  8
Image
 62
7
100
AcDbSpline
 70
8
 71
3
 72
8
 73
4
 74
0
 40
0
 40
0
 40
0
 40
0
 40
1
 40
1
 40
1
 40
1
 10
17.489553
 20
429.726289
 30
0.0
 10
17.515553
 20
429.726289
 30
0.0
 10
17.541163
 20
429.735189
 30
0.0
 10
17.546453
 20
429.746139
 30
0.0
  0
SPLINE
  5
143
100
AcDbEntity
  8
Image
 62
7
100
AcDbSpline
 70
8
 71
3
 72
8
 73
4
 74
0
 40
0
 40
0
 40
0
 40
0
 40
1
 40
1
 40
1
 40
1
 10
17.546453
 20
429.746139
 30
0.0
 10
17.561253
 20
429.776669
 30
0.0
 10
17.603273
 20
431.817698
 30
0.0
 10
17.590003
 20
431.861764
 30
0.0
  0
SPLINE
  5
144
100
AcDbEntity
  8
Image
 62
7
100
AcDbSpline
 70
8
 71
3
 72
8
 73
4
 74
0
 40
0
 40
0
 40
0
 40
0
 40
1
 40
1
 40
1
 40
1
 10
17.590003
 20
431.861764
 30
0.0
 10
17.579893
 20
431.895344
 30
0.0
 10
17.567243
 20
431.892484
 30
0.0
 10
17.495773
 20
431.840474
 30
0.0
  0
SPLINE
  5
145
100
AcDbEntity
  8
Image
 62
7
100
AcDbSpline
 70
8
 71
3
 72
8
 73
4
 74
0
 40
0
 40
0
 40
0
 40
0
 40
1
 40
1
 40
1
 40
1
 10
17.495773
 20
431.840474
 30
0.0
 10
17.178149
 20
431.609327
 30
0.0
 10
16.722261
 20
431.342958
 30
0.0
 10
16.500885
 20
431.259174
 30
0.0
  0
SPLINE
  5
146
100
AcDbEntity
  8
Image
 62
7
100
AcDbSpline
 70
8
 71
3
 72
8
 73
4
 74
0
 40
0
 40
0
 40
0
 40
0
 40
1
 40
1
 40
1
 40
1
 10
16.500885
 20
431.259174
 30
0.0
 10
16.331773
 20
431.195174
 30
0.0
 10
16.102628
 20
431.191114
 30
0.0
 10
15.677747
 20
431.244594
 30
0.0
  0
SPLINE
  5
147
100
AcDbEntity
  8
Image
 62
7
100
AcDbSpline
 70
8
 71
3
 72
8
 73
4
 74
0
 40
0
 40
0
 40
0
 40
0
 40
1
 40
1
 40
1
 40
1
 10
15.677747
 20
431.244594
 30
0.0
 10
14.768098
 20
431.359096
 30
0.0
 10
13.407208
 20
431.687768
 30
0.0
 10
12.733078
 20
431.955769
 30
0.0
  0
SPLINE
  5
148
100
AcDbEntity
  8
Image
 62
7
100
AcDbSpline
 70
8
 71
3
 72
8
 73
4
 74
0
 40
0
 40
0
 40
0
 40
0
 40
1
 40
1
 40
1
 40
1
 10
12.733078
 20
431.955769
 30
0.0
 10
12.571834
 20
432.019869
 30
0.0
 10
12.404347
 20
432.020289
 30
0.0
 10
12.347178
 20
431.956733
 30
0.0
  0
SPLINE
  5
149
100
AcDbEntity
  8
Image
 62
7
100
AcDbSpline
 70
8
 71
3
 72
8
 73
4
 74
0
 40
0
 40
0
 40
0
 40
0
 40
1
 40
1
 40
1
 40
1
 10
12.347178
 20
431.956733
 30
0.0
 10
12.330338
 20
431.938003
 30
0.0
 10
12.311558
 20
431.929063
 30
0.0
 10
12.305438
 20
431.936853
 30
0.0
  0
SPLINE
  5
14a
100
AcDbEntity
  8
Image
 62
7
100
AcDbSpline
 70
8
 71
3
 72
8
 73
4
 74
0
 40
0
 40
0
 40
0
 40
0
 40
1
 40
1
 40
1
 40
1
 10
12.305438
 20
431.936853
 30
0.0
 10
12.294708
 20
431.950523
 30
0.0
 10
12.297638
 20
431.839633
 30
0.0
 10
12.314538
 20
431.596885
 30
0.0
  0
SPLINE
  5
14b
100
AcDbEntity
  8
Image
 62
7
100
AcDbSpline
 70
8
 71
3
 72
8
 73
4
 74
0
 40
0
 40
0
 40
0
 40
0
 40
1
 40
1
 40
1
 40
1
 10
12.314538
 20
431.596885
 30
0.0
 10
12.321038
 20
431.502995
 30
0.0
 10
12.314625
 20
431.469902
 30
0.0
 10
12.280888
 20
431.424127
 30
0.0
  0
SPLINE
  5
14c
100
AcDbEntity
  8
Image
 62
7
100
AcDbSpline
 70
8
 71
3
 72
8
 73
4
 74
0
 40
0
 40
0
 40
0
 40
0
 40
1
 40
1
 40
1
 40
1
 10
12.280888
 20
431.424127
 30
0.0
 10
12.245318
 20
431.375867
 30
0.0
 10
12.241998
 20
431.355657
 30
0.0
 10
12.258448
 20
431.287296
 30
0.0
  0
SPLINE
  5
14d
100
AcDbEntity
  8
Image
 62
7
100
AcDbSpline
 70
8
 71
3
 72
8
 73
4
 74
0
 40
0
 40
0
 40
0
 40
0
 40
1
 40
1
 40
1
 40
1
 10
12.258448
 20
431.287296
 30
0.0
 10
12.272958
 20
431.226966
 30
0.0
 10
12.288858
 20
431.207086
 30
0.0
 10
12.322598
 20
431.207086
 30
0.0
  0
SPLINE
  5
14e
100
AcDbEntity
  8
Image
 62
7
100
AcDbSpline
 70
8
 71
3
 72
8
 73
4
 74
0
 40
0
 40
0
 40
0
 40
0
 40
1
 40
1
 40
1
 40
1
 10
12.322598
 20
431.207086
 30
0.0
 10
12.367108
 20
431.207086
 30
0.0
 10
12.367198
 20
431.206443
 30
0.0
 10
12.335128
 20
431.120706
 30
0.0
  0
SPLINE
  5
14f
100
AcDbEntity
  8
Image
 62
7
100
AcDbSpline
 70
8
 71
3
 72
8
 73
4
 74
0
 40
0
 40
0
 40
0
 40
0
 40
1
 40
1
 40
1
 40
1
 10
12.335128
 20
431.120706
 30
0.0
 10
12.304908
 20
431.039946
 30
0.0
 10
12.304928
 20
431.028646
 30
0.0
 10
12.335417
 20
430.947109
 30
0.0
  0
SPLINE
  5
150
100
AcDbEntity
  8
Image
 62
7
100
AcDbSpline
 70
8
 71
3
 72
8
 73
4
 74
0
 40
0
 40
0
 40
0
 40
0
 40
1
 40
1
 40
1
 40
1
 10
12.335417
 20
430.947109
 30
0.0
 10
12.381327
 20
430.824428
 30
0.0
 10
12.377947
 20
430.683185
 30
0.0
 10
12.327717
 20
430.625254
 30
0.0
  0
SPLINE
  5
151
100
AcDbEntity
  8
Image
 62
7
100
AcDbSpline
 70
8
 71
3
 72
8
 73
4
 74
0
 40
0
 40
0
 40
0
 40
0
 40
1
 40
1
 40
1
 40
1
 10
12.327717
 20
430.625254
 30
0.0
 10
12.294897
 20
430.587394
 30
0.0
 10
12.289507
 20
430.560234
 30
0.0
 10
12.298827
 20
430.479520
 30
0.0
  0
SPLINE
  5
152
100
AcDbEntity
  8
Image
 62
7
100
AcDbSpline
 70
8
 71
3
 72
8
 73
4
 74
0
 40
0
 40
0
 40
0
 40
0
 40
1
 40
1
 40
1
 40
1
 10
12.298827
 20
430.479520
 30
0.0
 10
12.317217
 20
430.320226
 30
0.0
 10
12.303227
 20
430.136199
 30
0.0
 10
12.268457
 20
430.080885
 30
0.0
  0
SPLINE
  5
153
100
AcDbEntity
  8
Image
 62
7
100
AcDbSpline
 70
8
 71
3
 72
8
 73
4
 74
0
 40
0
 40
0
 40
0
 40
0
 40
1
 40
1
 40
1
 40
1
 10
12.268457
 20
430.080885
 30
0.0
 10
12.243587
 20
430.041285
 30
0.0
 10
12.254777
 20
429.902028
 30
0.0
 10
12.281767
 20
429.915228
 30
0.0
  0
SPLINE
  5
154
100
AcDbEntity
  8
Image
 62
7
100
AcDbSpline
 70
8
 71
3
 72
8
 73
4
 74
0
 40
0
 40
0
 40
0
 40
0
 40
1
 40
1
 40
1
 40
1
 10
12.281767
 20
429.915228
 30
0.0
 10
12.309997
 20
429.929038
 30
0.0
 10
12.339937
 20
429.880268
 30
0.0
 10
12.356077
 20
429.794165
 30
0.0
  0
SPLINE
  5
155
100
AcDbEntity
  8
Image
 62
7
100
AcDbSpline
 70
8
 71
3
 72
8
 73
4
 74
0
 40
0
 40
0
 40
0
 40
0
 40
1
 40
1
 40
1
 40
1
 10
12.356077
 20
429.794165
 30
0.0
 10
12.372067
 20
429.708875
 30
0.0
 10
12.319617
 20
429.697545
 30
0.0
 10
12.298967
 20
429.781825
 30
0.0
  0
SPLINE
  5
156
100
AcDbEntity
  8
Image
 62
7
100
AcDbSpline
 70
8
 71
3
 72
8
 73
4
 74
0
 40
0
 40
0
 40
0
 40
0
 40
1
 40
1
 40
1
 40
1
 10
12.298967
 20
429.781825
 30
0.0
 10
12.291467
 20
429.812365
 30
0.0
 10
12.264757
 20
429.863855
 30
0.0
 10
12.239557
 20
429.896250
 30
0.0
  0
SPLINE
  5
157
100
AcDbEntity
  8
Image
 62
7
100
AcDbSpline
 70
8
 71
3
 72
8
 73
4
 74
0
 40
0
 40
0
 40
0
 40
0
 40
1
 40
1
 40
1
 40
1
 10
12.239557
 20
429.896250
 30
0.0
 10
12.190447
 20
429.959400
 30
0.0
 10
12.183497
 20
430.001274
 30
0.0
 10
12.211207
 20
430.067265
 30
0.0
  0
SPLINE
  5
158
100
AcDbEntity
  8
Image
 62
7
100
AcDbSpline
 70
8
 71
3
 72
8
 73
4
 74
0
 40
0
 40
0
 40
0
 40
0
 40
1
 40
1
 40
1
 40
1
 10
12.211207
 20
430.067265
 30
0.0
 10
12.220807
 20
430.090125
 30
0.0
 10
12.234897
 20
430.147705
 30
0.0
 10
12.242517
 20
430.195212
 30
0.0
  0
SPLINE
  5
159
100
AcDbEntity
  8
Image
 62
7
100
AcDbSpline
 70
8
 71
3
 72
8
 73
4
 74
0
 40
0
 40
0
 40
0
 40
0
 40
1
 40
1
 40
1
 40
1
 10
12.242517
 20
430.195212
 30
0.0
 10
12.255517
 20
430.276202
 30
0.0
 10
12.256107
 20
430.309404
 30
0.0
 10
12.248117
 20
430.507468
 30
0.0
  0
SPLINE
  5
15a
100
AcDbEntity
  8
Image
 62
7
100
AcDbSpline
 70
8
 71
3
 72
8
 73
4
 74
0
 40
0
 40
0
 40
0
 40
0
 40
1
 40
1
 40
1
 40
1
 10
12.248117
 20
430.507468
 30
0.0
 10
12.246317
 20
430.550258
 30
0.0
 10
12.261637
 20
430.616891
 30
0.0
 10
12.282007
 20
430.655546
 30
0.0
  0
SPLINE
  5
15b
100
AcDbEntity
  8
Image
 62
7
100
AcDbSpline
 70
8
 71
3
 72
8
 73
4
 74
0
 40
0
 40
0
 40
0
 40
0
 40
1
 40
1
 40
1
 40
1
 10
12.282007
 20
430.655546
 30
0.0
 10
12.329717
 20
430.746046
 30
0.0
 10
12.335367
 20
430.833881
 30
0.0
 10
12.298127
 20
430.906296
 30
0.0
  0
SPLINE
  5
15c
100
AcDbEntity
  8
Image
 62
7
100
AcDbSpline
 70
8
 71
3
 72
8
 73
4
 74
0
 40
0
 40
0
 40
0
 40
0
 40
1
 40
1
 40
1
 40
1
 10
12.298127
 20
430.906296
 30
0.0
 10
12.281487
 20
430.938676
 30
0.0
 10
12.270787
 20
431.004186
 30
0.0
 10
12.273717
 20
431.055846
 30
0.0
  0
SPLINE
  5
15d
100
AcDbEntity
  8
Image
 62
7
100
AcDbSpline
 70
8
 71
3
 72
8
 73
4
 74
0
 40
0
 40
0
 40
0
 40
0
 40
1
 40
1
 40
1
 40
1
 10
12.273717
 20
431.055846
 30
0.0
 10
12.276917
 20
431.111856
 30
0.0
 10
12.266117
 20
431.171161
 30
0.0
 10
12.246047
 20
431.207604
 30
0.0
  0
SPLINE
  5
15e
100
AcDbEntity
  8
Image
 62
7
100
AcDbSpline
 70
8
 71
3
 72
8
 73
4
 74
0
 40
0
 40
0
 40
0
 40
0
 40
1
 40
1
 40
1
 40
1
 10
12.246047
 20
431.207604
 30
0.0
 10
12.205377
 20
431.281594
 30
0.0
 10
12.204297
 20
431.369923
 30
0.0
 10
12.242847
 20
431.464237
 30
0.0
  0
SPLINE
  5
15f
100
AcDbEntity
  8
Image
 62
7
100
AcDbSpline
 70
8
 71
3
 72
8
 73
4
 74
0
 40
0
 40
0
 40
0
 40
0
 40
1
 40
1
 40
1
 40
1
 10
12.242847
 20
431.464237
 30
0.0
 10
12.272027
 20
431.535527
 30
0.0
 10
12.275427
 20
431.756231
 30
0.0
 10
12.247047
 20
431.733874
 30
0.0
  0
SPLINE
  5
160
100
AcDbEntity
  8
Image
 62
7
100
AcDbSpline
 70
8
 71
3
 72
8
 73
4
 74
0
 40
0
 40
0
 40
0
 40
0
 40
1
 40
1
 40
1
 40
1
 10
12.247047
 20
431.733874
 30
0.0
 10
12.220547
 20
431.713034
 30
0.0
 10
12.232017
 20
431.839875
 30
0.0
 10
12.264007
 20
431.921603
 30
0.0
  0
SPLINE
  5
161
100
AcDbEntity
  8
Image
 62
7
100
AcDbSpline
 70
8
 71
3
 72
8
 73
4
 74
0
 40
0
 40
0
 40
0
 40
0
 40
1
 40
1
 40
1
 40
1
 10
12.264007
 20
431.921603
 30
0.0
 10
12.283237
 20
431.970713
 30
0.0
 10
12.323917
 20
432.018243
 30
0.0
 10
12.368479
 20
432.043671
 30
0.0
  0
SPLINE
  5
162
100
AcDbEntity
  8
Image
 62
7
100
AcDbSpline
 70
8
 71
3
 72
8
 73
4
 74
0
 40
0
 40
0
 40
0
 40
0
 40
1
 40
1
 40
1
 40
1
 10
12.387079
 20
432.125091
 30
0.0
 10
12.314069
 20
432.178481
 30
0.0
 10
12.279052
 20
432.252148
 30
0.0
 10
12.243195
 20
432.427752
 30
0.0
  0
SPLINE
  5
163
100
AcDbEntity
  8
Image
 62
7
100
AcDbSpline
 70
8
 71
3
 72
8
 73
4
 74
0
 40
0
 40
0
 40
0
 40
0
 40
1
 40
1
 40
1
 40
1
 10
12.243195
 20
432.427752
 30
0.0
 10
12.185325
 20
432.711181
 30
0.0
 10
12.220575
 20
433.095232
 30
0.0
 10
12.313195
 20
433.190239
 30
0.0
  0
SPLINE
  5
164
100
AcDbEntity
  8
Image
 62
7
100
AcDbSpline
 70
8
 71
3
 72
8
 73
4
 74
0
 40
0
 40
0
 40
0
 40
0
 40
1
 40
1
 40
1
 40
1
 10
12.313195
 20
433.190239
 30
0.0
 10
12.338065
 20
433.215749
 30
0.0
 10
12.593722
 20
433.417846
 30
0.0
 10
12.881322
 20
433.639338
 30
0.0
  0
SPLINE
  5
165
100
AcDbEntity
  8
Image
 62
7
100
AcDbSpline
 70
8
 71
3
 72
8
 73
4
 74
0
 40
0
 40
0
 40
0
 40
0
 40
1
 40
1
 40
1
 40
1
 10
12.881322
 20
433.639338
 30
0.0
 10
13.312492
 20
433.971399
 30
0.0
 10
13.429715
 20
434.073902
 30
0.0
 10
13.549484
 20
434.223593
 30
0.0
  0
SPLINE
  5
166
100
AcDbEntity
  8
Image
 62
7
100
AcDbSpline
 70
8
 71
3
 72
8
 73
4
 74
0
 40
0
 40
0
 40
0
 40
0
 40
1
 40
1
 40
1
 40
1
 10
13.549484
 20
434.223593
 30
0.0
 10
13.724329
 20
434.442119
 30
0.0
 10
13.863442
 20
434.578297
 30
0.0
 10
14.120811
 20
434.782864
 30
0.0
  0
SPLINE
  5
167
100
AcDbEntity
  8
Image
 62
7
100
AcDbSpline
 70
8
 71
3
 72
8
 73
4
 74
0
 40
0
 40
0
 40
0
 40
0
 40
1
 40
1
 40
1
 40
1
 10
14.120811
 20
434.782864
 30
0.0
 10
14.492593
 20
435.078372
 30
0.0
 10
15.203533
 20
435.501374
 30
0.0
 10
15.328411
 20
435.501374
 30
0.0
  0
SPLINE
  5
168
100
AcDbEntity
  8
Image
 62
7
100
AcDbSpline
 70
8
 71
3
 72
8
 73
4
 74
0
 40
0
 40
0
 40
0
 40
0
 40
1
 40
1
 40
1
 40
1
 10
15.328411
 20
435.501374
 30
0.0
 10
15.349081
 20
435.501374
 30
0.0
 10
15.509434
 20
435.594214
 30
0.0
 10
15.684744
 20
435.707684
 30
0.0
  0
SPLINE
  5
169
100
AcDbEntity
  8
Image
 62
7
100
AcDbSpline
 70
8
 71
3
 72
8
 73
4
 74
0
 40
0
 40
0
 40
0
 40
0
 40
1
 40
1
 40
1
 40
1
 10
15.684744
 20
435.707684
 30
0.0
 10
16.078626
 20
435.962627
 30
0.0
 10
16.151443
 20
435.983772
 30
0.0
 10
16.561276
 20
435.962222
 30
0.0
  0
SPLINE
  5
16a
100
AcDbEntity
  8
Image
 62
7
100
AcDbSpline
 70
8
 71
3
 72
8
 73
4
 74
0
 40
0
 40
0
 40
0
 40
0
 40
1
 40
1
 40
1
 40
1
 10
16.561276
 20
435.962222
 30
0.0
 10
17.571720
 20
435.909092
 30
0.0
 10
19.330773
 20
435.498899
 30
0.0
 10
19.838592
 20
435.197987
 30
0.0
  0
SPLINE
  5
16b
100
AcDbEntity
  8
Image
 62
7
100
AcDbSpline
 70
8
 71
3
 72
8
 73
4
 74
0
 40
0
 40
0
 40
0
 40
0
 40
1
 40
1
 40
1
 40
1
 10
19.838592
 20
435.197987
 30
0.0
 10
20.108485
 20
435.038061
 30
0.0
 10
20.143832
 20
434.966632
 30
0.0
 10
20.140345
 20
434.588221
 30
0.0
  0
SPLINE
  5
16c
100
AcDbEntity
  8
Image
 62
7
100
AcDbSpline
 70
8
 71
3
 72
8
 73
4
 74
0
 40
0
 40
0
 40
0
 40
0
 40
1
 40
1
 40
1
 40
1
 10
20.140345
 20
434.588221
 30
0.0
 10
20.137745
 20
434.308034
 30
0.0
 10
20.088225
 20
434.055713
 30
0.0
 10
20.016475
 20
433.957295
 30
0.0
  0
SPLINE
  5
16d
100
AcDbEntity
  8
Image
 62
7
100
AcDbSpline
 70
8
 71
3
 72
8
 73
4
 74
0
 40
0
 40
0
 40
0
 40
0
 40
1
 40
1
 40
1
 40
1
 10
20.016475
 20
433.957295
 30
0.0
 10
19.967875
 20
433.890625
 30
0.0
 10
19.969085
 20
433.883905
 30
0.0
 10
20.036075
 20
433.848544
 30
0.0
  0
SPLINE
  5
16e
100
AcDbEntity
  8
Image
 62
7
100
AcDbSpline
 70
8
 71
3
 72
8
 73
4
 74
0
 40
0
 40
0
 40
0
 40
0
 40
1
 40
1
 40
1
 40
1
 10
20.036075
 20
433.848544
 30
0.0
 10
20.112835
 20
433.808024
 30
0.0
 10
20.152803
 20
433.678817
 30
0.0
 10
20.132145
 20
433.537943
 30
0.0
  0
SPLINE
  5
16f
100
AcDbEntity
  8
Image
 62
7
100
AcDbSpline
 70
8
 71
3
 72
8
 73
4
 74
0
 40
0
 40
0
 40
0
 40
0
 40
1
 40
1
 40
1
 40
1
 10
20.132145
 20
433.537943
 30
0.0
 10
20.123345
 20
433.478163
 30
0.0
 10
20.124745
 20
433.396727
 30
0.0
 10
20.135145
 20
433.350138
 30
0.0
  0
SPLINE
  5
170
100
AcDbEntity
  8
Image
 62
7
100
AcDbSpline
 70
8
 71
3
 72
8
 73
4
 74
0
 40
0
 40
0
 40
0
 40
0
 40
1
 40
1
 40
1
 40
1
 10
20.135145
 20
433.350138
 30
0.0
 10
20.147355
 20
433.295898
 30
0.0
 10
20.147015
 20
433.265058
 30
0.0
 10
20.134145
 20
433.259588
 30
0.0
  0
SPLINE
  5
171
100
AcDbEntity
  8
Image
 62
7
100
AcDbSpline
 70
8
 71
3
 72
8
 73
4
 74
0
 40
0
 40
0
 40
0
 40
0
 40
1
 40
1
 40
1
 40
1
 10
20.134145
 20
433.259588
 30
0.0
 10
20.123405
 20
433.254988
 30
0.0
 10
20.120055
 20
433.240088
 30
0.0
 10
20.126745
 20
433.226378
 30
0.0
  0
SPLINE
  5
172
100
AcDbEntity
  8
Image
 62
7
100
AcDbSpline
 70
8
 71
3
 72
8
 73
4
 74
0
 40
0
 40
0
 40
0
 40
0
 40
1
 40
1
 40
1
 40
1
 10
20.126745
 20
433.226378
 30
0.0
 10
20.133445
 20
433.212668
 30
0.0
 10
20.120145
 20
433.169278
 30
0.0
 10
20.097335
 20
433.129938
 30
0.0
  0
SPLINE
  5
173
100
AcDbEntity
  8
Image
 62
7
100
AcDbSpline
 70
8
 71
3
 72
8
 73
4
 74
0
 40
0
 40
0
 40
0
 40
0
 40
1
 40
1
 40
1
 40
1
 10
20.097335
 20
433.129938
 30
0.0
 10
20.067885
 20
433.079178
 30
0.0
 10
20.057385
 20
433.029731
 30
0.0
 10
20.061165
 20
432.959562
 30
0.0
  0
SPLINE
  5
174
100
AcDbEntity
  8
Image
 62
7
100
AcDbSpline
 70
8
 71
3
 72
8
 73
4
 74
0
 40
0
 40
0
 40
0
 40
0
 40
1
 40
1
 40
1
 40
1
 10
20.061165
 20
432.959562
 30
0.0
 10
20.064065
 20
432.905192
 30
0.0
 10
20.073025
 20
432.860682
 30
0.0
 10
20.081015
 20
432.860662
 30
0.0
  0
SPLINE
  5
175
100
AcDbEntity
  8
Image
 62
7
100
AcDbSpline
 70
8
 71
3
 72
8
 73
4
 74
0
 40
0
 40
0
 40
0
 40
0
 40
1
 40
1
 40
1
 40
1
 10
20.081015
 20
432.860662
 30
0.0
 10
20.089015
 20
432.860642
 30
0.0
 10
20.095535
 20
432.845102
 30
0.0
 10
20.095535
 20
432.826132
 30
0.0
  0
SPLINE
  5
176
100
AcDbEntity
  8
Image
 62
7
100
AcDbSpline
 70
8
 71
3
 72
8
 73
4
 74
0
 40
0
 40
0
 40
0
 40
0
 40
1
 40
1
 40
1
 40
1
 10
20.095535
 20
432.826132
 30
0.0
 10
20.095535
 20
432.807162
 30
0.0
 10
20.117215
 20
432.743302
 30
0.0
 10
20.143715
 20
432.684223
 30
0.0
  0
SPLINE
  5
177
100
AcDbEntity
  8
Image
 62
7
100
AcDbSpline
 70
8
 71
3
 72
8
 73
4
 74
0
 40
0
 40
0
 40
0
 40
0
 40
1
 40
1
 40
1
 40
1
 10
20.143715
 20
432.684223
 30
0.0
 10
20.201975
 20
432.554352
 30
0.0
 10
20.204095
 20
432.493072
 30
0.0
 10
20.154565
 20
432.369381
 30
0.0
  0
SPLINE
  5
178
100
AcDbEntity
  8
Image
 62
7
100
AcDbSpline
 70
8
 71
3
 72
8
 73
4
 74
0
 40
0
 40
0
 40
0
 40
0
 40
1
 40
1
 40
1
 40
1
 10
20.154565
 20
432.369381
 30
0.0
 10
20.109925
 20
432.257881
 30
0.0
 10
20.100945
 20
432.111682
 30
0.0
 10
20.132555
 20
432.011061
 30
0.0
  0
SPLINE
  5
179
100
AcDbEntity
  8
Image
 62
7
100
AcDbSpline
 70
8
 71
3
 72
8
 73
4
 74
0
 40
0
 40
0
 40
0
 40
0
 40
1
 40
1
 40
1
 40
1
 10
20.132555
 20
432.011061
 30
0.0
 10
20.145025
 20
431.971371
 30
0.0
 10
20.149865
 20
431.907816
 30
0.0
 10
20.143315
 20
431.869819
 30
0.0
  0
SPLINE
  5
17a
100
AcDbEntity
  8
Image
 62
7
100
AcDbSpline
 70
8
 71
3
 72
8
 73
4
 74
0
 40
0
 40
0
 40
0
 40
0
 40
1
 40
1
 40
1
 40
1
 10
20.143315
 20
431.869819
 30
0.0
 10
20.128965
 20
431.786579
 30
0.0
 10
20.031493
 20
431.676001
 30
0.0
 10
19.972459
 20
431.676001
 30
0.0
  0
SPLINE
  5
17b
100
AcDbEntity
  8
Image
 62
7
100
AcDbSpline
 70
8
 71
3
 72
8
 73
4
 74
0
 40
0
 40
0
 40
0
 40
0
 40
1
 40
1
 40
1
 40
1
 10
19.972459
 20
431.676001
 30
0.0
 10
19.949019
 20
431.676001
 30
0.0
 10
19.911609
 20
431.659731
 30
0.0
 10
19.889339
 20
431.639851
 30
0.0
  0
SPLINE
  5
17c
100
AcDbEntity
  8
Image
 62
7
100
AcDbSpline
 70
8
 71
3
 72
8
 73
4
 74
0
 40
0
 40
0
 40
0
 40
0
 40
1
 40
1
 40
1
 40
1
 10
19.889339
 20
431.639851
 30
0.0
 10
19.867059
 20
431.619971
 30
0.0
 10
19.844489
 20
431.609251
 30
0.0
 10
19.839169
 20
431.616021
 30
0.0
  0
SPLINE
  5
17d
100
AcDbEntity
  8
Image
 62
7
100
AcDbSpline
 70
8
 71
3
 72
8
 73
4
 74
0
 40
0
 40
0
 40
0
 40
0
 40
1
 40
1
 40
1
 40
1
 10
19.839169
 20
431.616021
 30
0.0
 10
19.833869
 20
431.622821
 30
0.0
 10
19.833469
 20
431.602141
 30
0.0
 10
19.838206
 20
431.570121
 30
0.0
  0
SPLINE
  5
17e
100
AcDbEntity
  8
Image
 62
7
100
AcDbSpline
 70
8
 71
3
 72
8
 73
4
 74
0
 40
0
 40
0
 40
0
 40
0
 40
1
 40
1
 40
1
 40
1
 10
19.838206
 20
431.570121
 30
0.0
 10
19.847806
 20
431.505991
 30
0.0
 10
19.762916
 20
431.355159
 30
0.0
 10
19.717194
 20
431.355159
 30
0.0
  0
SPLINE
  5
17f
100
AcDbEntity
  8
Image
 62
7
100
AcDbSpline
 70
8
 71
3
 72
8
 73
4
 74
0
 40
0
 40
0
 40
0
 40
0
 40
1
 40
1
 40
1
 40
1
 10
19.717194
 20
431.355159
 30
0.0
 10
19.702754
 20
431.355159
 30
0.0
 10
19.657774
 20
431.316339
 30
0.0
 10
19.617234
 20
431.268899
 30
0.0
  0
SPLINE
  5
180
100
AcDbEntity
  8
Image
 62
7
100
AcDbSpline
 70
8
 71
3
 72
8
 73
4
 74
0
 40
0
 40
0
 40
0
 40
0
 40
1
 40
1
 40
1
 40
1
 10
19.617234
 20
431.268899
 30
0.0
 10
19.576694
 20
431.221459
 30
0.0
 10
19.536994
 20
431.182579
 30
0.0
 10
19.529004
 20
431.182519
 30
0.0
  0
SPLINE
  5
181
100
AcDbEntity
  8
Image
 62
7
100
AcDbSpline
 70
8
 71
3
 72
8
 73
4
 74
0
 40
0
 40
0
 40
0
 40
0
 40
1
 40
1
 40
1
 40
1
 10
19.529004
 20
431.182519
 30
0.0
 10
19.521004
 20
431.182454
 30
0.0
 10
19.514484
 20
431.161339
 30
0.0
 10
19.514484
 20
431.135599
 30
0.0
  0
SPLINE
  5
182
100
AcDbEntity
  8
Image
 62
7
100
AcDbSpline
 70
8
 71
3
 72
8
 73
4
 74
0
 40
0
 40
0
 40
0
 40
0
 40
1
 40
1
 40
1
 40
1
 10
19.514484
 20
431.135599
 30
0.0
 10
19.514484
 20
431.109859
 30
0.0
 10
19.485274
 20
431.056119
 30
0.0
 10
19.449584
 20
431.016180
 30
0.0
  0
SPLINE
  5
183
100
AcDbEntity
  8
Image
 62
7
100
AcDbSpline
 70
8
 71
3
 72
8
 73
4
 74
0
 40
0
 40
0
 40
0
 40
0
 40
1
 40
1
 40
1
 40
1
 10
19.449584
 20
431.016180
 30
0.0
 10
19.413884
 20
430.976240
 30
0.0
 10
19.379254
 20
430.916780
 30
0.0
 10
19.372624
 20
430.884054
 30
0.0
  0
SPLINE
  5
184
100
AcDbEntity
  8
Image
 62
7
100
AcDbSpline
 70
8
 71
3
 72
8
 73
4
 74
0
 40
0
 40
0
 40
0
 40
0
 40
1
 40
1
 40
1
 40
1
 10
19.372624
 20
430.884054
 30
0.0
 10
19.365324
 20
430.847824
 30
0.0
 10
19.328174
 20
430.802104
 30
0.0
 10
19.277744
 20
430.767184
 30
0.0
  0
SPLINE
  5
185
100
AcDbEntity
  8
Image
 62
7
100
AcDbSpline
 70
8
 71
3
 72
8
 73
4
 74
0
 40
0
 40
0
 40
0
 40
0
 40
1
 40
1
 40
1
 40
1
 10
19.277744
 20
430.767184
 30
0.0
 10
19.232194
 20
430.735634
 30
0.0
 10
18.835560
 20
430.459528
 30
0.0
 10
18.396340
 20
430.153613
 30
0.0
  0
SPLINE
  5
186
100
AcDbEntity
  8
Image
 62
7
100
AcDbSpline
 70
8
 71
3
 72
8
 73
4
 74
0
 40
0
 40
0
 40
0
 40
0
 40
1
 40
1
 40
1
 40
1
 10
18.396340
 20
430.153613
 30
0.0
 10
17.692058
 20
429.663082
 30
0.0
 10
17.589489
 20
429.598632
 30
0.0
 10
17.527731
 20
429.607820
 30
0.0
  0
SPLINE
  5
187
100
AcDbEntity
  8
Image
 62
7
100
AcDbSpline
 70
8
 71
3
 72
8
 73
4
 74
0
 40
0
 40
0
 40
0
 40
0
 40
1
 40
1
 40
1
 40
1
 10
17.527731
 20
429.607820
 30
0.0
 10
17.463791
 20
429.617320
 30
0.0
 10
17.450841
 20
429.607866
 30
0.0
 10
17.378743
 20
429.498907
 30
0.0
  0
SPLINE
  5
188
100
AcDbEntity
  8
Image
 62
7
100
AcDbSpline
 70
8
 71
3
 72
8
 73
4
 74
0
 40
0
 40
0
 40
0
 40
0
 40
1
 40
1
 40
1
 40
1
 10
17.378743
 20
429.498907
 30
0.0
 10
17.335313
 20
429.433277
 30
0.0
 10
17.290493
 20
429.383518
 30
0.0
 10
17.279153
 20
429.388338
 30
0.0
  0
SPLINE
  5
189
100
AcDbEntity
  8
Image
 62
7
100
AcDbSpline
 70
8
 71
3
 72
8
 73
4
 74
0
 40
0
 40
0
 40
0
 40
0
 40
1
 40
1
 40
1
 40
1
 10
17.279153
 20
429.388338
 30
0.0
 10
17.267803
 20
429.393138
 30
0.0
 10
17.249743
 20
429.374918
 30
0.0
 10
17.239003
 20
429.347818
 30
0.0
  0
SPLINE
  5
18a
100
AcDbEntity
  8
Image
 62
7
100
AcDbSpline
 70
8
 71
3
 72
8
 73
4
 74
0
 40
0
 40
0
 40
0
 40
0
 40
1
 40
1
 40
1
 40
1
 10
17.239003
 20
429.347818
 30
0.0
 10
17.228263
 20
429.320718
 30
0.0
 10
17.190183
 20
429.286028
 30
0.0
 10
17.154373
 20
429.270728
 30
0.0
  0
SPLINE
  5
18b
100
AcDbEntity
  8
Image
 62
7
100
AcDbSpline
 70
8
 71
3
 72
8
 73
4
 74
0
 40
0
 40
0
 40
0
 40
0
 40
1
 40
1
 40
1
 40
1
 10
17.154373
 20
429.270728
 30
0.0
 10
17.118563
 20
429.255438
 30
0.0
 10
17.077743
 20
429.222848
 30
0.0
 10
17.063673
 20
429.198318
 30
0.0
  0
SPLINE
  5
18c
100
AcDbEntity
  8
Image
 62
7
100
AcDbSpline
 70
8
 71
3
 72
8
 73
4
 74
0
 40
0
 40
0
 40
0
 40
0
 40
1
 40
1
 40
1
 40
1
 10
17.063673
 20
429.198318
 30
0.0
 10
17.048123
 20
429.171218
 30
0.0
 10
17.028063
 20
429.161078
 30
0.0
 10
17.012583
 20
429.172478
 30
0.0
  0
SPLINE
  5
18d
100
AcDbEntity
  8
Image
 62
7
100
AcDbSpline
 70
8
 71
3
 72
8
 73
4
 74
0
 40
0
 40
0
 40
0
 40
0
 40
1
 40
1
 40
1
 40
1
 10
17.012583
 20
429.172478
 30
0.0
 10
16.998563
 20
429.182798
 30
0.0
 10
16.993543
 20
429.182178
 30
0.0
 10
17.001443
 20
429.171078
 30
0.0
  0
SPLINE
  5
18e
100
AcDbEntity
  8
Image
 62
7
100
AcDbSpline
 70
8
 71
3
 72
8
 73
4
 74
0
 40
0
 40
0
 40
0
 40
0
 40
1
 40
1
 40
1
 40
1
 10
17.001443
 20
429.171078
 30
0.0
 10
17.027503
 20
429.134428
 30
0.0
 10
16.973783
 20
429.084638
 30
0.0
 10
16.908153
 20
429.084638
 30
0.0
  0
SPLINE
  5
18f
100
AcDbEntity
  8
Image
 62
7
100
AcDbSpline
 70
8
 71
3
 72
8
 73
4
 74
0
 40
0
 40
0
 40
0
 40
0
 40
1
 40
1
 40
1
 40
1
 10
16.908153
 20
429.084638
 30
0.0
 10
16.825613
 20
429.084638
 30
0.0
 10
16.740727
 20
429.133598
 30
0.0
 10
16.752941
 20
429.174148
 30
0.0
  0
SPLINE
  5
190
100
AcDbEntity
  8
Image
 62
7
100
AcDbSpline
 70
8
 71
3
 72
8
 73
4
 74
0
 40
0
 40
0
 40
0
 40
0
 40
1
 40
1
 40
1
 40
1
 10
16.752941
 20
429.174148
 30
0.0
 10
16.759741
 20
429.196828
 30
0.0
 10
16.750941
 20
429.200138
 30
0.0
 10
16.721151
 20
429.186068
 30
0.0
  0
SPLINE
  5
191
100
AcDbEntity
  8
Image
 62
7
100
AcDbSpline
 70
8
 71
3
 72
8
 73
4
 74
0
 40
0
 40
0
 40
0
 40
0
 40
1
 40
1
 40
1
 40
1
 10
16.721151
 20
429.186068
 30
0.0
 10
16.697131
 20
429.174748
 30
0.0
 10
16.668991
 20
429.126328
 30
0.0
 10
16.653731
 20
429.070099
 30
0.0
  0
SPLINE
  5
192
100
AcDbEntity
  8
Image
 62
7
100
AcDbSpline
 70
8
 71
3
 72
8
 73
4
 74
0
 40
0
 40
0
 40
0
 40
0
 40
1
 40
1
 40
1
 40
1
 10
16.653731
 20
429.070099
 30
0.0
 10
16.616651
 20
428.933385
 30
0.0
 10
16.569131
 20
428.881933
 30
0.0
 10
16.473619
 20
428.875065
 30
0.0
  0
SPLINE
  5
193
100
AcDbEntity
  8
Image
 62
7
100
AcDbSpline
 70
8
 71
3
 72
8
 73
4
 74
0
 40
0
 40
0
 40
0
 40
0
 40
1
 40
1
 40
1
 40
1
 10
16.473619
 20
428.875065
 30
0.0
 10
16.428859
 20
428.871865
 30
0.0
 10
16.386629
 20
428.858265
 30
0.0
 10
16.379779
 20
428.844875
 30
0.0
  0
SPLINE
  5
194
100
AcDbEntity
  8
Image
 62
7
100
AcDbSpline
 70
8
 71
3
 72
8
 73
4
 74
0
 40
0
 40
0
 40
0
 40
0
 40
1
 40
1
 40
1
 40
1
 10
16.379779
 20
428.844875
 30
0.0
 10
16.361999
 20
428.810125
 30
0.0
 10
16.278812
 20
428.757295
 30
0.0
 10
16.266528
 20
428.772955
 30
0.0
  0
SPLINE
  5
195
100
AcDbEntity
  8
Image
 62
7
100
AcDbSpline
 70
8
 71
3
 72
8
 73
4
 74
0
 40
0
 40
0
 40
0
 40
0
 40
1
 40
1
 40
1
 40
1
 10
16.266528
 20
428.772955
 30
0.0
 10
16.260828
 20
428.780155
 30
0.0
 10
16.242768
 20
428.768955
 30
0.0
 10
16.226368
 20
428.748105
 30
0.0
  0
SPLINE
  5
196
100
AcDbEntity
  8
Image
 62
7
100
AcDbSpline
 70
8
 71
3
 72
8
 73
4
 74
0
 40
0
 40
0
 40
0
 40
0
 40
1
 40
1
 40
1
 40
1
 10
16.226368
 20
428.748105
 30
0.0
 10
16.204088
 20
428.719725
 30
0.0
 10
16.174008
 20
428.713935
 30
0.0
 10
16.107630
 20
428.725265
 30
0.0
  0
SPLINE
  5
197
100
AcDbEntity
  8
Image
 62
7
100
AcDbSpline
 70
8
 71
3
 72
8
 73
4
 74
0
 40
0
 40
0
 40
0
 40
0
 40
1
 40
1
 40
1
 40
1
 10
16.107630
 20
428.725265
 30
0.0
 10
15.990119
 20
428.745325
 30
0.0
 10
15.783767
 20
428.746265
 30
0.0
 10
15.699169
 20
428.727165
 30
0.0
  0
SPLINE
  5
198
100
AcDbEntity
  8
Image
 62
7
100
AcDbSpline
 70
8
 71
3
 72
8
 73
4
 74
0
 40
0
 40
0
 40
0
 40
0
 40
1
 40
1
 40
1
 40
1
 10
15.699169
 20
428.727165
 30
0.0
 10
15.650959
 20
428.716265
 30
0.0
 10
15.610049
 20
428.725965
 30
0.0
 10
15.557500
 20
428.760665
 30
0.0
  0
LWPOLYLINE
  5
199
100
AcDbEntity
  8
Image
 62
7
100
AcDbPolyline
 90
3
 70
0
 10
12.368479
 20
432.043671
 30
0.0
 10
12.441469
 20
432.085311
 30
0.0
 10
12.387079
 20
432.125091
 30
0.0
  0
SPLINE
  5
19a
100
AcDbEntity
  8
Image
 62
7
100
AcDbSpline
 70
8
 71
3
 72
8
 73
4
 74
0
 40
0
 40
0
 40
0
 40
0
 40
1
 40
1
 40
1
 40
1
 10
19.440602
 20
431.095934
 30
0.0
 10
19.452732
 20
431.129864
 30
0.0
 10
19.469702
 20
431.157634
 30
0.0
 10
19.478312
 20
431.157634
 30
0.0
  0
SPLINE
  5
19b
100
AcDbEntity
  8
Image
 62
7
100
AcDbSpline
 70
8
 71
3
 72
8
 73
4
 74
0
 40
0
 40
0
 40
0
 40
0
 40
1
 40
1
 40
1
 40
1
 10
19.478312
 20
431.157634
 30
0.0
 10
19.486912
 20
431.157634
 30
0.0
 10
19.489082
 20
431.173824
 30
0.0
 10
19.483112
 20
431.193624
 30
0.0
  0
SPLINE
  5
19c
100
AcDbEntity
  8
Image
 62
7
100
AcDbSpline
 70
8
 71
3
 72
8
 73
4
 74
0
 40
0
 40
0
 40
0
 40
0
 40
1
 40
1
 40
1
 40
1
 10
19.483112
 20
431.193624
 30
0.0
 10
19.475912
 20
431.217624
 30
0.0
 10
19.489012
 20
431.234954
 30
0.0
 10
19.522452
 20
431.245654
 30
0.0
  0
SPLINE
  5
19d
100
AcDbEntity
  8
Image
 62
7
100
AcDbSpline
 70
8
 71
3
 72
8
 73
4
 74
0
 40
0
 40
0
 40
0
 40
0
 40
1
 40
1
 40
1
 40
1
 10
19.522452
 20
431.245654
 30
0.0
 10
19.550052
 20
431.254454
 30
0.0
 10
19.572632
 20
431.272264
 30
0.0
 10
19.572632
 20
431.285164
 30
0.0
  0
SPLINE
  5
19e
100
AcDbEntity
  8
Image
 62
7
100
AcDbSpline
 70
8
 71
3
 72
8
 73
4
 74
0
 40
0
 40
0
 40
0
 40
0
 40
1
 40
1
 40
1
 40
1
 10
19.572632
 20
431.285164
 30
0.0
 10
19.572632
 20
431.298064
 30
0.0
 10
19.581232
 20
431.301834
 30
0.0
 10
19.591782
 20
431.293564
 30
0.0
  0
SPLINE
  5
19f
100
AcDbEntity
  8
Image
 62
7
100
AcDbSpline
 70
8
 71
3
 72
8
 73
4
 74
0
 40
0
 40
0
 40
0
 40
0
 40
1
 40
1
 40
1
 40
1
 10
19.591782
 20
431.293564
 30
0.0
 10
19.602472
 20
431.285164
 30
0.0
 10
19.606172
 20
431.294314
 30
0.0
 10
19.600182
 20
431.314294
 30
0.0
  0
SPLINE
  5
1a0
100
AcDbEntity
  8
Image
 62
7
100
AcDbSpline
 70
8
 71
3
 72
8
 73
4
 74
0
 40
0
 40
0
 40
0
 40
0
 40
1
 40
1
 40
1
 40
1
 10
19.600182
 20
431.314294
 30
0.0
 10
19.588282
 20
431.353794
 30
0.0
 10
19.619622
 20
431.386884
 30
0.0
 10
19.679192
 20
431.397744
 30
0.0
  0
SPLINE
  5
1a1
100
AcDbEntity
  8
Image
 62
7
100
AcDbSpline
 70
8
 71
3
 72
8
 73
4
 74
0
 40
0
 40
0
 40
0
 40
0
 40
1
 40
1
 40
1
 40
1
 10
19.679192
 20
431.397744
 30
0.0
 10
19.728922
 20
431.406844
 30
0.0
 10
19.804857
 20
431.524610
 30
0.0
 10
19.804981
 20
431.592884
 30
0.0
  0
SPLINE
  5
1a2
100
AcDbEntity
  8
Image
 62
7
100
AcDbSpline
 70
8
 71
3
 72
8
 73
4
 74
0
 40
0
 40
0
 40
0
 40
0
 40
1
 40
1
 40
1
 40
1
 10
19.804981
 20
431.592884
 30
0.0
 10
19.805078
 20
431.646454
 30
0.0
 10
19.883311
 20
431.730370
 30
0.0
 10
19.926577
 20
431.723316
 30
0.0
  0
SPLINE
  5
1a3
100
AcDbEntity
  8
Image
 62
7
100
AcDbSpline
 70
8
 71
3
 72
8
 73
4
 74
0
 40
0
 40
0
 40
0
 40
0
 40
1
 40
1
 40
1
 40
1
 10
19.926577
 20
431.723316
 30
0.0
 10
19.974767
 20
431.715416
 30
0.0
 10
19.994597
 20
431.726716
 30
0.0
 10
20.044525
 20
431.790356
 30
0.0
  0
SPLINE
  5
1a4
100
AcDbEntity
  8
Image
 62
7
100
AcDbSpline
 70
8
 71
3
 72
8
 73
4
 74
0
 40
0
 40
0
 40
0
 40
0
 40
1
 40
1
 40
1
 40
1
 10
20.044525
 20
431.790356
 30
0.0
 10
20.101795
 20
431.863336
 30
0.0
 10
20.111765
 20
431.979816
 30
0.0
 10
20.067155
 20
432.054853
 30
0.0
  0
SPLINE
  5
1a5
100
AcDbEntity
  8
Image
 62
7
100
AcDbSpline
 70
8
 71
3
 72
8
 73
4
 74
0
 40
0
 40
0
 40
0
 40
0
 40
1
 40
1
 40
1
 40
1
 10
20.067155
 20
432.054853
 30
0.0
 10
20.047955
 20
432.087153
 30
0.0
 10
20.045135
 20
432.117913
 30
0.0
 10
20.057555
 20
432.159527
 30
0.0
  0
SPLINE
  5
1a6
100
AcDbEntity
  8
Image
 62
7
100
AcDbSpline
 70
8
 71
3
 72
8
 73
4
 74
0
 40
0
 40
0
 40
0
 40
0
 40
1
 40
1
 40
1
 40
1
 10
20.057555
 20
432.159527
 30
0.0
 10
20.067255
 20
432.191937
 30
0.0
 10
20.070185
 20
432.234887
 30
0.0
 10
20.064155
 20
432.254967
 30
0.0
  0
SPLINE
  5
1a7
100
AcDbEntity
  8
Image
 62
7
100
AcDbSpline
 70
8
 71
3
 72
8
 73
4
 74
0
 40
0
 40
0
 40
0
 40
0
 40
1
 40
1
 40
1
 40
1
 10
20.064155
 20
432.254967
 30
0.0
 10
20.058055
 20
432.275047
 30
0.0
 10
20.071455
 20
432.321067
 30
0.0
 10
20.093745
 20
432.357229
 30
0.0
  0
SPLINE
  5
1a8
100
AcDbEntity
  8
Image
 62
7
100
AcDbSpline
 70
8
 71
3
 72
8
 73
4
 74
0
 40
0
 40
0
 40
0
 40
0
 40
1
 40
1
 40
1
 40
1
 10
20.093745
 20
432.357229
 30
0.0
 10
20.154045
 20
432.454909
 30
0.0
 10
20.148455
 20
432.599562
 30
0.0
 10
20.081075
 20
432.685431
 30
0.0
  0
SPLINE
  5
1a9
100
AcDbEntity
  8
Image
 62
7
100
AcDbSpline
 70
8
 71
3
 72
8
 73
4
 74
0
 40
0
 40
0
 40
0
 40
0
 40
1
 40
1
 40
1
 40
1
 10
20.081075
 20
432.685431
 30
0.0
 10
20.027915
 20
432.753181
 30
0.0
 10
20.018095
 20
432.806148
 30
0.0
 10
20.019145
 20
433.019595
 30
0.0
  0
SPLINE
  5
1aa
100
AcDbEntity
  8
Image
 62
7
100
AcDbSpline
 70
8
 71
3
 72
8
 73
4
 74
0
 40
0
 40
0
 40
0
 40
0
 40
1
 40
1
 40
1
 40
1
 10
20.019145
 20
433.019595
 30
0.0
 10
20.019626
 20
433.123504
 30
0.0
 10
20.053205
 20
433.204200
 30
0.0
 10
20.076195
 20
433.156803
 30
0.0
  0
SPLINE
  5
1ab
100
AcDbEntity
  8
Image
 62
7
100
AcDbSpline
 70
8
 71
3
 72
8
 73
4
 74
0
 40
0
 40
0
 40
0
 40
0
 40
1
 40
1
 40
1
 40
1
 10
20.076195
 20
433.156803
 30
0.0
 10
20.097575
 20
433.112723
 30
0.0
 10
20.097715
 20
433.352377
 30
0.0
 10
20.076387
 20
433.403276
 30
0.0
  0
SPLINE
  5
1ac
100
AcDbEntity
  8
Image
 62
7
100
AcDbSpline
 70
8
 71
3
 72
8
 73
4
 74
0
 40
0
 40
0
 40
0
 40
0
 40
1
 40
1
 40
1
 40
1
 10
20.076387
 20
433.403276
 30
0.0
 10
20.062817
 20
433.435586
 30
0.0
 10
20.063507
 20
433.469006
 30
0.0
 10
20.078587
 20
433.511279
 30
0.0
  0
SPLINE
  5
1ad
100
AcDbEntity
  8
Image
 62
7
100
AcDbSpline
 70
8
 71
3
 72
8
 73
4
 74
0
 40
0
 40
0
 40
0
 40
0
 40
1
 40
1
 40
1
 40
1
 10
20.078587
 20
433.511279
 30
0.0
 10
20.130167
 20
433.655544
 30
0.0
 10
20.039567
 20
433.848027
 30
0.0
 10
19.935972
 20
433.814273
 30
0.0
  0
SPLINE
  5
1ae
100
AcDbEntity
  8
Image
 62
7
100
AcDbSpline
 70
8
 71
3
 72
8
 73
4
 74
0
 40
0
 40
0
 40
0
 40
0
 40
1
 40
1
 40
1
 40
1
 10
19.935972
 20
433.814273
 30
0.0
 10
19.896742
 20
433.801493
 30
0.0
 10
19.645130
 20
433.576138
 30
0.0
 10
19.480832
 20
433.406629
 30
0.0
  0
LWPOLYLINE
  5
1af
100
AcDbEntity
  8
Image
 62
7
100
AcDbPolyline
 90
2
 70
0
 10
15.557500
 20
428.760665
 30
0.0
 10
15.557576
 20
428.760535
 30
0.0
  0
SPLINE
  5
1b0
100
AcDbEntity
  8
Image
 62
7
100
AcDbSpline
 70
8
 71
3
 72
8
 73
4
 74
0
 40
0
 40
0
 40
0
 40
0
 40
1
 40
1
 40
1
 40
1
 10
19.408412
 20
432.379306
 30
0.0
 10
19.403112
 20
431.849925
 30
0.0
 10
19.393242
 20
431.330723
 30
0.0
 10
19.386422
 20
431.225525
 30
0.0
  0
SPLINE
  5
1b1
100
AcDbEntity
  8
Image
 62
7
100
AcDbSpline
 70
8
 71
3
 72
8
 73
4
 74
0
 40
0
 40
0
 40
0
 40
0
 40
1
 40
1
 40
1
 40
1
 10
19.386422
 20
431.225525
 30
0.0
 10
19.377522
 20
431.088614
 30
0.0
 10
19.380322
 20
431.034256
 30
0.0
 10
19.396322
 20
431.034256
 30
0.0
  0
SPLINE
  5
1b2
100
AcDbEntity
  8
Image
 62
7
100
AcDbSpline
 70
8
 71
3
 72
8
 73
4
 74
0
 40
0
 40
0
 40
0
 40
0
 40
1
 40
1
 40
1
 40
1
 10
19.396322
 20
431.034256
 30
0.0
 10
19.408572
 20
431.034256
 30
0.0
 10
19.428532
 20
431.062016
 30
0.0
 10
19.440662
 20
431.095956
 30
0.0
  0
LWPOLYLINE
  5
1b3
100
AcDbEntity
  8
Image
 62
7
100
AcDbPolyline
 90
3
 70
0
 10
19.480832
 20
433.406629
 30
0.0
 10
19.418012
 20
433.341819
 30
0.0
 10
19.408412
 20
432.379306
 30
0.0
  0
SPLINE
  5
1b4
100
AcDbEntity
  8
Image
 62
7
100
AcDbSpline
 70
8
 71
3
 72
8
 73
4
 74
0
 40
0
 40
0
 40
0
 40
0
 40
1
 40
1
 40
1
 40
1
 10
19.456452
 20
432.240166
 30
0.0
 10
19.456452
 20
432.253766
 30
0.0
 10
19.473862
 20
432.271936
 30
0.0
 10
19.495142
 20
432.280546
 30
0.0
  0
SPLINE
  5
1b5
100
AcDbEntity
  8
Image
 62
7
100
AcDbSpline
 70
8
 71
3
 72
8
 73
4
 74
0
 40
0
 40
0
 40
0
 40
0
 40
1
 40
1
 40
1
 40
1
 10
19.495142
 20
432.280546
 30
0.0
 10
19.539242
 20
432.298386
 30
0.0
 10
19.572222
 20
432.420598
 30
0.0
 10
19.536982
 20
432.435570
 30
0.0
  0
SPLINE
  5
1b6
100
AcDbEntity
  8
Image
 62
7
100
AcDbSpline
 70
8
 71
3
 72
8
 73
4
 74
0
 40
0
 40
0
 40
0
 40
0
 40
1
 40
1
 40
1
 40
1
 10
19.536982
 20
432.435570
 30
0.0
 10
19.503762
 20
432.449680
 30
0.0
 10
19.509782
 20
432.490340
 30
0.0
 10
19.545082
 20
432.490340
 30
0.0
  0
SPLINE
  5
1b7
100
AcDbEntity
  8
Image
 62
7
100
AcDbSpline
 70
8
 71
3
 72
8
 73
4
 74
0
 40
0
 40
0
 40
0
 40
0
 40
1
 40
1
 40
1
 40
1
 10
19.545082
 20
432.490340
 30
0.0
 10
19.590012
 20
432.490340
 30
0.0
 10
19.688844
 20
432.626177
 30
0.0
 10
19.688844
 20
432.687937
 30
0.0
  0
SPLINE
  5
1b8
100
AcDbEntity
  8
Image
 62
7
100
AcDbSpline
 70
8
 71
3
 72
8
 73
4
 74
0
 40
0
 40
0
 40
0
 40
0
 40
1
 40
1
 40
1
 40
1
 10
19.688844
 20
432.687937
 30
0.0
 10
19.688844
 20
432.719747
 30
0.0
 10
19.698644
 20
432.737007
 30
0.0
 10
19.713054
 20
432.730727
 30
0.0
  0
SPLINE
  5
1b9
100
AcDbEntity
  8
Image
 62
7
100
AcDbSpline
 70
8
 71
3
 72
8
 73
4
 74
0
 40
0
 40
0
 40
0
 40
0
 40
1
 40
1
 40
1
 40
1
 10
19.713054
 20
432.730727
 30
0.0
 10
19.742564
 20
432.717907
 30
0.0
 10
19.733514
 20
432.620539
 30
0.0
 10
19.696574
 20
432.553327
 30
0.0
  0
SPLINE
  5
1ba
100
AcDbEntity
  8
Image
 62
7
100
AcDbSpline
 70
8
 71
3
 72
8
 73
4
 74
0
 40
0
 40
0
 40
0
 40
0
 40
1
 40
1
 40
1
 40
1
 10
19.696574
 20
432.553327
 30
0.0
 10
19.677154
 20
432.517987
 30
0.0
 10
19.669354
 20
432.514317
 30
0.0
 10
19.669044
 20
432.540377
 30
0.0
  0
SPLINE
  5
1bb
100
AcDbEntity
  8
Image
 62
7
100
AcDbSpline
 70
8
 71
3
 72
8
 73
4
 74
0
 40
0
 40
0
 40
0
 40
0
 40
1
 40
1
 40
1
 40
1
 10
19.669044
 20
432.540377
 30
0.0
 10
19.668852
 20
432.560367
 30
0.0
 10
19.655164
 20
432.537877
 30
0.0
 10
19.638734
 20
432.490337
 30
0.0
  0
SPLINE
  5
1bc
100
AcDbEntity
  8
Image
 62
7
100
AcDbSpline
 70
8
 71
3
 72
8
 73
4
 74
0
 40
0
 40
0
 40
0
 40
0
 40
1
 40
1
 40
1
 40
1
 10
19.638734
 20
432.490337
 30
0.0
 10
19.562624
 20
432.270218
 30
0.0
 10
19.542224
 20
432.230951
 30
0.0
 10
19.500021
 20
432.223312
 30
0.0
  0
SPLINE
  5
1bd
100
AcDbEntity
  8
Image
 62
7
100
AcDbSpline
 70
8
 71
3
 72
8
 73
4
 74
0
 40
0
 40
0
 40
0
 40
0
 40
1
 40
1
 40
1
 40
1
 10
19.500021
 20
432.223312
 30
0.0
 10
19.476051
 20
432.219012
 30
0.0
 10
19.456441
 20
432.226612
 30
0.0
 10
19.456441
 20
432.240162
 30
0.0
  0
LWPOLYLINE
  5
1be
100
AcDbEntity
  8
Image
 62
7
100
AcDbPolyline
 90
1
 70
1
 10
19.440662
 20
431.095956
 30
0.0
  0
SPLINE
  5
1bf
100
AcDbEntity
  8
Image
 62
7
100
AcDbSpline
 70
8
 71
3
 72
8
 73
4
 74
0
 40
0
 40
0
 40
0
 40
0
 40
1
 40
1
 40
1
 40
1
 10
16.555140
 20
431.382366
 30
0.0
 10
16.654280
 20
431.424526
 30
0.0
 10
16.757174
 20
431.473096
 30
0.0
 10
16.783804
 20
431.490295
 30
0.0
  0
SPLINE
  5
1c0
100
AcDbEntity
  8
Image
 62
7
100
AcDbSpline
 70
8
 71
3
 72
8
 73
4
 74
0
 40
0
 40
0
 40
0
 40
0
 40
1
 40
1
 40
1
 40
1
 10
16.783804
 20
431.490295
 30
0.0
 10
16.810434
 20
431.507495
 30
0.0
 10
16.970790
 20
431.607889
 30
0.0
 10
17.140152
 20
431.713390
 30
0.0
  0
SPLINE
  5
1c1
100
AcDbEntity
  8
Image
 62
7
100
AcDbSpline
 70
8
 71
3
 72
8
 73
4
 74
0
 40
0
 40
0
 40
0
 40
0
 40
1
 40
1
 40
1
 40
1
 10
17.140152
 20
431.713390
 30
0.0
 10
17.603108
 20
432.001778
 30
0.0
 10
17.576051
 20
431.971648
 30
0.0
 10
17.577032
 20
432.199890
 30
0.0
  0
SPLINE
  5
1c2
100
AcDbEntity
  8
Image
 62
7
100
AcDbSpline
 70
8
 71
3
 72
8
 73
4
 74
0
 40
0
 40
0
 40
0
 40
0
 40
1
 40
1
 40
1
 40
1
 10
17.577032
 20
432.199890
 30
0.0
 10
17.577888
 20
432.394581
 30
0.0
 10
17.540642
 20
433.012411
 30
0.0
 10
17.526932
 20
433.031493
 30
0.0
  0
SPLINE
  5
1c3
100
AcDbEntity
  8
Image
 62
7
100
AcDbSpline
 70
8
 71
3
 72
8
 73
4
 74
0
 40
0
 40
0
 40
0
 40
0
 40
1
 40
1
 40
1
 40
1
 10
17.526932
 20
433.031493
 30
0.0
 10
17.522732
 20
433.037293
 30
0.0
 10
17.456262
 20
433.000193
 30
0.0
 10
17.379147
 20
432.949063
 30
0.0
  0
SPLINE
  5
1c4
100
AcDbEntity
  8
Image
 62
7
100
AcDbSpline
 70
8
 71
3
 72
8
 73
4
 74
0
 40
0
 40
0
 40
0
 40
0
 40
1
 40
1
 40
1
 40
1
 10
17.379147
 20
432.949063
 30
0.0
 10
16.987898
 20
432.689672
 30
0.0
 10
16.818000
 20
432.593053
 30
0.0
 10
16.609503
 20
432.511376
 30
0.0
  0
SPLINE
  5
1c5
100
AcDbEntity
  8
Image
 62
7
100
AcDbSpline
 70
8
 71
3
 72
8
 73
4
 74
0
 40
0
 40
0
 40
0
 40
0
 40
1
 40
1
 40
1
 40
1
 10
16.609503
 20
432.511376
 30
0.0
 10
16.406874
 20
432.431996
 30
0.0
 10
16.073287
 20
432.431776
 30
0.0
 10
15.737988
 20
432.510787
 30
0.0
  0
SPLINE
  5
1c6
100
AcDbEntity
  8
Image
 62
7
100
AcDbSpline
 70
8
 71
3
 72
8
 73
4
 74
0
 40
0
 40
0
 40
0
 40
0
 40
1
 40
1
 40
1
 40
1
 10
15.737988
 20
432.510787
 30
0.0
 10
15.604840
 20
432.542167
 30
0.0
 10
15.373888
 20
432.595687
 30
0.0
 10
15.224762
 20
432.629705
 30
0.0
  0
SPLINE
  5
1c7
100
AcDbEntity
  8
Image
 62
7
100
AcDbSpline
 70
8
 71
3
 72
8
 73
4
 74
0
 40
0
 40
0
 40
0
 40
0
 40
1
 40
1
 40
1
 40
1
 10
15.224762
 20
432.629705
 30
0.0
 10
15.075636
 20
432.663725
 30
0.0
 10
14.727030
 20
432.745595
 30
0.0
 10
14.450082
 20
432.811633
 30
0.0
  0
SPLINE
  5
1c8
100
AcDbEntity
  8
Image
 62
7
100
AcDbSpline
 70
8
 71
3
 72
8
 73
4
 74
0
 40
0
 40
0
 40
0
 40
0
 40
1
 40
1
 40
1
 40
1
 10
14.450082
 20
432.811633
 30
0.0
 10
13.194984
 20
433.110911
 30
0.0
 10
12.511929
 20
433.227789
 30
0.0
 10
12.399499
 20
433.162510
 30
0.0
  0
SPLINE
  5
1c9
100
AcDbEntity
  8
Image
 62
7
100
AcDbSpline
 70
8
 71
3
 72
8
 73
4
 74
0
 40
0
 40
0
 40
0
 40
0
 40
1
 40
1
 40
1
 40
1
 10
12.399499
 20
433.162510
 30
0.0
 10
12.315509
 20
433.113740
 30
0.0
 10
12.282492
 20
432.997987
 30
0.0
 10
12.281691
 20
432.749455
 30
0.0
  0
SPLINE
  5
1ca
100
AcDbEntity
  8
Image
 62
7
100
AcDbSpline
 70
8
 71
3
 72
8
 73
4
 74
0
 40
0
 40
0
 40
0
 40
0
 40
1
 40
1
 40
1
 40
1
 10
12.281691
 20
432.749455
 30
0.0
 10
12.280942
 20
432.493927
 30
0.0
 10
12.314471
 20
432.318633
 30
0.0
 10
12.380351
 20
432.234669
 30
0.0
  0
SPLINE
  5
1cb
100
AcDbEntity
  8
Image
 62
7
100
AcDbSpline
 70
8
 71
3
 72
8
 73
4
 74
0
 40
0
 40
0
 40
0
 40
0
 40
1
 40
1
 40
1
 40
1
 10
12.380351
 20
432.234669
 30
0.0
 10
12.446331
 20
432.150589
 30
0.0
 10
12.917343
 20
431.946620
 30
0.0
 10
13.239640
 20
431.862552
 30
0.0
  0
SPLINE
  5
1cc
100
AcDbEntity
  8
Image
 62
7
100
AcDbSpline
 70
8
 71
3
 72
8
 73
4
 74
0
 40
0
 40
0
 40
0
 40
0
 40
1
 40
1
 40
1
 40
1
 10
13.239640
 20
431.862552
 30
0.0
 10
13.308880
 20
431.844492
 30
0.0
 10
13.552901
 20
431.779432
 30
0.0
 10
13.781917
 20
431.717978
 30
0.0
  0
SPLINE
  5
1cd
100
AcDbEntity
  8
Image
 62
7
100
AcDbSpline
 70
8
 71
3
 72
8
 73
4
 74
0
 40
0
 40
0
 40
0
 40
0
 40
1
 40
1
 40
1
 40
1
 10
13.781917
 20
431.717978
 30
0.0
 10
14.315354
 20
431.574830
 30
0.0
 10
14.549588
 20
431.521720
 30
0.0
 10
15.050456
 20
431.430349
 30
0.0
  0
SPLINE
  5
1ce
100
AcDbEntity
  8
Image
 62
7
100
AcDbSpline
 70
8
 71
3
 72
8
 73
4
 74
0
 40
0
 40
0
 40
0
 40
0
 40
1
 40
1
 40
1
 40
1
 10
15.050456
 20
431.430349
 30
0.0
 10
15.572588
 20
431.335099
 30
0.0
 10
15.762384
 20
431.313162
 30
0.0
 10
16.100014
 20
431.309041
 30
0.0
  0
SPLINE
  5
1cf
100
AcDbEntity
  8
Image
 62
7
100
AcDbSpline
 70
8
 71
3
 72
8
 73
4
 74
0
 40
0
 40
0
 40
0
 40
0
 40
1
 40
1
 40
1
 40
1
 10
16.100014
 20
431.309041
 30
0.0
 10
16.359553
 20
431.305841
 30
0.0
 10
16.384951
 20
431.309951
 30
0.0
 10
16.555139
 20
431.382341
 30
0.0
  0
LWPOLYLINE
  5
1d0
100
AcDbEntity
  8
Image
 62
7
100
AcDbPolyline
 90
1
 70
1
 10
19.456441
 20
432.240162
 30
0.0
  0
SPLINE
  5
1d1
100
AcDbEntity
  8
Image
 62
7
100
AcDbSpline
 70
8
 71
3
 72
8
 73
4
 74
0
 40
0
 40
0
 40
0
 40
0
 40
1
 40
1
 40
1
 40
1
 10
14.989023
 20
431.871822
 30
0.0
 10
14.797372
 20
431.982709
 30
0.0
 10
14.760803
 20
432.294418
 30
0.0
 10
14.917373
 20
432.482586
 30
0.0
  0
SPLINE
  5
1d2
100
AcDbEntity
  8
Image
 62
7
100
AcDbSpline
 70
8
 71
3
 72
8
 73
4
 74
0
 40
0
 40
0
 40
0
 40
0
 40
1
 40
1
 40
1
 40
1
 10
14.917373
 20
432.482586
 30
0.0
 10
15.038353
 20
432.627985
 30
0.0
 10
15.217037
 20
432.615365
 30
0.0
 10
15.328530
 20
432.453546
 30
0.0
  0
SPLINE
  5
1d3
100
AcDbEntity
  8
Image
 62
7
100
AcDbSpline
 70
8
 71
3
 72
8
 73
4
 74
0
 40
0
 40
0
 40
0
 40
0
 40
1
 40
1
 40
1
 40
1
 10
15.328530
 20
432.453546
 30
0.0
 10
15.470820
 20
432.247030
 30
0.0
 10
15.404000
 20
431.939904
 30
0.0
 10
15.197664
 20
431.852026
 30
0.0
  0
SPLINE
  5
1d4
100
AcDbEntity
  8
Image
 62
7
100
AcDbSpline
 70
8
 71
3
 72
8
 73
4
 74
0
 40
0
 40
0
 40
0
 40
0
 40
1
 40
1
 40
1
 40
1
 10
15.197664
 20
431.852026
 30
0.0
 10
15.109564
 20
431.814506
 30
0.0
 10
15.083882
 20
431.816936
 30
0.0
 10
14.989026
 20
431.871826
 30
0.0
  0
LWPOLYLINE
  5
1d5
100
AcDbEntity
  8
Image
 62
7
100
AcDbPolyline
 90
1
 70
1
 10
16.555139
 20
431.382341
 30
0.0
  0
SPLINE
  5
1d6
100
AcDbEntity
  8
Image
 62
7
100
AcDbSpline
 70
8
 71
3
 72
8
 73
4
 74
0
 40
0
 40
0
 40
0
 40
0
 40
1
 40
1
 40
1
 40
1
 10
15.156975
 20
432.095467
 30
0.0
 10
15.178285
 20
432.122617
 30
0.0
 10
15.195705
 20
432.167037
 30
0.0
 10
15.195705
 20
432.194187
 30
0.0
  0
SPLINE
  5
1d7
100
AcDbEntity
  8
Image
 62
7
100
AcDbSpline
 70
8
 71
3
 72
8
 73
4
 74
0
 40
0
 40
0
 40
0
 40
0
 40
1
 40
1
 40
1
 40
1
 10
15.195705
 20
432.194187
 30
0.0
 10
15.195705
 20
432.249367
 30
0.0
 10
15.131585
 20
432.342266
 30
0.0
 10
15.093495
 20
432.342266
 30
0.0
  0
SPLINE
  5
1d8
100
AcDbEntity
  8
Image
 62
7
100
AcDbSpline
 70
8
 71
3
 72
8
 73
4
 74
0
 40
0
 40
0
 40
0
 40
0
 40
1
 40
1
 40
1
 40
1
 10
15.093495
 20
432.342266
 30
0.0
 10
15.000715
 20
432.342266
 30
0.0
 10
14.950373
 20
432.181849
 30
0.0
 10
15.014715
 20
432.091241
 30
0.0
  0
SPLINE
  5
1d9
100
AcDbEntity
  8
Image
 62
7
100
AcDbSpline
 70
8
 71
3
 72
8
 73
4
 74
0
 40
0
 40
0
 40
0
 40
0
 40
1
 40
1
 40
1
 40
1
 10
15.014715
 20
432.091241
 30
0.0
 10
15.056475
 20
432.032431
 30
0.0
 10
15.108725
 20
432.033991
 30
0.0
 10
15.156965
 20
432.095441
 30
0.0
  0
LWPOLYLINE
  5
1da
100
AcDbEntity
  8
Image
 62
7
100
AcDbPolyline
 90
1
 70
1
 10
14.989026
 20
431.871826
 30
0.0
  0
SPLINE
  5
1db
100
AcDbEntity
  8
Image
 62
7
100
AcDbSpline
 70
8
 71
3
 72
8
 73
4
 74
0
 40
0
 40
0
 40
0
 40
0
 40
1
 40
1
 40
1
 40
1
 10
15.298642
 20
432.326918
 30
0.0
 10
15.310092
 20
432.364948
 30
0.0
 10
15.277732
 20
432.416308
 30
0.0
 10
15.242322
 20
432.416308
 30
0.0
  0
SPLINE
  5
1dc
100
AcDbEntity
  8
Image
 62
7
100
AcDbSpline
 70
8
 71
3
 72
8
 73
4
 74
0
 40
0
 40
0
 40
0
 40
0
 40
1
 40
1
 40
1
 40
1
 10
15.242322
 20
432.416308
 30
0.0
 10
15.215142
 20
432.416308
 30
0.0
 10
15.190782
 20
432.347718
 30
0.0
 10
15.206472
 20
432.315362
 30
0.0
  0
SPLINE
  5
1dd
100
AcDbEntity
  8
Image
 62
7
100
AcDbSpline
 70
8
 71
3
 72
8
 73
4
 74
0
 40
0
 40
0
 40
0
 40
0
 40
1
 40
1
 40
1
 40
1
 10
15.206472
 20
432.315362
 30
0.0
 10
15.223252
 20
432.280772
 30
0.0
 10
15.287162
 20
432.288792
 30
0.0
 10
15.298642
 20
432.326922
 30
0.0
  0
LWPOLYLINE
  5
1de
100
AcDbEntity
  8
Image
 62
7
100
AcDbPolyline
 90
1
 70
1
 10
15.156965
 20
432.095441
 30
0.0
  0
SPLINE
  5
1df
100
AcDbEntity
  8
Image
 62
7
100
AcDbSpline
 70
8
 71
3
 72
8
 73
4
 74
0
 40
0
 40
0
 40
0
 40
0
 40
1
 40
1
 40
1
 40
1
 10
14.080361
 20
431.875006
 30
0.0
 10
14.002361
 20
431.904186
 30
0.0
 10
13.917487
 20
432.005594
 30
0.0
 10
13.917487
 20
432.069609
 30
0.0
  0
SPLINE
  5
1e0
100
AcDbEntity
  8
Image
 62
7
100
AcDbSpline
 70
8
 71
3
 72
8
 73
4
 74
0
 40
0
 40
0
 40
0
 40
0
 40
1
 40
1
 40
1
 40
1
 10
13.917487
 20
432.069609
 30
0.0
 10
13.917487
 20
432.135589
 30
0.0
 10
13.939237
 20
432.133349
 30
0.0
 10
14.025847
 20
432.058449
 30
0.0
  0
SPLINE
  5
1e1
100
AcDbEntity
  8
Image
 62
7
100
AcDbSpline
 70
8
 71
3
 72
8
 73
4
 74
0
 40
0
 40
0
 40
0
 40
0
 40
1
 40
1
 40
1
 40
1
 10
14.025847
 20
432.058449
 30
0.0
 10
14.065087
 20
432.024519
 30
0.0
 10
14.114767
 20
431.996749
 30
0.0
 10
14.136240
 20
431.996749
 30
0.0
  0
SPLINE
  5
1e2
100
AcDbEntity
  8
Image
 62
7
100
AcDbSpline
 70
8
 71
3
 72
8
 73
4
 74
0
 40
0
 40
0
 40
0
 40
0
 40
1
 40
1
 40
1
 40
1
 10
14.136240
 20
431.996749
 30
0.0
 10
14.157710
 20
431.996749
 30
0.0
 10
14.203850
 20
432.024509
 30
0.0
 10
14.238764
 20
432.058449
 30
0.0
  0
SPLINE
  5
1e3
100
AcDbEntity
  8
Image
 62
7
100
AcDbSpline
 70
8
 71
3
 72
8
 73
4
 74
0
 40
0
 40
0
 40
0
 40
0
 40
1
 40
1
 40
1
 40
1
 10
14.238764
 20
432.058449
 30
0.0
 10
14.312144
 20
432.129769
 30
0.0
 10
14.330104
 20
432.133539
 30
0.0
 10
14.362157
 20
432.084309
 30
0.0
  0
SPLINE
  5
1e4
100
AcDbEntity
  8
Image
 62
7
100
AcDbSpline
 70
8
 71
3
 72
8
 73
4
 74
0
 40
0
 40
0
 40
0
 40
0
 40
1
 40
1
 40
1
 40
1
 10
14.362157
 20
432.084309
 30
0.0
 10
14.436387
 20
431.970339
 30
0.0
 10
14.231770
 20
431.818362
 30
0.0
 10
14.080361
 20
431.875004
 30
0.0
  0
LWPOLYLINE
  5
1e5
100
AcDbEntity
  8
Image
 62
7
100
AcDbPolyline
 90
1
 70
1
 10
15.298642
 20
432.326922
 30
0.0
  0
SPLINE
  5
1e6
100
AcDbEntity
  8
Image
 62
7
100
AcDbSpline
 70
8
 71
3
 72
8
 73
4
 74
0
 40
0
 40
0
 40
0
 40
0
 40
1
 40
1
 40
1
 40
1
 10
17.542175
 20
432.169506
 30
0.0
 10
17.542175
 20
432.203436
 30
0.0
 10
17.546575
 20
432.217326
 30
0.0
 10
17.551975
 20
432.200356
 30
0.0
  0
SPLINE
  5
1e7
100
AcDbEntity
  8
Image
 62
7
100
AcDbSpline
 70
8
 71
3
 72
8
 73
4
 74
0
 40
0
 40
0
 40
0
 40
0
 40
1
 40
1
 40
1
 40
1
 10
17.551975
 20
432.200356
 30
0.0
 10
17.557375
 20
432.183386
 30
0.0
 10
17.557375
 20
432.155626
 30
0.0
 10
17.551975
 20
432.138656
 30
0.0
  0
SPLINE
  5
1e8
100
AcDbEntity
  8
Image
 62
7
100
AcDbSpline
 70
8
 71
3
 72
8
 73
4
 74
0
 40
0
 40
0
 40
0
 40
0
 40
1
 40
1
 40
1
 40
1
 10
17.551975
 20
432.138656
 30
0.0
 10
17.546575
 20
432.121686
 30
0.0
 10
17.542175
 20
432.135556
 30
0.0
 10
17.542175
 20
432.169506
 30
0.0
  0
LWPOLYLINE
  5
1e9
100
AcDbEntity
  8
Image
 62
7
100
AcDbPolyline
 90
1
 70
1
 10
14.080361
 20
431.875004
 30
0.0
  0
SPLINE
  5
1ea
100
AcDbEntity
  8
Image
 62
7
100
AcDbSpline
 70
8
 71
3
 72
8
 73
4
 74
0
 40
0
 40
0
 40
0
 40
0
 40
1
 40
1
 40
1
 40
1
 10
13.123438
 20
432.244536
 30
0.0
 10
13.011389
 20
432.330586
 30
0.0
 10
12.978185
 20
432.407619
 30
0.0
 10
12.978185
 20
432.581526
 30
0.0
  0
SPLINE
  5
1eb
100
AcDbEntity
  8
Image
 62
7
100
AcDbSpline
 70
8
 71
3
 72
8
 73
4
 74
0
 40
0
 40
0
 40
0
 40
0
 40
1
 40
1
 40
1
 40
1
 10
12.978185
 20
432.581526
 30
0.0
 10
12.978185
 20
432.722520
 30
0.0
 10
12.983385
 20
432.741263
 30
0.0
 10
13.045285
 20
432.822631
 30
0.0
  0
SPLINE
  5
1ec
100
AcDbEntity
  8
Image
 62
7
100
AcDbSpline
 70
8
 71
3
 72
8
 73
4
 74
0
 40
0
 40
0
 40
0
 40
0
 40
1
 40
1
 40
1
 40
1
 10
13.045285
 20
432.822631
 30
0.0
 10
13.166040
 20
432.981396
 30
0.0
 10
13.346669
 20
432.990077
 30
0.0
 10
13.457204
 20
432.842431
 30
0.0
  0
SPLINE
  5
1ed
100
AcDbEntity
  8
Image
 62
7
100
AcDbSpline
 70
8
 71
3
 72
8
 73
4
 74
0
 40
0
 40
0
 40
0
 40
0
 40
1
 40
1
 40
1
 40
1
 10
13.457204
 20
432.842431
 30
0.0
 10
13.593612
 20
432.660224
 30
0.0
 10
13.574267
 20
432.415400
 30
0.0
 10
13.411314
 20
432.261617
 30
0.0
  0
SPLINE
  5
1ee
100
AcDbEntity
  8
Image
 62
7
100
AcDbSpline
 70
8
 71
3
 72
8
 73
4
 74
0
 40
0
 40
0
 40
0
 40
0
 40
1
 40
1
 40
1
 40
1
 10
13.411314
 20
432.261617
 30
0.0
 10
13.334294
 20
432.188937
 30
0.0
 10
13.205770
 20
432.181307
 30
0.0
 10
13.123438
 20
432.244537
 30
0.0
  0
LWPOLYLINE
  5
1ef
100
AcDbEntity
  8
Image
 62
7
100
AcDbPolyline
 90
1
 70
1
 10
17.542175
 20
432.169506
 30
0.0
  0
SPLINE
  5
1f0
100
AcDbEntity
  8
Image
 62
7
100
AcDbSpline
 70
8
 71
3
 72
8
 73
4
 74
0
 40
0
 40
0
 40
0
 40
0
 40
1
 40
1
 40
1
 40
1
 10
13.293431
 20
432.454727
 30
0.0
 10
13.339901
 20
432.496207
 30
0.0
 10
13.348321
 20
432.564094
 30
0.0
 10
13.316431
 20
432.640049
 30
0.0
  0
SPLINE
  5
1f1
100
AcDbEntity
  8
Image
 62
7
100
AcDbSpline
 70
8
 71
3
 72
8
 73
4
 74
0
 40
0
 40
0
 40
0
 40
0
 40
1
 40
1
 40
1
 40
1
 10
13.316431
 20
432.640049
 30
0.0
 10
13.293451
 20
432.694769
 30
0.0
 10
13.184529
 20
432.706399
 30
0.0
 10
13.146683
 20
432.658169
 30
0.0
  0
SPLINE
  5
1f2
100
AcDbEntity
  8
Image
 62
7
100
AcDbSpline
 70
8
 71
3
 72
8
 73
4
 74
0
 40
0
 40
0
 40
0
 40
0
 40
1
 40
1
 40
1
 40
1
 10
13.146683
 20
432.658169
 30
0.0
 10
13.092433
 20
432.589039
 30
0.0
 10
13.144083
 20
432.416306
 30
0.0
 10
13.218973
 20
432.416306
 30
0.0
  0
SPLINE
  5
1f3
100
AcDbEntity
  8
Image
 62
7
100
AcDbSpline
 70
8
 71
3
 72
8
 73
4
 74
0
 40
0
 40
0
 40
0
 40
0
 40
1
 40
1
 40
1
 40
1
 10
13.218973
 20
432.416306
 30
0.0
 10
13.236253
 20
432.416306
 30
0.0
 10
13.269763
 20
432.433596
 30
0.0
 10
13.293443
 20
432.454726
 30
0.0
  0
LWPOLYLINE
  5
1f4
100
AcDbEntity
  8
Image
 62
7
100
AcDbPolyline
 90
1
 70
1
 10
13.123438
 20
432.244537
 30
0.0
  0
SPLINE
  5
1f5
100
AcDbEntity
  8
Image
 62
7
100
AcDbSpline
 70
8
 71
3
 72
8
 73
4
 74
0
 40
0
 40
0
 40
0
 40
0
 40
1
 40
1
 40
1
 40
1
 10
13.444142
 20
432.690155
 30
0.0
 10
13.461222
 20
432.725355
 30
0.0
 10
13.404692
 20
432.797387
 30
0.0
 10
13.377062
 20
432.775625
 30
0.0
  0
SPLINE
  5
1f6
100
AcDbEntity
  8
Image
 62
7
100
AcDbSpline
 70
8
 71
3
 72
8
 73
4
 74
0
 40
0
 40
0
 40
0
 40
0
 40
1
 40
1
 40
1
 40
1
 10
13.377062
 20
432.775625
 30
0.0
 10
13.340152
 20
432.746555
 30
0.0
 10
13.352292
 20
432.663103
 30
0.0
 10
13.393422
 20
432.663103
 30
0.0
  0
SPLINE
  5
1f7
100
AcDbEntity
  8
Image
 62
7
100
AcDbSpline
 70
8
 71
3
 72
8
 73
4
 74
0
 40
0
 40
0
 40
0
 40
0
 40
1
 40
1
 40
1
 40
1
 10
13.393422
 20
432.663103
 30
0.0
 10
13.414102
 20
432.663103
 30
0.0
 10
13.436922
 20
432.675273
 30
0.0
 10
13.444132
 20
432.690153
 30
0.0
  0
LWPOLYLINE
  5
1f8
100
AcDbEntity
  8
Image
 62
7
100
AcDbPolyline
 90
1
 70
1
 10
13.293443
 20
432.454726
 30
0.0
  0
SPLINE
  5
1f9
100
AcDbEntity
  8
Image
 62
7
100
AcDbSpline
 70
8
 71
3
 72
8
 73
4
 74
0
 40
0
 40
0
 40
0
 40
0
 40
1
 40
1
 40
1
 40
1
 10
16.527138
 20
432.604195
 30
0.0
 10
16.614688
 20
432.628625
 30
0.0
 10
16.662747
 20
432.653145
 30
0.0
 10
16.654873
 20
432.669385
 30
0.0
  0
SPLINE
  5
1fa
100
AcDbEntity
  8
Image
 62
7
100
AcDbSpline
 70
8
 71
3
 72
8
 73
4
 74
0
 40
0
 40
0
 40
0
 40
0
 40
1
 40
1
 40
1
 40
1
 10
16.654873
 20
432.669385
 30
0.0
 10
16.647373
 20
432.684865
 30
0.0
 10
16.651573
 20
432.688095
 30
0.0
 10
16.665173
 20
432.677385
 30
0.0
  0
SPLINE
  5
1fb
100
AcDbEntity
  8
Image
 62
7
100
AcDbSpline
 70
8
 71
3
 72
8
 73
4
 74
0
 40
0
 40
0
 40
0
 40
0
 40
1
 40
1
 40
1
 40
1
 10
16.665173
 20
432.677385
 30
0.0
 10
16.705483
 20
432.645635
 30
0.0
 10
16.955937
 20
432.784315
 30
0.0
 10
17.378798
 20
433.072541
 30
0.0
  0
SPLINE
  5
1fc
100
AcDbEntity
  8
Image
 62
7
100
AcDbSpline
 70
8
 71
3
 72
8
 73
4
 74
0
 40
0
 40
0
 40
0
 40
0
 40
1
 40
1
 40
1
 40
1
 10
17.378798
 20
433.072541
 30
0.0
 10
17.507944
 20
433.160571
 30
0.0
 10
17.516744
 20
433.171571
 30
0.0
 10
17.493585
 20
433.216016
 30
0.0
  0
SPLINE
  5
1fd
100
AcDbEntity
  8
Image
 62
7
100
AcDbSpline
 70
8
 71
3
 72
8
 73
4
 74
0
 40
0
 40
0
 40
0
 40
0
 40
1
 40
1
 40
1
 40
1
 10
17.493585
 20
433.216016
 30
0.0
 10
17.462835
 20
433.275026
 30
0.0
 10
17.236585
 20
433.386388
 30
0.0
 10
17.176954
 20
433.371862
 30
0.0
  0
SPLINE
  5
1fe
100
AcDbEntity
  8
Image
 62
7
100
AcDbSpline
 70
8
 71
3
 72
8
 73
4
 74
0
 40
0
 40
0
 40
0
 40
0
 40
1
 40
1
 40
1
 40
1
 10
17.176954
 20
433.371862
 30
0.0
 10
17.153104
 20
433.366062
 30
0.0
 10
17.137394
 20
433.369162
 30
0.0
 10
17.142054
 20
433.378762
 30
0.0
  0
SPLINE
  5
1ff
100
AcDbEntity
  8
Image
 62
7
100
AcDbSpline
 70
8
 71
3
 72
8
 73
4
 74
0
 40
0
 40
0
 40
0
 40
0
 40
1
 40
1
 40
1
 40
1
 10
17.142054
 20
433.378762
 30
0.0
 10
17.172054
 20
433.440632
 30
0.0
 10
16.253477
 20
433.651093
 30
0.0
 10
14.876162
 20
433.897912
 30
0.0
  0
SPLINE
  5
200
100
AcDbEntity
  8
Image
 62
7
100
AcDbSpline
 70
8
 71
3
 72
8
 73
4
 74
0
 40
0
 40
0
 40
0
 40
0
 40
1
 40
1
 40
1
 40
1
 10
14.876162
 20
433.897912
 30
0.0
 10
14.567258
 20
433.953272
 30
0.0
 10
14.163007
 20
434.025783
 30
0.0
 10
13.977826
 20
434.059056
 30
0.0
  0
SPLINE
  5
201
100
AcDbEntity
  8
Image
 62
7
100
AcDbSpline
 70
8
 71
3
 72
8
 73
4
 74
0
 40
0
 40
0
 40
0
 40
0
 40
1
 40
1
 40
1
 40
1
 10
13.977826
 20
434.059056
 30
0.0
 10
13.688823
 20
434.110986
 30
0.0
 10
13.633960
 20
434.114876
 30
0.0
 10
13.590485
 20
434.086576
 30
0.0
  0
SPLINE
  5
202
100
AcDbEntity
  8
Image
 62
7
100
AcDbSpline
 70
8
 71
3
 72
8
 73
4
 74
0
 40
0
 40
0
 40
0
 40
0
 40
1
 40
1
 40
1
 40
1
 10
13.590485
 20
434.086576
 30
0.0
 10
13.530125
 20
434.047276
 30
0.0
 10
12.617114
 20
433.347094
 30
0.0
 10
12.561461
 20
433.297420
 30
0.0
  0
SPLINE
  5
203
100
AcDbEntity
  8
Image
 62
7
100
AcDbSpline
 70
8
 71
3
 72
8
 73
4
 74
0
 40
0
 40
0
 40
0
 40
0
 40
1
 40
1
 40
1
 40
1
 10
12.561461
 20
433.297420
 30
0.0
 10
12.526831
 20
433.266510
 30
0.0
 10
12.542641
 20
433.261250
 30
0.0
 10
12.712651
 20
433.247050
 30
0.0
  0
SPLINE
  5
204
100
AcDbEntity
  8
Image
 62
7
100
AcDbSpline
 70
8
 71
3
 72
8
 73
4
 74
0
 40
0
 40
0
 40
0
 40
0
 40
1
 40
1
 40
1
 40
1
 10
12.712651
 20
433.247050
 30
0.0
 10
13.089858
 20
433.215550
 30
0.0
 10
13.646348
 20
433.102178
 30
0.0
 10
14.914896
 20
432.798398
 30
0.0
  0
SPLINE
  5
205
100
AcDbEntity
  8
Image
 62
7
100
AcDbSpline
 70
8
 71
3
 72
8
 73
4
 74
0
 40
0
 40
0
 40
0
 40
0
 40
1
 40
1
 40
1
 40
1
 10
14.914896
 20
432.798398
 30
0.0
 10
15.332974
 20
432.698281
 30
0.0
 10
15.890097
 20
432.583951
 30
0.0
 10
16.096283
 20
432.555959
 30
0.0
  0
SPLINE
  5
206
100
AcDbEntity
  8
Image
 62
7
100
AcDbSpline
 70
8
 71
3
 72
8
 73
4
 74
0
 40
0
 40
0
 40
0
 40
0
 40
1
 40
1
 40
1
 40
1
 10
16.096283
 20
432.555959
 30
0.0
 10
16.206112
 20
432.541049
 30
0.0
 10
16.364111
 20
432.558759
 30
0.0
 10
16.527147
 20
432.604229
 30
0.0
  0
LWPOLYLINE
  5
207
100
AcDbEntity
  8
Image
 62
7
100
AcDbPolyline
 90
1
 70
1
 10
13.444132
 20
432.690153
 30
0.0
  0
SPLINE
  5
208
100
AcDbEntity
  8
Image
 62
7
100
AcDbSpline
 70
8
 71
3
 72
8
 73
4
 74
0
 40
0
 40
0
 40
0
 40
0
 40
1
 40
1
 40
1
 40
1
 10
17.384179
 20
433.231517
 30
0.0
 10
17.384179
 20
433.244657
 30
0.0
 10
17.397249
 20
433.255427
 30
0.0
 10
17.413229
 20
433.255427
 30
0.0
  0
SPLINE
  5
209
100
AcDbEntity
  8
Image
 62
7
100
AcDbSpline
 70
8
 71
3
 72
8
 73
4
 74
0
 40
0
 40
0
 40
0
 40
0
 40
1
 40
1
 40
1
 40
1
 10
17.413229
 20
433.255427
 30
0.0
 10
17.429209
 20
433.255427
 30
0.0
 10
17.442279
 20
433.251127
 30
0.0
 10
17.442279
 20
433.245727
 30
0.0
  0
SPLINE
  5
20a
100
AcDbEntity
  8
Image
 62
7
100
AcDbSpline
 70
8
 71
3
 72
8
 73
4
 74
0
 40
0
 40
0
 40
0
 40
0
 40
1
 40
1
 40
1
 40
1
 10
17.442279
 20
433.245727
 30
0.0
 10
17.442279
 20
433.240327
 30
0.0
 10
17.429209
 20
433.229637
 30
0.0
 10
17.413229
 20
433.221817
 30
0.0
  0
SPLINE
  5
20b
100
AcDbEntity
  8
Image
 62
7
100
AcDbSpline
 70
8
 71
3
 72
8
 73
4
 74
0
 40
0
 40
0
 40
0
 40
0
 40
1
 40
1
 40
1
 40
1
 10
17.413229
 20
433.221817
 30
0.0
 10
17.397249
 20
433.214017
 30
0.0
 10
17.384179
 20
433.218417
 30
0.0
 10
17.384179
 20
433.231517
 30
0.0
  0
LWPOLYLINE
  5
20c
100
AcDbEntity
  8
Image
 62
7
100
AcDbPolyline
 90
1
 70
1
 10
16.527147
 20
432.604229
 30
0.0
  0
SPLINE
  5
20d
100
AcDbEntity
  8
Image
 62
7
100
AcDbSpline
 70
8
 71
3
 72
8
 73
4
 74
0
 40
0
 40
0
 40
0
 40
0
 40
1
 40
1
 40
1
 40
1
 10
19.688853
 20
433.722989
 30
0.0
 10
19.694153
 20
433.730689
 30
0.0
 10
19.731803
 20
433.768569
 30
0.0
 10
19.772463
 20
433.807209
 30
0.0
  0
SPLINE
  5
20e
100
AcDbEntity
  8
Image
 62
7
100
AcDbSpline
 70
8
 71
3
 72
8
 73
4
 74
0
 40
0
 40
0
 40
0
 40
0
 40
1
 40
1
 40
1
 40
1
 10
19.772463
 20
433.807209
 30
0.0
 10
20.015749
 20
434.038392
 30
0.0
 10
20.065212
 20
434.174528
 30
0.0
 10
20.066028
 20
434.615192
 30
0.0
  0
SPLINE
  5
20f
100
AcDbEntity
  8
Image
 62
7
100
AcDbSpline
 70
8
 71
3
 72
8
 73
4
 74
0
 40
0
 40
0
 40
0
 40
0
 40
1
 40
1
 40
1
 40
1
 10
20.066028
 20
434.615192
 30
0.0
 10
20.066616
 20
434.919109
 30
0.0
 10
20.048828
 20
434.970446
 30
0.0
 10
19.952066
 20
434.944436
 30
0.0
  0
SPLINE
  5
210
100
AcDbEntity
  8
Image
 62
7
100
AcDbSpline
 70
8
 71
3
 72
8
 73
4
 74
0
 40
0
 40
0
 40
0
 40
0
 40
1
 40
1
 40
1
 40
1
 10
19.952066
 20
434.944436
 30
0.0
 10
19.894026
 20
434.928836
 30
0.0
 10
19.514702
 20
434.696951
 30
0.0
 10
19.495185
 20
434.665144
 30
0.0
  0
SPLINE
  5
211
100
AcDbEntity
  8
Image
 62
7
100
AcDbSpline
 70
8
 71
3
 72
8
 73
4
 74
0
 40
0
 40
0
 40
0
 40
0
 40
1
 40
1
 40
1
 40
1
 10
19.495185
 20
434.665144
 30
0.0
 10
19.489885
 20
434.656444
 30
0.0
 10
19.452185
 20
434.627254
 30
0.0
 10
19.411455
 20
434.600244
 30
0.0
  0
SPLINE
  5
212
100
AcDbEntity
  8
Image
 62
7
100
AcDbSpline
 70
8
 71
3
 72
8
 73
4
 74
0
 40
0
 40
0
 40
0
 40
0
 40
1
 40
1
 40
1
 40
1
 10
19.411455
 20
434.600244
 30
0.0
 10
19.314005
 20
434.535584
 30
0.0
 10
19.302870
 20
434.515554
 30
0.0
 10
19.315995
 20
434.428412
 30
0.0
  0
SPLINE
  5
213
100
AcDbEntity
  8
Image
 62
7
100
AcDbSpline
 70
8
 71
3
 72
8
 73
4
 74
0
 40
0
 40
0
 40
0
 40
0
 40
1
 40
1
 40
1
 40
1
 10
19.315995
 20
434.428412
 30
0.0
 10
19.325595
 20
434.364822
 30
0.0
 10
19.328915
 20
434.361542
 30
0.0
 10
19.341095
 20
434.403732
 30
0.0
  0
SPLINE
  5
214
100
AcDbEntity
  8
Image
 62
7
100
AcDbSpline
 70
8
 71
3
 72
8
 73
4
 74
0
 40
0
 40
0
 40
0
 40
0
 40
1
 40
1
 40
1
 40
1
 10
19.341095
 20
434.403732
 30
0.0
 10
19.350795
 20
434.437142
 30
0.0
 10
19.354735
 20
434.421452
 30
0.0
 10
19.353815
 20
434.353682
 30
0.0
  0
SPLINE
  5
215
100
AcDbEntity
  8
Image
 62
7
100
AcDbSpline
 70
8
 71
3
 72
8
 73
4
 74
0
 40
0
 40
0
 40
0
 40
0
 40
1
 40
1
 40
1
 40
1
 10
19.353815
 20
434.353682
 30
0.0
 10
19.353066
 20
434.299382
 30
0.0
 10
19.362715
 20
434.155010
 30
0.0
 10
19.375255
 20
434.032845
 30
0.0
  0
SPLINE
  5
216
100
AcDbEntity
  8
Image
 62
7
100
AcDbSpline
 70
8
 71
3
 72
8
 73
4
 74
0
 40
0
 40
0
 40
0
 40
0
 40
1
 40
1
 40
1
 40
1
 10
19.375255
 20
434.032845
 30
0.0
 10
19.387785
 20
433.910679
 30
0.0
 10
19.398105
 20
433.743165
 30
0.0
 10
19.398195
 20
433.660590
 30
0.0
  0
SPLINE
  5
217
100
AcDbEntity
  8
Image
 62
7
100
AcDbSpline
 70
8
 71
3
 72
8
 73
4
 74
0
 40
0
 40
0
 40
0
 40
0
 40
1
 40
1
 40
1
 40
1
 10
19.398195
 20
433.660590
 30
0.0
 10
19.398283
 20
433.578020
 30
0.0
 10
19.403995
 20
433.503253
 30
0.0
 10
19.410915
 20
433.494450
 30
0.0
  0
SPLINE
  5
218
100
AcDbEntity
  8
Image
 62
7
100
AcDbSpline
 70
8
 71
3
 72
8
 73
4
 74
0
 40
0
 40
0
 40
0
 40
0
 40
1
 40
1
 40
1
 40
1
 10
19.410915
 20
433.494450
 30
0.0
 10
19.421145
 20
433.481420
 30
0.0
 10
19.654293
 20
433.673128
 30
0.0
 10
19.688860
 20
433.722997
 30
0.0
  0
LWPOLYLINE
  5
219
100
AcDbEntity
  8
Image
 62
7
100
AcDbPolyline
 90
1
 70
1
 10
17.384179
 20
433.231517
 30
0.0
  0
SPLINE
  5
21a
100
AcDbEntity
  8
Image
 62
7
100
AcDbSpline
 70
8
 71
3
 72
8
 73
4
 74
0
 40
0
 40
0
 40
0
 40
0
 40
1
 40
1
 40
1
 40
1
 10
19.422600
 20
433.736679
 30
0.0
 10
19.422792
 20
433.790969
 30
0.0
 10
19.426800
 20
433.810279
 30
0.0
 10
19.431400
 20
433.779579
 30
0.0
  0
SPLINE
  5
21b
100
AcDbEntity
  8
Image
 62
7
100
AcDbSpline
 70
8
 71
3
 72
8
 73
4
 74
0
 40
0
 40
0
 40
0
 40
0
 40
1
 40
1
 40
1
 40
1
 10
19.431400
 20
433.779579
 30
0.0
 10
19.436100
 20
433.748879
 30
0.0
 10
19.435800
 20
433.704459
 30
0.0
 10
19.431016
 20
433.680859
 30
0.0
  0
SPLINE
  5
21c
100
AcDbEntity
  8
Image
 62
7
100
AcDbSpline
 70
8
 71
3
 72
8
 73
4
 74
0
 40
0
 40
0
 40
0
 40
0
 40
1
 40
1
 40
1
 40
1
 10
19.431016
 20
433.680859
 30
0.0
 10
19.426116
 20
433.657259
 30
0.0
 10
19.422416
 20
433.682359
 30
0.0
 10
19.422616
 20
433.736679
 30
0.0
  0
LWPOLYLINE
  5
21d
100
AcDbEntity
  8
Image
 62
7
100
AcDbPolyline
 90
1
 70
1
 10
19.688860
 20
433.722997
 30
0.0
  0
SPLINE
  5
21e
100
AcDbEntity
  8
Image
 62
7
100
AcDbSpline
 70
8
 71
3
 72
8
 73
4
 74
0
 40
0
 40
0
 40
0
 40
0
 40
1
 40
1
 40
1
 40
1
 10
19.480000
 20
434.784276
 30
0.0
 10
19.508930
 20
434.802656
 30
0.0
 10
19.527190
 20
434.828836
 30
0.0
 10
19.520580
 20
434.842466
 30
0.0
  0
SPLINE
  5
21f
100
AcDbEntity
  8
Image
 62
7
100
AcDbSpline
 70
8
 71
3
 72
8
 73
4
 74
0
 40
0
 40
0
 40
0
 40
0
 40
1
 40
1
 40
1
 40
1
 10
19.520580
 20
434.842466
 30
0.0
 10
19.513980
 20
434.856096
 30
0.0
 10
19.516680
 20
434.860786
 30
0.0
 10
19.526780
 20
434.852916
 30
0.0
  0
SPLINE
  5
220
100
AcDbEntity
  8
Image
 62
7
100
AcDbSpline
 70
8
 71
3
 72
8
 73
4
 74
0
 40
0
 40
0
 40
0
 40
0
 40
1
 40
1
 40
1
 40
1
 10
19.526780
 20
434.852916
 30
0.0
 10
19.536780
 20
434.845016
 30
0.0
 10
19.614290
 20
434.882186
 30
0.0
 10
19.699021
 20
434.935486
 30
0.0
  0
SPLINE
  5
221
100
AcDbEntity
  8
Image
 62
7
100
AcDbSpline
 70
8
 71
3
 72
8
 73
4
 74
0
 40
0
 40
0
 40
0
 40
0
 40
1
 40
1
 40
1
 40
1
 10
19.699021
 20
434.935486
 30
0.0
 10
19.783751
 20
434.988776
 30
0.0
 10
19.863544
 20
435.032376
 30
0.0
 10
19.876348
 20
435.032376
 30
0.0
  0
SPLINE
  5
222
100
AcDbEntity
  8
Image
 62
7
100
AcDbSpline
 70
8
 71
3
 72
8
 73
4
 74
0
 40
0
 40
0
 40
0
 40
0
 40
1
 40
1
 40
1
 40
1
 10
19.876348
 20
435.032376
 30
0.0
 10
19.944948
 20
435.032376
 30
0.0
 10
19.904568
 20
435.082226
 30
0.0
 10
19.789948
 20
435.139059
 30
0.0
  0
SPLINE
  5
223
100
AcDbEntity
  8
Image
 62
7
100
AcDbSpline
 70
8
 71
3
 72
8
 73
4
 74
0
 40
0
 40
0
 40
0
 40
0
 40
1
 40
1
 40
1
 40
1
 10
19.789948
 20
435.139059
 30
0.0
 10
19.322116
 20
435.371022
 30
0.0
 10
18.241254
 20
435.659142
 30
0.0
 10
17.326100
 20
435.795834
 30
0.0
  0
SPLINE
  5
224
100
AcDbEntity
  8
Image
 62
7
100
AcDbSpline
 70
8
 71
3
 72
8
 73
4
 74
0
 40
0
 40
0
 40
0
 40
0
 40
1
 40
1
 40
1
 40
1
 10
17.326100
 20
435.795834
 30
0.0
 10
16.582670
 20
435.906876
 30
0.0
 10
16.308208
 20
435.921205
 30
0.0
 10
16.114890
 20
435.859064
 30
0.0
  0
SPLINE
  5
225
100
AcDbEntity
  8
Image
 62
7
100
AcDbSpline
 70
8
 71
3
 72
8
 73
4
 74
0
 40
0
 40
0
 40
0
 40
0
 40
1
 40
1
 40
1
 40
1
 10
16.114890
 20
435.859064
 30
0.0
 10
16.008157
 20
435.824754
 30
0.0
 10
15.545464
 20
435.554264
 30
0.0
 10
15.544681
 20
435.525717
 30
0.0
  0
SPLINE
  5
226
100
AcDbEntity
  8
Image
 62
7
100
AcDbSpline
 70
8
 71
3
 72
8
 73
4
 74
0
 40
0
 40
0
 40
0
 40
0
 40
1
 40
1
 40
1
 40
1
 10
15.544681
 20
435.525717
 30
0.0
 10
15.544489
 20
435.518817
 30
0.0
 10
15.712103
 20
435.487057
 30
0.0
 10
15.917151
 20
435.455187
 30
0.0
  0
SPLINE
  5
227
100
AcDbEntity
  8
Image
 62
7
100
AcDbSpline
 70
8
 71
3
 72
8
 73
4
 74
0
 40
0
 40
0
 40
0
 40
0
 40
1
 40
1
 40
1
 40
1
 10
15.917151
 20
435.455187
 30
0.0
 10
17.470010
 20
435.213867
 30
0.0
 10
19.149627
 20
434.786268
 30
0.0
 10
19.234841
 20
434.610565
 30
0.0
  0
SPLINE
  5
228
100
AcDbEntity
  8
Image
 62
7
100
AcDbSpline
 70
8
 71
3
 72
8
 73
4
 74
0
 40
0
 40
0
 40
0
 40
0
 40
1
 40
1
 40
1
 40
1
 10
19.234841
 20
434.610565
 30
0.0
 10
19.240441
 20
434.599055
 30
0.0
 10
19.286031
 20
434.625915
 30
0.0
 10
19.336205
 20
434.670255
 30
0.0
  0
SPLINE
  5
229
100
AcDbEntity
  8
Image
 62
7
100
AcDbSpline
 70
8
 71
3
 72
8
 73
4
 74
0
 40
0
 40
0
 40
0
 40
0
 40
1
 40
1
 40
1
 40
1
 10
19.336205
 20
434.670255
 30
0.0
 10
19.386375
 20
434.714595
 30
0.0
 10
19.451090
 20
434.765905
 30
0.0
 10
19.480019
 20
434.784281
 30
0.0
  0
LWPOLYLINE
  5
22a
100
AcDbEntity
  8
Image
 62
7
100
AcDbPolyline
 90
1
 70
1
 10
19.422616
 20
433.736679
 30
0.0
  0
SPLINE
  5
22b
100
AcDbEntity
  8
Image
 62
7
100
AcDbSpline
 70
8
 71
3
 72
8
 73
4
 74
0
 40
0
 40
0
 40
0
 40
0
 40
1
 40
1
 40
1
 40
1
 10
16.183428
 20
429.309292
 30
0.0
 10
16.183428
 20
429.324312
 30
0.0
 10
16.196958
 20
429.330002
 30
0.0
 10
16.213488
 20
429.321912
 30
0.0
  0
SPLINE
  5
22c
100
AcDbEntity
  8
Image
 62
7
100
AcDbSpline
 70
8
 71
3
 72
8
 73
4
 74
0
 40
0
 40
0
 40
0
 40
0
 40
1
 40
1
 40
1
 40
1
 10
16.213488
 20
429.321912
 30
0.0
 10
16.230728
 20
429.313512
 30
0.0
 10
16.238498
 20
429.317612
 30
0.0
 10
16.231718
 20
429.331612
 30
0.0
  0
SPLINE
  5
22d
100
AcDbEntity
  8
Image
 62
7
100
AcDbSpline
 70
8
 71
3
 72
8
 73
4
 74
0
 40
0
 40
0
 40
0
 40
0
 40
1
 40
1
 40
1
 40
1
 10
16.231718
 20
429.331612
 30
0.0
 10
16.225218
 20
429.345032
 30
0.0
 10
16.233918
 20
429.356012
 30
0.0
 10
16.251218
 20
429.356012
 30
0.0
  0
SPLINE
  5
22e
100
AcDbEntity
  8
Image
 62
7
100
AcDbSpline
 70
8
 71
3
 72
8
 73
4
 74
0
 40
0
 40
0
 40
0
 40
0
 40
1
 40
1
 40
1
 40
1
 10
16.251218
 20
429.356012
 30
0.0
 10
16.269978
 20
429.356012
 30
0.0
 10
16.277008
 20
429.367452
 30
0.0
 10
16.268738
 20
429.384502
 30
0.0
  0
SPLINE
  5
22f
100
AcDbEntity
  8
Image
 62
7
100
AcDbSpline
 70
8
 71
3
 72
8
 73
4
 74
0
 40
0
 40
0
 40
0
 40
0
 40
1
 40
1
 40
1
 40
1
 10
16.268738
 20
429.384502
 30
0.0
 10
16.260138
 20
429.402162
 30
0.0
 10
16.263438
 20
429.406302
 30
0.0
 10
16.277238
 20
429.395392
 30
0.0
  0
SPLINE
  5
230
100
AcDbEntity
  8
Image
 62
7
100
AcDbSpline
 70
8
 71
3
 72
8
 73
4
 74
0
 40
0
 40
0
 40
0
 40
0
 40
1
 40
1
 40
1
 40
1
 10
16.277238
 20
429.395392
 30
0.0
 10
16.306268
 20
429.372532
 30
0.0
 10
16.305468
 20
429.392492
 30
0.0
 10
16.274038
 20
429.474472
 30
0.0
  0
SPLINE
  5
231
100
AcDbEntity
  8
Image
 62
7
100
AcDbSpline
 70
8
 71
3
 72
8
 73
4
 74
0
 40
0
 40
0
 40
0
 40
0
 40
1
 40
1
 40
1
 40
1
 10
16.274038
 20
429.474472
 30
0.0
 10
16.243568
 20
429.554082
 30
0.0
 10
16.245448
 20
429.685216
 30
0.0
 10
16.277738
 20
429.734843
 30
0.0
  0
SPLINE
  5
232
100
AcDbEntity
  8
Image
 62
7
100
AcDbSpline
 70
8
 71
3
 72
8
 73
4
 74
0
 40
0
 40
0
 40
0
 40
0
 40
1
 40
1
 40
1
 40
1
 10
16.277738
 20
429.734843
 30
0.0
 10
16.320758
 20
429.800903
 30
0.0
 10
16.317388
 20
429.869159
 30
0.0
 10
16.267718
 20
429.937449
 30
0.0
  0
SPLINE
  5
233
100
AcDbEntity
  8
Image
 62
7
100
AcDbSpline
 70
8
 71
3
 72
8
 73
4
 74
0
 40
0
 40
0
 40
0
 40
0
 40
1
 40
1
 40
1
 40
1
 10
16.267718
 20
429.937449
 30
0.0
 10
16.233278
 20
429.984799
 30
0.0
 10
16.225278
 20
430.011679
 30
0.0
 10
16.240038
 20
430.030479
 30
0.0
  0
SPLINE
  5
234
100
AcDbEntity
  8
Image
 62
7
100
AcDbSpline
 70
8
 71
3
 72
8
 73
4
 74
0
 40
0
 40
0
 40
0
 40
0
 40
1
 40
1
 40
1
 40
1
 10
16.240038
 20
430.030479
 30
0.0
 10
16.269078
 20
430.067479
 30
0.0
 10
16.265908
 20
430.158987
 30
0.0
 10
16.234438
 20
430.192263
 30
0.0
  0
SPLINE
  5
235
100
AcDbEntity
  8
Image
 62
7
100
AcDbSpline
 70
8
 71
3
 72
8
 73
4
 74
0
 40
0
 40
0
 40
0
 40
0
 40
1
 40
1
 40
1
 40
1
 10
16.234438
 20
430.192263
 30
0.0
 10
16.192388
 20
430.236743
 30
0.0
 10
16.236338
 20
430.439378
 30
0.0
 10
16.280538
 20
430.404601
 30
0.0
  0
SPLINE
  5
236
100
AcDbEntity
  8
Image
 62
7
100
AcDbSpline
 70
8
 71
3
 72
8
 73
4
 74
0
 40
0
 40
0
 40
0
 40
0
 40
1
 40
1
 40
1
 40
1
 10
16.280538
 20
430.404601
 30
0.0
 10
16.300818
 20
430.388631
 30
0.0
 10
16.280057
 20
430.494651
 30
0.0
 10
16.254928
 20
430.535522
 30
0.0
  0
SPLINE
  5
237
100
AcDbEntity
  8
Image
 62
7
100
AcDbSpline
 70
8
 71
3
 72
8
 73
4
 74
0
 40
0
 40
0
 40
0
 40
0
 40
1
 40
1
 40
1
 40
1
 10
16.254928
 20
430.535522
 30
0.0
 10
16.241478
 20
430.557372
 30
0.0
 10
16.242358
 20
430.576412
 30
0.0
 10
16.257728
 20
430.595982
 30
0.0
  0
SPLINE
  5
238
100
AcDbEntity
  8
Image
 62
7
100
AcDbSpline
 70
8
 71
3
 72
8
 73
4
 74
0
 40
0
 40
0
 40
0
 40
0
 40
1
 40
1
 40
1
 40
1
 10
16.257728
 20
430.595982
 30
0.0
 10
16.270058
 20
430.611692
 30
0.0
 10
16.280148
 20
430.655442
 30
0.0
 10
16.280148
 20
430.693182
 30
0.0
  0
SPLINE
  5
239
100
AcDbEntity
  8
Image
 62
7
100
AcDbSpline
 70
8
 71
3
 72
8
 73
4
 74
0
 40
0
 40
0
 40
0
 40
0
 40
1
 40
1
 40
1
 40
1
 10
16.280148
 20
430.693182
 30
0.0
 10
16.280148
 20
430.745812
 30
0.0
 10
16.268858
 20
430.765432
 30
0.0
 10
16.231728
 20
430.777302
 30
0.0
  0
SPLINE
  5
23a
100
AcDbEntity
  8
Image
 62
7
100
AcDbSpline
 70
8
 71
3
 72
8
 73
4
 74
0
 40
0
 40
0
 40
0
 40
0
 40
1
 40
1
 40
1
 40
1
 10
16.231728
 20
430.777302
 30
0.0
 10
16.169358
 20
430.797252
 30
0.0
 10
16.169028
 20
430.836792
 30
0.0
 10
16.231247
 20
430.836792
 30
0.0
  0
SPLINE
  5
23b
100
AcDbEntity
  8
Image
 62
7
100
AcDbSpline
 70
8
 71
3
 72
8
 73
4
 74
0
 40
0
 40
0
 40
0
 40
0
 40
1
 40
1
 40
1
 40
1
 10
16.231247
 20
430.836792
 30
0.0
 10
16.320167
 20
430.836792
 30
0.0
 10
16.356637
 20
430.648045
 30
0.0
 10
16.282747
 20
430.570269
 30
0.0
  0
SPLINE
  5
23c
100
AcDbEntity
  8
Image
 62
7
100
AcDbSpline
 70
8
 71
3
 72
8
 73
4
 74
0
 40
0
 40
0
 40
0
 40
0
 40
1
 40
1
 40
1
 40
1
 10
16.282747
 20
430.570269
 30
0.0
 10
16.265347
 20
430.551959
 30
0.0
 10
16.261577
 20
430.543659
 30
0.0
 10
16.274347
 20
430.551839
 30
0.0
  0
SPLINE
  5
23d
100
AcDbEntity
  8
Image
 62
7
100
AcDbSpline
 70
8
 71
3
 72
8
 73
4
 74
0
 40
0
 40
0
 40
0
 40
0
 40
1
 40
1
 40
1
 40
1
 10
16.274347
 20
430.551839
 30
0.0
 10
16.287127
 20
430.560039
 30
0.0
 10
16.306637
 20
430.545139
 30
0.0
 10
16.317717
 20
430.518759
 30
0.0
  0
SPLINE
  5
23e
100
AcDbEntity
  8
Image
 62
7
100
AcDbSpline
 70
8
 71
3
 72
8
 73
4
 74
0
 40
0
 40
0
 40
0
 40
0
 40
1
 40
1
 40
1
 40
1
 10
16.317717
 20
430.518759
 30
0.0
 10
16.332947
 20
430.482489
 30
0.0
 10
16.328577
 20
430.444769
 30
0.0
 10
16.299747
 20
430.363819
 30
0.0
  0
SPLINE
  5
23f
100
AcDbEntity
  8
Image
 62
7
100
AcDbSpline
 70
8
 71
3
 72
8
 73
4
 74
0
 40
0
 40
0
 40
0
 40
0
 40
1
 40
1
 40
1
 40
1
 10
16.299747
 20
430.363819
 30
0.0
 10
16.258657
 20
430.248426
 30
0.0
 10
16.248887
 20
430.158150
 30
0.0
 10
16.280157
 20
430.182779
 30
0.0
  0
SPLINE
  5
240
100
AcDbEntity
  8
Image
 62
7
100
AcDbSpline
 70
8
 71
3
 72
8
 73
4
 74
0
 40
0
 40
0
 40
0
 40
0
 40
1
 40
1
 40
1
 40
1
 10
16.280157
 20
430.182779
 30
0.0
 10
16.291897
 20
430.191979
 30
0.0
 10
16.299767
 20
430.156129
 30
0.0
 10
16.300137
 20
430.091689
 30
0.0
  0
SPLINE
  5
241
100
AcDbEntity
  8
Image
 62
7
100
AcDbSpline
 70
8
 71
3
 72
8
 73
4
 74
0
 40
0
 40
0
 40
0
 40
0
 40
1
 40
1
 40
1
 40
1
 10
16.300137
 20
430.091689
 30
0.0
 10
16.300426
 20
430.033199
 30
0.0
 10
16.313547
 20
429.963786
 30
0.0
 10
16.329187
 20
429.937437
 30
0.0
  0
SPLINE
  5
242
100
AcDbEntity
  8
Image
 62
7
100
AcDbSpline
 70
8
 71
3
 72
8
 73
4
 74
0
 40
0
 40
0
 40
0
 40
0
 40
1
 40
1
 40
1
 40
1
 10
16.329187
 20
429.937437
 30
0.0
 10
16.366347
 20
429.874827
 30
0.0
 10
16.365267
 20
429.788696
 30
0.0
 10
16.326387
 20
429.713044
 30
0.0
  0
SPLINE
  5
243
100
AcDbEntity
  8
Image
 62
7
100
AcDbSpline
 70
8
 71
3
 72
8
 73
4
 74
0
 40
0
 40
0
 40
0
 40
0
 40
1
 40
1
 40
1
 40
1
 10
16.326387
 20
429.713044
 30
0.0
 10
16.304827
 20
429.671114
 30
0.0
 10
16.299157
 20
429.627364
 30
0.0
 10
16.308117
 20
429.572003
 30
0.0
  0
SPLINE
  5
244
100
AcDbEntity
  8
Image
 62
7
100
AcDbSpline
 70
8
 71
3
 72
8
 73
4
 74
0
 40
0
 40
0
 40
0
 40
0
 40
1
 40
1
 40
1
 40
1
 10
16.308117
 20
429.572003
 30
0.0
 10
16.329457
 20
429.440014
 30
0.0
 10
16.324717
 20
429.380405
 30
0.0
 10
16.288837
 20
429.329887
 30
0.0
  0
SPLINE
  5
245
100
AcDbEntity
  8
Image
 62
7
100
AcDbSpline
 70
8
 71
3
 72
8
 73
4
 74
0
 40
0
 40
0
 40
0
 40
0
 40
1
 40
1
 40
1
 40
1
 10
16.288837
 20
429.329887
 30
0.0
 10
16.252107
 20
429.278167
 30
0.0
 10
16.183343
 20
429.264737
 30
0.0
 10
16.183343
 20
429.309287
 30
0.0
  0
LWPOLYLINE
  5
246
100
AcDbEntity
  8
Image
 62
7
100
AcDbPolyline
 90
1
 70
1
 10
19.480019
 20
434.784281
 30
0.0
  0
SPLINE
  5
247
100
AcDbEntity
  8
Image
 62
7
100
AcDbSpline
 70
8
 71
3
 72
8
 73
4
 74
0
 40
0
 40
0
 40
0
 40
0
 40
1
 40
1
 40
1
 40
1
 10
15.185698
 20
429.480089
 30
0.0
 10
15.169458
 20
429.513569
 30
0.0
 10
15.242048
 20
429.666263
 30
0.0
 10
15.270438
 20
429.658339
 30
0.0
  0
SPLINE
  5
248
100
AcDbEntity
  8
Image
 62
7
100
AcDbSpline
 70
8
 71
3
 72
8
 73
4
 74
0
 40
0
 40
0
 40
0
 40
0
 40
1
 40
1
 40
1
 40
1
 10
15.270438
 20
429.658339
 30
0.0
 10
15.282598
 20
429.654939
 30
0.0
 10
15.292538
 20
429.663239
 30
0.0
 10
15.292538
 20
429.676849
 30
0.0
  0
SPLINE
  5
249
100
AcDbEntity
  8
Image
 62
7
100
AcDbSpline
 70
8
 71
3
 72
8
 73
4
 74
0
 40
0
 40
0
 40
0
 40
0
 40
1
 40
1
 40
1
 40
1
 10
15.292538
 20
429.676849
 30
0.0
 10
15.292538
 20
429.690419
 30
0.0
 10
15.309968
 20
429.701529
 30
0.0
 10
15.331278
 20
429.701529
 30
0.0
  0
SPLINE
  5
24a
100
AcDbEntity
  8
Image
 62
7
100
AcDbSpline
 70
8
 71
3
 72
8
 73
4
 74
0
 40
0
 40
0
 40
0
 40
0
 40
1
 40
1
 40
1
 40
1
 10
15.331278
 20
429.701529
 30
0.0
 10
15.386668
 20
429.701529
 30
0.0
 10
15.379158
 20
429.660449
 30
0.0
 10
15.320318
 20
429.641629
 30
0.0
  0
SPLINE
  5
24b
100
AcDbEntity
  8
Image
 62
7
100
AcDbSpline
 70
8
 71
3
 72
8
 73
4
 74
0
 40
0
 40
0
 40
0
 40
0
 40
1
 40
1
 40
1
 40
1
 10
15.320318
 20
429.641629
 30
0.0
 10
15.287868
 20
429.631249
 30
0.0
 10
15.260888
 20
429.596059
 30
0.0
 10
15.242588
 20
429.540234
 30
0.0
  0
SPLINE
  5
24c
100
AcDbEntity
  8
Image
 62
7
100
AcDbSpline
 70
8
 71
3
 72
8
 73
4
 74
0
 40
0
 40
0
 40
0
 40
0
 40
1
 40
1
 40
1
 40
1
 10
15.242588
 20
429.540234
 30
0.0
 10
15.212548
 20
429.448614
 30
0.0
 10
15.204888
 20
429.440514
 30
0.0
 10
15.185698
 20
429.480094
 30
0.0
  0
LWPOLYLINE
  5
24d
100
AcDbEntity
  8
Image
 62
7
100
AcDbPolyline
 90
1
 70
1
 10
16.183343
 20
429.309287
 30
0.0
  0
SPLINE
  5
24e
100
AcDbEntity
  8
Image
 62
7
100
AcDbSpline
 70
8
 71
3
 72
8
 73
4
 74
0
 40
0
 40
0
 40
0
 40
0
 40
1
 40
1
 40
1
 40
1
 10
12.410723
 20
429.644077
 30
0.0
 10
12.367763
 20
429.671057
 30
0.0
 10
12.353203
 20
429.692377
 30
0.0
 10
12.366323
 20
429.709107
 30
0.0
  0
SPLINE
  5
24f
100
AcDbEntity
  8
Image
 62
7
100
AcDbSpline
 70
8
 71
3
 72
8
 73
4
 74
0
 40
0
 40
0
 40
0
 40
0
 40
1
 40
1
 40
1
 40
1
 10
12.366323
 20
429.709107
 30
0.0
 10
12.379443
 20
429.725827
 30
0.0
 10
12.394053
 20
429.725397
 30
0.0
 10
12.410883
 20
429.707807
 30
0.0
  0
SPLINE
  5
250
100
AcDbEntity
  8
Image
 62
7
100
AcDbSpline
 70
8
 71
3
 72
8
 73
4
 74
0
 40
0
 40
0
 40
0
 40
0
 40
1
 40
1
 40
1
 40
1
 10
12.410883
 20
429.707807
 30
0.0
 10
12.424643
 20
429.693397
 30
0.0
 10
12.457013
 20
429.677757
 30
0.0
 10
12.482813
 20
429.673067
 30
0.0
  0
SPLINE
  5
251
100
AcDbEntity
  8
Image
 62
7
100
AcDbSpline
 70
8
 71
3
 72
8
 73
4
 74
0
 40
0
 40
0
 40
0
 40
0
 40
1
 40
1
 40
1
 40
1
 10
12.482813
 20
429.673067
 30
0.0
 10
12.538253
 20
429.662977
 30
0.0
 10
12.561963
 20
429.602577
 30
0.0
 10
12.510153
 20
429.603397
 30
0.0
  0
SPLINE
  5
252
100
AcDbEntity
  8
Image
 62
7
100
AcDbSpline
 70
8
 71
3
 72
8
 73
4
 74
0
 40
0
 40
0
 40
0
 40
0
 40
1
 40
1
 40
1
 40
1
 10
12.510153
 20
429.603397
 30
0.0
 10
12.490623
 20
429.603703
 30
0.0
 10
12.445883
 20
429.622027
 30
0.0
 10
12.410723
 20
429.644097
 30
0.0
  0
LWPOLYLINE
  5
253
100
AcDbEntity
  8
Image
 62
7
100
AcDbPolyline
 90
1
 70
1
 10
15.185698
 20
429.480094
 30
0.0
  0
SPLINE
  5
254
100
AcDbEntity
  8
Image
 62
7
100
AcDbSpline
 70
8
 71
3
 72
8
 73
4
 74
0
 40
0
 40
0
 40
0
 40
0
 40
1
 40
1
 40
1
 40
1
 10
16.866115
 20
429.874015
 30
0.0
 10
16.831495
 20
429.900905
 30
0.0
 10
16.803175
 20
429.933275
 30
0.0
 10
16.803175
 20
429.945945
 30
0.0
  0
SPLINE
  5
255
100
AcDbEntity
  8
Image
 62
7
100
AcDbSpline
 70
8
 71
3
 72
8
 73
4
 74
0
 40
0
 40
0
 40
0
 40
0
 40
1
 40
1
 40
1
 40
1
 10
16.803175
 20
429.945945
 30
0.0
 10
16.803175
 20
429.958605
 30
0.0
 10
16.797875
 20
429.986535
 30
0.0
 10
16.791415
 20
430.008005
 30
0.0
  0
SPLINE
  5
256
100
AcDbEntity
  8
Image
 62
7
100
AcDbSpline
 70
8
 71
3
 72
8
 73
4
 74
0
 40
0
 40
0
 40
0
 40
0
 40
1
 40
1
 40
1
 40
1
 10
16.791415
 20
430.008005
 30
0.0
 10
16.783915
 20
430.032845
 30
0.0
 10
16.790115
 20
430.047045
 30
0.0
 10
16.808525
 20
430.047045
 30
0.0
  0
SPLINE
  5
257
100
AcDbEntity
  8
Image
 62
7
100
AcDbSpline
 70
8
 71
3
 72
8
 73
4
 74
0
 40
0
 40
0
 40
0
 40
0
 40
1
 40
1
 40
1
 40
1
 10
16.808525
 20
430.047045
 30
0.0
 10
16.824405
 20
430.047045
 30
0.0
 10
16.841835
 20
430.025395
 30
0.0
 10
16.847265
 20
429.998925
 30
0.0
  0
SPLINE
  5
258
100
AcDbEntity
  8
Image
 62
7
100
AcDbSpline
 70
8
 71
3
 72
8
 73
4
 74
0
 40
0
 40
0
 40
0
 40
0
 40
1
 40
1
 40
1
 40
1
 10
16.847265
 20
429.998925
 30
0.0
 10
16.852665
 20
429.972455
 30
0.0
 10
16.884185
 20
429.929845
 30
0.0
 10
16.917235
 20
429.904225
 30
0.0
  0
SPLINE
  5
259
100
AcDbEntity
  8
Image
 62
7
100
AcDbSpline
 70
8
 71
3
 72
8
 73
4
 74
0
 40
0
 40
0
 40
0
 40
0
 40
1
 40
1
 40
1
 40
1
 10
16.917235
 20
429.904225
 30
0.0
 10
16.950285
 20
429.878615
 30
0.0
 10
16.971555
 20
429.850285
 30
0.0
 10
16.964495
 20
429.841285
 30
0.0
  0
SPLINE
  5
25a
100
AcDbEntity
  8
Image
 62
7
100
AcDbSpline
 70
8
 71
3
 72
8
 73
4
 74
0
 40
0
 40
0
 40
0
 40
0
 40
1
 40
1
 40
1
 40
1
 10
16.964495
 20
429.841285
 30
0.0
 10
16.945425
 20
429.816985
 30
0.0
 10
16.935065
 20
429.820435
 30
0.0
 10
16.866115
 20
429.874005
 30
0.0
  0
LWPOLYLINE
  5
25b
100
AcDbEntity
  8
Image
 62
7
100
AcDbPolyline
 90
1
 70
1
 10
12.410723
 20
429.644097
 30
0.0
  0
SPLINE
  5
25c
100
AcDbEntity
  8
Image
 62
7
100
AcDbSpline
 70
8
 71
3
 72
8
 73
4
 74
0
 40
0
 40
0
 40
0
 40
0
 40
1
 40
1
 40
1
 40
1
 10
13.530148
 20
429.871615
 30
0.0
 10
13.530148
 20
429.883715
 30
0.0
 10
13.551068
 20
429.900305
 30
0.0
 10
13.576628
 20
429.908485
 30
0.0
  0
SPLINE
  5
25d
100
AcDbEntity
  8
Image
 62
7
100
AcDbSpline
 70
8
 71
3
 72
8
 73
4
 74
0
 40
0
 40
0
 40
0
 40
0
 40
1
 40
1
 40
1
 40
1
 10
13.576628
 20
429.908485
 30
0.0
 10
13.605468
 20
429.917685
 30
0.0
 10
13.632478
 20
429.953835
 30
0.0
 10
13.647808
 20
430.003705
 30
0.0
  0
LWPOLYLINE
  5
25e
100
AcDbEntity
  8
Image
 62
7
100
AcDbPolyline
 90
1
 70
1
 10
16.866115
 20
429.874005
 30
0.0
  0
SPLINE
  5
25f
100
AcDbEntity
  8
Image
 62
7
100
AcDbSpline
 70
8
 71
3
 72
8
 73
4
 74
0
 40
0
 40
0
 40
0
 40
0
 40
1
 40
1
 40
1
 40
1
 10
13.680198
 20
430.014705
 30
0.0
 10
13.688198
 20
429.942235
 30
0.0
 10
13.654388
 20
429.865050
 30
0.0
 10
13.624798
 20
429.888357
 30
0.0
  0
SPLINE
  5
260
100
AcDbEntity
  8
Image
 62
7
100
AcDbSpline
 70
8
 71
3
 72
8
 73
4
 74
0
 40
0
 40
0
 40
0
 40
0
 40
1
 40
1
 40
1
 40
1
 10
13.624798
 20
429.888357
 30
0.0
 10
13.615398
 20
429.895757
 30
0.0
 10
13.607628
 20
429.890157
 30
0.0
 10
13.607628
 20
429.875747
 30
0.0
  0
SPLINE
  5
261
100
AcDbEntity
  8
Image
 62
7
100
AcDbSpline
 70
8
 71
3
 72
8
 73
4
 74
0
 40
0
 40
0
 40
0
 40
0
 40
1
 40
1
 40
1
 40
1
 10
13.607628
 20
429.875747
 30
0.0
 10
13.607628
 20
429.861367
 30
0.0
 10
13.590198
 20
429.849617
 30
0.0
 10
13.568898
 20
429.849617
 30
0.0
  0
SPLINE
  5
262
100
AcDbEntity
  8
Image
 62
7
100
AcDbSpline
 70
8
 71
3
 72
8
 73
4
 74
0
 40
0
 40
0
 40
0
 40
0
 40
1
 40
1
 40
1
 40
1
 10
13.568898
 20
429.849617
 30
0.0
 10
13.547598
 20
429.849617
 30
0.0
 10
13.530158
 20
429.859517
 30
0.0
 10
13.530158
 20
429.871617
 30
0.0
  0
LWPOLYLINE
  5
263
100
AcDbEntity
  8
Image
 62
7
100
AcDbPolyline
 90
3
 70
0
 10
13.647808
 20
430.003705
 30
0.0
 10
13.672498
 20
430.084065
 30
0.0
 10
13.680198
 20
430.014705
 30
0.0
  0
SPLINE
  5
264
100
AcDbEntity
  8
Image
 62
7
100
AcDbSpline
 70
8
 71
3
 72
8
 73
4
 74
0
 40
0
 40
0
 40
0
 40
0
 40
1
 40
1
 40
1
 40
1
 10
14.362929
 20
430.665270
 30
0.0
 10
14.362929
 20
430.732970
 30
0.0
 10
14.416169
 20
430.860574
 30
0.0
 10
14.467007
 20
430.914719
 30
0.0
  0
SPLINE
  5
265
100
AcDbEntity
  8
Image
 62
7
100
AcDbSpline
 70
8
 71
3
 72
8
 73
4
 74
0
 40
0
 40
0
 40
0
 40
0
 40
1
 40
1
 40
1
 40
1
 10
14.467007
 20
430.914719
 30
0.0
 10
14.522917
 20
430.974269
 30
0.0
 10
14.630605
 20
430.999689
 30
0.0
 10
14.659723
 20
430.960199
 30
0.0
  0
SPLINE
  5
266
100
AcDbEntity
  8
Image
 62
7
100
AcDbSpline
 70
8
 71
3
 72
8
 73
4
 74
0
 40
0
 40
0
 40
0
 40
0
 40
1
 40
1
 40
1
 40
1
 10
14.659723
 20
430.960199
 30
0.0
 10
14.677693
 20
430.935829
 30
0.0
 10
14.671283
 20
430.931859
 30
0.0
 10
14.629223
 20
430.941349
 30
0.0
  0
SPLINE
  5
267
100
AcDbEntity
  8
Image
 62
7
100
AcDbSpline
 70
8
 71
3
 72
8
 73
4
 74
0
 40
0
 40
0
 40
0
 40
0
 40
1
 40
1
 40
1
 40
1
 10
14.629223
 20
430.941349
 30
0.0
 10
14.599933
 20
430.947949
 30
0.0
 10
14.575963
 20
430.943849
 30
0.0
 10
14.575963
 20
430.932149
 30
0.0
  0
SPLINE
  5
268
100
AcDbEntity
  8
Image
 62
7
100
AcDbSpline
 70
8
 71
3
 72
8
 73
4
 74
0
 40
0
 40
0
 40
0
 40
0
 40
1
 40
1
 40
1
 40
1
 10
14.575963
 20
430.932149
 30
0.0
 10
14.575963
 20
430.920459
 30
0.0
 10
14.564523
 20
430.910889
 30
0.0
 10
14.550533
 20
430.910889
 30
0.0
  0
SPLINE
  5
269
100
AcDbEntity
  8
Image
 62
7
100
AcDbSpline
 70
8
 71
3
 72
8
 73
4
 74
0
 40
0
 40
0
 40
0
 40
0
 40
1
 40
1
 40
1
 40
1
 10
14.550533
 20
430.910889
 30
0.0
 10
14.508563
 20
430.910889
 30
0.0
 10
14.422583
 20
430.778908
 30
0.0
 10
14.409264
 20
430.694047
 30
0.0
  0
SPLINE
  5
26a
100
AcDbEntity
  8
Image
 62
7
100
AcDbSpline
 70
8
 71
3
 72
8
 73
4
 74
0
 40
0
 40
0
 40
0
 40
0
 40
1
 40
1
 40
1
 40
1
 10
14.409264
 20
430.694047
 30
0.0
 10
14.395464
 20
430.606147
 30
0.0
 10
14.362924
 20
430.585966
 30
0.0
 10
14.362924
 20
430.665317
 30
0.0
  0
LWPOLYLINE
  5
26b
100
AcDbEntity
  8
Image
 62
7
100
AcDbPolyline
 90
1
 70
1
 10
13.530158
 20
429.871617
 30
0.0
  0
SPLINE
  5
26c
100
AcDbEntity
  8
Image
 62
7
100
AcDbSpline
 70
8
 71
3
 72
8
 73
4
 74
0
 40
0
 40
0
 40
0
 40
0
 40
1
 40
1
 40
1
 40
1
 10
17.179076
 20
430.747350
 30
0.0
 10
17.165656
 20
430.791920
 30
0.0
 10
17.216616
 20
430.859241
 30
0.0
 10
17.264876
 20
430.860701
 30
0.0
  0
SPLINE
  5
26d
100
AcDbEntity
  8
Image
 62
7
100
AcDbSpline
 70
8
 71
3
 72
8
 73
4
 74
0
 40
0
 40
0
 40
0
 40
0
 40
1
 40
1
 40
1
 40
1
 10
17.264876
 20
430.860701
 30
0.0
 10
17.279146
 20
430.861130
 30
0.0
 10
17.305626
 20
430.884781
 30
0.0
 10
17.323716
 20
430.913251
 30
0.0
  0
SPLINE
  5
26e
100
AcDbEntity
  8
Image
 62
7
100
AcDbSpline
 70
8
 71
3
 72
8
 73
4
 74
0
 40
0
 40
0
 40
0
 40
0
 40
1
 40
1
 40
1
 40
1
 10
17.323716
 20
430.913251
 30
0.0
 10
17.345346
 20
430.947291
 30
0.0
 10
17.372936
 20
430.961831
 30
0.0
 10
17.404286
 20
430.955731
 30
0.0
  0
SPLINE
  5
26f
100
AcDbEntity
  8
Image
 62
7
100
AcDbSpline
 70
8
 71
3
 72
8
 73
4
 74
0
 40
0
 40
0
 40
0
 40
0
 40
1
 40
1
 40
1
 40
1
 10
17.404286
 20
430.955731
 30
0.0
 10
17.451106
 20
430.946631
 30
0.0
 10
17.450836
 20
430.945671
 30
0.0
 10
17.389026
 20
430.903331
 30
0.0
  0
SPLINE
  5
270
100
AcDbEntity
  8
Image
 62
7
100
AcDbSpline
 70
8
 71
3
 72
8
 73
4
 74
0
 40
0
 40
0
 40
0
 40
0
 40
1
 40
1
 40
1
 40
1
 10
17.389026
 20
430.903331
 30
0.0
 10
17.350696
 20
430.877071
 30
0.0
 10
17.326086
 20
430.841161
 30
0.0
 10
17.326086
 20
430.811491
 30
0.0
  0
SPLINE
  5
271
100
AcDbEntity
  8
Image
 62
7
100
AcDbSpline
 70
8
 71
3
 72
8
 73
4
 74
0
 40
0
 40
0
 40
0
 40
0
 40
1
 40
1
 40
1
 40
1
 10
17.326086
 20
430.811491
 30
0.0
 10
17.326086
 20
430.757371
 30
0.0
 10
17.305996
 20
430.748881
 30
0.0
 10
17.274096
 20
430.789521
 30
0.0
  0
SPLINE
  5
272
100
AcDbEntity
  8
Image
 62
7
100
AcDbSpline
 70
8
 71
3
 72
8
 73
4
 74
0
 40
0
 40
0
 40
0
 40
0
 40
1
 40
1
 40
1
 40
1
 10
17.274096
 20
430.789521
 30
0.0
 10
17.259016
 20
430.808741
 30
0.0
 10
17.244476
 20
430.800601
 30
0.0
 10
17.222476
 20
430.760581
 30
0.0
  0
SPLINE
  5
273
100
AcDbEntity
  8
Image
 62
7
100
AcDbSpline
 70
8
 71
3
 72
8
 73
4
 74
0
 40
0
 40
0
 40
0
 40
0
 40
1
 40
1
 40
1
 40
1
 10
17.222476
 20
430.760581
 30
0.0
 10
17.195116
 20
430.710811
 30
0.0
 10
17.190496
 20
430.709401
 30
0.0
 10
17.179076
 20
430.747341
 30
0.0
  0
LWPOLYLINE
  5
274
100
AcDbEntity
  8
Image
 62
7
100
AcDbPolyline
 90
1
 70
1
 10
14.362924
 20
430.665317
 30
0.0
  0
SPLINE
  5
275
100
AcDbEntity
  8
Image
 62
7
100
AcDbSpline
 70
8
 71
3
 72
8
 73
4
 74
0
 40
0
 40
0
 40
0
 40
0
 40
1
 40
1
 40
1
 40
1
 10
12.846373
 20
430.778550
 30
0.0
 10
12.826503
 20
430.803880
 30
0.0
 10
12.851473
 20
430.836810
 30
0.0
 10
12.890613
 20
430.836810
 30
0.0
  0
SPLINE
  5
276
100
AcDbEntity
  8
Image
 62
7
100
AcDbSpline
 70
8
 71
3
 72
8
 73
4
 74
0
 40
0
 40
0
 40
0
 40
0
 40
1
 40
1
 40
1
 40
1
 10
12.890613
 20
430.836810
 30
0.0
 10
12.969423
 20
430.836810
 30
0.0
 10
13.046316
 20
430.920170
 30
0.0
 10
13.072733
 20
431.034249
 30
0.0
  0
SPLINE
  5
277
100
AcDbEntity
  8
Image
 62
7
100
AcDbSpline
 70
8
 71
3
 72
8
 73
4
 74
0
 40
0
 40
0
 40
0
 40
0
 40
1
 40
1
 40
1
 40
1
 10
13.072733
 20
431.034249
 30
0.0
 10
13.099433
 20
431.149564
 30
0.0
 10
13.137673
 20
431.166931
 30
0.0
 10
13.127073
 20
431.058929
 30
0.0
  0
SPLINE
  5
278
100
AcDbEntity
  8
Image
 62
7
100
AcDbSpline
 70
8
 71
3
 72
8
 73
4
 74
0
 40
0
 40
0
 40
0
 40
0
 40
1
 40
1
 40
1
 40
1
 10
13.127073
 20
431.058929
 30
0.0
 10
13.113373
 20
430.919465
 30
0.0
 10
12.971275
 20
430.751855
 30
0.0
 10
12.908587
 20
430.801227
 30
0.0
  0
SPLINE
  5
279
100
AcDbEntity
  8
Image
 62
7
100
AcDbSpline
 70
8
 71
3
 72
8
 73
4
 74
0
 40
0
 40
0
 40
0
 40
0
 40
1
 40
1
 40
1
 40
1
 10
12.908587
 20
430.801227
 30
0.0
 10
12.893587
 20
430.813037
 30
0.0
 10
12.890067
 20
430.809427
 30
0.0
 10
12.898887
 20
430.791227
 30
0.0
  0
SPLINE
  5
27a
100
AcDbEntity
  8
Image
 62
7
100
AcDbSpline
 70
8
 71
3
 72
8
 73
4
 74
0
 40
0
 40
0
 40
0
 40
0
 40
1
 40
1
 40
1
 40
1
 10
12.898887
 20
430.791227
 30
0.0
 10
12.913347
 20
430.761417
 30
0.0
 10
12.868357
 20
430.750527
 30
0.0
 10
12.846387
 20
430.778517
 30
0.0
  0
LWPOLYLINE
  5
27b
100
AcDbEntity
  8
Image
 62
7
100
AcDbPolyline
 90
1
 70
1
 10
17.179076
 20
430.747341
 30
0.0
  0
SPLINE
  5
27c
100
AcDbEntity
  8
Image
 62
7
100
AcDbSpline
 70
8
 71
3
 72
8
 73
4
 74
0
 40
0
 40
0
 40
0
 40
0
 40
1
 40
1
 40
1
 40
1
 10
16.648236
 20
430.849150
 30
0.0
 10
16.648236
 20
430.869510
 30
0.0
 10
16.657436
 20
430.886170
 30
0.0
 10
16.668746
 20
430.886170
 30
0.0
  0
SPLINE
  5
27d
100
AcDbEntity
  8
Image
 62
7
100
AcDbSpline
 70
8
 71
3
 72
8
 73
4
 74
0
 40
0
 40
0
 40
0
 40
0
 40
1
 40
1
 40
1
 40
1
 10
16.668746
 20
430.886170
 30
0.0
 10
16.680026
 20
430.886170
 30
0.0
 10
16.684476
 20
430.895970
 30
0.0
 10
16.678646
 20
430.908050
 30
0.0
  0
SPLINE
  5
27e
100
AcDbEntity
  8
Image
 62
7
100
AcDbSpline
 70
8
 71
3
 72
8
 73
4
 74
0
 40
0
 40
0
 40
0
 40
0
 40
1
 40
1
 40
1
 40
1
 10
16.678646
 20
430.908050
 30
0.0
 10
16.666956
 20
430.932160
 30
0.0
 10
16.697806
 20
430.968960
 30
0.0
 10
16.749296
 20
430.992320
 30
0.0
  0
SPLINE
  5
27f
100
AcDbEntity
  8
Image
 62
7
100
AcDbSpline
 70
8
 71
3
 72
8
 73
4
 74
0
 40
0
 40
0
 40
0
 40
0
 40
1
 40
1
 40
1
 40
1
 10
16.749296
 20
430.992320
 30
0.0
 10
16.801856
 20
431.016170
 30
0.0
 10
16.810886
 20
430.962720
 30
0.0
 10
16.758596
 20
430.937380
 30
0.0
  0
SPLINE
  5
280
100
AcDbEntity
  8
Image
 62
7
100
AcDbSpline
 70
8
 71
3
 72
8
 73
4
 74
0
 40
0
 40
0
 40
0
 40
0
 40
1
 40
1
 40
1
 40
1
 10
16.758596
 20
430.937380
 30
0.0
 10
16.732776
 20
430.924870
 30
0.0
 10
16.706926
 20
430.891580
 30
0.0
 10
16.701146
 20
430.863390
 30
0.0
  0
SPLINE
  5
281
100
AcDbEntity
  8
Image
 62
7
100
AcDbSpline
 70
8
 71
3
 72
8
 73
4
 74
0
 40
0
 40
0
 40
0
 40
0
 40
1
 40
1
 40
1
 40
1
 10
16.701146
 20
430.863390
 30
0.0
 10
16.689086
 20
430.804600
 30
0.0
 10
16.648266
 20
430.793620
 30
0.0
 10
16.648266
 20
430.849160
 30
0.0
  0
LWPOLYLINE
  5
282
100
AcDbEntity
  8
Image
 62
7
100
AcDbPolyline
 90
1
 70
1
 10
12.846387
 20
430.778517
 30
0.0
  0
LWPOLYLINE
  5
283
100
AcDbEntity
  8
Image
 62
7
100
AcDbPolyline
 90
1
 70
1
 10
16.648266
 20
430.849160
 30
0.0
  0
ENDSEC
  0
SECTION
  2
OBJECTS
  0
DICTIONARY
  5
C
330
0
100
AcDbDictionary
  3
ACAD_GROUP
350
D
  3
ACAD_MLINESTYLE
350
17
  0
DICTIONARY
  5
D
330
C
100
AcDbDictionary
  0
DICTIONARY
  5
1A
330
C
100
AcDbDictionary
  0
DICTIONARY
  5
17
330
C
100
AcDbDictionary
  3
STANDARD
350
18
  0
DICTIONARY
  5
19
330
C
100
AcDbDictionary
  0
ENDSEC
  0
EOF
